<svg width="178" height="80" viewBox="0 0 178 80" fill="none" xmlns="http://www.w3.org/2000/svg">
<path d="M28.0658 38.997H6.1086C6.10548 38.9109 6.11293 38.8248 6.13078 38.7406C6.61428 37.2552 7.11109 35.7743 7.58572 34.2868C7.61203 34.1619 7.68528 34.0518 7.79045 33.9791C7.89561 33.9063 8.02471 33.8765 8.15129 33.8955C12.2788 33.8955 16.4107 33.8314 20.5383 33.9331C23.8385 34.0171 26.2893 35.6616 27.9217 38.5151C27.9839 38.6271 28.0388 38.743 28.0858 38.8621C28.088 38.8909 28.0725 38.9329 28.0658 38.997Z" fill="white"/>
<path d="M36.0904 40.1375C35.7045 41.3133 35.3408 42.445 34.9615 43.5745C34.7818 44.1094 34.7175 44.8366 34.3338 45.1107C33.9501 45.3847 33.2404 45.2212 32.6704 45.2234C29.0774 45.2234 25.4844 45.2632 21.8914 45.2234C18.518 45.177 15.9896 43.6165 14.2751 40.732C14.2019 40.606 14.1376 40.4734 14.0755 40.3408C14.0564 40.2783 14.0445 40.2137 14.04 40.1485L36.0904 40.1375Z" fill="white"/>
<path d="M13.9885 32.7727C14.8081 30.9995 16.2005 29.5513 17.943 28.6593C19.1045 28.0436 20.3979 27.716 21.7135 27.7045C25.526 27.6868 29.3386 27.7045 33.1512 27.7045C33.288 27.7123 33.4242 27.7278 33.5593 27.7509C33.5435 27.8827 33.5191 28.0134 33.4861 28.1421C33.0248 29.5545 32.5524 30.9647 32.0955 32.3815C32.0023 32.6755 31.8848 32.839 31.5299 32.839C25.8003 32.8302 20.0715 32.8302 14.3434 32.839C14.224 32.8236 14.1055 32.8014 13.9885 32.7727Z" fill="white"/>
<path d="M28.1388 46.3485C27.4629 47.8303 26.3824 49.0928 25.0207 49.9918C23.659 50.8907 22.0711 51.3899 20.4383 51.4322C16.6058 51.4676 12.7732 51.4322 8.94068 51.4322C8.83423 51.4322 8.71889 51.4123 8.5459 51.3924C8.59691 51.1957 8.6324 51.0233 8.68784 50.8575C9.13142 49.496 9.59275 48.1388 10.0186 46.7751C10.1206 46.4523 10.2537 46.2954 10.6285 46.2976C16.3403 46.3079 22.0514 46.3079 27.7618 46.2976C27.8616 46.3087 27.9503 46.3286 28.1388 46.3485Z" fill="white"/>
<path d="M49.3437 47.7859C47.922 47.7859 46.8863 47.4572 46.2364 46.7996C45.6068 46.1222 45.4241 45.1757 45.6881 43.9602L47.7291 34.4258H44.5L44.9265 32.5429H48.1251L48.9476 28.747L51.2933 28.1792L50.349 32.5429H54.7966L54.3701 34.4258H49.9225L47.9424 43.482C47.7596 44.3388 47.8408 44.9565 48.1861 45.3351C48.5313 45.6938 49.2015 45.8731 50.1966 45.8731C50.481 45.8731 50.7551 45.8532 51.0192 45.8133C51.2832 45.7535 51.598 45.6738 51.9635 45.5742L51.5675 47.5169C51.2425 47.5967 50.877 47.6564 50.4708 47.6963C50.0849 47.7561 49.7092 47.7859 49.3437 47.7859Z" fill="white"/>
<path d="M53.797 53.9131C53.5127 53.9131 53.2284 53.8931 52.9441 53.8533C52.6597 53.8134 52.3856 53.7537 52.1215 53.674L52.548 51.7013C52.7105 51.7611 52.9136 51.8009 53.1573 51.8209C53.3807 51.8607 53.6142 51.8807 53.858 51.8807C54.5078 51.8807 55.1069 51.7013 55.6553 51.3427C56.2036 50.984 56.7215 50.436 57.2089 49.6988L58.6712 47.4871L55.7467 32.5429H58.0924L60.3771 44.9465L68.2366 32.5429H70.7042L59.4023 50.1471C58.5493 51.4821 57.6862 52.4386 56.8129 53.0164C55.9396 53.6142 54.9343 53.9131 53.797 53.9131Z" fill="white"/>
<path d="M68.2055 53.6142L72.775 32.5429H74.9683L74.7246 33.6188C76.0447 32.762 77.446 32.3336 78.9286 32.3336C80.2283 32.3336 81.3758 32.6325 82.3709 33.2303C83.3864 33.8281 84.1886 34.645 84.7775 35.6811C85.3665 36.7173 85.6609 37.8929 85.6609 39.208C85.6609 40.3836 85.4375 41.4895 84.9908 42.5256C84.5643 43.5617 83.9652 44.4783 83.1934 45.2753C82.442 46.0524 81.5586 46.6701 80.5431 47.1284C79.5277 47.5668 78.4411 47.7859 77.2835 47.7859C76.2478 47.7859 75.2831 47.5967 74.3895 47.2181C73.5162 46.8395 72.7648 46.3015 72.1352 45.6041L70.3988 53.6142H68.2055ZM77.2226 45.8133C78.4005 45.8133 79.4566 45.5244 80.3908 44.9465C81.3453 44.3687 82.0967 43.5916 82.6451 42.6153C83.2137 41.6389 83.4981 40.5629 83.4981 39.3873C83.4981 38.391 83.2848 37.5143 82.8583 36.7571C82.4318 35.98 81.8327 35.3723 81.061 34.9339C80.3096 34.4956 79.4464 34.2764 78.4716 34.2764C77.6796 34.2764 76.918 34.4159 76.1869 34.6948C75.476 34.9539 74.8363 35.3424 74.2677 35.8605L72.6226 43.3924C73.0288 44.1296 73.6482 44.7174 74.4809 45.1558C75.3136 45.5941 76.2275 45.8133 77.2226 45.8133Z" fill="white"/>
<path d="M95.3826 47.7859C93.9609 47.7859 92.6916 47.4871 91.5746 46.8893C90.4576 46.2915 89.5844 45.4646 88.9548 44.4086C88.3252 43.3326 88.0104 42.1171 88.0104 40.7622C88.0104 39.6065 88.2135 38.5205 88.6197 37.5043C89.0462 36.4682 89.625 35.5616 90.3561 34.7845C91.1075 34.0074 91.9605 33.3997 92.915 32.9613C93.8899 32.5229 94.9256 32.3038 96.0223 32.3038C97.2611 32.3038 98.368 32.6126 99.3428 33.2303C100.318 33.848 101.089 34.6849 101.658 35.7409C102.227 36.797 102.511 38.0025 102.511 39.3574C102.511 39.5567 102.501 39.7759 102.481 40.015C102.481 40.2341 102.46 40.4633 102.42 40.7024H90.2038C90.2241 41.6987 90.4678 42.5854 90.9349 43.3625C91.402 44.1396 92.0316 44.7573 92.8236 45.2155C93.6157 45.6539 94.4991 45.8731 95.4739 45.8731C96.2254 45.8731 96.9565 45.7635 97.6673 45.5443C98.3781 45.3251 99.0178 45.0262 99.5865 44.6477L100.744 46.172C99.9114 46.7299 99.0585 47.1384 98.1852 47.3974C97.3119 47.6564 96.3777 47.7859 95.3826 47.7859ZM90.417 38.939H100.409C100.348 38.0224 100.115 37.2154 99.7083 36.518C99.3022 35.8206 98.764 35.2727 98.0938 34.8742C97.4236 34.4557 96.662 34.2465 95.809 34.2465C94.9561 34.2465 94.1539 34.4557 93.4024 34.8742C92.6713 35.2727 92.0417 35.8306 91.5137 36.5479C91.006 37.2453 90.6404 38.0423 90.417 38.939Z" fill="white"/>
<path d="M111.582 47.7859C110.282 47.7859 109.114 47.497 108.078 46.9192C107.043 46.3214 106.23 45.5144 105.641 44.4982C105.052 43.4621 104.758 42.2865 104.758 40.9714C104.758 39.7958 104.981 38.6899 105.428 37.6538C105.875 36.5977 106.484 35.6712 107.256 34.8742C108.048 34.0771 108.952 33.4495 109.967 32.9912C110.983 32.5329 112.069 32.3038 113.227 32.3038C114.364 32.3038 115.461 32.5628 116.517 33.0809C117.573 33.5989 118.416 34.2864 119.045 35.1432L117.431 36.6077C116.882 35.8505 116.232 35.2826 115.481 34.904C114.75 34.5055 113.948 34.3063 113.074 34.3063C112.262 34.3063 111.48 34.4856 110.729 34.8443C109.998 35.183 109.348 35.6612 108.779 36.2789C108.21 36.8767 107.764 37.5741 107.439 38.3711C107.114 39.1482 106.951 39.9851 106.951 40.8817C106.951 41.7983 107.164 42.6352 107.591 43.3924C108.038 44.1495 108.627 44.7473 109.358 45.1857C110.109 45.624 110.942 45.8432 111.856 45.8432C112.587 45.8432 113.308 45.7037 114.019 45.4248C114.75 45.1458 115.471 44.7473 116.182 44.2292L117.248 45.7834C115.501 47.1184 113.613 47.7859 111.582 47.7859Z" fill="white"/>
<path d="M119.227 47.5169L123.766 26.5951L126.051 26.087L124.345 34.0373C125.665 32.8617 127.198 32.2739 128.945 32.2739C130.143 32.2739 131.149 32.5429 131.961 33.0809C132.794 33.6188 133.383 34.3561 133.728 35.2926C134.073 36.2291 134.114 37.2951 133.85 38.4907L131.9 47.5169H129.707L131.595 38.7597C131.9 37.3848 131.738 36.2789 131.108 35.442C130.499 34.6052 129.534 34.1867 128.214 34.1867C127.381 34.1867 126.589 34.3661 125.838 34.7247C125.107 35.0834 124.447 35.6014 123.858 36.2789L121.421 47.5169H119.227Z" fill="white"/>
<path d="M141.041 47.7262C139.477 47.7262 138.218 47.3476 137.263 46.5904C136.309 45.8332 135.832 44.817 135.832 43.5418C135.832 42.5654 136.086 41.7186 136.593 41.0013C137.101 40.264 137.822 39.6962 138.756 39.2976C139.69 38.8792 140.787 38.67 142.046 38.67C142.94 38.67 143.803 38.7895 144.636 39.0286C145.489 39.2478 146.25 39.5567 146.92 39.9552L147.316 38.1918C147.601 36.8368 147.438 35.8206 146.829 35.1432C146.24 34.4657 145.194 34.127 143.691 34.127C143.041 34.127 142.351 34.2266 141.62 34.4258C140.909 34.6052 140.076 34.8941 139.122 35.2926L138.512 33.5292C139.568 33.0908 140.553 32.772 141.467 32.5728C142.381 32.3735 143.244 32.2739 144.057 32.2739C145.438 32.2739 146.575 32.503 147.469 32.9613C148.362 33.4196 148.982 34.0871 149.327 34.9638C149.692 35.8206 149.743 36.8468 149.479 38.0423L147.438 47.5169H145.275L145.549 46.2915C144.859 46.7697 144.138 47.1284 143.387 47.3675C142.655 47.6066 141.874 47.7262 141.041 47.7262ZM141.62 46.0225C142.412 46.0225 143.163 45.903 143.874 45.6639C144.605 45.4048 145.296 45.0163 145.945 44.4982L146.555 41.6887C145.397 40.7522 143.884 40.284 142.016 40.284C140.838 40.284 139.863 40.5729 139.091 41.1507C138.319 41.7286 137.934 42.4558 137.934 43.3326C137.934 44.1694 138.259 44.827 138.908 45.3052C139.558 45.7834 140.462 46.0225 141.62 46.0225Z" fill="white"/>
<path d="M151.059 47.5169L154.288 32.5429H156.482L153.252 47.5169H151.059ZM156.146 29.6736C155.761 29.6736 155.436 29.5441 155.172 29.285C154.928 29.026 154.806 28.7072 154.806 28.3286C154.806 28.0297 154.877 27.7607 155.019 27.5216C155.182 27.2626 155.395 27.0633 155.659 26.9238C155.923 26.7644 156.197 26.6847 156.482 26.6847C156.867 26.6847 157.182 26.8143 157.426 27.0733C157.69 27.3124 157.822 27.6212 157.822 27.9998C157.822 28.2987 157.741 28.5777 157.578 28.8367C157.436 29.0758 157.233 29.2751 156.969 29.4345C156.725 29.5939 156.451 29.6736 156.146 29.6736Z" fill="white"/>
<path d="M157.098 47.5169L160.327 32.5429H162.521L162.186 34.0373C163.546 32.8617 165.09 32.2739 166.816 32.2739C168.014 32.2739 169.019 32.5429 169.832 33.0809C170.664 33.6188 171.253 34.3561 171.599 35.2926C171.944 36.2291 171.985 37.2951 171.721 38.4907L169.771 47.5169H167.578L169.466 38.7597C169.771 37.3848 169.608 36.2789 168.979 35.442C168.37 34.6052 167.405 34.1867 166.085 34.1867C165.252 34.1867 164.46 34.3661 163.709 34.7247C162.978 35.0834 162.318 35.6014 161.729 36.2789L159.292 47.5169H157.098Z" fill="white"/>
</svg>
