<svg width="204" height="91" viewBox="0 0 204 91" xmlns="http://www.w3.org/2000/svg">
<g fill="white">
<path d="M129.98 30.4183C128.934 14.9586 115.527 3.28325 100.067 4.33C92.3778 4.85338 85.6142 8.43649 80.9038 13.8313C80.8635 13.8716 80.8233 13.9118 80.8233 13.9521C76.1531 19.3469 73.496 26.5534 74.0194 34.243C74.0596 34.9677 74.1401 35.6923 74.2609 36.417C74.2609 36.4573 74.2609 36.4975 74.2609 36.4975C74.3414 36.9807 74.422 37.4235 74.5025 37.9066C74.5025 37.9066 74.5025 37.9066 74.5025 37.9469C74.583 38.3495 74.6635 38.7923 74.7843 39.1949C78.0051 52.1183 90.1233 61.2573 103.892 60.3313C119.352 59.2845 131.027 45.8781 129.98 30.4183ZM123.901 30.8612C124.022 32.7534 123.901 34.6456 123.579 36.417V36.3768C121.526 31.4248 117.54 27.8014 113.997 25.8287C114.722 17.4144 111.864 13.8716 108.602 13.2677C108.522 13.2677 108.441 13.2274 108.321 13.2274C105.744 12.9053 103.409 14.717 103.087 17.2936C102.765 19.8703 104.577 22.2053 107.153 22.5274C107.395 22.5677 107.596 22.5677 107.838 22.5677C107.838 22.8495 107.878 23.1716 107.878 23.4534C104.899 22.7287 102.08 22.5677 99.544 22.8092C98.5778 22.8897 97.6518 23.0105 96.6856 23.1716C97.0077 20.3131 98.0544 17.1326 100.148 14.7975C102.161 12.543 105.14 11.2547 108.361 11.5768C108.965 11.6573 109.649 11.7781 110.213 11.9794C110.253 11.9794 110.253 11.9794 110.293 12.0196C117.741 15.0794 123.297 22.2053 123.901 30.8612ZM104.335 35.1287C103.651 36.0949 102.845 37.0612 101.919 37.9871C100.51 36.4975 99.383 34.8871 98.5375 33.2365C98.4973 33.156 98.457 33.0755 98.4168 32.9547C97.9336 31.9079 97.4908 30.7404 97.1687 29.4521C99.1817 28.969 101.114 28.8079 102.966 28.8884C103.047 28.8884 103.167 28.8884 103.248 28.8884C104.415 28.969 105.623 29.2105 106.912 29.5326C106.308 31.5053 105.502 33.2768 104.496 34.8469C104.415 34.9677 104.375 35.0482 104.335 35.1287ZM94.7531 11.6573C94.7531 11.6573 94.7129 11.6573 94.7531 11.6573C91.4518 15.9248 90.3648 21.1988 90.4051 25.2651C82.7557 28.8482 81.1051 33.1157 82.2323 36.2157C82.2726 36.2962 82.3129 36.3768 82.3129 36.4573C83.3194 38.8326 86.057 39.9599 88.4324 38.9534C90.8077 37.9469 91.9349 35.2092 90.9285 32.8339C90.8479 32.6326 90.7272 32.4313 90.6064 32.23C90.8479 32.069 91.0895 31.9079 91.3713 31.7469C92.2168 34.7261 93.5051 37.2222 94.9544 39.3157C95.4778 40.1209 96.0817 40.8858 96.6856 41.6105C94.0687 42.7378 90.7674 43.4222 87.7077 42.8183C84.7687 42.2144 82.1518 40.282 80.8233 37.3027C80.5817 36.7391 80.3804 36.0949 80.2596 35.491C80.1791 34.9677 80.1388 34.404 80.0986 33.8807C79.4142 23.7755 85.6544 14.8378 94.7531 11.6573ZM103.489 54.2118C97.531 54.6144 91.9349 52.6014 87.7077 48.9781C93.022 49.7027 98.1349 48.0118 101.638 45.9586C108.562 50.7897 113.071 50.1053 115.205 47.569C115.245 47.4884 115.326 47.4482 115.366 47.3677C116.936 45.3144 116.534 42.3755 114.48 40.8053C112.427 39.2352 109.488 39.6378 107.918 41.691C107.797 41.8521 107.677 42.0534 107.556 42.2547C107.314 42.1339 107.032 41.9729 106.751 41.8118C108.884 39.5975 110.414 37.2222 111.501 34.9274C111.904 34.082 112.306 33.1962 112.628 32.2703C114.923 33.9612 117.178 36.4975 118.144 39.4365C119.11 42.2949 118.748 45.5157 116.815 48.1729C116.453 48.656 116.01 49.1794 115.527 49.582C115.527 49.582 115.527 49.582 115.487 49.582C112.186 52.2391 108.039 53.93 103.489 54.2118Z" />
<path d="M113.554 75.7897L111.541 81.3858L113.554 75.8299V75.7897Z" />
<path d="M77.804 75.7897L75.791 81.3858L77.804 75.7897Z" />
<path d="M78.287 77.1581L79.8169 81.3854H76.7571L75.9922 83.5191H80.5818L81.8701 87.1023H84.7688L79.4948 73.8568L78.287 77.1581Z" />
<path d="M75.7909 81.3827L77.8039 75.7866L78.6494 73.4515H76.4351L71 87.0996H73.7377L75.7909 81.3827Z" />
<path d="M93.545 80.0549C92.9008 79.6523 92.0151 79.29 90.9281 78.9679C90.3242 78.7666 89.8008 78.5653 89.4787 78.4043C89.1164 78.2432 88.8749 78.0419 88.7541 77.8004C88.6333 77.5588 88.5528 77.3173 88.5528 77.0354C88.5528 76.5121 88.7541 76.1095 89.1567 75.8277C89.5593 75.5458 90.1229 75.3848 90.8476 75.3848C91.4515 75.3848 92.0554 75.4653 92.7398 75.6666C93.3839 75.8277 93.9878 76.1095 94.471 76.3913L94.8333 74.177C94.3099 73.8549 93.706 73.6134 92.9411 73.4121C92.2164 73.2108 91.4515 73.1302 90.7268 73.1302C89.7203 73.1302 88.8749 73.2913 88.1502 73.6134C87.4255 73.9354 86.8619 74.4186 86.4593 74.9822C86.0567 75.5861 85.8554 76.2705 85.8554 77.116C85.8554 77.8004 85.9762 78.4043 86.258 78.9276C86.5398 79.451 86.9826 79.8939 87.5865 80.2562C88.1904 80.6186 88.9956 80.9809 90.0021 81.2627C90.7268 81.464 91.2904 81.6653 91.693 81.8666C92.0956 82.0679 92.3775 82.2692 92.5385 82.5108C92.6995 82.7523 92.7801 83.0341 92.7801 83.3562C92.7801 83.9199 92.5385 84.3627 92.0956 84.6848C91.6528 85.0069 91.0086 85.1679 90.1632 85.1679C89.4385 85.1679 88.7138 85.0471 87.9489 84.8458C87.1839 84.6043 86.4995 84.3225 85.9359 84.0004L85.6943 86.2952C86.0164 86.5367 86.4593 86.738 86.9424 86.8991C87.4658 87.0601 87.9891 87.1809 88.5528 87.3017C89.1164 87.3822 89.7203 87.4627 90.2839 87.4627C91.8943 87.4627 93.1826 87.1004 94.1086 86.3757C95.0346 85.651 95.4775 84.6043 95.4775 83.316C95.4775 82.6315 95.3164 82.0277 95.0346 81.5043C94.6723 80.9004 94.1891 80.4575 93.545 80.0549Z" />
<path d="M107.878 73.4515H96.3232V75.6658H107.878V73.4515Z" />
<path d="M103.449 76.5908H100.711V87.0986H103.449V76.5908Z" />
<path d="M111.541 81.3827L113.554 75.7866V75.8269L114.399 73.4515H112.185L106.75 87.0996H109.488L110.776 83.5165L111.541 81.3827Z" />
<path d="M114.038 77.1984L115.568 81.3854H112.548L111.783 83.5191H116.333L117.621 87.1023H120.52L115.246 73.8568L114.038 77.1984Z" />
<path d="M129.417 81.5437C130.061 81.1814 130.625 80.658 131.027 80.0541C131.43 79.41 131.672 78.6853 131.672 77.8398C131.672 76.9139 131.47 76.1489 131.068 75.5048C130.665 74.8606 130.061 74.3372 129.336 73.9749C128.572 73.6126 127.686 73.4515 126.639 73.4515H125.673V75.5048H126.277C128.088 75.5048 129.014 76.2697 129.014 77.8398C129.014 79.41 128.088 80.1749 126.196 80.1749H125.673V82.2282H126.8C126.881 82.2282 126.961 82.2282 127.082 82.2282L129.94 87.0996H133L129.417 81.5437Z" />
<path d="M124.746 73.4515H122.129V87.0996H124.746V73.4515Z" />
</g>
</svg>
