<svg width="195" height="89" viewBox="0 0 195 89" fill="none" xmlns="http://www.w3.org/2000/svg">
<path d="M81.0721 40.464C80.1547 40.096 79.3632 39.4655 78.7941 38.6495C78.2552 37.8357 77.9772 36.8734 77.9982 35.8939V35.3443C77.998 35.305 78.0055 35.266 78.0203 35.2296C78.0351 35.1933 78.057 35.1602 78.0845 35.1325C78.1121 35.1047 78.1448 35.0828 78.1808 35.068C78.2168 35.0532 78.2554 35.0458 78.2943 35.0462H81.1023C81.1806 35.0462 81.2557 35.0776 81.3111 35.1334C81.3666 35.1893 81.398 35.2651 81.3984 35.3443V35.7182C81.3984 36.3832 81.702 36.9445 82.309 37.4022C82.916 37.8599 83.7374 38.0887 84.7732 38.0887C85.6424 38.0887 86.2908 37.9012 86.7185 37.5263C86.9204 37.359 87.0825 37.1479 87.1927 36.9085C87.303 36.6691 87.3585 36.4077 87.3552 36.1436C87.3598 35.9572 87.3274 35.7716 87.2598 35.5981C87.1923 35.4245 87.091 35.2665 86.962 35.1332C86.6522 34.8271 86.2889 34.5818 85.8907 34.4097C85.4386 34.2024 84.7202 33.9155 83.7353 33.5492C82.7766 33.2268 81.8419 32.8353 80.9384 32.3776C80.1848 31.986 79.528 31.4275 79.017 30.7436C78.5001 30.0539 78.2417 29.202 78.2417 28.1878C78.2223 27.2559 78.4893 26.3409 79.0058 25.5692C79.5358 24.8036 80.2702 24.2067 81.123 23.8481C82.1144 23.4326 83.1799 23.2291 84.2527 23.2503C85.4019 23.2283 86.5423 23.458 87.5956 23.9239C88.5164 24.3256 89.3096 24.977 89.8879 25.8061C90.4432 26.6323 90.7313 27.6126 90.7125 28.6116V28.9807C90.7129 29.0201 90.7056 29.0593 90.6909 29.0959C90.6761 29.1324 90.6543 29.1656 90.6267 29.1936C90.5992 29.2215 90.5664 29.2435 90.5302 29.2585C90.4941 29.2734 90.4554 29.2808 90.4164 29.2804H87.5765C87.5375 29.2808 87.4988 29.2734 87.4627 29.2585C87.4266 29.2435 87.3938 29.2215 87.3662 29.1936C87.3386 29.1656 87.3168 29.1324 87.3021 29.0959C87.2874 29.0593 87.28 29.0201 87.2804 28.9807V28.7808C87.2819 28.4379 87.2061 28.0991 87.0588 27.7903C86.9115 27.4815 86.6966 27.2107 86.4304 26.9986C85.8637 26.5087 85.0879 26.2632 84.103 26.2621C83.3315 26.2621 82.7276 26.4286 82.2915 26.7617C82.0803 26.9189 81.9104 27.1261 81.7966 27.3652C81.6829 27.6042 81.6287 27.8679 81.6388 28.133C81.6278 28.519 81.7647 28.8944 82.0209 29.1805C82.3423 29.5126 82.7282 29.7738 83.1543 29.9475C83.6552 30.171 84.431 30.4745 85.4816 30.858C86.4165 31.192 87.3336 31.5749 88.2292 32.0054C88.9264 32.364 89.5397 32.8695 90.028 33.4879C90.5586 34.1454 90.824 34.9979 90.824 36.0453C90.824 37.6063 90.2578 38.8418 89.1254 39.7517C87.9931 40.6617 86.4574 41.1145 84.5185 41.1102C83.3385 41.1318 82.1662 40.912 81.0721 40.464Z" fill="#FFFFFF" fill-opacity="1"/>
<path d="M102.825 29.1071C103.63 29.9203 104.032 31.0258 104.032 32.4235V40.6033C104.032 40.6426 104.025 40.6815 104.01 40.7178C103.996 40.7541 103.974 40.787 103.946 40.8144C103.919 40.843 103.887 40.8659 103.852 40.8817C103.816 40.8975 103.778 40.9058 103.739 40.9063H100.858C100.819 40.9067 100.78 40.8993 100.744 40.8845C100.708 40.8697 100.675 40.8477 100.648 40.82C100.62 40.7922 100.598 40.7592 100.584 40.7228C100.569 40.6865 100.561 40.6475 100.562 40.6081V33.1454C100.585 32.5567 100.387 31.9809 100.008 31.534C99.8165 31.3364 99.5884 31.1795 99.3366 31.0724C99.0849 30.9652 98.8145 30.91 98.5414 30.91C98.2683 30.91 97.998 30.9652 97.7462 31.0724C97.4945 31.1795 97.2664 31.3364 97.0753 31.534C96.696 31.9809 96.4981 32.5567 96.5213 33.1454V40.6033C96.5216 40.6426 96.514 40.6816 96.4992 40.718C96.4844 40.7544 96.4626 40.7874 96.435 40.8152C96.4074 40.8429 96.3747 40.8648 96.3387 40.8796C96.3027 40.8944 96.2641 40.9018 96.2252 40.9014H93.3439C93.3051 40.9018 93.2665 40.8944 93.2305 40.8796C93.1945 40.8648 93.1618 40.8429 93.1342 40.8152C93.1066 40.7874 93.0848 40.7544 93.07 40.718C93.0552 40.6816 93.0476 40.6426 93.0479 40.6033V23.7441C93.0476 23.7048 93.0552 23.6658 93.07 23.6294C93.0848 23.593 93.1066 23.56 93.1342 23.5323C93.1618 23.5045 93.1945 23.4826 93.2305 23.4678C93.2665 23.453 93.3051 23.4456 93.3439 23.446H96.2252C96.2641 23.4456 96.3027 23.453 96.3387 23.4678C96.3747 23.4826 96.4074 23.5045 96.435 23.5323C96.4626 23.56 96.4844 23.593 96.4992 23.6294C96.514 23.6658 96.5216 23.7048 96.5213 23.7441V29.2553C96.5188 29.2751 96.5221 29.2951 96.5309 29.3129C96.5397 29.3307 96.5536 29.3455 96.5707 29.3553C96.5767 29.3601 96.5837 29.3633 96.5912 29.3647C96.5987 29.366 96.6065 29.3655 96.6137 29.3631C96.621 29.3607 96.6275 29.3565 96.6328 29.3509C96.6381 29.3454 96.6419 29.3385 96.6439 29.3311C97.3167 28.3642 98.3186 27.8808 99.6494 27.8808C100.98 27.8808 102.039 28.2895 102.825 29.1071Z" fill="#FFFFFF" fill-opacity="1"/>
<path d="M117.748 35.2896C117.749 35.3314 117.742 35.373 117.726 35.4116C117.711 35.4503 117.687 35.485 117.657 35.5135C117.626 35.5419 117.59 35.5635 117.551 35.5766C117.512 35.5896 117.47 35.594 117.429 35.5893H109.822C109.723 35.5893 109.69 35.6312 109.723 35.7134C109.774 36.0555 109.865 36.3903 109.994 36.7109C110.418 37.6423 111.288 38.108 112.604 38.108C113.092 38.116 113.574 38.0026 114.007 37.7778C114.441 37.553 114.814 37.2237 115.093 36.8189C115.114 36.7769 115.145 36.7411 115.184 36.7149C115.223 36.6887 115.267 36.6729 115.314 36.669C115.382 36.6793 115.444 36.7149 115.487 36.7689L117.261 38.5415C117.328 38.5977 117.372 38.6778 117.383 38.7655C117.366 38.8389 117.332 38.9072 117.285 38.9653C116.726 39.6598 116.007 40.204 115.191 40.5494C114.303 40.9303 113.347 41.1212 112.383 41.1102C110.971 41.1102 109.776 40.7879 108.798 40.1433C107.821 39.4949 107.081 38.5399 106.692 37.4248C106.348 36.5933 106.176 35.5044 106.175 34.1583C106.161 33.3372 106.286 32.5197 106.544 31.7411C106.888 30.6103 107.584 29.6223 108.528 28.9243C109.474 28.2099 110.595 27.8527 111.89 27.8527C113.533 27.8527 114.851 28.3361 115.844 29.303C116.837 30.2699 117.441 31.559 117.655 33.1705C117.755 33.8721 117.786 34.5819 117.748 35.2896ZM109.866 32.3728C109.789 32.6368 109.731 32.9061 109.693 33.1786C109.69 33.1956 109.692 33.2129 109.697 33.2292C109.703 33.2455 109.712 33.2603 109.724 33.2724C109.736 33.2845 109.751 33.2935 109.767 33.2988C109.783 33.304 109.8 33.3054 109.817 33.3026H114.086C114.185 33.3026 114.217 33.2624 114.185 33.1786C114.102 32.6951 114.061 32.4631 114.061 32.4808C113.938 32.0174 113.665 31.609 113.286 31.3205C112.886 31.0372 112.406 30.893 111.918 30.9096C110.882 30.9042 110.199 31.392 109.871 32.3728H109.866Z" fill="#FFFFFF" fill-opacity="1"/>
<path d="M131.204 35.2896C131.205 35.3313 131.198 35.3728 131.182 35.4113C131.166 35.4498 131.142 35.4844 131.112 35.5129C131.082 35.5413 131.046 35.5628 131.007 35.576C130.968 35.5892 130.926 35.5937 130.886 35.5893H123.272C123.173 35.5893 123.139 35.6312 123.173 35.7134C123.224 36.0555 123.315 36.3903 123.444 36.7109C123.868 37.6423 124.738 38.108 126.054 38.108C126.542 38.1165 127.024 38.0032 127.457 37.7784C127.891 37.5536 128.264 37.224 128.542 36.8189C128.564 36.7768 128.596 36.7409 128.635 36.7147C128.674 36.6885 128.718 36.6727 128.765 36.669C128.833 36.6791 128.894 36.7148 128.937 36.7689L130.71 38.5415C130.779 38.5972 130.823 38.6775 130.835 38.7655C130.816 38.8386 130.783 38.9068 130.736 38.9653C130.177 39.6599 129.457 40.204 128.641 40.5494C127.753 40.9303 126.797 41.1212 125.833 41.1102C124.42 41.1102 123.226 40.7879 122.25 40.1433C121.268 39.4919 120.525 38.5315 120.136 37.4103C119.792 36.5788 119.619 35.4899 119.618 34.1438C119.604 33.3225 119.73 32.5049 119.989 31.7266C120.332 30.5957 121.027 29.6075 121.971 28.9098C122.919 28.205 124.042 27.8527 125.341 27.8527C126.982 27.8527 128.299 28.3361 129.294 29.303C130.288 30.2699 130.892 31.559 131.105 33.1705C131.207 33.8719 131.24 34.5817 131.204 35.2896ZM123.319 32.3728C123.242 32.6368 123.184 32.9061 123.146 33.1786C123.143 33.1956 123.145 33.2129 123.15 33.2292C123.156 33.2455 123.165 33.2603 123.177 33.2724C123.189 33.2845 123.204 33.2935 123.22 33.2988C123.236 33.304 123.253 33.3054 123.27 33.3026H127.531C127.63 33.3026 127.662 33.2624 127.63 33.1786C127.547 32.6951 127.506 32.4631 127.506 32.4808C127.383 32.0171 127.11 31.6086 126.731 31.3205C126.331 31.037 125.851 30.8928 125.363 30.9096C124.33 30.9042 123.648 31.392 123.319 32.3728Z" fill="#FFFFFF" fill-opacity="1"/>
<path d="M135.343 40.6025C134.601 40.3421 133.941 39.8852 133.433 39.2795C132.99 38.7408 132.75 38.0608 132.756 37.3603V37.1105C132.755 37.0712 132.762 37.032 132.777 36.9957C132.792 36.9593 132.814 36.9265 132.842 36.8994C132.869 36.8707 132.901 36.8481 132.937 36.8328C132.973 36.8175 133.012 36.81 133.05 36.8107H135.785C135.864 36.8107 135.939 36.8423 135.995 36.8985C136.05 36.9547 136.081 37.031 136.081 37.1105V37.1346C136.081 37.5021 136.282 37.8131 136.685 38.0709C137.143 38.3437 137.669 38.4779 138.2 38.4577C138.674 38.479 139.144 38.3621 139.555 38.1209C139.899 37.8953 140.072 37.6181 140.072 37.2845C140.073 37.1401 140.032 36.9987 139.953 36.8785C139.873 36.7584 139.76 36.6652 139.628 36.6109C139.16 36.4048 138.674 36.2466 138.175 36.1388C137.556 35.9873 136.947 35.7957 136.352 35.5651C135.301 35.1998 134.464 34.7507 133.84 34.2179C133.216 33.685 132.903 32.9201 132.902 31.9232C132.884 31.3549 133.004 30.7908 133.251 30.2801C133.498 29.7695 133.865 29.3277 134.319 28.9935C135.263 28.2705 136.515 27.909 138.076 27.909C139.019 27.8896 139.955 28.0634 140.83 28.4198C141.562 28.7156 142.197 29.2123 142.665 29.854C143.099 30.4635 143.328 31.1979 143.318 31.9489C143.318 31.9882 143.311 32.027 143.296 32.0633C143.281 32.0995 143.26 32.1325 143.232 32.1602C143.205 32.1879 143.172 32.2099 143.137 32.2248C143.101 32.2397 143.062 32.2473 143.024 32.2471H140.392C140.353 32.2475 140.315 32.2401 140.279 32.2253C140.243 32.2105 140.21 32.1885 140.182 32.1608C140.155 32.1331 140.133 32.1 140.118 32.0637C140.103 32.0273 140.096 31.9883 140.096 31.9489C140.096 31.5837 139.911 31.2759 139.542 31.0256C139.173 30.7753 138.684 30.6506 138.076 30.6517C137.615 30.6327 137.157 30.736 136.747 30.9514C136.593 31.025 136.462 31.1413 136.371 31.2867C136.279 31.4321 136.23 31.6008 136.229 31.7733C136.229 31.9356 136.277 32.0943 136.367 32.2285C136.457 32.3628 136.585 32.4664 136.734 32.5258C137.277 32.758 137.843 32.9335 138.421 33.0496C138.601 33.0995 138.807 33.1527 139.038 33.2107C139.268 33.2687 139.515 33.3396 139.776 33.4234C140.944 33.7715 141.863 34.22 142.535 34.769C143.207 35.318 143.544 36.1162 143.546 37.1637C143.546 38.3948 143.065 39.3547 142.103 40.0433C141.142 40.732 139.849 41.0768 138.224 41.0779C137.243 41.097 136.267 40.9359 135.343 40.6025Z" fill="#FFFFFF" fill-opacity="1"/>
<path d="M155.316 29.1071C156.12 29.9203 156.522 31.0258 156.522 32.4235V40.6033C156.523 40.6426 156.515 40.6816 156.5 40.718C156.485 40.7544 156.464 40.7874 156.436 40.8152C156.408 40.8429 156.376 40.8648 156.34 40.8796C156.304 40.8944 156.265 40.9018 156.226 40.9014H153.345C153.306 40.9018 153.268 40.8944 153.231 40.8796C153.195 40.8648 153.163 40.8429 153.135 40.8152C153.108 40.7874 153.086 40.7544 153.071 40.718C153.056 40.6816 153.049 40.6426 153.049 40.6033V33.1454C153.072 32.5567 152.874 31.9809 152.495 31.534C152.304 31.3364 152.076 31.1795 151.824 31.0724C151.572 30.9652 151.302 30.91 151.029 30.91C150.756 30.91 150.485 30.9652 150.234 31.0724C149.982 31.1795 149.754 31.3364 149.563 31.534C149.183 31.9809 148.985 32.5567 149.009 33.1454V40.6033C149.009 40.6426 149.001 40.6816 148.987 40.718C148.972 40.7544 148.95 40.7874 148.922 40.8152C148.895 40.8429 148.862 40.8648 148.826 40.8796C148.79 40.8944 148.751 40.9018 148.713 40.9014H145.831C145.792 40.9018 145.754 40.8944 145.718 40.8796C145.682 40.8648 145.649 40.8429 145.622 40.8152C145.594 40.7874 145.572 40.7544 145.557 40.718C145.542 40.6816 145.535 40.6426 145.535 40.6033V23.7441C145.535 23.7048 145.542 23.6658 145.557 23.6294C145.572 23.593 145.594 23.56 145.622 23.5323C145.649 23.5045 145.682 23.4826 145.718 23.4678C145.754 23.453 145.792 23.4456 145.831 23.446H148.713C148.751 23.4456 148.79 23.453 148.826 23.4678C148.862 23.4826 148.895 23.5045 148.922 23.5323C148.95 23.56 148.972 23.593 148.987 23.6294C149.001 23.6658 149.009 23.7048 149.009 23.7441V29.2553C149.006 29.2751 149.009 29.2951 149.018 29.3129C149.027 29.3307 149.041 29.3455 149.058 29.3553C149.064 29.36 149.071 29.3632 149.079 29.3646C149.086 29.3659 149.094 29.3654 149.102 29.363C149.109 29.3606 149.116 29.3565 149.121 29.3509C149.127 29.3454 149.131 29.3386 149.133 29.3311C149.805 28.3642 150.806 27.8808 152.137 27.8808C153.468 27.8808 154.527 28.2895 155.316 29.1071Z" fill="#FFFFFF" fill-opacity="1"/>
<path d="M166.922 28.4457C167.698 28.7705 168.375 29.2996 168.881 29.9782C169.342 30.6047 169.589 31.3662 169.583 32.1472V40.6026C169.584 40.642 169.577 40.6811 169.562 40.7175C169.547 40.7538 169.524 40.7866 169.496 40.8137C169.469 40.8418 169.436 40.864 169.401 40.879C169.365 40.8939 169.326 40.9013 169.287 40.9007H166.404C166.366 40.9009 166.327 40.8934 166.292 40.8785C166.256 40.8635 166.223 40.8416 166.196 40.8139C166.168 40.7861 166.147 40.7532 166.132 40.7169C166.117 40.6807 166.11 40.6418 166.11 40.6026V39.7775C166.112 39.7578 166.109 39.7378 166.1 39.7201C166.091 39.7023 166.078 39.6876 166.061 39.6776C166.027 39.6615 165.994 39.6776 165.962 39.7276C165.272 40.6418 164.164 41.0989 162.637 41.0989C161.356 41.0989 160.321 40.7831 159.532 40.1514C158.744 39.5197 158.35 38.5893 158.35 37.3603C158.35 36.0787 158.793 35.0855 159.68 34.3807C160.568 33.676 161.832 33.3225 163.474 33.3204H165.981C165.998 33.3228 166.015 33.3212 166.031 33.3157C166.047 33.3103 166.062 33.3011 166.074 33.2889C166.086 33.2767 166.095 33.2618 166.101 33.2455C166.106 33.2291 166.108 33.2117 166.105 33.1947V32.6468C166.119 32.4087 166.082 32.1703 165.997 31.9479C165.912 31.7255 165.78 31.5242 165.612 31.3576C165.284 31.0503 164.791 30.8967 164.134 30.8967C163.694 30.8802 163.257 30.9744 162.861 31.1707C162.706 31.2475 162.568 31.3558 162.455 31.4888C162.343 31.6219 162.259 31.7769 162.208 31.9442C162.204 31.9817 162.192 32.0179 162.173 32.0507C162.154 32.0834 162.13 32.1122 162.1 32.1353C162.071 32.1583 162.037 32.1752 162.001 32.185C161.965 32.1948 161.927 32.1973 161.89 32.1923L158.91 31.7943C158.713 31.7605 158.622 31.6863 158.639 31.5703C158.707 30.8657 158.996 30.2015 159.464 29.6752C159.988 29.0818 160.648 28.6275 161.385 28.3522C162.243 28.0261 163.154 27.867 164.071 27.8833C165.05 27.8665 166.021 28.0581 166.922 28.4457ZM165.37 37.9082C165.602 37.7422 165.79 37.5215 165.919 37.2652C166.048 37.0088 166.114 36.7246 166.11 36.4369V35.5394C166.112 35.5224 166.11 35.5052 166.105 35.4891C166.099 35.4729 166.09 35.4583 166.078 35.4463C166.066 35.4343 166.052 35.4252 166.036 35.4199C166.02 35.4145 166.003 35.4129 165.986 35.4153H164.212C163.47 35.4153 162.891 35.5565 162.476 35.8391C162.275 35.9643 162.11 36.1409 161.999 36.3512C161.887 36.5614 161.832 36.7978 161.839 37.0364C161.831 37.2384 161.87 37.4395 161.953 37.6234C162.036 37.8074 162.161 37.9689 162.317 38.0951C162.677 38.3692 163.122 38.5061 163.573 38.4819C164.218 38.5013 164.852 38.2991 165.37 37.9082Z" fill="#FFFFFF" fill-opacity="1"/>
<path d="M93.7386 48.7438H85.8954C85.8838 48.7421 85.872 48.7432 85.8609 48.7471C85.8498 48.7509 85.8398 48.7573 85.8315 48.7657C85.8233 48.7742 85.8172 48.7845 85.8136 48.7958C85.8101 48.8071 85.8092 48.8191 85.8111 48.8308V54.1744C85.8095 54.186 85.8106 54.1978 85.8143 54.2089C85.8179 54.22 85.8241 54.2301 85.8323 54.2384C85.8405 54.2467 85.8504 54.2529 85.8614 54.2566C85.8723 54.2603 85.884 54.2615 85.8954 54.2598H91.3874C91.4164 54.2555 91.446 54.2581 91.4739 54.2674C91.5017 54.2767 91.527 54.2925 91.5477 54.3135C91.5685 54.3345 91.5841 54.3601 91.5933 54.3883C91.6025 54.4165 91.605 54.4464 91.6007 54.4758V55.3847C91.605 55.414 91.6025 55.444 91.5933 55.4722C91.5841 55.5003 91.5685 55.526 91.5477 55.5469C91.527 55.5679 91.5017 55.5837 91.4739 55.593C91.446 55.6023 91.4164 55.6049 91.3874 55.6006H85.8954C85.8839 55.5993 85.8722 55.6006 85.8613 55.6045C85.8503 55.6085 85.8404 55.6149 85.8323 55.6233C85.8242 55.6317 85.818 55.6418 85.8143 55.653C85.8107 55.6641 85.8095 55.676 85.8111 55.6876V62.3285C85.8154 62.3578 85.8128 62.3878 85.8036 62.416C85.7944 62.4442 85.7788 62.4698 85.7581 62.4908C85.7373 62.5118 85.712 62.5275 85.6842 62.5369C85.6564 62.5462 85.6268 62.5488 85.5978 62.5444H84.5073C84.4783 62.5488 84.4487 62.5462 84.4209 62.5369C84.393 62.5275 84.3677 62.5118 84.347 62.4908C84.3263 62.4698 84.3107 62.4442 84.3015 62.416C84.2923 62.3878 84.2897 62.3578 84.294 62.3285V47.619C84.2897 47.5896 84.2923 47.5597 84.3015 47.5315C84.3107 47.5033 84.3263 47.4777 84.347 47.4567C84.3677 47.4357 84.393 47.4199 84.4209 47.4106C84.4487 47.4013 84.4783 47.3987 84.5073 47.403H93.7402C93.7692 47.3991 93.7986 47.4019 93.8263 47.4113C93.854 47.4208 93.8791 47.4365 93.8998 47.4575C93.9204 47.4784 93.936 47.5038 93.9454 47.5318C93.9547 47.5599 93.9575 47.5897 93.9535 47.619V48.5279C93.9579 48.5574 93.9553 48.5875 93.946 48.6158C93.9367 48.6442 93.921 48.6699 93.9001 48.6909C93.8791 48.7119 93.8536 48.7277 93.8256 48.7369C93.7975 48.746 93.7677 48.7484 93.7386 48.7438Z" fill="#FFFFFF" fill-opacity="1"/>
<path d="M96.4307 62.3284V47.6189C96.4268 47.5896 96.4296 47.5598 96.4389 47.5318C96.4482 47.5038 96.4638 47.4783 96.4845 47.4574C96.5051 47.4365 96.5303 47.4207 96.558 47.4113C96.5856 47.4018 96.6151 47.399 96.644 47.403H97.7344C97.7634 47.399 97.7928 47.4018 97.8205 47.4113C97.8482 47.4207 97.8734 47.4365 97.894 47.4574C97.9147 47.4783 97.9303 47.5038 97.9396 47.5318C97.9489 47.5598 97.9517 47.5896 97.9478 47.6189V62.3284C97.952 62.3578 97.9495 62.3877 97.9403 62.4159C97.9311 62.4441 97.9155 62.4697 97.8948 62.4907C97.874 62.5117 97.8487 62.5275 97.8209 62.5368C97.7931 62.5461 97.7635 62.5487 97.7344 62.5443H96.644C96.615 62.5487 96.5854 62.5461 96.5576 62.5368C96.5298 62.5275 96.5045 62.5117 96.4837 62.4907C96.463 62.4697 96.4474 62.4441 96.4382 62.4159C96.429 62.3877 96.4264 62.3578 96.4307 62.3284Z" fill="#FFFFFF" fill-opacity="1"/>
<path d="M111.089 47.403H112.176C112.205 47.3991 112.235 47.4019 112.262 47.4113C112.29 47.4208 112.315 47.4365 112.336 47.4575C112.356 47.4784 112.372 47.5038 112.381 47.5318C112.391 47.5599 112.393 47.5897 112.389 47.619V62.3285C112.394 62.3578 112.391 62.3878 112.382 62.416C112.373 62.4442 112.357 62.4698 112.336 62.4908C112.316 62.5117 112.29 62.5275 112.263 62.5368C112.235 62.5462 112.205 62.5488 112.176 62.5444H111.108C111.056 62.5433 111.005 62.5288 110.961 62.5023C110.916 62.4758 110.878 62.4381 110.852 62.3929L103.564 50.3875C103.55 50.3456 103.529 50.3279 103.5 50.3343C103.472 50.3408 103.457 50.3665 103.457 50.41L103.48 62.3349C103.484 62.3644 103.481 62.3944 103.472 62.4225C103.462 62.4507 103.446 62.4762 103.426 62.4972C103.405 62.5181 103.379 62.5339 103.351 62.5432C103.324 62.5525 103.294 62.5551 103.265 62.5509H102.179C102.15 62.5552 102.121 62.5526 102.093 62.5433C102.065 62.534 102.04 62.5182 102.019 62.4972C101.998 62.4762 101.983 62.4506 101.973 62.4224C101.964 62.3942 101.962 62.3643 101.966 62.3349V47.619C101.962 47.5896 101.964 47.5597 101.973 47.5315C101.983 47.5033 101.998 47.4777 102.019 47.4567C102.04 47.4357 102.065 47.4199 102.093 47.4106C102.121 47.4013 102.15 47.3987 102.179 47.403H103.247C103.299 47.4053 103.349 47.4203 103.394 47.4467C103.439 47.4731 103.476 47.5101 103.504 47.5545L110.79 59.56C110.804 59.6035 110.825 59.6212 110.855 59.6131C110.885 59.6051 110.896 59.5809 110.896 59.5374L110.876 47.6125C110.873 47.5837 110.876 47.5547 110.886 47.5275C110.896 47.5003 110.912 47.4757 110.932 47.4555C110.953 47.4354 110.977 47.4202 111.005 47.4111C111.032 47.402 111.061 47.3993 111.089 47.403Z" fill="#FFFFFF" fill-opacity="1"/>
<path d="M125.021 62.3719L124.166 59.6469C124.162 59.6274 124.151 59.6102 124.135 59.5981C124.119 59.586 124.1 59.5799 124.08 59.5808H117.692C117.672 59.5799 117.653 59.586 117.637 59.5981C117.621 59.6102 117.61 59.6274 117.606 59.6469L116.751 62.3719C116.734 62.4258 116.699 62.4722 116.653 62.5035C116.606 62.5348 116.551 62.5492 116.495 62.5443H115.341C115.182 62.5443 115.127 62.4653 115.17 62.3074L119.892 47.5754C119.91 47.5218 119.944 47.4758 119.991 47.4445C120.037 47.4133 120.093 47.3986 120.148 47.403H121.602C121.657 47.3986 121.713 47.4133 121.759 47.4445C121.806 47.4758 121.84 47.5218 121.858 47.5754L126.602 62.3074L126.624 62.3928C126.624 62.4943 126.559 62.5443 126.431 62.5443H125.277C125.222 62.5492 125.166 62.5348 125.119 62.5035C125.073 62.4722 125.038 62.4258 125.021 62.3719ZM118.044 58.2949C118.064 58.3152 118.09 58.3268 118.119 58.3271H123.638C123.652 58.3271 123.665 58.3243 123.678 58.3187C123.691 58.3132 123.703 58.3051 123.712 58.2949C123.723 58.2856 123.73 58.2729 123.732 58.259C123.734 58.2452 123.731 58.2311 123.724 58.2191L120.946 49.3931C120.941 49.3803 120.932 49.3692 120.921 49.3615C120.909 49.3537 120.896 49.3496 120.882 49.3496C120.868 49.3494 120.855 49.3534 120.843 49.3612C120.832 49.369 120.823 49.3801 120.818 49.3931L118.034 58.2191C118.027 58.231 118.024 58.2449 118.026 58.2587C118.028 58.2724 118.034 58.2852 118.044 58.2949Z" fill="#FFFFFF" fill-opacity="1"/>
<path d="M138.505 47.403H139.593C139.622 47.3987 139.652 47.4013 139.68 47.4107C139.708 47.42 139.733 47.4357 139.754 47.4567C139.775 47.4776 139.791 47.5032 139.8 47.5313C139.809 47.5595 139.812 47.5895 139.808 47.6189V62.3284C139.812 62.3579 139.809 62.3879 139.8 62.416C139.791 62.4442 139.775 62.4697 139.754 62.4907C139.733 62.5116 139.708 62.5274 139.68 62.5367C139.652 62.546 139.622 62.5486 139.593 62.5444H138.525C138.474 62.5421 138.423 62.5271 138.379 62.5007C138.334 62.4743 138.296 62.4373 138.269 62.3929L130.983 50.3874C130.969 50.3455 130.946 50.3278 130.919 50.3343C130.892 50.3407 130.876 50.3665 130.876 50.41L130.897 62.3349C130.901 62.3642 130.899 62.3942 130.89 62.4224C130.88 62.4506 130.865 62.4762 130.844 62.4972C130.823 62.5181 130.798 62.5339 130.77 62.5432C130.742 62.5526 130.713 62.5552 130.684 62.5508H129.593C129.564 62.5552 129.535 62.5526 129.507 62.5432C129.479 62.5339 129.454 62.5181 129.433 62.4972C129.412 62.4762 129.397 62.4506 129.387 62.4224C129.378 62.3942 129.376 62.3642 129.38 62.3349V47.6189C129.376 47.5896 129.379 47.5598 129.388 47.5318C129.397 47.5038 129.413 47.4783 129.434 47.4574C129.454 47.4365 129.48 47.4207 129.507 47.4113C129.535 47.4018 129.564 47.399 129.593 47.403H130.663C130.715 47.4053 130.765 47.4203 130.81 47.4467C130.854 47.473 130.892 47.5101 130.919 47.5545L138.205 59.5599C138.22 59.6034 138.24 59.6212 138.269 59.6131C138.298 59.605 138.312 59.5809 138.312 59.5374L138.291 47.6125C138.288 47.5836 138.291 47.5544 138.301 47.527C138.311 47.4997 138.327 47.475 138.347 47.4547C138.368 47.4345 138.393 47.4193 138.42 47.4104C138.447 47.4014 138.476 47.3989 138.505 47.403Z" fill="#FFFFFF" fill-opacity="1"/>
<path d="M145.747 62.1446C145.012 61.7661 144.4 61.1801 143.985 60.4574C143.553 59.6907 143.333 58.8199 143.348 57.9371V51.9892C143.334 51.1167 143.554 50.2565 143.985 49.5011C144.402 48.7832 145.014 48.2016 145.747 47.8251C146.563 47.4146 147.465 47.2106 148.376 47.2305C149.285 47.2111 150.186 47.411 151.004 47.8139C151.735 48.1801 152.348 48.7504 152.769 49.4576C153.2 50.1975 153.42 51.0435 153.406 51.9022C153.408 51.9339 153.403 51.9656 153.391 51.9953C153.38 52.025 153.363 52.052 153.341 52.0746C153.322 52.0955 153.299 52.1122 153.273 52.1236C153.247 52.135 153.219 52.1408 153.191 52.1407L152.102 52.2051C151.959 52.2051 151.889 52.1407 151.889 52.0101V51.9457C151.889 50.9229 151.571 50.1043 150.934 49.4898C150.297 48.8753 149.448 48.5691 148.387 48.5713C147.333 48.5713 146.484 48.8812 145.84 49.5011C145.196 50.121 144.877 50.9358 144.885 51.9457V58.0016C144.885 59.0125 145.203 59.8274 145.84 60.4462C146.476 61.065 147.325 61.3749 148.387 61.376C149.441 61.376 150.29 61.0698 150.934 60.4574C151.578 59.8451 151.896 59.0265 151.889 58.0016V57.9597C151.889 57.8291 151.959 57.7647 152.102 57.7647L153.191 57.8291C153.334 57.8291 153.406 57.8936 153.406 58.0241C153.421 58.8931 153.201 59.7497 152.769 60.501C152.351 61.213 151.738 61.7877 151.005 62.1559C150.187 62.5588 149.287 62.7587 148.377 62.7393C147.466 62.7595 146.564 62.5554 145.747 62.1446Z" fill="#FFFFFF" fill-opacity="1"/>
<path d="M166.26 48.7437H158.398C158.386 48.7421 158.374 48.7433 158.363 48.7471C158.352 48.7509 158.342 48.7573 158.334 48.7657C158.325 48.7741 158.319 48.7844 158.315 48.7957C158.312 48.8069 158.31 48.8189 158.312 48.8308V54.1744C158.31 54.1861 158.312 54.1981 158.315 54.2093C158.319 54.2206 158.325 54.2308 158.334 54.2391C158.342 54.2474 158.352 54.2536 158.363 54.2572C158.375 54.2608 158.386 54.2617 158.398 54.2598H163.912C163.941 54.2558 163.971 54.2586 163.998 54.2681C164.026 54.2775 164.051 54.2933 164.072 54.3142C164.092 54.3351 164.108 54.3606 164.117 54.3886C164.127 54.4166 164.13 54.4464 164.126 54.4757V55.3846C164.13 55.414 164.127 55.4439 164.118 55.4721C164.109 55.5003 164.093 55.5259 164.073 55.5469C164.052 55.5679 164.027 55.5837 163.999 55.593C163.971 55.6023 163.941 55.6049 163.912 55.6005H158.398C158.386 55.5989 158.374 55.6001 158.363 55.6039C158.352 55.6077 158.342 55.6141 158.334 55.6225C158.325 55.6309 158.319 55.6412 158.315 55.6524C158.312 55.6637 158.31 55.6757 158.312 55.6875V61.1166C158.31 61.1284 158.312 61.1404 158.315 61.1517C158.319 61.163 158.325 61.1732 158.334 61.1816C158.342 61.1901 158.352 61.1964 158.363 61.2002C158.374 61.204 158.386 61.2052 158.398 61.2036H166.26C166.289 61.1993 166.319 61.2019 166.347 61.2113C166.375 61.2206 166.4 61.2363 166.421 61.2573C166.442 61.2782 166.458 61.3038 166.467 61.3319C166.476 61.3601 166.479 61.3901 166.475 61.4195V62.3284C166.479 62.3579 166.476 62.3878 166.467 62.416C166.458 62.4442 166.442 62.4697 166.421 62.4907C166.4 62.5116 166.375 62.5274 166.347 62.5367C166.319 62.546 166.289 62.5486 166.26 62.5443H157.008C156.979 62.5487 156.95 62.5461 156.922 62.5368C156.894 62.5275 156.869 62.5117 156.848 62.4907C156.827 62.4697 156.812 62.4441 156.802 62.4159C156.793 62.3877 156.791 62.3578 156.795 62.3284V47.6189C156.791 47.5896 156.794 47.5598 156.803 47.5318C156.812 47.5038 156.828 47.4783 156.849 47.4574C156.869 47.4365 156.895 47.4207 156.922 47.4113C156.95 47.4018 156.979 47.399 157.008 47.403H166.26C166.289 47.3987 166.319 47.4013 166.347 47.4107C166.375 47.42 166.4 47.4357 166.421 47.4567C166.442 47.4776 166.458 47.5032 166.467 47.5313C166.476 47.5595 166.479 47.5895 166.475 47.6189V48.5278C166.479 48.5572 166.476 48.5872 166.467 48.6154C166.458 48.6436 166.442 48.6691 166.421 48.6901C166.4 48.711 166.375 48.7268 166.347 48.7361C166.319 48.7454 166.289 48.748 166.26 48.7437Z" fill="#FFFFFF" fill-opacity="1"/>
<path fill-rule="evenodd" clip-rule="evenodd" d="M46.3888 19.3374L27.5868 30.1865C26.3487 30.9009 25.5859 32.2217 25.5859 33.6511V56.0706C25.5859 57.489 26.3371 58.8014 27.5602 59.5197L46.3622 70.5625C47.6128 71.297 49.163 71.297 50.4136 70.5625L69.2156 59.5197C70.4387 58.8014 71.1899 57.489 71.1899 56.0706V33.6511C71.1899 32.2217 70.4271 30.9009 69.189 30.1865L50.387 19.3374C49.1499 18.6235 47.6259 18.6235 46.3888 19.3374ZM51.4749 49.4378C51.1831 48.5879 50.9127 47.6938 50.7413 47.1081C50.6866 46.9202 50.6419 46.7643 50.6097 46.6519C51.3478 47.1582 52.1065 47.6244 52.8761 48.0395C56.9003 50.2118 58.0704 49.4738 58.4094 48.8292C59.1019 47.5287 57.163 45.039 54.1766 43.3937L54.0174 43.3034C53.3496 42.9354 52.6163 42.5312 51.8458 42.1266L52.4271 41.6919L52.2844 41.5152C53.1171 40.7517 54.4962 39.1246 53.8996 37.1106C53.2852 35.0414 51.1737 32.8352 48.8091 31.5608C48.7721 31.4121 48.7542 31.2588 48.7562 31.1046V29.4448H49.2338V29.1225C49.2338 28.9943 49.2841 28.8713 49.3737 28.7807C49.4632 28.69 49.5847 28.6391 49.7113 28.6391C50.0858 28.6391 50.445 28.4885 50.7098 28.2204C50.9746 27.9523 51.1233 27.5888 51.1233 27.2097H49.0237C49.2496 27.0771 49.443 26.8946 49.5896 26.6759C49.7363 26.4572 49.8323 26.2078 49.8705 25.9463L50.0488 24.6829H46.2092L46.4321 25.9963C46.4754 26.2507 46.5734 26.4925 46.7192 26.7044C46.865 26.9163 47.055 27.0932 47.2758 27.2226H45.1538C45.1528 27.4108 45.1885 27.5973 45.2589 27.7714C45.3293 27.9456 45.433 28.1039 45.5641 28.2374C45.6951 28.3708 45.851 28.4767 46.0226 28.549C46.1943 28.6212 46.3783 28.6584 46.5642 28.6584C46.6909 28.6584 46.8123 28.7093 46.9019 28.8C46.9915 28.8907 47.0418 29.0136 47.0418 29.1418V29.4641H47.5321V30.9759C47.1165 30.8194 46.7 30.6962 46.2889 30.6115C44.5537 30.257 43.1624 30.6454 42.2662 31.7395C41.5355 32.6323 41.3079 33.8135 41.5881 35.2638C41.8364 36.5449 42.4747 37.9598 43.3996 39.3924C43.0035 39.4194 42.6133 39.5035 42.2407 39.6422C41.3286 39.9935 40.6823 40.6832 40.3193 41.6968C39.7192 43.3582 40.4785 45.6336 42.4349 48.104C42.7963 48.5488 43.1768 48.9919 43.5922 49.4286C43.1497 49.5592 42.7056 49.7058 42.2582 49.8815C36.744 52.0585 36.2728 54.5918 36.4813 55.9083C36.7692 57.7163 38.5228 59.0574 40.1217 59.315V59.4906H42.0366C42.0785 59.5563 42.1326 59.6132 42.1961 59.6582C42.3468 59.7667 42.5209 59.8373 42.7039 59.8639C42.8869 59.8905 43.0736 59.8725 43.2484 59.8113C43.5454 59.7073 43.8689 59.7107 44.1637 59.821C44.2908 59.8705 44.4255 59.8972 44.5617 59.8999C44.6943 59.9003 44.826 59.8785 44.9517 59.8355C45.2397 59.7408 45.5507 59.7465 45.8352 59.8516C46.0065 59.9105 46.1889 59.9284 46.3682 59.9038C46.5475 59.8792 46.7187 59.8128 46.8683 59.7098C47.1049 59.5429 47.387 59.455 47.6754 59.4584H47.9603V59.2634H48.6687C48.672 59.321 48.6972 59.375 48.7391 59.4141C48.781 59.4531 48.8362 59.4742 48.8932 59.4729H49.0523L49.0619 58.427H48.9027C48.8451 58.424 48.7887 58.4441 48.7457 58.4831C48.7027 58.522 48.6768 58.5766 48.6735 58.6349H47.9635V58.4125H47.6754C47.3865 58.41 47.1055 58.3165 46.8715 58.145C46.6798 58.0043 46.4492 57.9282 46.2124 57.9275C46.0798 57.9257 45.9479 57.9469 45.8224 57.9903C45.5339 58.0847 45.2227 58.0796 44.9373 57.9758C44.819 57.9345 44.6948 57.9127 44.5696 57.9114C44.4358 57.9094 44.3028 57.9312 44.1764 57.9758C43.8805 58.0829 43.557 58.0829 43.2611 57.9758C43.1356 57.9292 43.0032 57.9047 42.8695 57.9033C42.6325 57.8994 42.4003 57.971 42.2057 58.108C42.127 58.1617 42.0621 58.2335 42.0161 58.3175C42.013 58.3232 42.01 58.329 42.007 58.3348C42.0059 58.3371 42.0048 58.3393 42.0036 58.3416H40.1217V58.5366C38.8495 58.2771 37.4446 57.157 37.2263 55.7891C36.9286 53.9117 38.8118 52.0698 42.5289 50.6018C43.0779 50.3852 43.6405 50.2059 44.2131 50.0652C44.3204 50.1694 44.4293 50.273 44.5394 50.376C44.3642 50.8287 44.1705 51.2463 43.9583 51.5944C43.4062 52.5022 42.9165 52.9768 42.5444 53.3374C42.0884 53.7793 41.8093 54.0498 41.8093 54.7368C41.8093 56.1774 43.1162 57.3457 44.5393 57.3457H51.5149C52.6489 57.3457 53.8557 56.604 54.2992 55.5737C54.7018 55.6021 55.089 55.5936 55.4565 55.5442C56.7364 55.3733 57.1694 54.8206 57.3079 54.3855C57.5244 53.6861 57.1534 52.8288 56.2509 51.9683C55.274 51.0361 53.5864 50.0395 51.4749 49.4378ZM54.4744 54.8133C54.4753 54.7879 54.4758 54.7624 54.4758 54.7368C54.4718 53.9427 54.1286 53.5786 53.5637 52.9793C53.2402 52.636 52.8438 52.2155 52.3968 51.5928C52.2224 51.3507 52.0169 50.897 51.8075 50.3556C53.4935 50.9009 54.8719 51.7064 55.7351 52.5291C56.3925 53.1576 56.7125 53.7619 56.5883 54.1486C56.488 54.458 56.0535 54.6869 55.361 54.7803C55.0788 54.818 54.7825 54.8283 54.4744 54.8133ZM44.9644 49.1054C45.0445 48.8312 45.1187 48.5556 45.1872 48.2845C45.3369 47.6963 45.4594 47.129 45.5534 46.6456H45.5136L45.6887 45.8576H45.6982C45.711 45.7867 45.7221 45.7206 45.7316 45.6594C45.5502 45.5156 45.4032 45.3323 45.3015 45.123C45.1998 44.9138 45.146 44.684 45.1442 44.4508H46.05C46.0133 44.3291 45.9951 44.2025 45.9959 44.0753C46.0074 43.7521 46.1024 43.4377 46.2713 43.1632L46.3524 43.0636C45.4299 42.1169 44.601 41.1308 43.8995 40.1434C43.4232 40.1263 42.948 40.2001 42.4986 40.3609C41.7934 40.6316 41.3111 41.1537 41.023 41.9563C40.5231 43.3566 41.2331 45.3677 43.0223 47.619C43.4673 48.1754 43.9424 48.7064 44.4455 49.2095C44.6191 49.1713 44.7921 49.1366 44.9644 49.1054ZM50.5476 45.6646C51.4186 46.2954 52.3202 46.8683 53.2326 47.3611C56.3639 49.0515 57.5498 48.8211 57.7393 48.465C58.0576 47.8784 56.9433 45.7964 53.8137 44.0705L53.6545 43.9803L53.5815 43.9401L53.5813 43.9401C52.8624 43.5451 52.0375 43.0919 51.1601 42.6393L50.1427 43.4001C50.2345 43.6066 50.2843 43.8296 50.2892 44.056C50.2888 44.1879 50.2678 44.319 50.2271 44.4443H51.1329C51.133 44.7167 51.0623 44.9842 50.9279 45.2201C50.8299 45.3921 50.7006 45.5428 50.5476 45.6646ZM50.7999 41.5903L51.6152 40.6864L51.8008 40.9162C52.5082 40.2549 53.6379 38.9027 53.1722 37.333C52.7286 35.8523 51.3905 34.2591 49.7649 33.0749C49.8074 33.2077 49.8293 33.3468 49.8293 33.4872C49.8293 33.6871 49.7849 33.8846 49.6995 34.0649C49.6141 34.2452 49.4897 34.4038 49.3357 34.529C49.1498 34.6975 49.0016 34.9043 48.9011 35.1356C48.8007 35.3668 48.7502 35.6171 48.753 35.8697V36.3113C48.7502 36.5639 48.8007 36.8142 48.9011 37.0454C49.0016 37.2766 49.1498 37.4834 49.3357 37.652C49.4897 37.7772 49.6141 37.9358 49.6995 38.1161C49.7849 38.2964 49.8293 38.4938 49.8293 38.6938C49.8293 38.8938 49.7849 39.0912 49.6995 39.2715C49.6141 39.4518 49.4897 39.6104 49.3357 39.7356C49.1498 39.9042 49.0016 40.111 48.9011 40.3422C48.8567 40.4445 48.822 40.5505 48.7974 40.6589C49.4711 40.9459 50.1438 41.2629 50.7999 41.5903ZM48.8066 41.5072C49.2961 41.7222 49.7839 41.9516 50.2621 42.1866L49.7432 42.762C49.6388 42.6399 49.5231 42.5282 49.3977 42.4284C49.1965 42.2669 49.0339 42.0614 48.9222 41.8272C48.8732 41.7243 48.8345 41.6171 48.8066 41.5072ZM47.5299 40.9839C47.5317 41.0211 47.5325 41.0584 47.5321 41.0957C47.5324 41.3557 47.4745 41.6124 47.3629 41.8466C47.2512 42.0807 47.0886 42.2862 46.8874 42.4477C46.8785 42.4548 46.8697 42.4619 46.861 42.4691C46.1574 41.7435 45.5098 40.9955 44.9358 40.2449C45.7497 40.3802 46.631 40.6448 47.5299 40.9839ZM47.2054 40.0441C47.131 39.9388 47.0452 39.8418 46.9494 39.755C46.7959 39.6294 46.672 39.4707 46.587 39.2905C46.5019 39.1102 46.4577 38.9129 46.4577 38.7131C46.4577 38.5134 46.5019 38.3161 46.587 38.1358C46.672 37.9556 46.7959 37.7969 46.9494 37.6713C47.1353 37.5028 47.2835 37.296 47.3839 37.0647C47.4844 36.8335 47.5349 36.5832 47.5321 36.3306V35.8891C47.5349 35.6365 47.4844 35.3861 47.3839 35.1549C47.2835 34.9237 47.1353 34.7169 46.9494 34.5483C46.7959 34.4228 46.672 34.2641 46.587 34.0838C46.5019 33.9035 46.4577 33.7063 46.4577 33.5065C46.4577 33.3067 46.5019 33.1095 46.587 32.9292C46.672 32.7489 46.7959 32.5902 46.9494 32.4647C47.1353 32.2961 47.2835 32.0893 47.3839 31.8581C47.3979 31.8261 47.4108 31.7937 47.4228 31.761C46.9899 31.5882 46.5564 31.4544 46.1313 31.3673C45.1252 31.1594 43.7435 31.1417 42.8456 32.231C42.2662 32.9369 42.0927 33.907 42.3267 35.1156C42.5814 36.4193 43.293 37.8986 44.3229 39.3956C45.2213 39.4621 46.2002 39.7009 47.2054 40.0441Z" fill="#FFFFFF" fill-opacity="1"/>
</svg>
