<svg width="654" height="291" viewBox="0 0 654 291" fill="none" xmlns="http://www.w3.org/2000/svg">

<g clip-path="url(#clip0_101:21)" fill="rgb(180, 190, 104)">
<path d="M187.6 111V96.4C187.6 91.1 184.4 86.4 179.5 84.3L89 47V55.1L169.7 88.4C172.5 89.5 172.5 93.5 169.7 94.6L89 127.9V160.4L137.6 140.3L169.6 153.5C172.4 154.6 172.4 158.6 169.6 159.7L89 193V244.5L179.5 207.2C184.4 205.2 187.6 200.4 187.6 195.1V161.6C187.6 156.3 184.4 151.6 179.5 149.5L147.4 136.3L179.5 123.1C184.4 121.1 187.6 116.3 187.6 111Z" />
<path d="M259.7 96.4L266.9 124.5L275 96.4H282.7L290.3 124.5L297.8 96.4H303.5L293.8 130.3H286.6L278.6 101.1L270.3 130.3H263L253.6 96.4H259.7Z" />
<path d="M312.2 115C312.4 117.8 312.7 119.2 313.6 121C315.3 124.2 319.1 126.3 322.9 126.3C327.5 126.3 330.5 124.1 331.8 119.8H338.1C336.5 127.1 331 131.2 322.8 131.2C312.6 131.2 306.1 124.2 306.1 113.2C306.1 102.5 312.6 95.3 322.3 95.3C332.6 95.3 338.2 102.3 338.2 114.9H312.2V115ZM330.4 104.6C328.8 101.9 325.6 100.3 322.3 100.3C316.6 100.3 313 103.9 312.3 110.4H332C331.7 107.4 331.3 106 330.4 104.6Z" />
<path d="M343.9 83.5H349.7V101.5C352.1 97.5 355.4 95.6 360.2 95.6C368.6 95.6 374.6 102.9 374.6 113.4C374.6 123.9 368.9 131 360.3 131C355.6 131 352.5 129.1 349.5 124.7V130.3H343.9V83.5V83.5ZM349.8 113.2C349.8 120.6 354 126.1 359.5 126.1C364.8 126.1 368.3 121.1 368.3 113.4C368.3 105.3 364.8 100.3 359.3 100.3C353.8 100.3 349.8 105.6 349.8 113.2Z" />
<path d="M385.1 116C385 122 388.8 125.9 394.8 125.9C400.2 125.9 404.1 122.5 404.1 117.8C404.1 113 400.4 110.1 394.4 110.1C393.8 110.1 393.3 110.1 392.4 110.2V105C393.1 105 393.5 105 393.9 105C400.1 105 403.7 102.3 403.7 97.5C403.7 93 400.2 90.1 394.9 90.1C389.2 90.1 385.9 93.5 385.7 99.5H379.5C379.9 90.2 385.6 84.8 395 84.8C403.7 84.8 409.8 89.8 409.8 97C409.8 101.8 406.4 106.2 401.8 107.4C407.4 108.8 410.4 112.6 410.4 118.2C410.4 125.8 403.9 131.2 394.7 131.2C385.1 131.2 378.6 125 378.7 116H385.1Z" />
<path d="M260 166.3H253.9V161.6H260C260.1 156 260.2 154.8 261 152.8C262.2 149.6 265.3 147.9 269.9 147.9C270.8 147.9 271.6 148 273.1 148.1V153.3C271.7 152.9 271.1 152.9 270.2 152.9C268.2 152.9 266.7 153.9 266.2 155.7C265.8 156.9 265.8 157.8 265.8 161.5H273.1V166.2H265.8V195.4H260V166.3Z" />
<path d="M307.2 178.5C307.2 189.4 300.7 196.5 290.7 196.5C280.9 196.5 274.4 189.2 274.4 178.4C274.4 167.7 281 160.6 290.9 160.6C300.6 160.7 307.2 167.9 307.2 178.5ZM280.7 178.2C280.7 186.5 284.4 191.6 290.6 191.6C296.8 191.6 300.9 186.5 300.9 178.6C300.9 170.6 296.9 165.5 290.7 165.5C284.5 165.5 280.7 170.4 280.7 178.2Z" />
<path d="M335.4 191.5C333.7 194.5 329.8 196.3 325.2 196.3C320.5 196.3 316.8 194.4 314.8 191.1C313.5 188.9 313.1 186.6 313.1 180.9V161.6H318.9V182C318.9 188.4 321.3 191.4 326.2 191.4C329.4 191.4 332.2 189.9 333.8 187.4C334.8 185.8 335 183.9 335 177.9V161.7H340.8V195.6H335.2V191.5H335.4Z" />
<path d="M353.5 165.7C356.1 162.3 359.2 160.9 363.8 160.9C368.5 160.9 372.2 162.8 374.2 166.1C375.5 168.3 375.9 170.6 375.9 176.3V195.6H370V175.2C370 168.7 367.6 165.8 362.7 165.8C359.4 165.8 356.7 167.3 355.1 169.9C354.1 171.5 353.9 173.3 353.9 179.4V195.6H348V161.7H353.5V165.7Z" />
<path d="M406.8 195.5V189.9C403.8 194.4 400.6 196.2 396 196.2C387.5 196.2 381.7 189.1 381.7 178.7C381.7 168.1 387.6 160.8 396.1 160.8C400.9 160.8 404.2 162.7 406.6 166.7V148.7H412.4V195.4H406.8V195.5ZM388 178.7C388 186.4 391.4 191.4 396.8 191.4C402.3 191.4 406.5 185.9 406.5 178.5C406.5 170.9 402.6 165.6 397.1 165.6C391.6 165.6 388 170.6 388 178.7Z" />
<path d="M441.8 195.5C441.5 193.7 441.4 193.1 441.2 191.3C438.3 194.8 435 196.3 430.3 196.3C423 196.3 418.1 192.1 418.1 186C418.1 181.5 420.6 178.4 425.6 176.9C427.2 176.4 429.8 175.9 432.8 175.5C434.7 175.2 436.9 174.9 440.7 174.6C440.6 170.2 440.4 168.9 439.2 167.6C438 166.3 435.9 165.5 433.3 165.5C428.3 165.5 425.8 167.7 425.5 172.3H419.4C420 168.1 420.8 166 423 164.1C425.4 161.9 429.2 160.6 433.3 160.6C438.4 160.6 442.4 162.3 444.6 165.6C446.4 168.1 446.7 170.6 446.6 181.4C446.5 188.2 446.8 191.8 447.7 195.5H441.8ZM424.4 186.2C424.4 189.6 427 191.6 431.2 191.6C434.8 191.6 437.6 190.3 439.3 187.7C440.3 186.2 440.7 184.2 440.7 180.4V179.2C428.6 180 424.4 181.8 424.4 186.2Z" />
<path d="M461.9 161.7H469.5V166.4H461.9V184.5C461.9 188.3 462 189 462.6 189.8C463.2 190.6 464.6 191.1 466.2 191.1C467.4 191.1 468.5 190.9 469.5 190.6V195.6C466.8 196.1 465.8 196.2 464.4 196.2C461.3 196.2 458.6 194.8 457.2 192.5C456.4 191 456.1 189.6 456.1 186.3V184.1V166.3H449.9V161.6H456.1V153.4H461.9V161.7Z" />
<path d="M474.7 148.8H480.5V155.6H474.7V148.8ZM480.6 161.7V195.6H474.8V161.7H480.6V161.7Z" />
<path d="M519.2 178.5C519.2 189.4 512.7 196.5 502.7 196.5C492.9 196.5 486.4 189.2 486.4 178.4C486.4 167.7 493 160.6 502.9 160.6C512.6 160.7 519.2 167.9 519.2 178.5ZM492.7 178.2C492.7 186.5 496.4 191.6 502.6 191.6C508.8 191.6 512.9 186.5 512.9 178.6C512.9 170.6 508.9 165.5 502.7 165.5C496.5 165.5 492.7 170.4 492.7 178.2Z" />
<path d="M530.6 165.7C533.2 162.3 536.3 160.9 540.9 160.9C545.6 160.9 549.3 162.8 551.3 166.1C552.6 168.3 553 170.6 553 176.3V195.6H547.2V175.2C547.2 168.7 544.8 165.8 539.9 165.8C536.6 165.8 533.9 167.3 532.3 169.9C531.3 171.5 531.1 173.3 531.1 179.4V195.6H525.3V161.7H530.8V165.7H530.6Z" />
</g>

<defs>
<clipPath id="clip0_101:21">
<rect width="464" height="197.5" fill="rgb(180, 190, 104)" transform="translate(89 47)"/>
</clipPath>
</defs>

</svg>
