<svg width="195" height="89" viewBox="0 0 195 89" fill="none" xmlns="http://www.w3.org/2000/svg">
<path d="M26.3335 18.946C39.4285 13.5682 52.8145 15.9149 56.2095 24.4216C58.2465 29.506 56.1125 35.7638 50.8745 41.1416L50.6805 41.3371L50.4865 41.5327C47.0915 44.9549 42.7265 47.7905 37.6825 49.8438C35.3545 50.8216 33.0265 51.506 30.6985 51.8971L29.7285 58.0571L29.6315 58.9371L29.4375 60.5016L29.2435 61.5771L29.1465 62.1638L29.0495 63.1416L28.9525 63.6305V64.1193V64.4127V64.706V64.9016V65.0971V65.3905V65.4882C28.9525 66.0749 29.1465 66.5638 29.6315 66.7593C29.9225 66.9549 30.5045 66.9549 31.3775 66.7593H31.4745H31.5715H31.6685L31.8625 66.6616H31.9595L32.0565 66.5638L32.2505 66.466L33.1235 65.8793L34.2875 65.1949L35.1605 64.6082L36.0335 64.1193L36.7125 63.7282L37.2945 63.3371L37.7795 63.0438L38.1675 62.8482L38.5555 62.5549L38.8465 62.3593L39.1375 62.1638L44.5695 58.3504L46.4125 57.0793L46.9945 56.6882L47.1885 56.5905L47.4795 56.3949L47.7705 56.1993L47.9645 56.1016L48.2555 55.906L48.5465 55.7105L48.7405 55.6127L48.9345 55.5149L49.0315 55.4171L49.2255 55.3193L49.3225 55.2216H49.4195L49.5165 55.1238H49.6135H49.7105H49.8075H49.9045H50.0015H50.0985H50.1955H50.2925H50.3895C52.1355 55.1238 53.0085 56.0038 53.0085 57.4705V57.5682V57.666V57.7638V57.8616V57.9593V58.1549V58.2527V58.4482L52.9115 58.6438L52.8145 58.8393V58.9371L52.1355 59.1327L52.0385 59.3282L51.9415 59.5238L51.8445 59.8171V60.1105L51.7475 60.5016L51.6505 60.7949L51.4565 61.186L51.3595 61.3816L51.1655 61.8705L50.9715 62.3593L50.7775 63.0438L51.0685 62.8482C51.6505 62.4571 52.2325 62.066 52.8145 61.7727L53.0085 61.6749L53.1055 61.5771C53.4935 61.2838 53.9785 61.0882 54.3665 60.8927L54.5605 60.7949L54.7545 60.6971C57.1795 59.5238 59.1195 59.3282 60.8655 60.1105C62.3205 60.6971 62.9995 61.5771 63.5815 63.3371V63.4349L63.6785 63.826L63.8725 64.4127V64.5105L63.9695 64.8038C64.2605 65.6838 64.6485 66.1727 64.9395 66.3682C65.5215 66.7593 66.2975 66.8571 67.5585 66.8571H67.7525H68.0435H68.1405H68.4315H68.7225H68.8195H69.2075H69.5955H69.7895H70.0805H70.3715H70.6625L70.9535 66.7593H71.1475L71.5355 66.6616H71.7295L72.1175 66.5638L72.5055 66.466L72.8935 66.3682L73.2815 66.2705L73.6695 66.1727L74.0575 66.0749L74.4455 65.9771L74.8335 65.8793L75.2215 65.7816L75.6095 65.6838L75.9975 65.586L76.4825 65.4882L76.9675 65.3905L77.3555 65.2927C77.5495 65.2927 77.6465 65.1949 77.8405 65.1949L77.7435 64.9993L78.1315 64.9016L77.9375 66.466L77.7435 66.5638L77.1615 66.7593L76.7735 66.9549L76.3855 67.0527L75.9975 67.1505L75.5125 67.346L75.2215 67.4438L74.8335 67.6393L74.5425 67.7371L74.2515 67.9327L73.7665 68.1282L73.2815 68.3238L72.9905 68.4216L72.6995 68.5193L72.2145 68.7149H71.9235L71.5355 68.8127L71.2445 68.9105L70.9535 69.0082L70.6625 69.106L70.3715 69.2038L70.0805 69.3016H69.9835L69.6925 69.3993L69.3045 69.4971L69.1105 69.5949L68.9165 69.6927L68.7225 69.7905L68.4315 69.8882L68.1405 69.986L67.8495 70.0838L67.5585 69.8882H67.4615H67.1705H66.8795H66.6855H66.4915H66.2975C64.5515 70.0838 63.4845 69.986 62.6115 69.4971C61.5445 68.9105 60.9625 68.1282 60.3805 66.7593V66.6616L60.2835 66.5638V66.466L60.1865 66.2705V66.1727L59.9925 65.586L59.7015 64.8038L59.6045 64.6082L59.5075 64.4127L59.4105 64.2171V64.1193V64.0216V63.9238C59.3135 63.6305 59.2165 63.5327 59.0225 63.4349C58.8285 63.3371 58.5375 63.3371 58.0525 63.4349H57.9555H57.8585C57.6645 63.4349 57.4705 63.5327 57.2765 63.6305H57.1795L56.9855 63.7282L56.7915 63.826H56.6945H56.5975L56.4035 63.9238V64.2171L56.2095 64.3149L56.0155 64.4127L55.8215 64.5105H55.7245L55.5305 64.6082L55.4335 64.706L55.3365 64.8038L55.2395 64.9016L55.1425 64.9993H54.8515L54.6575 65.0971L54.4635 65.2927L54.0755 65.586L53.6875 65.8793L53.2025 66.2705L52.7175 66.5638L52.3295 66.8571L52.0385 67.0527L51.7475 67.2482L51.4565 67.4438L51.2625 67.6393L51.0685 67.8349L50.7775 68.1282L49.6135 69.0082L49.5165 69.106C49.1285 69.3993 48.8375 69.5949 48.5465 69.6927C48.0615 69.986 47.4795 70.0838 46.8975 70.0838C45.4425 70.0838 44.2785 69.0082 44.2785 67.7371C44.2785 67.5416 44.2785 67.4438 44.3755 67.2482V67.1505V67.0527C44.4725 66.6616 44.6665 66.1727 44.9575 65.6838L45.0545 65.586L47.0915 61.2838L46.3155 61.9682L45.4425 62.6527L44.6665 63.3371L44.1815 63.826L43.4055 64.5105L42.9205 64.9016L42.4355 65.2927L41.9505 65.6838L41.2715 66.2705L40.7865 66.6616L39.9135 67.1505L39.4285 67.5416L38.9435 67.8349L38.2645 68.3238L37.8765 68.6171L37.4885 68.9105L37.1005 69.2038L36.9065 69.3016L36.3245 69.6927L35.9365 69.986L35.5485 70.1816L35.1605 70.3771L35.0635 70.5727L34.6755 70.7682L34.2875 70.9638L34.0935 71.0616L33.8025 71.2571L33.5115 71.4527L33.3175 71.5505L33.0265 71.746L32.8325 71.8438H32.6385L32.4445 71.9416L32.1535 72.0393C31.9595 72.1371 31.7655 72.2349 31.5715 72.2349C28.4675 73.4082 25.2665 72.8216 23.7145 70.866C23.1325 70.1816 22.8415 69.5949 22.6475 68.7149V68.6171V68.4216V68.3238V68.1282V67.9327V67.8349V67.6393V67.4438V67.2482V67.0527V66.8571V66.5638V66.3682V66.1727V65.8793V65.6838V65.4882V65.2927V65.0971V64.9016V64.706V64.5105L22.7445 64.1193V63.826L22.8415 63.4349L22.9385 63.0438L23.0355 62.7505L23.1325 62.3593L23.2295 61.7727L23.5205 60.306L25.0725 53.3638L25.2665 52.4838C23.0355 52.5816 20.8045 52.5816 18.6705 52.386H18.3795L17.6035 52.2882L18.2825 49.1593H19.1555H19.7375H19.9315H20.3195H20.7075H21.0955H21.4835H21.6775H22.0655H22.4535H22.8415H23.1325H23.3265H23.6175H23.9085C24.1025 49.1593 24.2965 49.1593 24.3935 49.1593H24.6845H24.9755H25.1695H25.4605H25.6545H25.9455C26.1395 49.1593 26.2365 49.1593 26.4305 49.0616L26.5275 48.7682L26.8185 47.4971L27.0125 46.6171L27.2065 45.8349L27.4005 45.0527L27.5945 44.2705L27.7885 43.4882L27.8855 43.0971L28.0795 42.3149L28.2735 41.4349L28.3705 41.0438L28.5645 40.1638L28.6615 39.7727L28.8555 38.8927L28.9525 38.5016L29.1465 37.6216L29.3405 36.7416L29.5345 35.8616L29.6315 35.3727L29.8255 34.4927L30.0195 33.6127L30.3105 32.4393L33.9965 31.7549L31.4745 47.8882H31.5715L31.8625 47.7905L32.2505 47.6927L32.6385 47.4971L32.9295 47.3993L33.2205 47.3016L33.6085 47.2038L33.8025 47.106L34.0935 46.4216L34.4815 46.3238L34.8695 46.1282L35.2575 45.9327C46.0245 41.6304 52.6205 32.7327 50.0015 26.2793C47.5765 20.2171 37.1975 19.0438 26.0425 23.5416L25.7515 23.6393L24.9755 23.9327L23.4235 24.6171L24.4905 19.7282L24.8785 19.5327L25.4605 19.2393L26.0425 18.946H26.3335Z" fill="#ffffff" fill-opacity="1"/>
<path d="M174.938 59.1326C176.102 59.1326 176.975 58.9371 177.557 58.546V56.0037C177.072 56.3948 176.49 56.5904 175.811 56.5904C174.938 56.5904 174.259 56.3948 173.871 55.906C173.483 55.4171 173.289 54.6348 173.289 53.4615V44.0748H177.557V41.5326H173.289V35.8615L170.282 37.3282V41.4348H167.372V43.9771H170.282V54.9282C170.379 58.546 171.931 59.1326 174.938 59.1326ZM161.358 59.2304C163.201 59.2304 164.753 58.8393 166.111 58.0571V55.2215C164.85 56.1993 163.395 56.6882 161.94 56.6882C160.194 56.6882 158.836 56.1015 157.769 55.026C156.702 53.9504 156.217 52.386 156.217 50.3326C156.217 48.2793 156.799 46.7148 157.866 45.5415C158.933 44.3682 160.388 43.6837 162.037 43.6837C163.492 43.6837 164.85 44.1726 166.014 45.0526V42.0215C164.947 41.4348 163.589 41.1415 162.037 41.1415C159.321 41.1415 157.187 42.0215 155.538 43.6837C153.889 45.4437 153.113 47.6926 153.113 50.5282C153.113 53.0704 153.889 55.1237 155.344 56.6882C156.896 58.4482 158.836 59.2304 161.358 59.2304ZM143.898 56.786C142.928 56.786 142.152 56.4926 141.57 56.0037C140.988 55.5148 140.697 54.8304 140.697 54.0482C140.697 53.0704 140.988 52.386 141.473 51.8971C141.958 51.4082 142.928 51.0171 144.383 50.8215L148.36 50.2348V51.8971C148.36 53.266 147.972 54.4393 147.099 55.4171C146.226 56.2971 145.159 56.786 143.898 56.786ZM143.122 59.2304C145.45 59.2304 147.196 58.2526 148.36 56.1993H148.457V58.8393H151.464V47.7904C151.464 43.4882 149.427 41.2393 145.256 41.2393C143.025 41.2393 141.085 41.7282 139.339 42.8037V45.7371C140.988 44.3682 142.928 43.6837 144.965 43.6837C147.293 43.6837 148.457 45.0526 148.457 47.8882L143.413 48.5726C139.63 49.0615 137.787 51.0171 137.787 54.146C137.787 55.7104 138.272 56.8837 139.242 57.7637C140.115 58.7415 141.473 59.2304 143.122 59.2304ZM130.997 58.8393V52.0926C130.997 48.0837 133.034 45.346 134.877 44.8571C135.556 44.6615 136.429 44.6615 137.108 45.0526V41.826C136.72 41.6304 136.235 41.6304 135.556 41.6304C133.422 41.6304 131.967 43.0971 131.094 45.6393H130.997V41.826H127.99V59.0348H130.997V58.8393ZM123.14 59.1326C124.304 59.1326 125.177 58.9371 125.759 58.546V56.0037C125.274 56.3948 124.692 56.5904 124.013 56.5904C123.14 56.5904 122.461 56.3948 122.073 55.906C121.685 55.4171 121.491 54.6348 121.491 53.4615V44.0748H125.759V41.5326H121.491V35.8615L118.484 37.3282V41.4348H115.574V43.9771H118.484V54.5371C118.581 58.0571 120.133 59.1326 123.14 59.1326ZM106.456 56.786C105.486 56.786 104.71 56.4926 104.128 56.0037C103.546 55.5148 103.255 54.8304 103.255 54.0482C103.255 53.0704 103.546 52.386 104.031 51.8971C104.516 51.4082 105.486 51.0171 106.941 50.8215L110.918 50.2348V51.8971C110.918 53.266 110.53 54.4393 109.657 55.4171C108.784 56.2971 107.717 56.786 106.456 56.786ZM105.68 59.2304C108.008 59.2304 109.754 58.2526 110.918 56.1993H111.015V58.8393H114.022V47.7904C114.022 43.4882 111.985 41.2393 107.814 41.2393C105.583 41.2393 103.643 41.7282 101.897 42.8037V45.7371C103.546 44.3682 105.486 43.6837 107.523 43.6837C109.851 43.6837 111.015 45.0526 111.015 47.8882L105.971 48.5726C102.188 49.0615 100.345 51.0171 100.345 54.146C100.345 55.7104 100.83 56.8837 101.8 57.7637C102.673 58.7415 104.031 59.2304 105.68 59.2304ZM87.5405 47.5948V38.0126H90.6445C94.3305 38.0126 96.0765 39.5771 96.0765 42.706C96.0765 44.2704 95.5915 45.5415 94.6215 46.4215C93.6515 47.3015 92.1965 47.6926 90.3535 47.6926H87.5405V47.5948ZM87.5405 58.8393V50.3326H90.6445C93.1665 50.4304 95.2035 49.746 96.8525 48.2793C98.5015 46.8126 99.3745 44.8571 99.3745 42.5104C99.3745 40.1637 98.6955 38.4037 97.2405 37.1326C95.7855 35.8615 93.8455 35.2748 91.2265 35.2748H84.4365V58.8393H87.5405Z" fill="#ffffff" fill-opacity="1"/>
</svg>
