<svg width="195" height="88" viewBox="0 0 195 88" fill="none" xmlns="http://www.w3.org/2000/svg">
<path d="M124.721 36.4677C124.477 36.2253 124.186 36.0291 123.859 35.8833C123.529 35.7376 123.174 35.6633 122.806 35.6633H113.151C112.782 35.6633 112.427 35.7376 112.097 35.8833C111.769 36.0291 111.48 36.2253 111.235 36.4677C110.989 36.7115 110.793 37.0044 110.653 37.3351C110.512 37.6672 110.441 38.0246 110.441 38.3959V51.2055C110.441 51.5768 110.512 51.9342 110.653 52.2663C110.793 52.597 110.989 52.8913 111.234 53.1379C111.48 53.386 111.77 53.5835 112.099 53.7237C112.428 53.8652 112.782 53.9367 113.151 53.9367H122.806C123.174 53.9367 123.529 53.8652 123.858 53.7237C124.186 53.5821 124.478 53.3846 124.723 53.1379C124.969 52.8899 125.163 52.597 125.304 52.2663C125.444 51.9328 125.515 51.5768 125.515 51.2055V44.1204H117.811V47.0211H122.638V51.0373H113.318V38.5641H122.638V40.8777H125.515V38.3959C125.515 38.026 125.444 37.6686 125.303 37.3351C125.163 37.0044 124.967 36.7115 124.721 36.4677Z" fill="#FFFFFF" fill-opacity="1"/>
<path d="M143.446 45.6534C143.221 45.2989 142.943 45.0032 142.62 44.7748C142.403 44.622 142.168 44.4903 141.918 44.3852C142.451 44.0657 142.861 43.6243 143.139 43.068C143.467 42.4093 143.634 41.5517 143.634 40.5217V40.1966C143.634 37.188 142.124 35.6633 139.149 35.6633H129.75V53.9367H139.659C142.636 53.9367 144.145 52.4148 144.145 49.416V48.5149C144.145 47.9124 144.086 47.3672 143.966 46.8978C143.844 46.4227 143.67 46.0051 143.446 45.6534ZM132.578 43.281V38.5136H139.075C139.694 38.5136 140.142 38.6566 140.406 38.9368C140.673 39.2199 140.808 39.6865 140.808 40.3228V41.4985C140.808 42.1038 140.685 42.5537 140.445 42.8325C140.208 43.1072 139.804 43.2585 139.249 43.281H132.578ZM141.315 47.9026V49.2913C141.315 49.9191 141.18 50.3815 140.915 50.6646C140.65 50.9448 140.203 51.0878 139.584 51.0878H132.579V46.1201H139.584C140.204 46.1201 140.653 46.2588 140.916 46.532C141.18 46.8053 141.315 47.2663 141.315 47.9026Z" fill="#FFFFFF" fill-opacity="1"/>
<path d="M159.955 35.6633L154.524 50.1167L149.103 35.6633H146.016L153.007 53.9367H156.04L163.031 35.6633H159.955Z" fill="#FFFFFF" fill-opacity="1"/>
<path d="M95.6859 49.3418V49.2465C95.6859 48.9775 95.5441 48.7295 95.3133 48.5935L80.5468 39.9221V36.2324V22.8091C80.5468 22.8062 80.5454 22.8034 80.5454 22.8006V22.7011C80.5454 22.4321 80.4036 22.1827 80.1728 22.0481L65.0435 13.1721C64.8113 13.0362 64.5249 13.0348 64.2928 13.1693L49.1453 21.9402C48.9132 22.0748 48.7686 22.3256 48.7686 22.596V22.7011C48.7686 22.7025 48.7686 22.7025 48.7686 22.704V39.8156L34.0062 48.3735C33.7741 48.508 33.6295 48.7589 33.6309 49.0293V49.1302C33.6309 49.133 33.6309 49.1344 33.6309 49.1372V66.7926C33.6309 67.0617 33.7727 67.3097 34.0034 67.4456L49.1425 76.3272C49.1564 76.3357 49.1703 76.3427 49.1842 76.3497C49.2037 76.3595 49.2232 76.3679 49.244 76.3749C49.2482 76.3763 49.251 76.3777 49.2551 76.3791C49.2941 76.3945 49.333 76.4043 49.3733 76.4127C49.3747 76.4127 49.3761 76.4141 49.3775 76.4141C49.3789 76.4141 49.3816 76.4141 49.383 76.4141C49.4289 76.4225 49.4748 76.4281 49.5207 76.4281C49.5248 76.4281 49.529 76.4267 49.5318 76.4267C49.5332 76.4267 49.5346 76.4267 49.536 76.4267C49.5401 76.4267 49.5429 76.4253 49.5471 76.4253C49.5777 76.4239 49.6069 76.4225 49.6374 76.4169C49.6444 76.4155 49.65 76.4141 49.6569 76.4127C49.6833 76.4071 49.7111 76.4015 49.7375 76.3945C49.7445 76.3917 49.7514 76.3889 49.7584 76.3875C49.7834 76.3791 49.8084 76.3707 49.8321 76.3595C49.8362 76.3581 49.8404 76.3553 49.8446 76.3525C49.8682 76.3413 49.8932 76.3287 49.9155 76.3146C49.9183 76.3132 49.921 76.3104 49.9238 76.309L64.6612 67.7665L79.4221 76.4253C79.443 76.438 79.4638 76.4478 79.4861 76.4576C79.4916 76.4604 79.4972 76.4646 79.5041 76.4674C79.5111 76.4702 79.518 76.473 79.525 76.4758C79.5333 76.4786 79.5417 76.48 79.55 76.4828C79.5653 76.4884 79.5792 76.494 79.5931 76.4982C79.6042 76.501 79.6154 76.5024 79.6265 76.5052C79.6459 76.5094 79.6668 76.515 79.6863 76.5178C79.7043 76.5206 79.721 76.522 79.7391 76.5234C79.7599 76.5248 79.7808 76.529 79.803 76.529C79.9323 76.529 80.0616 76.4954 80.177 76.4281L95.3119 67.6544C95.5441 67.5199 95.6887 67.2649 95.6887 66.9944V49.3544C95.6887 49.353 95.6887 49.3531 95.6887 49.3516C95.6887 49.3502 95.6887 49.3488 95.6887 49.3474C95.6859 49.3446 95.6859 49.3432 95.6859 49.3418ZM79.0468 36.6654V40.0272L65.416 47.9293V32.0158L79.0468 24.1151V36.6654ZM63.9091 47.9223L50.2728 39.9235L50.27 24.0184L63.9091 32.02V47.9223ZM63.1611 49.2381L49.5262 57.1416L35.8816 49.1372L49.5165 41.2323L63.1611 49.2381ZM66.1695 49.2479L79.8003 41.343L93.4393 49.3432L79.8044 57.2467L66.1695 49.2479ZM64.6639 30.7083L51.0207 22.7054L64.657 14.8004L78.3002 22.8034L64.6639 30.7083ZM35.1309 50.4531L48.7686 58.4533V74.2533L35.1462 66.2615L35.1309 50.4531ZM50.2686 74.2589V58.4701L63.9077 50.5596V66.3526L50.2686 74.2589ZM65.416 66.3596V50.561L79.0482 58.557V74.3528L65.416 66.3596ZM94.1859 66.4521L80.5482 74.3612V58.5682L94.1859 50.6619V66.4521Z" fill="#FFFFFF" fill-opacity="1"/>
</svg>
