<svg width="194" height="89" viewBox="0 0 194 89" fill="none" xmlns="http://www.w3.org/2000/svg">
<path d="M38.3155 55.1376C38.2143 53.9867 38.1068 52.6581 37.9929 51.1454C37.8791 49.6327 37.7652 48.0543 37.645 46.3969C37.5312 44.7461 37.4173 43.0821 37.3035 41.4116C37.1896 39.741 37.0947 38.1757 37.0125 36.7157C36.5824 38.0771 36.1523 39.4517 35.7158 40.8262C35.2794 42.2074 34.862 43.5096 34.4698 44.7461C34.0776 45.9825 33.7108 47.1006 33.3819 48.1069C33.0466 49.1132 32.781 49.9221 32.5723 50.5338C32.3509 50.9481 32.1295 51.3427 31.9081 51.7176C31.6804 52.0925 31.4527 52.4214 31.2123 52.7042C30.972 52.987 30.7316 53.2106 30.4786 53.375C30.2256 53.5394 29.9663 53.6249 29.6943 53.6249C29.3338 53.6249 29.0302 53.546 28.7898 53.3816C28.5495 53.2237 28.3976 52.9804 28.3344 52.6581C28.3217 52.5924 28.3154 52.5266 28.3091 52.4674C28.3028 52.4082 28.3091 52.3424 28.3217 52.2767C27.8916 50.3759 27.4742 48.462 27.0757 46.5284C26.6772 44.5948 26.304 42.6941 25.9498 40.8197C25.8676 40.379 25.7854 39.9383 25.7031 39.4977C25.6209 39.057 25.545 38.623 25.4818 38.1955C25.1908 39.399 24.8682 40.6487 24.5014 41.9509C24.1408 43.2465 23.7487 44.529 23.3249 45.7918C22.9074 47.0546 22.4583 48.2713 21.9839 49.442C21.5096 50.6127 21.0099 51.6782 20.4975 52.6318C19.9789 53.5855 19.4476 54.4076 18.8973 55.0784C18.347 55.7559 17.7904 56.2228 17.2211 56.4925C16.7214 56.7227 16.285 56.8871 15.9055 56.9857C15.526 57.0844 15.1781 57.137 14.8745 57.137C14.4127 57.137 14.0459 57.0384 13.7865 56.8476C13.5272 56.6503 13.3691 56.4135 13.3185 56.1373C13.2552 55.8019 13.3248 55.4533 13.5272 55.0916C13.7296 54.7299 14.0585 54.447 14.5076 54.2497C15.0516 54.0064 15.6019 53.4802 16.1522 52.6515C16.7024 51.8294 17.2338 50.8297 17.7651 49.6525C18.2901 48.4752 18.7961 47.1664 19.2894 45.7195C19.7765 44.2725 20.2445 42.8125 20.681 41.3261C21.1174 39.8397 21.5159 38.3862 21.8827 36.959C22.2496 35.5318 22.5659 34.2493 22.8378 33.0983C23.1098 31.9474 23.3375 30.9872 23.5083 30.2177C23.6791 29.4482 23.7866 28.968 23.8309 28.7839C23.9321 28.3695 24.1282 28.067 24.4128 27.8828C24.6974 27.6987 25.0074 27.6 25.3426 27.6C25.8043 27.6 26.1522 27.7316 26.3799 27.9881C26.6076 28.2512 26.7847 28.7115 26.9112 29.3824C27.1706 30.2242 27.4046 31.02 27.6133 31.7632C27.8221 32.5064 28.0245 33.2693 28.2269 34.052C28.423 34.8347 28.619 35.6765 28.8025 36.5775C28.9922 37.4786 29.1946 38.5177 29.416 39.695C29.5741 40.5368 29.7323 41.4708 29.8904 42.4836C30.0485 43.503 30.2446 44.6409 30.4786 45.897C31.478 42.9835 32.3635 40.4119 33.1352 38.1823C33.9069 35.9527 34.5963 34.0915 35.1972 32.5853C35.7981 31.0792 36.3294 29.9414 36.7911 29.1719C37.2529 28.4024 37.664 28.021 38.0245 28.021H38.1574C38.1953 28.021 38.2333 28.021 38.2712 28.0078C38.3092 28.0012 38.3471 27.9947 38.3851 27.9947C38.695 27.9947 38.9733 28.1985 39.2326 28.5997C39.4856 29.0009 39.6754 29.5205 39.7956 30.165C39.8651 30.8227 39.9411 31.6383 40.0233 32.6117C40.1055 33.5916 40.1814 34.6637 40.27 35.8343C40.3522 37.005 40.4407 38.2415 40.5293 39.5372C40.6178 40.8328 40.7064 42.1219 40.7886 43.3978C40.8708 44.6737 40.9594 45.9168 41.048 47.1203C41.1365 48.3239 41.2314 49.4157 41.3199 50.3891C41.3263 50.5601 41.3452 50.7377 41.3832 50.9218C41.4211 51.106 41.4528 51.2835 41.4844 51.4743C41.5476 51.8229 41.6235 52.1714 41.6994 52.5266C41.7753 52.8817 41.8512 53.2303 41.9145 53.5789C41.9904 53.9801 42.0473 54.3879 42.0853 54.7956C42.1232 55.2034 42.0853 55.5717 41.9714 55.9005C41.8576 56.2294 41.6362 56.499 41.301 56.7029C40.9657 56.9134 40.4724 57.012 39.8146 57.012C39.4667 57.012 39.1631 56.8739 38.9101 56.5977C38.6381 56.3346 38.4483 55.8414 38.3155 55.1376Z" fill="#FFFFFF" fill-opacity="1"/>
<path d="M180.638 49.9355C180.53 49.5869 180.353 49.3041 180.107 49.0936C179.854 48.8766 179.613 48.7714 179.386 48.7714C179.284 48.7714 179.183 48.7911 179.095 48.8306C179.006 48.87 178.936 48.9358 178.886 49.0345C178.683 49.383 178.399 49.8171 178.032 50.3301C177.665 50.8431 177.254 51.343 176.799 51.8165C176.343 52.29 175.85 52.6978 175.318 53.0332C174.787 53.3686 174.256 53.5331 173.712 53.5331C173.427 53.5331 173.187 53.4936 172.991 53.4147C172.795 53.3358 172.649 53.145 172.561 52.8556C172.466 52.5334 172.453 52.1914 172.523 51.8231C172.592 51.4548 172.694 51.0996 172.839 50.751C172.978 50.4025 173.13 50.0736 173.294 49.7645C173.459 49.4554 173.585 49.2055 173.68 49.0016C173.978 48.3965 174.193 47.7388 174.325 47.0153C174.465 46.2919 174.408 45.5289 174.167 44.7266C174.015 44.2201 173.8 43.7926 173.522 43.4441C173.244 43.0955 172.921 42.8127 172.554 42.5891C172.188 42.3654 171.795 42.2142 171.378 42.1155C170.967 42.0234 170.543 41.9774 170.119 41.9774C169.537 41.9774 169.038 42.0497 168.601 42.201C168.171 42.3457 167.785 42.543 167.456 42.7798C167.121 43.0231 166.83 43.2928 166.571 43.5953C166.311 43.8979 166.084 44.2004 165.881 44.5095C165.717 44.0557 165.508 43.6677 165.249 43.3454C164.99 43.0231 164.705 42.7666 164.395 42.5627C164.085 42.3589 163.75 42.2142 163.402 42.1221C163.054 42.03 162.7 41.984 162.339 41.984C161.618 41.984 160.998 42.0892 160.486 42.3062C159.974 42.5233 159.531 42.7929 159.158 43.1218C158.785 43.4506 158.462 43.8058 158.177 44.1938C157.893 44.5819 157.633 44.9436 157.387 45.279C157.418 44.8647 157.38 44.4832 157.273 44.1346C157.134 43.6677 156.9 43.3059 156.571 43.0626C156.248 42.8127 155.919 42.6943 155.603 42.6943C155.23 42.6943 154.895 42.8324 154.604 43.1152C154.306 43.398 154.129 43.8255 154.072 44.3977C154.022 44.8647 153.952 45.4303 153.857 46.0946C153.769 46.7588 153.674 47.4626 153.566 48.2123C153.535 48.4294 153.509 48.6398 153.478 48.8569C152.927 49.7119 152.39 50.4748 151.871 51.1391C151.65 51.4219 151.409 51.6981 151.169 51.9743C150.922 52.2506 150.676 52.4939 150.435 52.7044C150.189 52.9214 149.955 53.0924 149.733 53.2174C149.506 53.3423 149.297 53.4081 149.107 53.4081C148.797 53.4081 148.538 53.2766 148.335 53.0201C148.127 52.757 147.962 52.4281 147.842 52.027C147.747 51.7178 147.684 51.3495 147.64 50.9155C147.602 50.4814 147.576 50.0144 147.57 49.5211C147.564 49.0279 147.57 48.5214 147.589 48.0084C147.608 47.4954 147.627 46.9956 147.652 46.5221C147.678 46.0485 147.697 45.6144 147.716 45.2264C147.735 44.8384 147.734 44.5161 147.722 44.2662C147.716 44.2136 147.703 44.1412 147.678 44.0426C147.576 43.7071 147.33 43.398 146.938 43.1218C146.545 42.8456 146.103 42.7009 145.616 42.7009C145.464 42.7009 145.287 42.7403 145.097 42.8127C144.907 42.885 144.73 42.9705 144.566 43.0626C144.363 43.1678 144.173 43.2862 143.99 43.4046C143.655 43.1481 143.288 42.9179 142.889 42.7009C142.542 42.5299 142.13 42.3654 141.662 42.2207C141.194 42.0761 140.676 41.9971 140.113 41.9971C139.018 41.9971 138.089 42.1944 137.317 42.5891C136.545 42.9837 135.913 43.4967 135.407 44.1346C134.901 44.7726 134.521 45.4895 134.249 46.2919C133.984 47.0943 133.807 47.9098 133.731 48.7319C133.674 49.3501 133.655 49.9421 133.674 50.5274C133.465 50.6787 133.237 50.8497 132.972 51.0273C132.554 51.3232 132.073 51.6323 131.542 51.9612C131.011 52.29 130.454 52.5926 129.879 52.8754C129.303 53.1582 128.702 53.3884 128.082 53.566C127.462 53.7435 126.855 53.8356 126.261 53.8356C125.71 53.8356 125.23 53.7238 124.831 53.5068C124.433 53.2831 124.142 52.9806 123.958 52.5926C125.508 51.9217 126.76 51.2575 127.728 50.5932C128.696 49.9289 129.43 49.2844 129.929 48.6464C130.435 48.0084 130.732 47.3836 130.834 46.772C130.929 46.1538 130.897 45.5684 130.726 45.0028C130.442 44.0557 129.955 43.3125 129.265 42.7732C128.576 42.2405 127.696 41.9708 126.627 41.9708C125.609 41.9708 124.705 42.1221 123.901 42.4312C123.098 42.7403 122.402 43.1481 121.808 43.6545C121.213 44.1609 120.72 44.7463 120.321 45.4106C119.923 46.0748 119.619 46.7523 119.417 47.4494C119.214 48.1466 119.107 48.8371 119.094 49.5277C119.088 49.9618 119.113 50.3696 119.183 50.751C119.151 50.7576 119.126 50.7708 119.094 50.7773C118.557 50.9352 117.994 51.0207 117.399 51.0207C117.216 51.0207 117.051 51.0009 116.899 50.9681C116.748 50.9352 116.602 50.8431 116.469 50.6984C116.608 50.2972 116.703 49.8303 116.754 49.3041C116.805 48.7779 116.83 48.2584 116.83 47.7585C116.824 47.2587 116.805 46.8049 116.76 46.4037C116.716 46.0025 116.672 45.7328 116.634 45.6013C116.457 45.0159 116.197 44.4964 115.849 44.0491C115.502 43.6019 115.109 43.2204 114.679 42.9179C114.243 42.6088 113.8 42.3786 113.338 42.2142C112.877 42.0563 112.446 41.9708 112.048 41.9708C111.479 41.9708 110.954 42.0497 110.46 42.201C109.967 42.3523 109.505 42.5562 109.082 42.8061C108.651 43.056 108.259 43.3322 107.886 43.6479C107.519 43.9636 107.178 44.2859 106.868 44.6213C107.241 42.7074 107.563 40.7738 107.823 38.8139C108.082 36.854 108.398 34.9269 108.784 33.0262C108.86 32.7565 108.911 32.4672 108.949 32.1515C108.98 31.8358 108.961 31.5464 108.879 31.2767C108.772 30.9282 108.569 30.6322 108.259 30.3954C107.949 30.1521 107.5 30.0337 106.906 30.0337C106.672 30.0337 106.457 30.0732 106.254 30.1455C106.052 30.2178 105.875 30.3165 105.717 30.448C105.565 30.573 105.432 30.7177 105.337 30.8821C105.236 31.04 105.173 31.211 105.147 31.382L103.433 44.4043C103.383 44.7529 103.345 45.0357 103.326 45.2593C103.3 45.4829 103.281 45.6736 103.269 45.8381C103.256 46.0025 103.243 46.1669 103.231 46.3182C103.218 46.4694 103.205 46.6536 103.193 46.8575C103.18 47.0679 103.155 47.3179 103.13 47.6073C103.104 47.9032 103.066 48.2715 103.016 48.7122C102.978 49.0871 102.965 49.4751 102.965 49.8697C102.592 50.2512 102.174 50.6326 101.725 51.0141C101.194 51.4613 100.618 51.8888 100.018 52.29C99.4104 52.6912 98.8032 53.0266 98.1896 53.2963C98.0568 53.4147 97.9366 53.487 97.8291 53.5068C97.7216 53.5265 97.6204 53.5396 97.5318 53.5396C97.3926 53.5396 97.2725 53.5002 97.1839 53.4213C97.0954 53.3423 97.0321 53.2503 97.0005 53.1385C96.9183 52.8556 96.9246 52.6123 97.0258 52.3953C97.0827 52.1519 97.1649 51.8494 97.2788 51.4811C97.3926 51.1128 97.5192 50.7116 97.6583 50.2643C97.7975 49.8237 97.924 49.3501 98.0505 48.8503C98.177 48.3504 98.2718 47.8374 98.3414 47.3179C98.411 46.7983 98.4363 46.2721 98.4173 45.7526C98.4047 45.233 98.3224 44.7266 98.177 44.2464C97.9303 43.4309 97.5255 42.8521 96.9689 42.5101C96.4122 42.1681 95.7861 41.9971 95.1093 41.9971C94.5021 41.9971 93.8948 42.0958 93.2813 42.2997C92.6678 42.5036 92.0858 42.7601 91.5482 43.0692C91.0042 43.3849 90.5299 43.74 90.1187 44.1346C89.7076 44.5293 89.423 44.9173 89.2522 45.2856C89.2838 45.0554 89.2901 44.8449 89.2712 44.6411C89.2522 44.4372 89.2142 44.253 89.1573 44.082C89.0182 43.6282 88.7968 43.2796 88.4805 43.0494C88.1643 42.8127 87.8543 42.7009 87.5444 42.7009C87.1712 42.7009 86.836 42.839 86.5324 43.1218C86.2288 43.4046 86.039 43.8321 85.9568 44.4043C85.9252 44.6148 85.8935 44.8384 85.8556 45.0883C85.7923 45.108 85.7354 45.1475 85.6975 45.2067C85.5899 45.4106 85.4571 45.6539 85.2926 45.9367C85.1282 46.2261 84.9384 46.5286 84.7297 46.8509C84.5146 47.1732 84.2869 47.4954 84.0339 47.8111C83.7809 48.1334 83.5216 48.4228 83.2496 48.6727C82.9776 48.9292 82.7057 49.1331 82.421 49.2975C82.1427 49.4554 81.8644 49.5409 81.5988 49.5409C81.4027 49.5409 81.2129 49.508 81.0295 49.4422C80.8397 49.3764 80.6626 49.2646 80.4855 49.1002C80.5235 48.5412 80.5172 48.0019 80.4602 47.4823C80.4096 46.9693 80.3211 46.5089 80.2009 46.1077C79.9669 45.3316 79.6127 44.6805 79.1383 44.1544C78.6639 43.6282 78.1389 43.2007 77.5696 42.8784C76.994 42.5562 76.4121 42.3326 75.8112 42.1944C75.2104 42.0629 74.6664 41.9906 74.1793 41.9906C73.0471 41.9906 72.0731 42.1813 71.2635 42.5627C70.4538 42.9442 69.777 43.4441 69.2457 44.0689C68.7144 44.6937 68.3033 45.3908 68.0187 46.1735C67.734 46.9561 67.5379 47.7454 67.4367 48.5412C67.3355 49.337 67.3166 50.1131 67.3735 50.8563C67.4304 51.606 67.5443 52.2506 67.7024 52.7833C67.9428 53.5725 68.2906 54.2434 68.7524 54.7893C69.2141 55.3351 69.7138 55.7824 70.2451 56.1244C70.7764 56.4664 71.3077 56.7097 71.8264 56.8544C72.3451 56.9991 72.7878 57.078 73.1484 57.078C74.1035 57.078 74.9573 56.9531 75.729 56.7097C76.4944 56.4598 77.1775 56.1178 77.772 55.6771C78.3666 55.2365 78.8663 54.7103 79.2711 54.0921C79.6759 53.4739 79.9985 52.7965 80.2388 52.0467C80.631 52.29 81.0042 52.461 81.3521 52.5663C81.7 52.6715 82.0415 52.7241 82.3767 52.7241C82.8638 52.7241 83.3129 52.586 83.7177 52.3032C84.1225 52.0204 84.4893 51.6784 84.8183 51.2772C84.8246 51.2706 84.8309 51.264 84.8372 51.2509C84.7613 51.7507 84.6981 52.2243 84.6411 52.6781C84.5589 53.3489 84.502 53.9343 84.4767 54.4473C84.4514 54.9537 84.4704 55.322 84.5399 55.5522C84.6664 55.9797 84.9068 56.3414 85.2547 56.6374C85.6026 56.9333 86.0011 57.078 86.4501 57.078C86.8866 57.078 87.2092 56.9333 87.4116 56.644C87.614 56.3546 87.7658 55.9928 87.867 55.5588C87.9682 55.1247 88.0504 54.6577 88.1073 54.1513C88.1706 53.6515 88.2591 53.1779 88.3856 52.7373C88.6007 52.0796 88.8537 51.3364 89.1447 50.5077C89.4356 49.679 89.7898 48.8898 90.2073 48.1466C90.6247 47.4034 91.1307 46.7786 91.719 46.2721C92.3072 45.7657 93.0093 45.5092 93.8316 45.5092C94.053 45.5092 94.2364 45.5816 94.3882 45.7197C94.54 45.8578 94.6475 46.0288 94.7045 46.2327C94.774 46.4629 94.7804 46.7523 94.7171 47.114C94.6602 47.4757 94.5716 47.8835 94.4641 48.3504C94.3503 48.8108 94.2237 49.2975 94.0846 49.8171C93.9454 50.3301 93.8189 50.8497 93.7114 51.3693C93.6039 51.8888 93.5343 52.4018 93.4964 52.8951C93.4584 53.3884 93.49 53.8422 93.5912 54.2565C93.6102 54.3618 93.6292 54.4604 93.6482 54.5459C93.6671 54.6314 93.6924 54.7235 93.7177 54.8156C93.9328 55.5259 94.2554 56.0783 94.6918 56.473C95.1282 56.8676 95.6849 57.0649 96.368 57.0649C96.602 57.0649 96.8424 57.0386 97.108 56.986C97.3673 56.9333 97.652 56.8544 97.9493 56.7426C98.8411 56.4466 99.5938 56.131 100.22 55.789C100.846 55.447 101.415 55.0786 101.934 54.684C102.453 54.2894 102.946 53.8619 103.421 53.4081C103.452 53.3752 103.49 53.3423 103.528 53.3095C103.692 53.7698 103.895 54.2171 104.135 54.638C104.445 55.1707 104.825 55.6443 105.28 56.0455C105.736 56.4467 106.267 56.7623 106.88 56.9991C107.494 57.2359 108.19 57.3477 108.974 57.3477C110.403 57.3477 111.637 57.032 112.674 56.394C113.712 55.7561 114.572 54.7564 115.255 53.395C115.59 53.6515 115.951 53.8356 116.33 53.954C116.716 54.0724 117.108 54.1316 117.526 54.1316C118.171 54.1316 118.784 54.0592 119.36 53.9211C119.708 53.8356 120.049 53.7304 120.378 53.6186C120.796 54.2763 121.276 54.855 121.833 55.3615C122.409 55.881 123.041 56.2954 123.731 56.6045C124.42 56.9136 125.154 57.0649 125.925 57.0649C126.824 57.0649 127.703 56.9399 128.557 56.6966C129.411 56.4466 130.208 56.1375 130.948 55.7627C131.688 55.3878 132.377 54.98 133.01 54.5262C133.471 54.1973 133.889 53.8816 134.262 53.5725C134.464 54.0855 134.73 54.5328 135.046 54.9142C135.47 55.4206 135.932 55.835 136.425 56.1573C136.919 56.4795 137.412 56.7097 137.899 56.8478C138.386 56.986 138.797 57.0583 139.132 57.0583C139.79 57.0583 140.385 56.9005 140.929 56.5848C141.473 56.2691 141.96 55.8679 142.402 55.3812C142.839 54.8945 143.225 54.3486 143.554 53.7567C143.882 53.1648 144.161 52.586 144.388 52.0204C144.37 52.2637 144.382 52.5202 144.426 52.7899C144.471 53.0661 144.534 53.3423 144.616 53.6251C144.743 54.0526 144.92 54.4736 145.148 54.8813C145.375 55.2891 145.641 55.6508 145.951 55.9731C146.261 56.2954 146.602 56.5519 146.988 56.7558C147.368 56.9597 147.785 57.0583 148.234 57.0583C148.734 57.0583 149.234 56.9333 149.727 56.69C150.22 56.4401 150.701 56.1244 151.169 55.7363C151.637 55.3483 152.08 54.9142 152.497 54.4407C152.649 54.2697 152.795 54.0987 152.934 53.9277C152.927 54.0855 152.921 54.2434 152.915 54.3881C152.902 54.8945 152.927 55.2694 153.003 55.5127C153.13 55.9402 153.377 56.3085 153.743 56.6177C154.104 56.9268 154.521 57.078 154.983 57.078C155.407 57.078 155.717 56.9268 155.907 56.6242C156.096 56.3217 156.242 55.9534 156.33 55.5127C156.425 55.0721 156.489 54.592 156.52 54.0658C156.558 53.5462 156.621 53.0595 156.723 52.6189C156.849 52.1914 156.988 51.7178 157.14 51.1917C157.292 50.6721 157.463 50.146 157.659 49.6132C157.855 49.0871 158.076 48.5741 158.335 48.0808C158.595 47.5875 158.886 47.1469 159.221 46.7654C159.556 46.3839 159.936 46.0748 160.353 45.8446C160.771 45.6079 161.245 45.4961 161.77 45.4961C161.991 45.4961 162.175 45.5684 162.333 45.7065C162.491 45.8446 162.605 46.0222 162.668 46.2393C162.731 46.4431 162.75 46.6404 162.731 46.8312C162.712 47.0285 162.668 47.2324 162.605 47.4428C162.384 48.2058 162.131 48.9489 161.852 49.679C161.568 50.409 161.321 51.1259 161.112 51.8362C160.903 52.5465 160.758 53.2371 160.682 53.9014C160.606 54.5722 160.663 55.2233 160.859 55.8679C160.922 56.0389 161.03 56.2033 161.169 56.348C161.308 56.4927 161.473 56.6242 161.65 56.7295C161.827 56.8347 162.017 56.9202 162.219 56.9794C162.415 57.0386 162.592 57.0715 162.75 57.0715C163.174 57.0715 163.484 56.9202 163.674 56.6177C163.864 56.3151 164.009 55.9468 164.098 55.5061C164.193 55.0655 164.256 54.5854 164.287 54.0592C164.325 53.5396 164.389 53.053 164.49 52.6123C164.616 52.1848 164.755 51.7113 164.907 51.1851C165.059 50.6655 165.23 50.1394 165.426 49.6066C165.622 49.0805 165.843 48.5675 166.103 48.0742C166.362 47.5809 166.653 47.1403 166.988 46.7588C167.323 46.3774 167.703 46.0683 168.12 45.8381C168.538 45.6013 169.012 45.4895 169.537 45.4895C169.759 45.4895 169.942 45.5618 170.1 45.6999C170.258 45.8381 170.372 46.0156 170.435 46.2327C170.499 46.4366 170.518 46.6339 170.499 46.8246C170.48 47.0219 170.435 47.2258 170.372 47.4363C170.227 47.9427 170.037 48.4557 169.79 48.9621C169.544 49.4685 169.322 49.9947 169.126 50.5406C168.93 51.0799 168.797 51.6455 168.728 52.2374C168.658 52.8293 168.728 53.4541 168.93 54.125C169.234 55.1444 169.752 55.8876 170.48 56.3546C171.207 56.8215 172.042 57.0583 172.997 57.0583C173.731 57.0583 174.42 56.9136 175.072 56.6177C175.723 56.3217 176.343 55.9336 176.938 55.4404C177.532 54.9537 178.095 54.3881 178.633 53.7567C179.17 53.1187 179.676 52.4545 180.164 51.7573C180.442 51.4482 180.613 51.1325 180.67 50.8168C180.726 50.5011 180.714 50.2051 180.638 49.9355ZM76.9371 49.975C76.8802 50.6458 76.7157 51.2443 76.4374 51.7705C76.1591 52.2966 75.7923 52.7241 75.3305 53.053C74.8688 53.3818 74.3438 53.5462 73.7492 53.5462C73.3634 53.5462 73.0282 53.4607 72.7435 53.2831C72.4589 53.1121 72.2186 52.8885 72.0162 52.632C71.8137 52.369 71.6493 52.0927 71.5228 51.7902C71.3963 51.4876 71.2888 51.2114 71.2129 50.9549C71.0105 50.2709 70.9346 49.6066 70.9978 48.9555C71.0611 48.3044 71.2255 47.7256 71.5038 47.2126C71.7821 46.6996 72.149 46.2853 72.617 45.9696C73.0851 45.6539 73.6164 45.4961 74.2236 45.4961C74.6221 45.4961 74.9637 45.575 75.2357 45.7263C75.514 45.8775 75.748 46.0748 75.9441 46.3182C76.1401 46.5615 76.2983 46.8246 76.4121 47.114C76.5323 47.4034 76.6335 47.6796 76.7094 47.9493C76.9181 48.6333 76.9877 49.3107 76.9371 49.975ZM113.402 49.508C113.294 50.2643 113.054 50.9418 112.681 51.5468C112.307 52.1519 111.827 52.632 111.238 53.0003C110.65 53.3686 109.98 53.5528 109.233 53.5528C108.847 53.5528 108.519 53.4936 108.253 53.3752C107.987 53.2568 107.76 53.099 107.582 52.9148C107.405 52.7307 107.26 52.5202 107.159 52.3032C107.051 52.0796 106.969 51.8625 106.906 51.6521C106.672 50.876 106.627 50.1131 106.773 49.3567C106.918 48.6004 107.19 47.9229 107.595 47.3179C108 46.7128 108.512 46.2327 109.132 45.8644C109.752 45.4961 110.435 45.3119 111.169 45.3119C111.491 45.3119 111.77 45.3777 111.997 45.5026C112.231 45.6276 112.421 45.7854 112.586 45.9762C112.744 46.1669 112.877 46.3708 112.978 46.601C113.079 46.8312 113.161 47.0416 113.218 47.2455C113.446 47.9887 113.509 48.7516 113.402 49.508ZM122.972 50.2578C122.972 50.0013 122.991 49.6921 123.028 49.3173C123.066 48.9424 123.13 48.5543 123.225 48.1466C123.319 47.7388 123.446 47.3244 123.598 46.9101C123.75 46.4958 123.952 46.1274 124.205 45.7986C124.458 45.4698 124.768 45.2067 125.135 45.0028C125.502 44.7989 125.925 44.7003 126.412 44.7003C126.476 44.7003 126.533 44.7003 126.583 44.7003C126.634 44.7003 126.697 44.7068 126.76 44.72C126.925 44.7463 127.083 44.8186 127.241 44.9436C127.399 45.062 127.507 45.2264 127.57 45.4237C127.64 45.6671 127.621 45.9499 127.5 46.2787C127.38 46.6076 127.089 46.9561 126.621 47.331C126.514 47.4099 126.343 47.5678 126.096 47.7914C125.849 48.0216 125.559 48.2715 125.217 48.5543C124.875 48.8371 124.515 49.1265 124.123 49.4356C123.731 49.7448 123.345 50.021 122.972 50.2578ZM143.104 48.0939C143.022 48.4688 142.902 48.8898 142.731 49.3567C142.561 49.8237 142.358 50.3038 142.124 50.7905C141.884 51.2772 141.624 51.7244 141.34 52.1322C141.055 52.54 140.764 52.8754 140.467 53.1385C140.163 53.4015 139.872 53.5265 139.588 53.5265C139.227 53.5265 138.917 53.4476 138.658 53.2831C138.399 53.1253 138.171 52.9214 137.987 52.6781C137.798 52.4347 137.646 52.1716 137.526 51.8823C137.406 51.5929 137.304 51.3166 137.228 51.047C137.032 50.3893 136.963 49.7382 137.026 49.0936C137.089 48.4425 137.26 47.8572 137.538 47.3376C137.817 46.818 138.196 46.3971 138.664 46.0748C139.132 45.7526 139.67 45.5947 140.277 45.5947C140.486 45.5947 140.733 45.6342 141.036 45.7065C141.333 45.7789 141.631 45.8907 141.915 46.0354C142.206 46.1801 142.466 46.3576 142.693 46.5681C142.921 46.7786 143.079 47.0088 143.155 47.2587C143.199 47.4428 143.18 47.7191 143.104 48.0939Z" fill="#FFFFFF" fill-opacity="1"/>
<path d="M56.6586 41.7337C52.8636 41.7337 49.7832 44.9367 49.7832 48.8828C49.7832 48.8894 49.7832 48.896 49.7832 48.896C49.7832 48.9025 49.7832 48.9025 49.7832 48.9091C49.7959 49.0933 49.9413 49.238 50.1248 49.238H63.1988C63.3759 49.238 63.5278 49.0933 63.5404 48.9091C63.5404 48.9025 63.5404 48.9025 63.5404 48.896C63.5404 48.8894 63.5404 48.8828 63.5404 48.8828C63.5341 44.9367 60.4601 41.7337 56.6586 41.7337Z" fill="#FFFFFF" fill-opacity="1"/>
<path d="M44.812 57.3011C45.0425 57.3011 45.2294 57.1068 45.2294 56.8671C45.2294 56.6273 45.0425 56.433 44.812 56.433C44.5814 56.433 44.3945 56.6273 44.3945 56.8671C44.3945 57.1068 44.5814 57.3011 44.812 57.3011Z" fill="#FFFFFF" fill-opacity="1"/>
<path d="M62.743 54.4599H48.7138C48.4039 54.4599 48.2015 54.8085 48.3533 55.0913C48.3533 55.0979 48.3596 55.0979 48.3596 55.1044C48.4292 55.2426 48.5684 55.3281 48.7202 55.3281H62.7367C62.8885 55.3281 63.0277 55.2426 63.0972 55.1044C63.0972 55.0979 63.1036 55.0979 63.1036 55.0913C63.2554 54.8085 63.053 54.4599 62.743 54.4599Z" fill="#FFFFFF" fill-opacity="1"/>
<path d="M64.6096 50.5139H48.7145C48.4804 50.5139 48.2907 50.7244 48.3033 50.9677C48.3033 50.9743 48.3033 50.9743 48.3033 50.9809C48.316 51.2045 48.4994 51.3821 48.7145 51.3821H64.6096C64.831 51.3821 65.0081 51.2045 65.0207 50.9809C65.0207 50.9743 65.0207 50.9743 65.0207 50.9677C65.0334 50.7244 64.8436 50.5139 64.6096 50.5139Z" fill="#FFFFFF" fill-opacity="1"/>
<path d="M58.6192 60.3792H51.4591C51.0227 60.3792 50.8899 60.9843 51.2757 61.1882C51.282 61.1948 51.2947 61.1948 51.301 61.2013C51.3579 61.2342 51.4212 61.2474 51.4844 61.2474H58.5939C58.6572 61.2474 58.7204 61.2342 58.7773 61.2013C58.7837 61.1948 58.7963 61.1948 58.8026 61.1882C59.1948 60.9843 59.0556 60.3792 58.6192 60.3792Z" fill="#FFFFFF" fill-opacity="1"/>
<path d="M62.9966 58.4061H55.8302C55.3938 58.4061 55.261 59.0111 55.6468 59.215C55.6531 59.2216 55.6658 59.2216 55.6721 59.2282C55.729 59.2611 55.7923 59.2742 55.8555 59.2742H62.965C63.0283 59.2742 63.0915 59.2611 63.1484 59.2282C63.1548 59.2216 63.1674 59.2216 63.1737 59.215C63.5722 59.0111 63.4331 58.4061 62.9966 58.4061Z" fill="#FFFFFF" fill-opacity="1"/>
<path d="M53.2306 57.1689C53.2243 57.1624 53.2243 57.1624 53.218 57.1558C52.9713 56.8796 53.161 56.4389 53.5216 56.4389H65.1472C65.5077 56.4389 65.6975 56.8861 65.4508 57.1558C65.4445 57.1624 65.4445 57.1624 65.4381 57.1689C65.3622 57.2544 65.2484 57.3071 65.1345 57.3071H53.5342C53.4204 57.3005 53.3128 57.2544 53.2306 57.1689Z" fill="#FFFFFF" fill-opacity="1"/>
<path d="M46.3046 56.433H51.8581C52.2945 56.433 52.4274 57.0381 52.0415 57.242C52.0352 57.2485 52.0225 57.2485 52.0162 57.2551C51.9593 57.288 51.896 57.3011 51.8328 57.3011H46.3362C46.273 57.3011 46.2097 57.288 46.1528 57.2551C46.1465 57.2485 46.1338 57.2485 46.1275 57.242C45.7353 57.0446 45.8745 56.433 46.3046 56.433Z" fill="#FFFFFF" fill-opacity="1"/>
<path d="M47.2153 51.3889C47.4459 51.3889 47.6328 51.1945 47.6328 50.9548C47.6328 50.715 47.4459 50.5207 47.2153 50.5207C46.9848 50.5207 46.7979 50.715 46.7979 50.9548C46.7979 51.1945 46.9848 51.3889 47.2153 51.3889Z" fill="#FFFFFF" fill-opacity="1"/>
<path d="M57.4997 53.0397C57.4997 53.0331 57.4997 53.0331 57.5061 53.0266C57.5756 52.7569 57.3795 52.4872 57.1076 52.4872H45.4819C45.21 52.4872 45.0139 52.7569 45.0835 53.0266C45.0835 53.0331 45.0835 53.0331 45.0898 53.0397C45.1404 53.2239 45.2985 53.3554 45.4883 53.3554H57.1076C57.291 53.362 57.4555 53.2305 57.4997 53.0397Z" fill="#FFFFFF" fill-opacity="1"/>
<path d="M43.9829 53.3554C44.2134 53.3554 44.4004 53.1611 44.4004 52.9213C44.4004 52.6816 44.2134 52.4872 43.9829 52.4872C43.7523 52.4872 43.5654 52.6816 43.5654 52.9213C43.5654 53.1611 43.7523 53.3554 43.9829 53.3554Z" fill="#FFFFFF" fill-opacity="1"/>
<path d="M47.2153 55.3281C47.4459 55.3281 47.6328 55.1337 47.6328 54.894C47.6328 54.6542 47.4459 54.4599 47.2153 54.4599C46.9848 54.4599 46.7979 54.6542 46.7979 54.894C46.7979 55.1337 46.9848 55.3281 47.2153 55.3281Z" fill="#FFFFFF" fill-opacity="1"/>
<path d="M54.3432 59.2742C54.5738 59.2742 54.7607 59.0799 54.7607 58.8401C54.7607 58.6004 54.5738 58.4061 54.3432 58.4061C54.1127 58.4061 53.9258 58.6004 53.9258 58.8401C53.9258 59.0799 54.1127 59.2742 54.3432 59.2742Z" fill="#FFFFFF" fill-opacity="1"/>
<path d="M49.9663 61.2474C50.1969 61.2474 50.3838 61.053 50.3838 60.8133C50.3838 60.5736 50.1969 60.3792 49.9663 60.3792C49.7357 60.3792 49.5488 60.5736 49.5488 60.8133C49.5488 61.053 49.7357 61.2474 49.9663 61.2474Z" fill="#FFFFFF" fill-opacity="1"/>
</svg>
