<svg width="188" height="48" viewBox="0 0 188 48" xmlns="http://www.w3.org/2000/svg">
<g fill="rgb(180, 190, 104)">
<path fill-rule="evenodd" clip-rule="evenodd" d="M0 12.3314L8.7129 16.9742C8.70633 17.0329 8.70296 17.0924 8.70296 17.1528C8.70296 17.7587 9.04277 18.2863 9.54477 18.5606L0 34.5817V12.3314ZM10.8775 28.5018V18.6701C11.0266 18.6182 11.1658 18.5456 11.2914 18.4558L20.6672 23.5906L11.4801 28.8736C11.3111 28.7094 11.1059 28.5812 10.8775 28.5018ZM9.78974 28.5025V19.8375L1.63162 34.0455L8.70471 30.0944C8.70355 30.0694 8.70296 30.0443 8.70296 30.0191C8.70296 29.3191 9.15653 28.7236 9.78974 28.5025ZM9.28035 31.2467L0.543874 35.922L20.6672 47.1812L10.5691 31.611C10.4925 31.6219 10.4142 31.6275 10.3346 31.6275C9.93267 31.6275 9.5647 31.4843 9.28035 31.2467ZM11.4598 31.1838L21.2111 46.1089V24.3948L11.9321 29.6905C11.9545 29.7966 11.9662 29.9065 11.9662 30.0191C11.9662 30.4773 11.7718 30.8908 11.4598 31.1838ZM21.2111 22.2502L11.8855 17.6537C11.9379 17.496 11.9662 17.3277 11.9662 17.1528C11.9662 16.7329 11.803 16.3505 11.5356 16.0641L21.2111 0V22.2502ZM20.1234 0L10.781 15.6053C10.6391 15.5656 10.4894 15.5444 10.3346 15.5444C9.9752 15.5444 9.64295 15.6589 9.37336 15.853L0.543874 11.2591L20.1234 0Z" />
<path fill-rule="evenodd" clip-rule="evenodd" d="M44.5967 12.3314L35.8846 16.9738C35.8912 17.0326 35.8946 17.0923 35.8946 17.1528C35.8946 17.7589 35.5545 18.2868 35.0521 18.5609L44.5967 34.5817L44.5967 12.3314ZM33.7192 28.5021L33.7192 18.6698C33.5703 18.6179 33.4313 18.5453 33.3057 18.4555L23.9295 23.5906L33.1171 28.874C33.286 28.7098 33.4909 28.5816 33.7192 28.5021ZM34.8069 28.5022L34.8069 19.8375L42.9651 34.0455L35.8928 30.0948C35.894 30.0697 35.8946 30.0445 35.8946 30.0191C35.8946 29.3188 35.4406 28.723 34.8069 28.5022ZM35.3168 31.247L44.0528 35.922L23.9295 47.1812L34.0276 31.6109C34.1045 31.6219 34.183 31.6275 34.2629 31.6275C34.6647 31.6275 35.0325 31.4844 35.3168 31.247ZM33.1372 31.1833L23.3856 46.1089L23.3856 24.3948L32.6653 29.691C32.643 29.7969 32.6313 29.9066 32.6313 30.0191C32.6313 30.4771 32.8255 30.8904 33.1372 31.1833ZM23.3856 22.2502L32.7119 17.6533C32.6596 17.4958 32.6313 17.3275 32.6313 17.1528C32.6313 16.7331 32.7943 16.351 33.0614 16.0646L23.3856 1.81571e-06L23.3856 22.2502ZM24.4733 1.72259e-06L33.8158 15.6055C33.9579 15.5657 34.1079 15.5444 34.2629 15.5444C34.6222 15.5444 34.9543 15.6588 35.2238 15.8527L44.0528 11.2591L24.4733 1.72259e-06Z" />
<path d="M63.5993 28.95H58.3718L57.4233 32.9175H54.6221L59.21 14.6259H63.07L67.4152 32.9175H64.4816L63.5993 28.95ZM58.9453 26.4253H63.092L61.1069 17.2279L58.9453 26.4253Z" />
<path d="M69.2537 32.9175V14.394H71.8124V32.9175H69.2537Z" />
<path d="M74.8327 32.9175V14.394H77.3913V32.9175H74.8327Z" />
<path d="M80.4557 32.9175V19.3663H83.0143V32.9175H80.4557ZM80.4557 17.7174V14.394H83.0143V17.7174H80.4557Z" />
<path d="M93.6864 32.9175L93.6202 31.0625C93.1496 31.8011 92.532 32.3765 91.7674 32.7887C91.0174 33.1837 90.1352 33.3812 89.1205 33.3812C88.3853 33.3812 87.7824 33.2953 87.3118 33.1236C86.8413 32.969 86.4663 32.7457 86.1869 32.4537C85.9222 32.1446 85.7311 31.7753 85.6134 31.3459C85.5105 30.9166 85.459 30.4442 85.459 29.929V27.6876C85.459 27.0693 85.5252 26.5541 85.6576 26.1419C85.8046 25.7125 86.0399 25.369 86.3634 25.1114C86.7016 24.8365 87.1427 24.6476 87.6868 24.5446C88.2309 24.4243 88.9073 24.3642 89.7161 24.3642C90.6278 24.3642 91.3924 24.4329 92.01 24.5703C92.6276 24.7077 93.1423 24.8537 93.554 25.0083V24.0293C93.554 23.5484 93.4952 23.1448 93.3776 22.8185C93.2599 22.4921 93.0688 22.2345 92.8041 22.0456C92.5394 21.8395 92.1938 21.7021 91.7674 21.6334C91.341 21.5475 90.8189 21.5046 90.2013 21.5046C88.7897 21.5046 87.5692 21.6849 86.5398 22.0456V19.4693C86.9957 19.3319 87.5471 19.2203 88.1941 19.1344C88.8558 19.0485 89.6867 19.0056 90.6866 19.0056C91.613 19.0056 92.4071 19.0743 93.0688 19.2117C93.7452 19.3491 94.2966 19.5981 94.7231 19.9588C95.1642 20.3195 95.4877 20.809 95.6936 21.4273C95.8994 22.0284 96.0024 22.8013 96.0024 23.7459V32.9175H93.6864ZM93.554 26.8117C93.1864 26.6743 92.7306 26.5541 92.1865 26.451C91.6571 26.3308 91.0395 26.2707 90.3337 26.2707C89.5249 26.2707 88.922 26.3909 88.525 26.6314C88.1427 26.8546 87.9515 27.3613 87.9515 28.1514V29.1561C87.9515 29.8259 88.0912 30.2983 88.3706 30.5731C88.65 30.8307 89.2088 30.9595 90.0469 30.9595C90.8851 30.9595 91.5836 30.7877 92.1424 30.4442C92.7159 30.0836 93.1864 29.6542 93.554 29.1561V26.8117Z" />
<path d="M106.639 32.9175V23.6171C106.639 22.9645 106.478 22.5007 106.154 22.2259C105.845 21.9339 105.367 21.788 104.72 21.788C103.956 21.788 103.294 21.9339 102.735 22.2259C102.176 22.5179 101.676 22.9645 101.235 23.5656V32.9175H98.6766V19.3663H101.037L101.103 21.4015C101.573 20.6286 102.176 20.0361 102.912 19.6239C103.647 19.2117 104.588 19.0056 105.735 19.0056C106.926 19.0056 107.801 19.3061 108.36 19.9073C108.919 20.5084 109.198 21.4359 109.198 22.6897V32.9175H106.639Z" />
<path d="M120.148 32.8659C119.898 32.969 119.508 33.0806 118.979 33.2009C118.449 33.3211 117.802 33.3812 117.038 33.3812C116.111 33.3812 115.31 33.2781 114.633 33.072C113.972 32.8659 113.42 32.5396 112.979 32.0931C112.553 31.6293 112.236 31.0368 112.031 30.3154C111.839 29.5941 111.744 28.7181 111.744 27.6876V24.6991C111.744 23.6686 111.839 22.7927 112.031 22.0713C112.236 21.35 112.553 20.766 112.979 20.3195C113.42 19.8557 113.972 19.5208 114.633 19.3147C115.31 19.1086 116.111 19.0056 117.038 19.0056C117.802 19.0056 118.442 19.0657 118.956 19.1859C119.471 19.289 119.853 19.4006 120.103 19.5208V22.329C119.795 22.1744 119.405 22.037 118.934 21.9168C118.479 21.7965 117.898 21.7364 117.192 21.7364C116.648 21.7364 116.192 21.788 115.824 21.891C115.457 21.9941 115.155 22.1744 114.92 22.432C114.699 22.6725 114.538 22.9988 114.435 23.411C114.347 23.806 114.302 24.3041 114.302 24.9052V27.6103C114.302 28.1771 114.347 28.658 114.435 29.0531C114.538 29.4309 114.699 29.7401 114.92 29.9805C115.155 30.221 115.457 30.4013 115.824 30.5215C116.192 30.6246 116.648 30.6761 117.192 30.6761C117.942 30.6761 118.545 30.616 119.001 30.4958C119.471 30.3755 119.853 30.2381 120.148 30.0836V32.8659Z" />
<path d="M131.875 32.8659C131.743 32.9175 131.537 32.969 131.258 33.0205C130.993 33.0892 130.684 33.1493 130.331 33.2009C129.979 33.2524 129.596 33.2953 129.184 33.3297C128.773 33.364 128.368 33.3812 127.971 33.3812C126.927 33.3812 126.038 33.2781 125.302 33.072C124.567 32.8659 123.964 32.5396 123.494 32.0931C123.023 31.6293 122.678 31.0368 122.457 30.3154C122.236 29.5941 122.126 28.7181 122.126 27.6876V24.6991C122.126 23.6686 122.207 22.7927 122.369 22.0713C122.531 21.35 122.81 20.766 123.207 20.3195C123.604 19.8557 124.126 19.5208 124.773 19.3147C125.435 19.1086 126.266 19.0056 127.265 19.0056C128.251 19.0056 129.059 19.1086 129.692 19.3147C130.339 19.5208 130.839 19.8557 131.192 20.3195C131.559 20.766 131.809 21.35 131.942 22.0713C132.089 22.7927 132.162 23.6686 132.162 24.6991V27.3527H124.597V27.6876C124.597 28.804 124.861 29.6198 125.391 30.1351C125.92 30.6332 126.824 30.8822 128.104 30.8822C128.486 30.8822 128.876 30.865 129.273 30.8307C129.684 30.7963 130.059 30.7534 130.398 30.7019C130.751 30.6503 131.052 30.5902 131.302 30.5215C131.567 30.4528 131.758 30.3927 131.875 30.3412V32.8659ZM129.868 24.5703C129.868 24.0036 129.824 23.5226 129.736 23.1276C129.662 22.7154 129.523 22.3891 129.317 22.1486C129.126 21.891 128.861 21.7021 128.523 21.5819C128.199 21.4616 127.78 21.4015 127.265 21.4015C126.266 21.4015 125.567 21.6506 125.17 22.1486C124.788 22.6295 124.597 23.4368 124.597 24.5703V25.1629H129.868V24.5703Z" />
<path d="M134.802 32.9175V14.6259H141.75C142.514 14.6259 143.154 14.7375 143.669 14.9608C144.183 15.1669 144.595 15.4589 144.904 15.8368C145.227 16.2146 145.455 16.6698 145.588 17.2022C145.72 17.7174 145.786 18.2842 145.786 18.9025V19.9073C145.786 20.5084 145.735 21.0237 145.632 21.453C145.543 21.8652 145.419 22.2173 145.257 22.5093C145.095 22.7841 144.896 23.0074 144.661 23.1791C144.441 23.3509 144.191 23.4883 143.911 23.5913C144.191 23.6772 144.455 23.806 144.705 23.9778C144.97 24.1495 145.205 24.3814 145.411 24.6734C145.617 24.9482 145.779 25.3003 145.896 25.7297C146.029 26.159 146.095 26.6829 146.095 27.3012V28.5893C146.095 29.9633 145.764 31.0282 145.102 31.7839C144.441 32.5396 143.316 32.9175 141.728 32.9175H134.802ZM143.294 27.0951C143.294 26.2535 143.154 25.6524 142.875 25.2917C142.61 24.931 142.154 24.7507 141.507 24.7507H137.515V30.2124H141.507C142.154 30.2124 142.61 30.0406 142.875 29.6971C143.154 29.3536 143.294 28.7439 143.294 27.868V27.0951ZM143.205 19.5466C143.205 18.7909 143.058 18.2413 142.764 17.8978C142.47 17.5543 142.036 17.3825 141.463 17.3825H137.515V22.3805H141.507C142.639 22.3805 143.205 21.6591 143.205 20.2164V19.5466Z" />
<path d="M148.586 32.9175V14.394H151.145V32.9175H148.586Z" />
<path d="M164.312 28.0741C164.312 29.0359 164.201 29.8603 163.981 30.5473C163.775 31.2171 163.451 31.7667 163.01 32.1961C162.584 32.6083 162.04 32.9089 161.378 33.0978C160.716 33.2867 159.937 33.3812 159.04 33.3812C158.158 33.3812 157.386 33.2867 156.724 33.0978C156.062 32.9089 155.511 32.6083 155.07 32.1961C154.643 31.7667 154.32 31.2171 154.099 30.5473C153.893 29.8603 153.79 29.0359 153.79 28.0741V24.3127C153.79 22.3891 154.217 21.0237 155.07 20.2164C155.937 19.4092 157.261 19.0056 159.04 19.0056C160.819 19.0056 162.143 19.4092 163.01 20.2164C163.878 21.0237 164.312 22.3891 164.312 24.3127V28.0741ZM161.819 24.4158C161.819 23.4196 161.584 22.7068 161.113 22.2774C160.643 21.8481 159.952 21.6334 159.04 21.6334C158.084 21.6334 157.386 21.8652 156.944 22.329C156.518 22.7755 156.305 23.4711 156.305 24.4158V27.971C156.305 28.9672 156.533 29.6885 156.989 30.1351C157.459 30.5645 158.143 30.7792 159.04 30.7792C159.952 30.7792 160.643 30.5645 161.113 30.1351C161.584 29.6885 161.819 28.9672 161.819 27.971V24.4158Z" />
<path d="M174.967 32.8659C174.717 32.969 174.328 33.0806 173.798 33.2009C173.269 33.3211 172.622 33.3812 171.857 33.3812C170.931 33.3812 170.13 33.2781 169.453 33.072C168.791 32.8659 168.24 32.5396 167.799 32.0931C167.372 31.6293 167.056 31.0368 166.85 30.3154C166.659 29.5941 166.564 28.7181 166.564 27.6876V24.6991C166.564 23.6686 166.659 22.7927 166.85 22.0713C167.056 21.35 167.372 20.766 167.799 20.3195C168.24 19.8557 168.791 19.5208 169.453 19.3147C170.13 19.1086 170.931 19.0056 171.857 19.0056C172.622 19.0056 173.262 19.0657 173.776 19.1859C174.291 19.289 174.673 19.4006 174.923 19.5208V22.329C174.615 22.1744 174.225 22.037 173.754 21.9168C173.298 21.7965 172.718 21.7364 172.012 21.7364C171.468 21.7364 171.012 21.788 170.644 21.891C170.277 21.9941 169.975 22.1744 169.74 22.432C169.519 22.6725 169.358 22.9988 169.255 23.411C169.166 23.806 169.122 24.3041 169.122 24.9052V27.6103C169.122 28.1771 169.166 28.658 169.255 29.0531C169.358 29.4309 169.519 29.7401 169.74 29.9805C169.975 30.221 170.277 30.4013 170.644 30.5215C171.012 30.6246 171.468 30.6761 172.012 30.6761C172.762 30.6761 173.365 30.616 173.82 30.4958C174.291 30.3755 174.673 30.2381 174.967 30.0836V32.8659Z" />
<path d="M184.534 32.9175L179.88 26.3222V32.9175H177.321V14.394H179.88V25.3175L184.313 19.3663H187.533L182.46 25.7039L187.82 32.9175H184.534Z" />
</g>
</svg>
