<svg xmlns="http://www.w3.org/2000/svg" width="204" height="71" viewBox="0 0 204 71" fill="none">
<g fill="rgb(180, 190, 104)">
<path d="M34.897 23.2332V18.067C34.8978 17.1506 34.6253 16.2548 34.1141 15.4937C33.6029 14.7325 32.8763 14.1405 32.0269 13.7931L-0.109375 0.566406V3.43131L28.5156 15.1727C28.8053 15.2982 29.034 15.532 29.1528 15.824C29.2716 16.116 29.2709 16.4429 29.1508 16.7343C29.0944 16.8779 29.0088 17.0084 28.8995 17.1175C28.7902 17.2266 28.6595 17.312 28.5156 17.3684L-0.109375 29.1802V40.7044L17.1409 33.6009L28.4803 38.2681C28.6256 38.3271 28.7575 38.4145 28.8684 38.5252C28.9793 38.6358 29.067 38.7675 29.1261 38.9124C29.1853 39.0574 29.2149 39.2127 29.2131 39.3692C29.2112 39.5257 29.1781 39.6803 29.1155 39.8238C29.0591 39.9674 28.9735 40.0979 28.8642 40.207C28.7549 40.3161 28.6242 40.4015 28.4803 40.4579L-0.109375 52.2345V70.4337L31.9857 57.2422C32.8352 56.8948 33.5618 56.3028 34.0729 55.5416C34.5841 54.7805 34.8566 53.8847 34.8558 52.9683V41.1271C34.857 40.21 34.5847 39.3132 34.0736 38.551C33.5624 37.7889 32.8356 37.1958 31.9857 36.8474L20.6169 32.1508L31.9857 27.4836C32.8461 27.1543 33.5857 26.5712 34.1058 25.8119C34.6259 25.0525 34.9019 24.153 34.897 23.2332Z" />
<path d="M61.3626 4.8286C61.5279 4.54079 61.7713 4.30544 62.0647 4.14965C62.3581 3.99385 62.6897 3.92395 63.0212 3.94799C64.1974 3.94799 65.1855 4.91665 65.1855 6.57806C65.1855 8.23947 64.1798 9.20814 63.0212 9.20814C62.6897 9.23218 62.3581 9.16228 62.0647 9.00648C61.7713 8.85069 61.5279 8.61534 61.3626 8.32754V10.7345H60.5098V4.03018H61.3626V4.8286ZM64.2563 6.58981C64.2563 5.41567 63.6681 4.69357 62.8035 4.69357C62.0448 4.69357 61.3273 5.28064 61.3273 6.58981C61.3273 7.89898 62.0448 8.48604 62.8035 8.48604C63.7152 8.4743 64.268 7.78156 64.268 6.57806L64.2563 6.58981Z" />
<path d="M68.1922 4.8873C67.4041 4.8873 67.0159 5.3276 67.0159 6.43717V9.10247H66.1572V4.03018H66.9924V4.91666C67.1148 4.64166 67.3156 4.40872 67.5697 4.24689C67.8239 4.08507 68.1202 4.00153 68.4216 4.0067H68.6745V4.91666C68.498 4.90492 68.3334 4.8873 68.1922 4.8873Z" />
<path d="M71.4681 9.20815C70.2918 9.20815 69.0449 8.40973 69.0449 6.57807C69.0449 4.74641 70.2918 3.948 71.4681 3.948C72.6444 3.948 73.8971 4.74641 73.8971 6.57807C73.8971 8.40973 72.6502 9.20815 71.4681 9.20815ZM72.9855 6.57807C72.9855 5.23368 72.2444 4.69945 71.4681 4.69945C70.6917 4.69945 69.9565 5.19846 69.9565 6.57807C69.9565 7.95769 70.6976 8.4567 71.4681 8.4567C72.2385 8.4567 72.9855 7.8755 72.9855 6.57807Z" />
<path d="M75.6799 4.03012V9.31376C75.6799 10.3646 75.4623 10.7051 74.5036 10.7051H74.0684V9.98889H74.3036C74.7447 9.98889 74.8271 9.85973 74.8271 9.33137V4.03012H75.6799ZM75.6799 3.30802H74.8212V2.27478H75.6799V3.30802Z" />
<path d="M79.1011 8.45659C79.3907 8.48444 79.6815 8.41839 79.9305 8.26822C80.1794 8.11805 80.3733 7.89177 80.4832 7.62295H81.3596C81.2187 8.10577 80.9168 8.52609 80.504 8.81434C80.0911 9.10259 79.592 9.24148 79.0893 9.20804C77.4896 9.20804 76.6074 8.0339 76.6074 6.57209C76.5804 6.23552 76.6239 5.89703 76.7353 5.57819C76.8466 5.25936 77.0233 4.96719 77.2541 4.72029C77.4848 4.4734 77.7646 4.27721 78.0755 4.14422C78.3864 4.01123 78.7217 3.94436 79.0599 3.94789C80.6067 3.94789 81.536 5.24531 81.4125 6.84214H77.5366C77.5287 7.05183 77.5633 7.26095 77.6385 7.45692C77.7136 7.65289 77.8277 7.83167 77.9738 7.98249C78.12 8.13331 78.2952 8.25306 78.4889 8.33454C78.6826 8.41601 78.8909 8.45753 79.1011 8.45659ZM80.5303 6.10831C80.5065 5.72976 80.339 5.37451 80.062 5.11485C79.785 4.8552 79.4193 4.71066 79.0393 4.71066C78.6594 4.71066 78.2937 4.8552 78.0167 5.11485C77.7397 5.37451 77.5722 5.72976 77.5484 6.10831H80.5303Z" />
<path d="M85.7824 5.72097C85.7179 5.4245 85.5514 5.15997 85.3118 4.97335C85.0722 4.78672 84.7746 4.68981 84.4708 4.69946C83.7121 4.69946 83.0122 5.28653 83.0122 6.56048C83.0122 7.83442 83.718 8.45672 84.4708 8.45672C84.7779 8.46708 85.0793 8.37185 85.3244 8.18697C85.5696 8.00209 85.7437 7.73878 85.8177 7.44108H86.7058C86.5916 7.95014 86.3041 8.40393 85.8923 8.72509C85.4804 9.04624 84.9698 9.2149 84.4473 9.2023C82.9946 9.2023 82.0947 8.10447 82.0947 6.56635C82.0947 5.02822 83.0475 3.94214 84.5414 3.94214C85.0475 3.93266 85.54 4.10546 85.9289 4.42891C86.3177 4.75235 86.5768 5.20478 86.6587 5.70335L85.7824 5.72097Z" />
<path d="M88.6946 2.76208V4.03016H89.6533V4.71703H88.6946V7.71696C88.6946 8.23945 88.7358 8.37448 89.2239 8.37448H89.6533V9.10245H89.0357C88.0653 9.10245 87.8594 8.8911 87.8594 7.83437V4.71703H87.0596V4.03016H87.83V2.76208H88.6946Z" />
<path d="M94.5527 4.66993C94.0528 4.66993 93.4882 4.85193 93.4882 5.30984C93.4882 5.76776 93.7705 5.89691 94.2587 5.99671L94.9762 6.13761C95.8937 6.31373 96.7053 6.6601 96.7053 7.64051C96.7053 8.62092 95.7996 9.20799 94.6468 9.20799C94.1274 9.24704 93.6128 9.0864 93.2082 8.75897C92.8036 8.43153 92.5398 7.96208 92.4707 7.44678H93.3706C93.406 7.75456 93.5619 8.03587 93.8043 8.22941C94.0467 8.42295 94.3559 8.51303 94.6645 8.48002C95.3114 8.48002 95.8408 8.19823 95.8408 7.72857C95.8408 7.25892 95.3585 7.00647 94.8115 6.89493L94.0587 6.74229C93.3706 6.6014 92.6177 6.2785 92.6177 5.33919C92.6177 4.39988 93.5235 3.93022 94.6468 3.93022C95.1197 3.88916 95.5905 4.02967 95.9631 4.32312C96.3358 4.61656 96.5823 5.04084 96.6524 5.50944H95.7584C95.7003 5.24368 95.5438 5.00961 95.3203 4.85398C95.0968 4.69835 94.8227 4.63262 94.5527 4.66993Z" />
<path d="M99.2404 9.20811C98.0642 9.20811 97.623 8.42144 97.623 7.26491V4.03015H98.4759V7.01247C98.4759 7.79328 98.6111 8.4684 99.5404 8.4684C100.352 8.4684 100.828 7.88133 100.828 6.81287V4.03015H101.687V9.10244H100.828V8.38034C100.668 8.65269 100.434 8.87462 100.153 9.02093C99.8724 9.16725 99.5562 9.2321 99.2404 9.20811Z" />
<path d="M103.786 4.8286C103.952 4.54079 104.195 4.30544 104.489 4.14965C104.782 3.99385 105.114 3.92395 105.445 3.94799C106.621 3.94799 107.609 4.91665 107.609 6.57806C107.609 8.23947 106.598 9.20814 105.445 9.20814C105.114 9.23218 104.782 9.16228 104.489 9.00648C104.195 8.85069 103.952 8.61534 103.786 8.32754V10.7345H102.928V4.03018H103.786V4.8286ZM106.674 6.58981C106.674 5.41567 106.086 4.69357 105.227 4.69357C104.463 4.69357 103.745 5.28064 103.745 6.58981C103.745 7.89898 104.463 8.48604 105.227 8.48604C106.104 8.4743 106.651 7.78156 106.651 6.57806L106.674 6.58981Z" />
<path d="M109.414 4.8286C109.58 4.54079 109.823 4.30544 110.116 4.14965C110.41 3.99385 110.741 3.92395 111.073 3.94799C112.249 3.94799 113.237 4.91665 113.237 6.57806C113.237 8.23947 112.232 9.20814 111.073 9.20814C110.741 9.23218 110.41 9.16228 110.116 9.00648C109.823 8.85069 109.58 8.61534 109.414 8.32754V10.7345H108.556V4.03018H109.414V4.8286ZM112.302 6.58981C112.302 5.41567 111.714 4.69357 110.855 4.69357C110.091 4.69357 109.379 5.28064 109.379 6.58981C109.379 7.89898 110.091 8.48604 110.855 8.48604C111.732 8.4743 112.302 7.78156 112.302 6.57806V6.58981Z" />
<path d="M116.327 9.20815C115.15 9.20815 113.897 8.40973 113.897 6.57807C113.897 4.74641 115.144 3.948 116.327 3.948C117.028 3.948 117.702 4.22633 118.198 4.72177C118.694 5.2172 118.973 5.88916 118.973 6.58982C118.973 7.29047 118.694 7.96242 118.198 8.45786C117.702 8.9533 117.028 9.23163 116.327 9.23163V9.20815ZM117.826 6.57807C117.826 5.23368 117.085 4.69945 116.315 4.69945C115.544 4.69945 114.797 5.19846 114.797 6.57807C114.797 7.95769 115.538 8.4567 116.315 8.4567C117.091 8.4567 117.826 7.8755 117.826 6.57807Z" />
<path d="M121.748 4.88718C120.96 4.88718 120.572 5.32748 120.572 6.43704V9.10235H119.707V4.03006H120.548V4.91653C120.669 4.64012 120.869 4.40587 121.123 4.24377C121.378 4.08166 121.675 3.99907 121.977 4.00657H122.23V4.91653C122.054 4.90479 121.889 4.88718 121.748 4.88718Z" />
<path d="M124.329 2.76208V4.03016H125.294V4.71703H124.329V7.71696C124.329 8.23945 124.371 8.37448 124.859 8.37448H125.294V9.10245H124.671C123.7 9.10245 123.494 8.8911 123.494 7.83437V4.71703H122.694V4.03016H123.494V2.76208H124.329Z" />
<path d="M128.177 8.45671C128.467 8.48397 128.758 8.41775 129.008 8.26773C129.258 8.11771 129.453 7.89179 129.565 7.62307H130.447C130.306 8.10589 130.004 8.52621 129.591 8.81446C129.179 9.1027 128.679 9.2416 128.177 9.20816C126.577 9.20816 125.695 8.03402 125.695 6.57221C125.669 6.23534 125.713 5.89672 125.825 5.57788C125.937 5.25904 126.114 4.96694 126.346 4.72015C126.577 4.47336 126.857 4.27728 127.168 4.14435C127.479 4.01142 127.815 3.94455 128.153 3.948C129.694 3.948 130.629 5.24543 130.506 6.84226H126.648C126.638 7.0494 126.67 7.25632 126.743 7.45068C126.815 7.64504 126.926 7.82286 127.069 7.97353C127.212 8.12421 127.383 8.24464 127.574 8.32765C127.764 8.41067 127.969 8.45456 128.177 8.45671ZM129.612 6.10842C129.612 5.71294 129.454 5.33366 129.174 5.05401C128.894 4.77437 128.514 4.61726 128.118 4.61726C127.722 4.61726 127.342 4.77437 127.062 5.05401C126.781 5.33366 126.624 5.71294 126.624 6.10842H129.612Z" />
<path d="M135.84 2.27478V9.10241H134.981V8.34509C134.816 8.63289 134.572 8.86824 134.279 9.02404C133.986 9.17983 133.654 9.24973 133.323 9.22569C132.146 9.22569 131.158 8.26877 131.158 6.59562C131.158 4.92247 132.164 3.96554 133.323 3.96554C133.654 3.9415 133.986 4.01141 134.279 4.1672C134.572 4.32299 134.816 4.55834 134.981 4.84615V2.27478H135.84ZM132.093 6.578C132.093 7.75215 132.681 8.47425 133.54 8.47425C134.305 8.47425 135.016 7.88717 135.016 6.578C135.016 5.26884 134.305 4.68177 133.54 4.68177C132.664 4.68177 132.093 5.37451 132.093 6.578Z" />
<path d="M140.24 4.82854C140.405 4.54073 140.648 4.30538 140.942 4.14959C141.235 3.99379 141.567 3.92389 141.898 3.94793C143.074 3.94793 144.062 4.91659 144.062 6.578C144.062 8.23941 143.057 9.20808 141.898 9.20808C141.567 9.23212 141.235 9.16222 140.942 9.00643C140.648 8.85063 140.405 8.61528 140.24 8.32748V9.10241H139.381V2.27478H140.24V4.82854ZM143.133 6.58975C143.133 5.41561 142.545 4.69351 141.681 4.69351C140.916 4.69351 140.204 5.28058 140.204 6.58975C140.204 7.89892 140.916 8.48598 141.681 8.48598C142.557 8.47424 143.116 7.7815 143.116 6.578L143.133 6.58975Z" />
<path d="M146.797 9.30201C146.432 10.4057 146.167 10.7345 145.032 10.7345H144.585V10.0182H144.938C145.526 10.0182 145.773 9.98301 145.997 9.19047L146.056 9.10241L144.227 4.04773H145.179L146.467 7.95175L147.72 4.04773H148.614L146.797 9.30201Z" />
<path d="M67.7451 21.2665L69.8213 28.9747L71.821 21.2665H73.7148L70.7094 31.6929H69.0978L66.7864 23.2977L64.5574 31.6929H62.9517L59.9404 21.2665H61.8401L63.8398 28.9747L65.9219 21.2665H67.7451Z" />
<path d="M79.2595 30.3897C79.8567 30.445 80.4559 30.3078 80.9693 29.9982C81.4827 29.6886 81.8832 29.223 82.112 28.6695H83.9352C83.4529 30.4718 81.8002 31.9395 79.2595 31.9395C75.96 31.9395 74.1367 29.5912 74.1367 26.4974C74.1367 23.2039 76.3481 21.0905 79.2006 21.0905C82.3825 21.0905 84.3057 23.7675 84.0705 27.061H76.0658C76.0484 27.4909 76.1181 27.9199 76.2706 28.3223C76.4231 28.7248 76.6555 29.0924 76.9536 29.4031C77.2517 29.7139 77.6096 29.9614 78.0058 30.1309C78.402 30.3004 78.8284 30.3884 79.2595 30.3897ZM82.2002 25.5463C82.1262 24.786 81.7715 24.0803 81.2051 23.5666C80.6387 23.0529 79.901 22.768 79.1357 22.7673C78.3704 22.7665 77.6322 23.0501 77.0647 23.5627C76.4973 24.0753 76.1412 24.7803 76.0658 25.5405L82.2002 25.5463Z" />
<path d="M87.6658 22.9103C88.0098 22.32 88.5117 21.8371 89.1152 21.5156C89.7188 21.1941 90.4002 21.0469 91.0829 21.0904C93.4708 21.0904 95.5469 23.0864 95.5469 26.5149C95.5469 29.9434 93.4708 31.9395 91.0829 31.9395C90.4002 31.9829 89.7188 31.8357 89.1152 31.5143C88.5117 31.1928 88.0098 30.7098 87.6658 30.1195V31.6929H85.9014V17.6443H87.6658V22.9103ZM93.6237 26.5149C93.6237 24.0375 92.4474 22.605 90.6359 22.605C89.0656 22.605 87.5893 23.7792 87.5893 26.5149C87.5893 29.2507 89.0656 30.4307 90.6359 30.4307C92.4415 30.4307 93.6237 28.9982 93.6237 26.5149Z" />
<path d="M100.91 25.0825H100.616V23.4739H100.851C103.298 23.4739 104.598 22.7988 104.598 21.1257C104.598 19.6169 103.357 18.842 101.857 18.842C101.474 18.8116 101.09 18.8589 100.726 18.9812C100.362 19.1034 100.027 19.2979 99.7403 19.5531C99.4539 19.8082 99.2223 20.1186 99.0595 20.4656C98.8966 20.8126 98.8059 21.1889 98.7928 21.5718H96.9696C97.1813 19.0944 98.9457 17.3684 101.898 17.3684C104.345 17.3684 106.462 18.3371 106.462 20.9319C106.463 21.6448 106.243 22.3405 105.832 22.9237C105.422 23.507 104.841 23.9493 104.168 24.1902C106.268 24.8477 106.85 26.239 106.85 27.7126C106.85 30.5423 104.439 31.916 101.763 31.916C98.4634 31.916 96.946 29.8671 96.752 27.5189H98.5811C98.7752 29.2448 99.7985 30.4542 101.781 30.4542C103.645 30.4542 104.962 29.4855 104.962 27.7419C104.962 25.74 103.157 25.0825 100.91 25.0825Z" />
<path d="M116.884 17.6443H117.825V19.1178H116.949C116.02 19.1178 115.861 19.3292 115.861 20.4153V21.2665H117.825V22.6814H115.861V31.6929H114.096V22.6814H112.638V21.2665H114.096V20.5092C114.067 18.3429 114.514 17.6443 116.884 17.6443Z" />
<path d="M123.431 31.9395C121.008 31.9395 118.426 30.2957 118.426 26.515C118.426 22.7343 121.008 21.0905 123.431 21.0905C125.854 21.0905 128.442 22.7401 128.442 26.515C128.442 30.2899 125.86 31.9395 123.431 31.9395ZM126.56 26.515C126.56 23.744 125.025 22.6403 123.431 22.6403C121.837 22.6403 120.308 23.6677 120.308 26.515C120.308 29.3623 121.843 30.3897 123.431 30.3897C125.019 30.3897 126.56 29.192 126.56 26.515Z" />
<path d="M133.547 31.9394C131.124 31.9394 130.212 30.3132 130.212 27.9297V21.2665H131.976V27.4072C131.976 29.0158 132.247 30.413 134.17 30.413C135.84 30.413 136.829 29.2389 136.829 27.0022V21.2665H138.593V31.6929H136.829V30.1958C136.498 30.7625 136.016 31.226 135.436 31.534C134.857 31.842 134.202 31.9824 133.547 31.9394Z" />
<path d="M146.198 21.0902C148.727 21.0902 149.639 22.7164 149.639 25.0999V31.6927H147.874V25.6224C147.874 24.0197 147.604 22.6225 145.586 22.6225C143.875 22.6225 142.828 23.7966 142.828 26.0334V31.6927H141.063V21.2664H142.828V22.8338C143.174 22.2615 143.672 21.7957 144.267 21.488C144.862 21.1804 145.53 21.0427 146.198 21.0902Z" />
<path d="M161.03 17.6443V31.6929H159.266V30.1196C158.922 30.7099 158.42 31.1928 157.816 31.5143C157.213 31.8357 156.532 31.983 155.849 31.9395C153.461 31.9395 151.385 29.9669 151.385 26.515C151.385 23.063 153.461 21.0904 155.849 21.0904C156.532 21.0469 157.213 21.1942 157.816 21.5156C158.42 21.8371 158.922 22.3201 159.266 22.9103V17.6267L161.03 17.6443ZM153.308 26.515C153.308 28.9983 154.484 30.4307 156.296 30.4307C157.866 30.4307 159.342 29.2566 159.342 26.515C159.342 23.7733 157.866 22.6051 156.296 22.6051C154.49 22.6051 153.308 24.0375 153.308 26.515Z" />
<path d="M169.935 25.2764V25.0239C169.935 23.1277 168.865 22.4878 167.583 22.4878C166.13 22.4878 165.277 23.2803 165.195 24.5601H163.372C163.548 22.3117 165.524 21.0377 167.565 21.0377C170.441 21.0377 171.741 22.4115 171.717 25.3351V27.7421C171.674 29.059 171.764 30.3769 171.988 31.6754H170.223C170.147 31.1995 170.101 30.719 170.088 30.2371C169.447 31.3056 168.359 31.922 166.512 31.922C164.554 31.922 162.925 30.8418 162.925 28.9221C162.872 26.4799 165.648 25.7636 169.935 25.2764ZM164.83 28.8986C164.83 29.8907 165.589 30.5483 166.848 30.5483C168.5 30.5483 170.071 29.7909 170.071 27.3311V26.6736C166.871 27.0024 164.83 27.4661 164.83 28.8986Z" />
<path d="M176.216 18.6481V21.2664H178.198V22.6812H176.216V28.8631C176.216 29.9492 176.298 30.2192 177.304 30.2192H178.198V31.6928H176.916C174.916 31.6928 174.451 31.2466 174.451 29.0744V22.6812H172.805V21.2664H174.451V18.6481H176.216Z" />
<path d="M181.651 19.7754H179.887V17.6443H181.651V19.7754ZM181.651 31.6929H179.887V21.2665H181.651V31.6929Z" />
<path d="M188.538 31.9395C186.109 31.9395 183.527 30.2957 183.527 26.515C183.527 22.7343 186.109 21.0905 188.538 21.0905C190.967 21.0905 193.543 22.7401 193.543 26.515C193.543 30.2899 190.961 31.9395 188.538 31.9395ZM191.661 26.515C191.661 23.744 190.126 22.6403 188.538 22.6403C186.95 22.6403 185.409 23.6677 185.409 26.515C185.409 29.3623 186.944 30.3897 188.538 30.3897C190.132 30.3897 191.661 29.192 191.661 26.515Z" />
<path d="M200.566 21.0903C203.089 21.0903 204.001 22.7165 204.001 25.1V31.6928H202.237V25.6225C202.237 24.0198 201.966 22.6225 199.943 22.6225C198.237 22.6225 197.19 23.7967 197.19 26.0334V31.6928H195.426V21.2664H197.19V22.8339C197.537 22.2606 198.036 21.7942 198.632 21.4865C199.227 21.1787 199.897 21.0416 200.566 21.0903Z" />
<path d="M70.0318 42.8472V51.8764C70.0318 54.0074 69.6436 54.8822 69.0437 55.5397C68.5735 56.0108 68.0085 56.3769 67.3859 56.6137C66.7634 56.8505 66.0976 56.9527 65.4325 56.9134C63.0799 56.9134 61.4743 55.8273 61.1449 53.7198H63.027C63.2563 54.6473 63.821 55.3636 65.4501 55.3636C65.8406 55.392 66.2327 55.3376 66.6007 55.2041C66.9686 55.0705 67.3041 54.8608 67.5851 54.5886C67.9733 54.1835 68.2673 53.6963 68.2673 52.2814V51.2952C67.9423 51.8784 67.4579 52.3575 66.8707 52.6765C66.2834 52.9956 65.6174 53.1416 64.9502 53.0975C62.6388 53.0975 60.5215 51.2365 60.5215 47.8843C60.5215 44.5321 62.6388 42.6711 64.9502 42.6711C65.6198 42.6292 66.2875 42.7787 66.875 43.1021C67.4625 43.4254 67.9455 43.9093 68.2673 44.4969V42.8472H70.0318ZM62.4447 47.8843C62.4447 50.2678 63.6681 51.6063 65.3854 51.6063C66.9617 51.6063 68.3262 50.5378 68.3262 47.8843C68.3262 45.2307 66.9499 44.1857 65.3854 44.1857C63.6681 44.1857 62.4447 45.5008 62.4447 47.8843Z" />
<path d="M76.7092 44.6144C75.08 44.6144 74.2625 45.5244 74.2625 47.8081V53.2737H72.498V42.8473H74.2213V44.6673C74.4728 44.1007 74.8857 43.6205 75.4086 43.2865C75.9315 42.9524 76.5413 42.7793 77.162 42.7886C77.3363 42.7773 77.5112 42.7773 77.6855 42.7886V44.6673C77.3612 44.6326 77.0353 44.6149 76.7092 44.6144Z" />
<path d="M85.4771 46.8569V46.6045C85.4771 44.7083 84.4067 44.0684 83.1245 44.0684C81.6718 44.0684 80.819 44.8609 80.7367 46.1407H78.9134C79.0899 43.8922 81.066 42.6183 83.1069 42.6183C85.977 42.6183 87.2827 43.992 87.2592 46.9215V49.3226C87.2154 50.6395 87.3061 51.9574 87.5297 53.256H85.7653C85.6892 52.7818 85.6421 52.3035 85.6241 51.8236C84.9889 52.8862 83.9009 53.5084 82.0541 53.5084C80.0956 53.5084 78.4664 52.4224 78.4664 50.5026C78.4194 48.0604 81.1719 47.3442 85.4771 46.8569ZM80.372 50.485C80.372 51.4713 81.1307 52.1288 82.3893 52.1288C84.042 52.1288 85.6124 51.3715 85.6124 48.9117V48.2542C82.3894 48.5829 80.3544 49.0232 80.3544 50.485H80.372Z" />
<path d="M94.7175 42.6711C97.2407 42.6711 98.1523 44.3032 98.1523 46.6867V53.2736H96.3879V47.2092C96.3879 45.6006 96.1173 44.2034 94.0941 44.2034C92.3885 44.2034 91.3416 45.3775 91.3416 47.6142V53.2736H89.5771V42.8472H91.3416V44.4147C91.6883 43.8414 92.1872 43.375 92.783 43.0673C93.3789 42.7596 94.0484 42.6224 94.7175 42.6711Z" />
<path d="M102.71 40.217V42.8295H104.692V44.2443H102.71V50.4262C102.71 51.5123 102.787 51.7823 103.798 51.7823H104.692V53.2559H103.41C101.41 53.2559 100.946 52.8097 100.946 50.6375V44.262H99.293V42.8471H100.946V40.217H102.71Z" />
<path d="M109.92 44.1683C108.891 44.1683 107.727 44.5323 107.727 45.4834C107.727 46.317 108.315 46.7045 109.32 46.8982L110.797 47.1859C112.696 47.5557 114.367 48.272 114.367 50.2915C114.367 52.311 112.502 53.5262 110.114 53.5262C107.38 53.5262 105.827 51.7239 105.633 49.904H107.497C107.576 50.5346 107.897 51.11 108.393 51.5079C108.89 51.9058 109.522 52.0949 110.156 52.0351C111.491 52.0351 112.579 51.448 112.579 50.4852C112.579 49.5224 111.591 48.9882 110.461 48.7592L108.909 48.4481C107.497 48.1545 105.968 47.497 105.968 45.5597C105.968 43.7222 107.832 42.6537 110.144 42.6537C112.455 42.6537 113.932 43.9159 114.261 45.8885H112.414C112.114 44.6497 111.144 44.1683 109.92 44.1683Z" />
<path d="M122.883 44.497C123.226 43.9061 123.728 43.4223 124.331 43.0999C124.935 42.7774 125.616 42.629 126.3 42.6712C128.688 42.6712 130.764 44.6673 130.764 48.1016C130.764 51.536 128.688 53.5262 126.3 53.5262C125.616 53.5698 124.934 53.4219 124.33 53.0993C123.727 52.7767 123.225 52.2922 122.883 51.7004V56.6553H121.118V42.8473H122.883V44.497ZM128.846 48.1016C128.846 45.6183 127.67 44.1859 125.853 44.1859C124.282 44.1859 122.806 45.36 122.806 48.1016C122.806 50.8432 124.282 52.0115 125.853 52.0115C127.658 52.0115 128.846 50.5791 128.846 48.1016Z" />
<path d="M136.845 44.6144C135.216 44.6144 134.398 45.5244 134.398 47.8081V53.2737H132.634V42.8473H134.363V44.6673C134.613 44.0998 135.026 43.6187 135.549 43.2845C136.072 42.9503 136.683 42.7778 137.304 42.7886C137.478 42.7773 137.653 42.7773 137.827 42.7886V44.6673C137.501 44.6321 137.173 44.6145 136.845 44.6144Z" />
<path d="M143.504 53.526C141.075 53.526 138.493 51.8763 138.493 48.1014C138.493 44.3266 141.075 42.671 143.504 42.671C145.933 42.671 148.509 44.3207 148.509 48.1014C148.509 51.8822 145.927 53.526 143.504 53.526ZM146.627 48.1014C146.627 45.3305 145.092 44.2209 143.504 44.2209C141.916 44.2209 140.375 45.2483 140.375 48.1014C140.375 50.9546 141.91 51.9761 143.504 51.9761C145.098 51.9761 146.645 50.7843 146.645 48.1014H146.627Z" />
<path d="M159.278 42.8471V51.8762C159.278 54.0073 158.89 54.882 158.29 55.5396C157.82 56.0107 157.255 56.3768 156.632 56.6136C156.009 56.8504 155.344 56.9526 154.679 56.9133C152.326 56.9133 150.72 55.8272 150.385 53.7196H152.273C152.502 54.6472 153.067 55.3634 154.696 55.3634C155.087 55.3918 155.479 55.3375 155.847 55.2039C156.215 55.0704 156.55 54.8606 156.831 54.5885C157.219 54.1834 157.513 53.6962 157.513 52.2813V51.295C157.188 51.8792 156.703 52.3589 156.114 52.678C155.526 52.9972 154.859 53.1426 154.19 53.0973C151.885 53.0973 149.768 51.2363 149.768 47.8841C149.768 44.532 151.885 42.671 154.19 42.671C154.861 42.6279 155.53 42.7769 156.119 43.1003C156.707 43.4237 157.191 43.9082 157.513 44.4967V42.8471H159.278ZM151.691 47.8841C151.691 50.2677 152.908 51.6062 154.632 51.6062C156.208 51.6062 157.572 50.5377 157.572 47.8841C157.572 45.2306 156.196 44.1856 154.632 44.1856C152.908 44.1856 151.691 45.5006 151.691 47.8841Z" />
<path d="M165.954 44.6144C164.325 44.6144 163.508 45.5244 163.508 47.8081V53.2737H161.743V42.8473H163.466V44.6673C163.717 44.1002 164.13 43.6196 164.653 43.2855C165.176 42.9513 165.786 42.7785 166.407 42.7886C166.581 42.7773 166.756 42.7773 166.931 42.7886V44.6673C166.606 44.6328 166.28 44.6151 165.954 44.6144Z" />
<path d="M174.705 46.8569V46.6045C174.705 44.7083 173.635 44.0684 172.352 44.0684C170.9 44.0684 170.041 44.8609 169.965 46.1407H168.141C168.318 43.8922 170.294 42.6183 172.335 42.6183C175.205 42.6183 176.505 43.992 176.487 46.9215V49.3226C176.443 50.6395 176.534 51.9574 176.758 53.256H174.993C174.92 52.7816 174.874 52.3033 174.858 51.8236C174.217 52.8862 173.135 53.5084 171.288 53.5084C169.329 53.5084 167.694 52.4224 167.694 50.5026C167.635 48.0604 170.411 47.3442 174.705 46.8569ZM169.582 50.485C169.582 51.4713 170.335 52.1288 171.6 52.1288C173.252 52.1288 174.823 51.3715 174.823 48.9117V48.2542C171.635 48.5829 169.582 49.0232 169.582 50.485Z" />
<path d="M178.816 53.2734V42.8471H180.581V44.4145C180.892 43.8613 181.349 43.4042 181.903 43.0935C182.457 42.7828 183.086 42.6305 183.722 42.6533C185.315 42.6533 186.268 43.3519 186.733 44.4967C187.105 43.9051 187.628 43.4228 188.248 43.0989C188.868 42.775 189.563 42.6213 190.262 42.6533C192.691 42.6533 193.638 44.2854 193.638 46.6689V53.2558H191.873V47.209C191.873 45.6004 191.561 44.2032 189.644 44.2032C188.127 44.2032 187.115 45.3773 187.115 47.6141V53.2734H185.351V47.209C185.351 45.6004 185.039 44.2032 183.122 44.2032C181.604 44.2032 180.598 45.3773 180.598 47.6141V53.2734H178.816Z" />
</g>
</svg>