<svg width="120" height="85" viewBox="0 0 120 85" fill="none" xmlns="http://www.w3.org/2000/svg">
<path d="M1 83.6936V1H44.0202L62.1063 21.1878V49.6741V83.6936H47.7077H1Z" fill="#121516" stroke="#98A3AD" stroke-width="2"/>
<path d="M7.56055 21.8813H32.1608M37.0808 21.8813H45.2809M7.56055 36.6415H32.1608M37.0808 36.6415H45.2809M7.56055 51.4016H32.1608M37.0808 51.4016H45.2809" stroke="#98A3AD" stroke-width="2"/>
<path d="M100 42.5684V17H113.302L118.894 23.242V32.0497V42.5684H114.442H100Z" fill="#121516" stroke="#98A3AD" stroke-width="1.5"/>
<path d="M102.028 23.4564H109.635M111.156 23.4564H113.691M102.028 28.0202H109.635M111.156 28.0202H113.691M102.028 32.5839H109.635M111.156 32.5839H113.691" stroke="#98A3AD" stroke-width="1.5"/>
<path d="M100 83.5684V58H113.302L118.894 64.242V73.0497V83.5684H114.442H100Z" fill="#121516" stroke="#98A3AD" stroke-width="1.5"/>
<path d="M102.028 64.4564H109.635M111.156 64.4564H113.691M102.028 69.0202H109.635M111.156 69.0202H113.691M102.028 73.5839H109.635M111.156 73.5839H113.691" stroke="#98A3AD" stroke-width="1.5"/>
<path d="M62 29.5H100" stroke="#98A3AD" stroke-width="1.5"/>
<path d="M62 70.5H100" stroke="#98A3AD" stroke-width="1.5"/>
<path d="M78 25H87V34H78V25Z" fill="#E6007A"/>
<path d="M78 66H87V75H78V66Z" fill="#E6007A"/>
</svg>
