<svg width="85" height="84" viewBox="0 0 85 84" fill="none" xmlns="http://www.w3.org/2000/svg">
<path d="M46.1787 38L63.6787 20M63.6787 20L65.1787 8.5L79.6787 1L83.1787 4L76.6787 18L63.6787 20ZM33 37.5L47 51.5L17.6784 80.5C9.67871 88.4997 -4.42158 74.1 3.17842 66.5L33 37.5Z" stroke="#E6007A" stroke-width="1.5"/>
<path d="M4.08464 10.6534C-1.28906 25.7261 11.6414 34.3633 24.0681 30.8069L38.9297 45.4562L53.7913 60.1056C49.358 81.3768 65.3783 85.6785 74.7823 81.2752L65.3783 71.7912V64.6782H72.0955L81.6673 74.3316C86.7052 56.3797 72.9351 49.6055 60.8443 52.315L46.2761 37.7504L31.708 23.1858C34.9834 10.6534 26.9228 -1.70967 11.3055 2.52425L21.0454 12.347V20.2211H13.8245L4.08464 10.6534Z" fill="#121516" stroke="#98A3AD" stroke-width="1.5"/>
</svg>
