<svg width="77" height="84" viewBox="0 0 77 84" fill="none" xmlns="http://www.w3.org/2000/svg">
<path d="M1 77.6433V1H40.8726L57.6354 19.7108V46.1128V77.6433H44.2903H1Z" fill="#121516" stroke="#98A3AD" stroke-width="2"/>
<path d="M76 64.5459C76 74.6144 67.7831 82.7875 57.6333 82.7875C47.4835 82.7875 39.2666 74.6144 39.2666 64.5459C39.2666 54.4774 47.4835 46.3042 57.6333 46.3042C67.7831 46.3042 76 54.4774 76 64.5459Z" fill="#121516" stroke="#E6007A" stroke-width="2"/>
<path d="M49.6406 60.3644L54.2851 70.5142L64.8409 56.834" stroke="#E6007A" stroke-width="2"/>
<path d="M7.08008 20.3535H29.8804M34.4405 20.3535H42.0406M7.08008 34.0337H29.8804M34.4405 34.0337H42.0406M7.08008 47.7139H29.8804M34.4405 47.7139H42.0406" stroke="#98A3AD" stroke-width="2"/>
</svg>
