<svg width="265" height="44" viewBox="0 0 265 44" fill="none" xmlns="http://www.w3.org/2000/svg">
<path d="M31.6145 43.3598C43.5941 42.6277 52.7869 32.3785 52.0502 20.4423C52.0002 19.7968 51.9503 19.2481 51.8699 18.6603C51.8367 18.4175 51.5623 18.2927 51.3523 18.4216L49.9796 19.2642C49.7567 19.401 49.631 19.651 49.6534 19.9101C49.6729 20.1357 49.6924 20.3686 49.712 20.6014C50.3526 31.2326 42.1847 40.3996 31.4864 41.0362C26.7778 41.3227 22.3576 39.8904 18.8342 37.3121C18.0334 36.7392 17.2967 36.1026 16.624 35.4023C21.5888 32.665 27.3544 29.4183 33.3762 25.7579C38.9175 22.3839 44.0425 19.0736 48.4948 16.1134C48.751 15.9543 48.9753 15.7951 49.2315 15.6041C50.737 14.5856 52.1783 13.5989 53.5236 12.7076C55.3494 11.4663 64.1579 4.97297 64.1579 4.97297C64.1579 4.97297 62.0759 5.95969 57.7517 8.18778C56.8869 8.6334 54.3564 9.97026 54.0682 10.1294C53.7799 10.2886 53.6197 10.3522 53.3314 10.4795C52.883 10.6705 52.3065 10.766 51.826 10.766C51.1213 10.766 50.6088 10.7342 49.9362 10.4477C49.4557 10.2567 48.7831 9.84294 48.3987 9.46098C48.3346 9.39732 48.3346 9.39732 48.2706 9.30183C48.0464 9.04719 47.8221 8.76072 47.5979 8.47425C43.3378 2.96768 36.5152 -0.406285 29.02 0.0393331C17.0404 0.739591 7.8796 11.0206 8.58428 22.9569C8.76131 25.9181 9.53623 28.7173 10.8089 31.2301C10.9866 31.5809 11.4295 31.697 11.7667 31.4916L12.5808 30.9958C12.8913 30.8067 12.9996 30.4116 12.8406 30.0864C11.759 27.874 11.0698 25.4032 10.9225 22.7977C10.2819 12.1665 18.4498 2.99951 29.1481 2.36292C36.0988 1.94913 42.4409 5.25944 46.1886 10.5432C46.8292 11.4344 47.4057 12.3893 47.8862 13.4079C43.0175 16.0816 37.4441 19.2646 31.6145 22.7977C26.3294 26.0125 21.4287 29.1637 17.1045 31.9965C12.7803 34.8612 0.192185 43.7736 0 43.9327C0.192185 43.8373 2.75466 42.6277 6.85461 40.4951C8.00772 39.8904 9.28896 39.2219 10.6663 38.4898C10.8585 38.3944 11.4671 38.1079 11.9796 37.9169C12.428 37.7578 12.7803 37.6623 12.9725 37.6623C13.6452 37.5986 14.3178 37.6623 14.9905 37.8532C15.4069 37.9806 15.8233 38.1397 16.2076 38.3625C16.3358 38.4262 16.4639 38.5217 16.592 38.5853C16.9764 38.8081 17.3287 39.0628 17.3287 39.0628C17.4568 39.1583 17.617 39.2538 17.7451 39.3492C17.9373 39.4766 18.1615 39.6357 18.3537 39.763C18.8662 40.0813 19.3787 40.3996 19.8912 40.6861C23.3826 42.6596 27.4185 43.6145 31.6145 43.3598Z" fill="url(#paint0_linear_2071_401)"/>
<path d="M84.2889 32.0216C82.5355 32.0216 80.9667 31.7134 79.5824 31.097C78.1981 30.4806 77.1023 29.556 76.2948 28.3232C75.5104 27.0676 75.1182 25.5038 75.1182 23.6318V22.9126H77.9905V23.6318C77.9905 25.6179 78.5788 27.1018 79.7554 28.0835C80.9321 29.0423 82.4432 29.5218 84.2889 29.5218C86.1807 29.5218 87.6227 29.0994 88.6147 28.2547C89.6068 27.41 90.1028 26.3485 90.1028 25.07C90.1028 24.1797 89.8721 23.4719 89.4107 22.9469C88.9723 22.4218 88.3494 21.9994 87.5419 21.6798C86.7344 21.3374 85.7885 21.0406 84.7042 20.7895L82.9046 20.3443C81.4973 19.979 80.2515 19.5339 79.1671 19.0088C78.0828 18.4837 77.2292 17.7988 76.6062 16.9541C76.0064 16.0866 75.7065 14.9794 75.7065 13.6324C75.7065 12.2855 76.041 11.1212 76.7101 10.1395C77.4022 9.15787 78.3596 8.40449 79.5824 7.87941C80.8282 7.35434 82.2586 7.0918 83.8736 7.0918C85.5117 7.0918 86.9767 7.37717 88.2686 7.9479C89.5837 8.49581 90.6103 9.31767 91.3486 10.4135C92.11 11.4865 92.4906 12.8448 92.4906 14.4885V15.9268H89.6183V14.4885C89.6183 13.3242 89.3645 12.3882 88.857 11.6805C88.3725 10.9728 87.6919 10.4477 86.8152 10.1053C85.9615 9.76285 84.981 9.59163 83.8736 9.59163C82.2817 9.59163 81.0013 9.94548 80.0323 10.6532C79.0633 11.3381 78.5788 12.3197 78.5788 13.5982C78.5788 14.4429 78.7865 15.1278 79.2017 15.6529C79.617 16.1779 80.2053 16.6117 80.9667 16.9541C81.728 17.2737 82.6393 17.5591 83.7006 17.8102L85.5001 18.2554C86.9075 18.5522 88.1648 18.9631 89.2722 19.4882C90.4027 19.9905 91.3025 20.6868 91.9715 21.5771C92.6406 22.4446 92.9751 23.5861 92.9751 25.0015C92.9751 26.417 92.6175 27.6497 91.9023 28.6999C91.1871 29.7501 90.172 30.5719 88.857 31.1655C87.565 31.7362 86.0423 32.0216 84.2889 32.0216Z" fill="white"/>
<path d="M102.294 31.8504C101.071 31.8504 99.9408 31.5878 98.9026 31.0627C97.8875 30.5377 97.08 29.7615 96.4801 28.7341C95.9033 27.684 95.615 26.417 95.615 24.933V14.7967H98.3489V24.7276C98.3489 26.3941 98.7642 27.6041 99.5947 28.3575C100.448 29.1108 101.59 29.4875 103.021 29.4875C104.636 29.4875 105.962 28.9624 107.001 27.9123C108.039 26.8621 108.558 25.2983 108.558 23.2208V14.7967H111.292V31.5422H108.627V28.6999H108.143C107.773 29.4989 107.139 30.2295 106.239 30.8915C105.339 31.5308 104.024 31.8504 102.294 31.8504Z" fill="white"/>
<path d="M115.282 38.391V14.7967H117.947V17.5705H118.431C118.87 16.7258 119.573 15.9725 120.542 15.3104C121.534 14.6484 122.907 14.3173 124.66 14.3173C126.114 14.3173 127.44 14.6712 128.64 15.3789C129.863 16.0638 130.832 17.0454 131.547 18.3239C132.285 19.6024 132.654 21.1433 132.654 22.9469V23.392C132.654 25.1727 132.297 26.7137 131.582 28.015C130.866 29.3163 129.897 30.3094 128.675 30.9943C127.475 31.6791 126.137 32.0216 124.66 32.0216C123.484 32.0216 122.48 31.8618 121.65 31.5422C120.842 31.2454 120.185 30.8573 119.677 30.3779C119.169 29.8984 118.777 29.4076 118.5 28.9054H118.016V38.391H115.282ZM123.934 29.6245C125.687 29.6245 127.106 29.0766 128.19 27.9808C129.298 26.8621 129.851 25.3097 129.851 23.3236V23.0154C129.851 21.0292 129.298 19.4882 128.19 18.3924C127.106 17.2737 125.687 16.7144 123.934 16.7144C122.203 16.7144 120.773 17.2737 119.642 18.3924C118.535 19.4882 117.981 21.0292 117.981 23.0154V23.3236C117.981 25.3097 118.535 26.8621 119.642 27.9808C120.773 29.0766 122.203 29.6245 123.934 29.6245Z" fill="white"/>
<path d="M143.575 32.0216C141.867 32.0216 140.368 31.6677 139.076 30.96C137.784 30.2295 136.78 29.2136 136.065 27.9123C135.35 26.611 134.992 25.1043 134.992 23.392V22.9811C134.992 21.2461 135.35 19.7279 136.065 18.4266C136.78 17.1254 137.772 16.1209 139.041 15.4131C140.31 14.6826 141.764 14.3173 143.402 14.3173C144.994 14.3173 146.401 14.6598 147.624 15.3447C148.846 16.0067 149.804 16.9655 150.496 18.2212C151.188 19.4768 151.534 20.9493 151.534 22.6387V23.8715H137.726C137.795 25.675 138.384 27.0904 139.491 28.1177C140.599 29.1222 141.983 29.6245 143.644 29.6245C145.097 29.6245 146.216 29.2935 147.001 28.6314C147.785 27.9694 148.385 27.1817 148.8 26.2686L151.154 27.3986C150.807 28.1063 150.323 28.814 149.7 29.5218C149.1 30.2295 148.304 30.823 147.312 31.3025C146.343 31.7819 145.097 32.0216 143.575 32.0216ZM137.761 21.6456H148.766C148.673 20.0932 148.131 18.8832 147.139 18.0157C146.17 17.1482 144.924 16.7144 143.402 16.7144C141.856 16.7144 140.587 17.1482 139.595 18.0157C138.603 18.8832 137.992 20.0932 137.761 21.6456Z" fill="white"/>
<path d="M154.573 31.5422V14.7967H157.237V16.8514H157.722C158.022 16.1209 158.483 15.5844 159.106 15.2419C159.729 14.8995 160.548 14.7283 161.563 14.7283H163.57V17.1938H161.39C160.167 17.1938 159.175 17.5363 158.414 18.2212C157.676 18.8832 157.306 19.922 157.306 21.3374V31.5422H154.573Z" fill="white"/>
<path d="M173.065 32.0216C171.427 32.0216 169.951 31.6791 168.636 30.9943C167.344 30.2865 166.317 29.2821 165.556 27.9808C164.818 26.6795 164.448 25.1385 164.448 23.3578V22.9811C164.448 21.1776 164.818 19.6366 165.556 18.3581C166.317 17.0569 167.344 16.0638 168.636 15.3789C169.951 14.6712 171.427 14.3173 173.065 14.3173C174.68 14.3173 176.053 14.6141 177.184 15.2077C178.337 15.8012 179.237 16.5889 179.883 17.5705C180.552 18.5522 180.979 19.6024 181.163 20.721L178.499 21.2689C178.383 20.447 178.106 19.6937 177.668 19.0088C177.253 18.3239 176.665 17.776 175.903 17.3651C175.142 16.9541 174.207 16.7487 173.1 16.7487C171.97 16.7487 170.954 16.9998 170.055 17.502C169.178 18.0043 168.474 18.7234 167.944 19.6594C167.436 20.5954 167.182 21.7141 167.182 23.0154V23.3236C167.182 24.6248 167.436 25.7435 167.944 26.6795C168.474 27.6155 169.178 28.3346 170.055 28.8369C170.954 29.3391 171.97 29.5902 173.1 29.5902C174.784 29.5902 176.065 29.1565 176.941 28.289C177.841 27.4214 178.395 26.3485 178.602 25.07L181.302 25.6522C181.048 26.748 180.587 27.7867 179.918 28.7684C179.248 29.7501 178.337 30.5377 177.184 31.1312C176.053 31.7248 174.68 32.0216 173.065 32.0216Z" fill="white"/>
<path d="M192.053 32.0216C190.345 32.0216 188.834 31.6677 187.519 30.96C186.227 30.2523 185.212 29.2592 184.474 27.9808C183.758 26.6795 183.401 25.1499 183.401 23.392V22.9469C183.401 21.2118 183.758 19.6937 184.474 18.3924C185.212 17.0911 186.227 16.0866 187.519 15.3789C188.834 14.6712 190.345 14.3173 192.053 14.3173C193.76 14.3173 195.259 14.6712 196.551 15.3789C197.866 16.0866 198.882 17.0911 199.597 18.3924C200.335 19.6937 200.704 21.2118 200.704 22.9469V23.392C200.704 25.1499 200.335 26.6795 199.597 27.9808C198.882 29.2592 197.866 30.2523 196.551 30.96C195.259 31.6677 193.76 32.0216 192.053 32.0216ZM192.053 29.5902C193.852 29.5902 195.282 29.0309 196.344 27.9123C197.428 26.7708 197.97 25.2412 197.97 23.3236V23.0154C197.97 21.0977 197.428 19.5795 196.344 18.4609C195.282 17.3194 193.852 16.7487 192.053 16.7487C190.276 16.7487 188.846 17.3194 187.761 18.4609C186.677 19.5795 186.135 21.0977 186.135 23.0154V23.3236C186.135 25.2412 186.677 26.7708 187.761 27.9123C188.846 29.0309 190.276 29.5902 192.053 29.5902Z" fill="white"/>
<path d="M203.894 31.5422V7.57122H206.628V31.5422H203.894Z" fill="white"/>
<path d="M218.467 32.0216C216.76 32.0216 215.249 31.6677 213.934 30.96C212.642 30.2523 211.626 29.2592 210.888 27.9808C210.173 26.6795 209.815 25.1499 209.815 23.392V22.9469C209.815 21.2118 210.173 19.6937 210.888 18.3924C211.626 17.0911 212.642 16.0866 213.934 15.3789C215.249 14.6712 216.76 14.3173 218.467 14.3173C220.174 14.3173 221.674 14.6712 222.966 15.3789C224.281 16.0866 225.296 17.0911 226.011 18.3924C226.75 19.6937 227.119 21.2118 227.119 22.9469V23.392C227.119 25.1499 226.75 26.6795 226.011 27.9808C225.296 29.2592 224.281 30.2523 222.966 30.96C221.674 31.6677 220.174 32.0216 218.467 32.0216ZM218.467 29.5902C220.267 29.5902 221.697 29.0309 222.758 27.9123C223.843 26.7708 224.385 25.2412 224.385 23.3236V23.0154C224.385 21.0977 223.843 19.5795 222.758 18.4609C221.697 17.3194 220.267 16.7487 218.467 16.7487C216.691 16.7487 215.26 17.3194 214.176 18.4609C213.091 19.5795 212.549 21.0977 212.549 23.0154V23.3236C212.549 25.2412 213.091 26.7708 214.176 27.9123C215.26 29.0309 216.691 29.5902 218.467 29.5902Z" fill="white"/>
<path d="M230.308 31.5422V14.7967H232.973V17.639H233.457C233.826 16.84 234.449 16.1209 235.326 15.4816C236.226 14.8196 237.541 14.4885 239.271 14.4885C240.54 14.4885 241.671 14.7511 242.663 15.2762C243.678 15.8012 244.485 16.5774 245.085 17.6048C245.685 18.6321 245.985 19.8991 245.985 21.4059V31.5422H243.251V21.6113C243.251 19.9448 242.824 18.7348 241.971 17.9815C241.14 17.2281 240.009 16.8514 238.579 16.8514C236.941 16.8514 235.603 17.3765 234.565 18.4266C233.55 19.4768 233.042 21.0406 233.042 23.1181V31.5422H230.308Z" fill="white"/>
<path d="M251.573 38.391V35.9939H261.263C261.932 35.9939 262.266 35.6515 262.266 34.9666V28.8711H261.782C261.551 29.3505 261.193 29.83 260.709 30.3094C260.247 30.766 259.636 31.1427 258.875 31.4394C258.113 31.7134 257.156 31.8504 256.002 31.8504C254.78 31.8504 253.649 31.5878 252.611 31.0627C251.596 30.5377 250.788 29.7615 250.188 28.7341C249.612 27.7068 249.323 26.4512 249.323 24.9673V14.7967H252.057V24.7618C252.057 26.4055 252.473 27.6041 253.303 28.3575C254.157 29.1108 255.299 29.4875 256.729 29.4875C258.344 29.4875 259.671 28.9624 260.709 27.9123C261.747 26.8621 262.266 25.2983 262.266 23.2208V14.7967H265V35.446C265 36.3592 264.735 37.0783 264.204 37.6034C263.697 38.1285 262.947 38.391 261.955 38.391H251.573Z" fill="white"/>
<defs>
<linearGradient id="paint0_linear_2071_401" x1="67.4549" y1="3.43225" x2="-59.0773" y2="81.8843" gradientUnits="userSpaceOnUse">
<stop offset="0.145833" stop-color="#48D731"/>
<stop offset="1" stop-color="#062701"/>
</linearGradient>
</defs>
</svg>
