<svg width="195" height="89" viewBox="0 0 195 89" fill="none" xmlns="http://www.w3.org/2000/svg">
<g clip-path="url(#clip0)">
<path fill-rule="evenodd" clip-rule="evenodd" d="M32.421 48.2C32.3947 47.7617 32.1325 47.229 31.6605 46.9323C31.6474 46.9256 31.6342 46.9188 31.6211 46.9121C31.608 46.9053 31.5949 46.8986 31.5818 46.8918C31.2868 46.7368 30.7492 46.6086 30.2509 46.5345C29.7658 46.467 29.32 46.4535 29.1757 46.5479C29.1692 46.5479 29.1692 46.5547 29.1626 46.5547C29.0971 46.6086 29.0971 46.6221 29.1888 46.7502C29.2413 46.8244 29.3986 47.0604 29.5429 47.2695C29.6805 47.4785 29.8903 47.782 30.0083 47.9438C30.2968 48.3349 30.2968 48.5642 30.0149 49.0699C29.7264 49.5892 29.202 50.8232 29.2151 50.9378C29.2216 51.0053 29.2675 51.0457 29.3527 51.0525C29.4904 51.0659 29.5363 51.0187 30.0477 50.3444C30.6574 49.542 31.4376 48.9418 31.8637 48.9418C31.8834 48.9418 31.903 48.9418 31.9227 48.9351C32.2898 48.8946 32.4406 48.5844 32.421 48.2ZM32.2112 49.5487C32.1587 49.5622 32.0866 49.6094 32.0145 49.6903C31.9686 49.7443 31.8703 49.8656 31.7785 50.0072C31.7457 50.0545 31.7064 50.1084 31.6736 50.1623C30.7033 51.6122 29.5953 52.9473 29.3134 53.0148C28.6906 53.1564 28.625 53.244 28.625 53.9049C28.6316 54.7141 29.1823 55.3951 29.91 55.4828C30.3296 55.5368 30.3886 55.4289 30.9721 53.6149C31.1229 53.1496 31.3654 52.4955 31.5228 52.1651C31.8899 51.3694 32.0997 50.8434 32.1587 50.54C32.1849 50.4051 32.2571 50.1758 32.3095 50.0342C32.3161 50.014 32.3226 49.9938 32.3292 49.9735C32.3357 49.96 32.3357 49.9533 32.3423 49.9398C32.3488 49.9263 32.3488 49.9128 32.3554 49.8926C32.362 49.8791 32.362 49.8656 32.362 49.8522C32.4013 49.6431 32.3357 49.5217 32.2112 49.5487ZM32.5849 28.8872C32.4406 28.2466 32.0538 27.8825 31.1819 27.5723C30.9262 27.4779 30.6049 27.3363 30.4607 27.2554C30.441 27.2419 30.4214 27.2284 30.4017 27.2217C30.1264 27.0733 29.969 27.0733 29.9035 27.2217C29.8838 27.2689 29.8969 27.3633 29.9362 27.4779C29.9362 27.4779 29.9362 27.4779 29.9362 27.4846C30.028 27.7746 30.2575 28.2062 30.4869 28.5231C30.5001 28.5433 30.5132 28.5636 30.5328 28.5771C30.8803 29.0221 30.8803 29.0423 30.4804 29.5751C30.1722 29.9864 30.1722 29.9797 30.205 30.0673C30.2575 30.2089 31.2278 30.1752 31.5425 30.0269C31.7064 29.9527 31.8768 29.9055 32.0276 29.9055C32.4996 29.9055 32.7291 29.4941 32.5849 28.8872ZM32.8274 66.3935C33.4634 66.4137 34.119 66.4542 34.886 66.5216C34.2894 66.4542 33.6076 66.4137 32.8274 66.3935ZM34.8401 23.2026C34.8598 23.2094 34.8795 23.2229 34.8926 23.2296C34.9844 23.2768 35.0958 23.3308 35.1876 23.378C35.0434 23.2971 34.9319 23.2364 34.8401 23.2026ZM36.5185 66.8048C36.984 66.9329 37.4232 67.1015 37.7707 67.2836C37.4101 67.0948 36.9971 66.9329 36.5185 66.8048ZM39.2523 47.4987C38.6361 46.3861 37.7379 46.2445 36.3087 47.0267C35.6334 47.3976 35.6006 47.3302 36.0464 46.5277C36.1644 46.3119 36.2628 46.1299 36.3415 45.9815C36.3546 45.9545 36.3677 45.9276 36.3808 45.8938C36.3808 45.8938 36.3808 45.8938 36.3808 45.8871C36.4005 45.8534 36.4136 45.8197 36.4267 45.7859C36.5381 45.5432 36.5775 45.4083 36.5775 45.2735V45.2667C36.5709 44.8958 36.2366 44.4373 35.8039 44.0597L35.7973 44.0529C35.4433 43.7427 35.0237 43.4865 34.6566 43.3651C34.6566 43.3651 34.6566 43.3651 34.65 43.3651C34.3419 43.264 34.0731 43.2505 33.9157 43.3921C33.7584 43.5337 33.7191 43.9653 33.7781 44.2889C33.7781 44.2957 33.7781 44.2957 33.7781 44.2957C33.8174 44.4912 33.883 44.6463 33.9879 44.6598C34.1518 44.6868 34.2304 44.5856 34.2304 44.3429C34.2304 43.8978 34.3943 43.8304 34.7221 44.1406C35.3056 44.6935 35.2663 45.0846 34.4599 46.7974C33.7256 48.3484 33.2864 49.1306 32.9192 49.515L32.6045 49.8522L32.5718 50.3174C32.5259 50.9311 32.5783 51.1064 32.8733 51.3896C33.2667 51.7673 33.4109 51.7066 33.9616 50.9581C34.886 49.6903 34.7615 50.6748 33.8108 52.1449C33.1815 53.1159 32.6963 53.6149 32.0604 53.9251C31.5162 54.1881 31.6146 54.4174 32.3161 54.5387C32.5455 54.5792 33.1749 54.4309 33.4371 54.2758C34.2698 53.7835 34.7025 53.3047 35.5416 51.9493C35.9809 51.2413 35.994 51.2278 36.2497 51.2278C36.4136 51.2278 36.5316 51.1738 37.0954 50.8232C37.7969 50.3916 38.4918 49.8319 39.0032 49.2857C39.5998 48.6721 39.6588 48.2338 39.2523 47.4987ZM37.9215 47.6336C37.8887 47.8089 37.7838 48.1056 37.6592 48.3889C37.6396 48.4226 37.6264 48.4563 37.6068 48.4968C37.5674 48.5844 37.5215 48.6721 37.4757 48.753C37.456 48.7867 37.4363 48.8272 37.4166 48.8541C37.397 48.8811 37.3839 48.9081 37.3708 48.9283C37.3249 48.9958 37.2069 49.1778 37.1085 49.3329C36.5709 50.1623 35.9415 50.54 36.2693 49.8319C36.3742 49.6094 36.3284 49.4678 36.0727 49.1711C36.0596 49.1509 36.0464 49.1374 36.0333 49.1171C35.9743 49.0497 35.9284 48.9958 35.9088 48.9486C35.876 48.8879 35.8825 48.8339 35.935 48.7665L35.9415 48.7597C36.0005 48.6788 36.1251 48.5777 36.3218 48.4158C36.3284 48.4091 36.3284 48.4091 36.3349 48.4091C36.525 48.254 36.7545 48.0584 37.0233 47.8494C37.0626 47.8224 37.0954 47.7954 37.1347 47.7617L37.1413 47.755C37.279 47.6538 37.3839 47.5729 37.4822 47.5122C37.4953 47.5055 37.5084 47.492 37.5215 47.4853C37.5215 47.4853 37.5281 47.4853 37.5281 47.4785C37.7707 47.3302 37.869 47.3369 37.9083 47.4515C37.9083 47.4583 37.9149 47.465 37.9149 47.4718V47.4785C37.9215 47.4853 37.9215 47.4987 37.9215 47.5122C37.9215 47.519 37.9215 47.5257 37.928 47.5325C37.9346 47.5594 37.928 47.5932 37.9215 47.6336ZM40.0849 53.3587C39.8686 52.7248 38.7475 52.0168 37.9739 52.0168C37.8821 52.0168 37.751 51.9965 37.692 51.9763C37.6854 51.9763 37.6854 51.9763 37.6789 51.9695C37.5019 51.9089 36.984 51.8886 36.5513 51.8954C36.23 51.9021 35.9612 51.9291 35.9022 51.9695C35.7908 52.064 35.7711 52.1584 35.8825 52.3135C35.8891 52.3269 35.8957 52.3337 35.9088 52.3472C35.9284 52.3741 35.9547 52.4011 35.9809 52.4281C36.0464 52.4955 36.1317 52.5764 36.23 52.6574C36.2759 52.6978 36.3218 52.7315 36.3742 52.7787C36.4398 52.8327 36.5119 52.8866 36.584 52.9473C37.1479 53.3789 36.9905 53.5947 35.9874 53.7633C35.8039 53.7902 35.5416 53.8509 35.404 53.8846C35.2597 53.9251 35.0106 53.9656 34.8401 53.9791C34.4009 54.0195 34.1911 54.0869 34.1583 54.2016C34.1059 54.3702 34.1845 54.3836 34.9123 54.3432C35.6006 54.3027 35.7842 54.3162 35.7842 54.3836C35.7842 54.4713 35.2728 54.768 35.0303 54.822C33.8961 55.058 32.8602 55.3951 32.3751 55.6986C32.1391 55.8402 32.0538 55.8739 31.9883 55.8402C31.8506 55.766 31.6474 55.4289 31.6211 55.2266C31.6211 55.2131 31.6146 55.1996 31.6146 55.1861C31.608 55.1591 31.6015 55.1389 31.5949 55.1119C31.5359 54.9029 31.4113 54.8422 31.2802 54.8961C31.2737 54.8961 31.2671 54.9029 31.254 54.9029C31.0966 54.9838 30.9262 55.2401 30.8606 55.6109C30.8606 55.6177 30.8606 55.6177 30.8606 55.6244C30.8344 55.7525 30.841 55.8941 30.8737 56.1167C30.8803 56.1571 30.8869 56.1976 30.8934 56.2381C30.9 56.265 30.9 56.292 30.9065 56.319C30.9262 56.4404 30.9459 56.5348 30.9655 56.6292C30.9655 56.6359 30.9655 56.6427 30.9721 56.6494C31.0049 56.8045 31.0311 56.9461 31.0835 57.1417C31.0901 57.1686 31.0966 57.2024 31.1032 57.2293C31.1098 57.2698 31.1229 57.3102 31.1294 57.3507C31.136 57.3777 31.1425 57.4046 31.1491 57.4316C31.1688 57.5193 31.195 57.6069 31.2147 57.7014C31.2737 57.9374 31.3458 58.3285 31.372 58.5712C31.5228 59.9536 33.0307 61.0932 33.2929 60.021C33.424 59.4883 34.7549 59.1714 35.7252 59.4411C36.0792 59.5423 36.6299 59.5153 36.8594 59.3939C37.0954 59.2658 37.1347 59.1377 37.0626 58.6589C37.0167 58.3285 37.0167 58.2273 37.0692 58.1329C37.1479 57.9846 37.7641 57 37.9805 56.6899C38.4328 56.029 37.5871 54.8017 36.4595 54.4915C36.348 54.4646 36.2628 54.4174 36.2628 54.3904C36.2628 54.1881 38.4328 54.1139 38.918 54.296C39.9866 54.6938 40.4259 54.3499 40.0849 53.3587ZM35.7318 56.528C35.7186 56.555 35.7055 56.582 35.6924 56.6157C35.6793 56.6494 35.6596 56.6831 35.64 56.7236C35.5088 57 35.3908 57.2833 35.3712 57.3507C35.3318 57.5193 35.0434 57.7553 34.8139 57.816C34.709 57.843 34.5189 57.9171 34.3943 57.9778C34.2632 58.0453 34.0534 58.1194 33.9223 58.1531C33.7912 58.1801 33.5748 58.2408 33.4371 58.2745C32.9913 58.3892 32.8799 58.2543 32.6242 57.2698C32.5455 56.9731 32.539 56.8719 32.5783 56.7775L32.6308 56.6561H34.0206L34.6762 56.4201C35.0368 56.292 35.3974 56.1504 35.4695 56.1099C35.4826 56.1032 35.4957 56.0964 35.5023 56.0897C35.6596 56.0088 35.7776 56.0088 35.8301 56.0897C35.8366 56.0964 35.8432 56.1099 35.8432 56.1234C35.8694 56.1774 35.8301 56.3055 35.7318 56.528ZM39.3835 35.7452C38.6951 35.4957 37.3576 34.6797 37.2331 34.437C37.1151 34.2144 38.0591 31.4699 38.4918 30.7754C38.7541 30.3505 38.859 30.0336 38.7737 29.7099C38.7213 29.4941 38.5836 29.2716 38.3607 29.0221C38.3476 29.0086 38.3279 28.9884 38.3148 28.9749C38.2886 28.9412 38.2558 28.9075 38.2165 28.8738C38.1903 28.8468 38.164 28.8198 38.1444 28.7996C38.1313 28.7861 38.1181 28.7726 38.105 28.7591C38.0919 28.7456 38.0788 28.7321 38.0657 28.7187C38.046 28.6984 38.0329 28.6849 38.0132 28.6647C37.9805 28.631 37.9411 28.5973 37.9083 28.5636C37.6723 28.3478 37.5019 28.2129 37.338 28.1455C37.338 28.1455 37.3314 28.1455 37.3314 28.1387C37.2659 28.1118 37.2069 28.0983 37.1413 28.0915C37.1347 28.0915 37.1282 28.0915 37.1216 28.0915C37.043 28.0848 36.9643 28.0915 36.8725 28.1118C36.8397 28.1185 36.8135 28.1253 36.7938 28.132C36.6562 28.1725 36.6103 28.2264 36.4332 28.4894C35.9153 29.2649 35.4171 29.6964 34.4599 30.2157C33.8961 30.5191 33.8043 30.5866 33.4568 30.9642C33.247 31.1935 32.9192 31.5104 32.7225 31.6722C32.2243 32.0768 31.9817 32.36 31.6277 32.9062C31.4507 33.176 31.2409 33.439 31.1294 33.5266C30.9065 33.6952 30.8672 33.7964 30.9327 33.9784C30.9721 34.0863 30.959 34.1538 30.8672 34.3628C30.6443 34.8416 30.4673 35.2731 30.4673 35.3271C30.4673 35.3541 30.4148 35.4889 30.3558 35.6238C30.2903 35.7587 30.1854 36.0082 30.1198 36.1835C29.7133 37.2152 29.5166 37.3096 29.5822 36.4465C29.6478 35.6171 29.7658 34.936 29.9821 34.1268C30.2116 33.2839 30.0542 32.6635 29.4642 32.0633C28.7889 31.3823 28.5857 31.7531 28.4939 33.8368C28.4742 34.2886 28.4283 34.7607 28.3956 34.882C28.3431 35.0776 28.3431 35.1383 28.4152 35.3203C28.4677 35.462 28.4939 35.6777 28.4939 35.9879C28.4939 38.0918 29.7592 40.3778 30.5394 39.69C30.6902 39.5551 30.723 39.2854 30.841 37.5052C30.9327 36.1498 31.0639 35.934 31.4835 36.4937C32.0473 37.2489 32.2243 37.3501 32.9979 37.3568C34.1518 37.3636 35.004 37.0736 35.8366 36.3925C36.0268 36.2374 36.2038 36.1295 36.2693 36.1295C36.4791 36.1295 37.987 37.2422 38.8721 38.0514C39.9342 39.0224 40.9766 39.0966 40.9766 38.193C40.9897 37.1208 40.321 36.0891 39.3835 35.7452ZM34.7221 35.0843C34.6566 35.2529 33.5486 35.8935 33.3191 35.8935C33.2798 35.8935 33.1421 35.934 33.011 35.9879C32.716 36.1093 31.962 36.1228 31.726 36.0149C31.6474 35.9745 31.4966 35.9205 31.4048 35.8935C31.1884 35.8261 31.1425 35.6912 31.254 35.4282C31.2999 35.3271 31.3589 35.1315 31.3917 34.9967C31.3982 34.963 31.4113 34.936 31.4179 34.9023C31.5097 34.5651 31.608 34.3223 31.7195 34.1605C31.7195 34.1538 31.726 34.1538 31.726 34.147C31.844 33.9717 31.9817 33.9043 32.1391 33.9312C32.244 33.9515 32.4275 33.9852 32.539 34.0054C32.657 34.0256 32.8274 34.0728 32.9258 34.12C33.0241 34.1605 33.1356 34.201 33.1749 34.201C33.3323 34.201 34.5058 34.7674 34.6631 34.9225C34.7156 34.9697 34.7352 35.0439 34.7221 35.0843ZM36.5054 31.0856C36.4988 31.1395 36.4791 31.2069 36.4398 31.2946C36.3611 31.4834 35.9874 32.7916 35.7973 33.5266C35.7252 33.8031 35.6006 33.8301 35.1548 33.675C34.3943 33.3985 34.2173 33.3715 33.1815 33.3446L32.1981 33.3176L32.1849 33.1962C32.1653 33.0479 32.6176 32.441 32.9323 32.1712C33.2929 31.8678 34.0337 31.6587 34.4205 31.7397C35.1286 31.888 35.6006 31.7531 36.0727 31.2609C36.0989 31.2339 36.1186 31.2137 36.1382 31.1935C36.1579 31.18 36.171 31.1597 36.1841 31.1462C36.289 31.0451 36.3677 30.9912 36.4201 30.9777C36.4595 30.9709 36.4923 30.9844 36.5119 31.0181C36.5119 31.0249 36.5119 31.0518 36.5054 31.0856ZM49.2371 52.9001C49.1257 52.7855 48.9487 52.8529 48.8635 53.0417C48.6733 53.4396 48.2669 54.3769 48.2669 54.4174C48.2669 54.5387 48.0308 54.6938 47.9587 54.6197C47.8342 54.4915 48.1423 52.6169 48.4635 51.5852C48.7913 50.5197 48.5619 50.0207 47.6572 49.8252C47.4539 49.778 47.2769 49.7577 47.1261 49.7577C47.0933 49.7577 47.0671 49.7577 47.0343 49.7645C47.0147 49.7645 46.9884 49.7712 46.9688 49.7712C46.9098 49.778 46.8508 49.7915 46.7983 49.8117C46.7918 49.8117 46.7786 49.8184 46.7721 49.8184C46.7393 49.8319 46.7065 49.8454 46.6737 49.8724C46.6606 49.8791 46.6541 49.8859 46.641 49.8926C46.6213 49.9061 46.6082 49.9196 46.5885 49.9331C46.5754 49.9398 46.5688 49.9533 46.5557 49.9668C46.5492 49.9803 46.5361 49.987 46.5295 50.0005C46.523 50.014 46.5098 50.0275 46.5033 50.0342C46.0116 50.8771 44.4185 51.6863 44.0776 51.2682C43.7367 50.8434 43.6842 50.8164 43.5203 50.9513C43.1794 51.2345 43.5072 52.1044 44.1693 52.6371C45.0151 53.325 45.533 53.3182 46.2804 52.6236C46.6279 52.3 46.7131 52.2595 46.8114 52.3876C46.8639 52.4483 46.8639 52.5023 46.8114 52.6641C46.7131 53.0013 46.6213 53.6689 46.6147 54.0735C46.6082 54.2825 46.5885 54.5927 46.5688 54.7478C46.2869 56.6764 46.3722 57.2226 47.0671 57.9981C47.6899 58.6859 47.7752 58.5847 48.398 56.4606C48.4832 56.1841 48.6012 55.7863 48.6602 55.5772C48.7192 55.3682 48.7717 55.1591 48.7717 55.1052C48.7717 55.0512 48.8045 54.9096 48.8503 54.7815C48.8897 54.6534 48.9618 54.3904 49.0077 54.1881C49.0536 53.9858 49.1388 53.6351 49.1978 53.3991C49.3027 53.0148 49.3027 52.9743 49.2371 52.9001ZM50.1615 46.9121C49.8534 46.2782 48.87 45.5499 48.2406 45.496C48.0308 45.4758 47.7686 45.4286 47.6572 45.3881C47.6309 45.3746 47.5981 45.3679 47.5719 45.3611C47.4146 45.3072 47.3031 45.3004 47.2245 45.3409C47.1982 45.3544 47.1786 45.3679 47.1589 45.3881C47.1064 45.442 47.1196 45.6241 47.1851 45.8264V45.8331C47.2572 46.0624 47.3818 46.3254 47.5195 46.5075C47.526 46.5142 47.5326 46.5277 47.5391 46.5345C47.5457 46.5412 47.5457 46.5479 47.5523 46.5547C47.7948 46.8379 47.7686 46.8986 47.1196 47.4313C46.4902 47.9505 46.0509 48.2675 45.5854 48.5507C44.7463 49.0632 45.6313 48.9958 46.9491 48.4428C47.4867 48.2203 48.1751 47.9843 48.4045 47.9438C48.4963 47.9303 48.6799 47.8831 48.811 47.8359C49.0339 47.7617 49.0667 47.7617 49.2568 47.8359C49.9386 48.0989 50.4697 47.5527 50.1615 46.9121ZM54.2132 51.8414C54.1673 51.7942 54.1214 51.747 54.0558 51.6931C53.8723 51.5245 53.4461 51.275 53.0724 51.0929C52.7643 50.9446 52.4955 50.8367 52.4299 50.8704C52.4234 50.8704 52.3775 50.8839 52.3316 50.8974C52.2791 50.9109 52.1152 51.0187 51.9579 51.1334C51.8006 51.248 51.6498 51.3424 51.6235 51.3424C51.4859 51.3424 50.7188 51.8279 50.391 52.1246C50.2271 52.273 50.1025 52.2932 49.9518 52.2123C49.6895 52.064 49.5191 52.3135 49.6502 52.6506C49.7157 52.8125 49.7223 53.0755 49.7223 54.2825C49.7223 55.9683 49.7157 55.9414 50.2927 56.6427C50.7123 57.1551 50.7713 57.1821 51.1187 56.9933C52.03 56.5078 52.4889 56.346 52.4889 56.5078C52.4889 56.6022 52.9282 57.0405 53.0134 57.0405C53.2625 57.0405 53.5117 56.7371 53.7084 56.2043C53.7542 56.0695 53.8526 55.53 53.9444 54.8692C53.9706 54.6938 54.0099 54.4174 54.0362 54.242C54.0624 54.0667 54.0886 53.6891 54.1017 53.3924C54.1148 52.9001 54.1345 52.8327 54.2722 52.536C54.4295 52.2056 54.4361 52.0774 54.2132 51.8414ZM52.5807 54.6938C52.5742 54.7208 52.5742 54.7478 52.5676 54.7815C52.4824 55.2333 52.4103 55.321 52.1021 55.3682C51.6825 55.4356 51.2236 55.5435 51.0991 55.5974C50.9876 55.6514 50.9614 55.6446 50.8827 55.5368C50.6795 55.2805 50.9089 54.8692 51.3154 54.741C51.5973 54.6534 52.0628 54.4309 52.2005 54.323C52.207 54.3162 52.2201 54.3095 52.2267 54.3027C52.325 54.242 52.4627 54.2218 52.5414 54.2488C52.5742 54.2623 52.6004 54.2825 52.6069 54.3095C52.6266 54.3499 52.6135 54.5118 52.5807 54.6938ZM52.3316 53.2508C52.0825 53.1429 51.9251 53.1631 51.617 53.325C51.1974 53.5407 51.0728 53.5542 50.9483 53.3924C50.7188 53.0889 50.8499 52.9608 51.617 52.7181C51.8464 52.6439 52.1218 52.5292 52.2267 52.4483C52.2595 52.4281 52.2857 52.4079 52.3119 52.3944C52.325 52.3876 52.3381 52.3741 52.3513 52.3674C52.3709 52.3539 52.3906 52.3472 52.4103 52.3404C52.4168 52.3337 52.4299 52.3337 52.4365 52.3269C52.4627 52.3202 52.4824 52.3135 52.502 52.3202H52.5086C52.5152 52.3202 52.5217 52.3269 52.5283 52.3269C52.5348 52.3337 52.5414 52.3337 52.5479 52.3404C52.5479 52.3404 52.5545 52.3404 52.5545 52.3472C52.561 52.3539 52.5676 52.3607 52.5742 52.3674C52.5807 52.3741 52.5873 52.4011 52.6004 52.4348C52.6135 52.5023 52.6332 52.6102 52.6463 52.7315V52.7383C52.6463 52.7585 52.6528 52.7787 52.6528 52.799C52.6528 52.8192 52.6594 52.8462 52.6594 52.8731C52.6922 53.3789 52.6725 53.3991 52.3316 53.2508ZM55.7932 48.4428C55.249 48.2068 54.0624 48.1124 53.6821 48.2742C53.4854 48.3551 53.3084 48.3686 53.2691 48.2945C53.2363 48.2338 53.2691 48.1596 53.7149 47.3774C53.7739 47.2762 53.8264 47.1818 53.8723 47.1009C53.905 47.0402 53.9378 46.9795 53.9706 46.9256L53.9771 46.9188C53.9903 46.8918 54.0099 46.8649 54.023 46.8379C54.2132 46.4872 54.2984 46.2715 54.2984 46.1029C54.2984 45.9343 54.2132 45.8197 54.0493 45.6511C54.0427 45.6443 54.0427 45.6443 54.0362 45.6376C54.0296 45.6241 54.0165 45.6174 54.0034 45.6039C53.9903 45.5904 53.9837 45.5836 53.9706 45.5702C53.5641 45.1588 52.9282 44.8014 52.4103 44.6261C52.0366 44.498 51.7219 44.471 51.5842 44.5789C51.5776 44.5856 51.5711 44.5856 51.5645 44.5924C51.558 44.5991 51.5514 44.5991 51.5514 44.6059C51.4596 44.7205 51.5252 44.8082 51.7219 44.8419C51.9382 44.8756 52.3644 45.2802 52.4955 45.5769C52.6463 45.9276 52.6201 46.0624 52.1939 46.9188C51.4203 48.4765 51.1187 48.9351 50.6205 49.3127C50.4435 49.4476 50.4172 49.8454 50.5484 50.4456C50.7123 51.1806 50.8893 51.2143 51.5252 50.6479C52.2988 49.96 53.2298 49.4948 54.0755 49.3666C54.2525 49.3397 54.4557 49.2992 54.5213 49.2722C54.7573 49.1778 54.954 49.2115 55.1638 49.3801C55.4785 49.6296 55.4785 49.6296 55.485 51.8751C55.4916 53.8914 55.4785 54.033 55.2949 55.2805C55.2687 55.4693 55.2294 55.7391 55.2097 55.8807C55.0851 56.791 55.0654 56.8787 54.9409 57.0877C54.7114 57.4721 54.2591 57.5732 53.5641 57.3912C52.8954 57.2158 52.8102 57.4181 53.3478 57.9104C54.0099 58.524 54.305 58.841 54.4033 59.0635C54.6983 59.7041 55.0654 59.6434 55.7735 58.841C56.6651 57.8227 56.8093 57.0742 56.8225 53.3654L56.8356 50.8299L57.0323 50.5265C57.4846 49.8252 56.9732 48.962 55.7932 48.4428ZM57.5567 34.0324C57.3404 33.8773 57.1175 33.7222 57.065 33.6952C55.4129 32.7646 54.659 32.0836 53.4789 30.4787C52.784 29.5346 51.9579 28.84 51.1515 28.5366C50.686 28.3545 50.6664 28.2938 50.9548 27.9432C51.4531 27.343 51.499 27.0059 51.1581 26.5676C50.8368 26.1562 50.568 26.0011 50.1943 26.0011C50.0239 26.0011 49.8403 25.9944 49.7879 25.9809C49.7354 25.9674 49.6698 25.9741 49.6371 25.9876C49.6305 25.9876 49.6305 25.9876 49.6305 25.9944C49.624 25.9944 49.624 26.0011 49.6174 26.0011C49.6174 26.0011 49.6108 26.0011 49.6108 26.0079C49.5715 26.0416 49.5649 26.1225 49.6043 26.2574C49.6108 26.2776 49.6174 26.3046 49.6305 26.3315C49.683 26.4866 49.565 26.8238 49.3617 27.0733C49.3289 27.1138 49.165 27.4105 49.0011 27.7409C48.7323 28.2803 48.6799 28.3545 48.4439 28.5231C47.8473 28.9479 47.7883 29.0356 47.9325 29.3188C48.0374 29.5211 48.044 29.6762 47.9587 29.8043C47.9194 29.8583 47.7948 30.128 47.6834 30.4045C47.2245 31.5036 46.7459 32.5623 46.5951 32.8186C46.5098 32.9669 46.3787 33.203 46.3066 33.3513C45.9854 34.0054 44.7266 35.7924 44.4578 35.9677C44.366 36.0284 44.2284 36.1093 44.1628 36.1363C43.9792 36.2172 43.9006 36.3723 43.8219 36.7769C43.5793 38.0851 44.4775 37.8423 46.182 36.1295C46.7918 35.5159 47.8342 34.1268 47.8342 33.9312C47.8342 33.7694 48.0243 33.8705 48.3783 34.2212C48.7913 34.6258 49.2503 34.9023 49.5191 34.9023C49.7092 34.9023 49.8272 35.0776 49.7879 35.3069C49.742 35.5429 49.6371 35.6171 49.0929 35.7789C47.6965 36.197 47.1261 36.5881 47.1261 37.1545C47.1261 37.64 47.2179 37.7682 47.9456 38.2941C48.5488 38.7325 48.6274 38.8066 48.6274 38.9415C48.6274 39.0831 48.2734 39.3259 48.0177 39.3663C47.4998 39.4472 47.2638 39.7237 47.2638 40.2564C47.2638 41.214 48.2275 41.6051 49.2503 41.0522C50.0829 40.6071 51.0138 40.4655 51.6563 40.688C51.8858 40.7689 52.0497 40.7824 52.6528 40.7824H53.374L53.5117 40.6408C53.905 40.2362 53.2101 39.0427 52.5742 39.0427C52.5348 39.0427 52.384 38.9954 52.2464 38.9415C52.0431 38.8606 51.9317 38.8471 51.7284 38.8741C51.3154 38.9213 51.2171 38.7594 51.4531 38.4155C51.499 38.3481 51.5908 38.1593 51.6563 37.9907C51.7219 37.8221 51.8727 37.5726 51.9907 37.4377C52.2005 37.1882 52.3906 36.7297 52.3906 36.4667C52.3906 36.2037 51.9579 35.5631 51.7809 35.5631C51.676 35.5631 51.6235 35.3271 51.6367 34.8888C51.6498 34.1807 51.6825 34.1066 52.1415 33.6548L52.5348 33.2636V32.8725C52.5348 32.0296 52.0562 31.6115 51.0597 31.5846C50.4631 31.5643 50.4369 31.5778 49.9518 32.0633C49.3027 32.7107 48.6996 33.1558 48.4701 33.1558C48.2669 33.1558 48.2931 32.9939 48.634 32.2791C48.9946 31.5104 49.1847 31.0923 49.5059 30.3843C49.8272 29.6762 49.8534 29.656 50.3713 29.8111C51.2367 30.0673 52.0628 30.9035 52.9544 32.441C53.4199 33.2434 54.2525 34.3763 54.8294 34.9967C55.4588 35.671 55.8194 35.7856 57.3928 35.7789C59.635 35.7654 59.6547 35.5496 57.5567 34.0324ZM49.2699 38.0649C48.7323 38.2469 47.762 37.7277 48.0571 37.4243C48.103 37.3771 49.5453 37.4377 49.6108 37.4917C49.7551 37.6198 49.5453 37.9705 49.2699 38.0649ZM60.5594 50.3512C60.5397 50.7018 60.5266 51.774 60.5201 53.1159C60.5528 50.9985 60.6118 49.2453 60.6905 48.517C60.7495 47.9843 60.7889 47.6741 60.8216 47.465C60.7233 48.0382 60.6315 49.0632 60.5594 50.3512ZM62.0738 22.6969C62.795 22.852 63.4113 23.2094 63.7981 23.7219C63.4178 23.1824 62.8409 22.8385 62.0738 22.6969ZM64.2963 24.9829C64.2767 24.848 64.2439 24.7266 64.2111 24.6053C64.2963 24.9559 64.3291 25.3538 64.3094 25.7314C64.3291 25.4549 64.3291 25.1919 64.2963 24.9829ZM32.421 48.2C32.3947 47.7617 32.1325 47.229 31.6605 46.9323C31.6474 46.9256 31.6342 46.9188 31.6211 46.9121C31.608 46.9053 31.5949 46.8986 31.5818 46.8918C31.2868 46.7368 30.7492 46.6086 30.2509 46.5345C29.7658 46.467 29.32 46.4535 29.1757 46.5479C29.1692 46.5479 29.1692 46.5547 29.1626 46.5547C29.0971 46.6086 29.0971 46.6221 29.1888 46.7502C29.2413 46.8244 29.3986 47.0604 29.5429 47.2695C29.6805 47.4785 29.8903 47.782 30.0083 47.9438C30.2968 48.3349 30.2968 48.5642 30.0149 49.0699C29.7264 49.5892 29.202 50.8232 29.2151 50.9378C29.2216 51.0053 29.2675 51.0457 29.3527 51.0525C29.4904 51.0659 29.5363 51.0187 30.0477 50.3444C30.6574 49.542 31.4376 48.9418 31.8637 48.9418C31.8834 48.9418 31.903 48.9418 31.9227 48.9351C32.2898 48.8946 32.4406 48.5844 32.421 48.2ZM32.2112 49.5487C32.1587 49.5622 32.0866 49.6094 32.0145 49.6903C31.9686 49.7443 31.8703 49.8656 31.7785 50.0072C31.7457 50.0545 31.7064 50.1084 31.6736 50.1623C30.7033 51.6122 29.5953 52.9473 29.3134 53.0148C28.6906 53.1564 28.625 53.244 28.625 53.9049C28.6316 54.7141 29.1823 55.3951 29.91 55.4828C30.3296 55.5368 30.3886 55.4289 30.9721 53.6149C31.1229 53.1496 31.3654 52.4955 31.5228 52.1651C31.8899 51.3694 32.0997 50.8434 32.1587 50.54C32.1849 50.4051 32.2571 50.1758 32.3095 50.0342C32.3161 50.014 32.3226 49.9938 32.3292 49.9735C32.3357 49.96 32.3357 49.9533 32.3423 49.9398C32.3488 49.9263 32.3488 49.9128 32.3554 49.8926C32.362 49.8791 32.362 49.8656 32.362 49.8522C32.4013 49.6431 32.3357 49.5217 32.2112 49.5487ZM32.5849 28.8872C32.4406 28.2466 32.0538 27.8825 31.1819 27.5723C30.9262 27.4779 30.6049 27.3363 30.4607 27.2554C30.441 27.2419 30.4214 27.2284 30.4017 27.2217C30.1264 27.0733 29.969 27.0733 29.9035 27.2217C29.8838 27.2689 29.8969 27.3633 29.9362 27.4779C29.9362 27.4779 29.9362 27.4779 29.9362 27.4846C30.028 27.7746 30.2575 28.2062 30.4869 28.5231C30.5001 28.5433 30.5132 28.5636 30.5328 28.5771C30.8803 29.0221 30.8803 29.0423 30.4804 29.5751C30.1722 29.9864 30.1722 29.9797 30.205 30.0673C30.2575 30.2089 31.2278 30.1752 31.5425 30.0269C31.7064 29.9527 31.8768 29.9055 32.0276 29.9055C32.4996 29.9055 32.7291 29.4941 32.5849 28.8872ZM39.2523 47.4987C38.6361 46.3861 37.7379 46.2445 36.3087 47.0267C35.6334 47.3976 35.6006 47.3302 36.0464 46.5277C36.1644 46.3119 36.2628 46.1299 36.3415 45.9815C36.3546 45.9545 36.3677 45.9276 36.3808 45.8938C36.3808 45.8938 36.3808 45.8938 36.3808 45.8871C36.4005 45.8534 36.4136 45.8197 36.4267 45.7859C36.5381 45.5432 36.5775 45.4083 36.5775 45.2735V45.2667C36.5709 44.8958 36.2366 44.4373 35.8039 44.0597L35.7973 44.0529C35.4433 43.7427 35.0237 43.4865 34.6566 43.3651C34.6566 43.3651 34.6566 43.3651 34.65 43.3651C34.3419 43.264 34.0731 43.2505 33.9157 43.3921C33.7584 43.5337 33.7191 43.9653 33.7781 44.2889C33.7781 44.2957 33.7781 44.2957 33.7781 44.2957C33.8174 44.4912 33.883 44.6463 33.9879 44.6598C34.1518 44.6868 34.2304 44.5856 34.2304 44.3429C34.2304 43.8978 34.3943 43.8304 34.7221 44.1406C35.3056 44.6935 35.2663 45.0846 34.4599 46.7974C33.7256 48.3484 33.2864 49.1306 32.9192 49.515L32.6045 49.8522L32.5718 50.3174C32.5259 50.9311 32.5783 51.1064 32.8733 51.3896C33.2667 51.7673 33.4109 51.7066 33.9616 50.9581C34.886 49.6903 34.7615 50.6748 33.8108 52.1449C33.1815 53.1159 32.6963 53.6149 32.0604 53.9251C31.5162 54.1881 31.6146 54.4174 32.3161 54.5387C32.5455 54.5792 33.1749 54.4309 33.4371 54.2758C34.2698 53.7835 34.7025 53.3047 35.5416 51.9493C35.9809 51.2413 35.994 51.2278 36.2497 51.2278C36.4136 51.2278 36.5316 51.1738 37.0954 50.8232C37.7969 50.3916 38.4918 49.8319 39.0032 49.2857C39.5998 48.6721 39.6588 48.2338 39.2523 47.4987ZM37.9215 47.6336C37.8887 47.8089 37.7838 48.1056 37.6592 48.3889C37.6396 48.4226 37.6264 48.4563 37.6068 48.4968C37.5674 48.5844 37.5215 48.6721 37.4757 48.753C37.456 48.7867 37.4363 48.8272 37.4166 48.8541C37.397 48.8811 37.3839 48.9081 37.3708 48.9283C37.3249 48.9958 37.2069 49.1778 37.1085 49.3329C36.5709 50.1623 35.9415 50.54 36.2693 49.8319C36.3742 49.6094 36.3284 49.4678 36.0727 49.1711C36.0596 49.1509 36.0464 49.1374 36.0333 49.1171C35.9743 49.0497 35.9284 48.9958 35.9088 48.9486C35.876 48.8879 35.8825 48.8339 35.935 48.7665L35.9415 48.7597C36.0005 48.6788 36.1251 48.5777 36.3218 48.4158C36.3284 48.4091 36.3284 48.4091 36.3349 48.4091C36.525 48.254 36.7545 48.0584 37.0233 47.8494C37.0626 47.8224 37.0954 47.7954 37.1347 47.7617L37.1413 47.755C37.279 47.6538 37.3839 47.5729 37.4822 47.5122C37.4953 47.5055 37.5084 47.492 37.5215 47.4853C37.5215 47.4853 37.5281 47.4853 37.5281 47.4785C37.7707 47.3302 37.869 47.3369 37.9083 47.4515C37.9083 47.4583 37.9149 47.465 37.9149 47.4718V47.4785C37.9215 47.4853 37.9215 47.4987 37.9215 47.5122C37.9215 47.519 37.9215 47.5257 37.928 47.5325C37.9346 47.5594 37.928 47.5932 37.9215 47.6336ZM40.0849 53.3587C39.8686 52.7248 38.7475 52.0168 37.9739 52.0168C37.8821 52.0168 37.751 51.9965 37.692 51.9763C37.6854 51.9763 37.6854 51.9763 37.6789 51.9695C37.5019 51.9089 36.984 51.8886 36.5513 51.8954C36.23 51.9021 35.9612 51.9291 35.9022 51.9695C35.7908 52.064 35.7711 52.1584 35.8825 52.3135C35.8891 52.3269 35.8957 52.3337 35.9088 52.3472C35.9284 52.3741 35.9547 52.4011 35.9809 52.4281C36.0464 52.4955 36.1317 52.5764 36.23 52.6574C36.2759 52.6978 36.3218 52.7315 36.3742 52.7787C36.4398 52.8327 36.5119 52.8866 36.584 52.9473C37.1479 53.3789 36.9905 53.5947 35.9874 53.7633C35.8039 53.7902 35.5416 53.8509 35.404 53.8846C35.2597 53.9251 35.0106 53.9656 34.8401 53.9791C34.4009 54.0195 34.1911 54.0869 34.1583 54.2016C34.1059 54.3702 34.1845 54.3836 34.9123 54.3432C35.6006 54.3027 35.7842 54.3162 35.7842 54.3836C35.7842 54.4713 35.2728 54.768 35.0303 54.822C33.8961 55.058 32.8602 55.3951 32.3751 55.6986C32.1391 55.8402 32.0538 55.8739 31.9883 55.8402C31.8506 55.766 31.6474 55.4289 31.6211 55.2266C31.6211 55.2131 31.6146 55.1996 31.6146 55.1861C31.608 55.1591 31.6015 55.1389 31.5949 55.1119C31.5359 54.9029 31.4113 54.8422 31.2802 54.8961C31.2737 54.8961 31.2671 54.9029 31.254 54.9029C31.0966 54.9838 30.9262 55.2401 30.8606 55.6109C30.8606 55.6177 30.8606 55.6177 30.8606 55.6244C30.8344 55.7525 30.841 55.8941 30.8737 56.1167C30.8803 56.1571 30.8869 56.1976 30.8934 56.2381C30.9 56.265 30.9 56.292 30.9065 56.319C30.9262 56.4404 30.9459 56.5348 30.9655 56.6292C30.9655 56.6359 30.9655 56.6427 30.9721 56.6494C31.0049 56.8045 31.0311 56.9461 31.0835 57.1417C31.0901 57.1686 31.0966 57.2024 31.1032 57.2293C31.1098 57.2698 31.1229 57.3102 31.1294 57.3507C31.136 57.3777 31.1425 57.4046 31.1491 57.4316C31.1688 57.5193 31.195 57.6069 31.2147 57.7014C31.2737 57.9374 31.3458 58.3285 31.372 58.5712C31.5228 59.9536 33.0307 61.0932 33.2929 60.021C33.424 59.4883 34.7549 59.1714 35.7252 59.4411C36.0792 59.5423 36.6299 59.5153 36.8594 59.3939C37.0954 59.2658 37.1347 59.1377 37.0626 58.6589C37.0167 58.3285 37.0167 58.2273 37.0692 58.1329C37.1479 57.9846 37.7641 57 37.9805 56.6899C38.4328 56.029 37.5871 54.8017 36.4595 54.4915C36.348 54.4646 36.2628 54.4174 36.2628 54.3904C36.2628 54.1881 38.4328 54.1139 38.918 54.296C39.9866 54.6938 40.4259 54.3499 40.0849 53.3587ZM35.7318 56.528C35.7186 56.555 35.7055 56.582 35.6924 56.6157C35.6793 56.6494 35.6596 56.6831 35.64 56.7236C35.5088 57 35.3908 57.2833 35.3712 57.3507C35.3318 57.5193 35.0434 57.7553 34.8139 57.816C34.709 57.843 34.5189 57.9171 34.3943 57.9778C34.2632 58.0453 34.0534 58.1194 33.9223 58.1531C33.7912 58.1801 33.5748 58.2408 33.4371 58.2745C32.9913 58.3892 32.8799 58.2543 32.6242 57.2698C32.5455 56.9731 32.539 56.8719 32.5783 56.7775L32.6308 56.6561H34.0206L34.6762 56.4201C35.0368 56.292 35.3974 56.1504 35.4695 56.1099C35.4826 56.1032 35.4957 56.0964 35.5023 56.0897C35.6596 56.0088 35.7776 56.0088 35.8301 56.0897C35.8366 56.0964 35.8432 56.1099 35.8432 56.1234C35.8694 56.1774 35.8301 56.3055 35.7318 56.528ZM39.3835 35.7452C38.6951 35.4957 37.3576 34.6797 37.2331 34.437C37.1151 34.2144 38.0591 31.4699 38.4918 30.7754C38.7541 30.3505 38.859 30.0336 38.7737 29.7099C38.7213 29.4941 38.5836 29.2716 38.3607 29.0221C38.3476 29.0086 38.3279 28.9884 38.3148 28.9749C38.2886 28.9412 38.2558 28.9075 38.2165 28.8738C38.1903 28.8468 38.164 28.8198 38.1444 28.7996C38.1313 28.7861 38.1181 28.7726 38.105 28.7591C38.0919 28.7456 38.0788 28.7321 38.0657 28.7187C38.046 28.6984 38.0329 28.6849 38.0132 28.6647C37.9805 28.631 37.9411 28.5973 37.9083 28.5636C37.6723 28.3478 37.5019 28.2129 37.338 28.1455C37.338 28.1455 37.3314 28.1455 37.3314 28.1387C37.2659 28.1118 37.2069 28.0983 37.1413 28.0915C37.1347 28.0915 37.1282 28.0915 37.1216 28.0915C37.043 28.0848 36.9643 28.0915 36.8725 28.1118C36.8397 28.1185 36.8135 28.1253 36.7938 28.132C36.6562 28.1725 36.6103 28.2264 36.4332 28.4894C35.9153 29.2649 35.4171 29.6964 34.4599 30.2157C33.8961 30.5191 33.8043 30.5866 33.4568 30.9642C33.247 31.1935 32.9192 31.5104 32.7225 31.6722C32.2243 32.0768 31.9817 32.36 31.6277 32.9062C31.4507 33.176 31.2409 33.439 31.1294 33.5266C30.9065 33.6952 30.8672 33.7964 30.9327 33.9784C30.9721 34.0863 30.959 34.1538 30.8672 34.3628C30.6443 34.8416 30.4673 35.2731 30.4673 35.3271C30.4673 35.3541 30.4148 35.4889 30.3558 35.6238C30.2903 35.7587 30.1854 36.0082 30.1198 36.1835C29.7133 37.2152 29.5166 37.3096 29.5822 36.4465C29.6478 35.6171 29.7658 34.936 29.9821 34.1268C30.2116 33.2839 30.0542 32.6635 29.4642 32.0633C28.7889 31.3823 28.5857 31.7531 28.4939 33.8368C28.4742 34.2886 28.4283 34.7607 28.3956 34.882C28.3431 35.0776 28.3431 35.1383 28.4152 35.3203C28.4677 35.462 28.4939 35.6777 28.4939 35.9879C28.4939 38.0918 29.7592 40.3778 30.5394 39.69C30.6902 39.5551 30.723 39.2854 30.841 37.5052C30.9327 36.1498 31.0639 35.934 31.4835 36.4937C32.0473 37.2489 32.2243 37.3501 32.9979 37.3568C34.1518 37.3636 35.004 37.0736 35.8366 36.3925C36.0268 36.2374 36.2038 36.1295 36.2693 36.1295C36.4791 36.1295 37.987 37.2422 38.8721 38.0514C39.9342 39.0224 40.9766 39.0966 40.9766 38.193C40.9897 37.1208 40.321 36.0891 39.3835 35.7452ZM34.7221 35.0843C34.6566 35.2529 33.5486 35.8935 33.3191 35.8935C33.2798 35.8935 33.1421 35.934 33.011 35.9879C32.716 36.1093 31.962 36.1228 31.726 36.0149C31.6474 35.9745 31.4966 35.9205 31.4048 35.8935C31.1884 35.8261 31.1425 35.6912 31.254 35.4282C31.2999 35.3271 31.3589 35.1315 31.3917 34.9967C31.3982 34.963 31.4113 34.936 31.4179 34.9023C31.5097 34.5651 31.608 34.3223 31.7195 34.1605C31.7195 34.1538 31.726 34.1538 31.726 34.147C31.844 33.9717 31.9817 33.9043 32.1391 33.9312C32.244 33.9515 32.4275 33.9852 32.539 34.0054C32.657 34.0256 32.8274 34.0728 32.9258 34.12C33.0241 34.1605 33.1356 34.201 33.1749 34.201C33.3323 34.201 34.5058 34.7674 34.6631 34.9225C34.7156 34.9697 34.7352 35.0439 34.7221 35.0843ZM36.5054 31.0856C36.4988 31.1395 36.4791 31.2069 36.4398 31.2946C36.3611 31.4834 35.9874 32.7916 35.7973 33.5266C35.7252 33.8031 35.6006 33.8301 35.1548 33.675C34.3943 33.3985 34.2173 33.3715 33.1815 33.3446L32.1981 33.3176L32.1849 33.1962C32.1653 33.0479 32.6176 32.441 32.9323 32.1712C33.2929 31.8678 34.0337 31.6587 34.4205 31.7397C35.1286 31.888 35.6006 31.7531 36.0727 31.2609C36.0989 31.2339 36.1186 31.2137 36.1382 31.1935C36.1579 31.18 36.171 31.1597 36.1841 31.1462C36.289 31.0451 36.3677 30.9912 36.4201 30.9777C36.4595 30.9709 36.4923 30.9844 36.5119 31.0181C36.5119 31.0249 36.5119 31.0518 36.5054 31.0856ZM49.2371 52.9001C49.1257 52.7855 48.9487 52.8529 48.8635 53.0417C48.6733 53.4396 48.2669 54.3769 48.2669 54.4174C48.2669 54.5387 48.0308 54.6938 47.9587 54.6197C47.8342 54.4915 48.1423 52.6169 48.4635 51.5852C48.7913 50.5197 48.5619 50.0207 47.6572 49.8252C47.4539 49.778 47.2769 49.7577 47.1261 49.7577C47.0933 49.7577 47.0671 49.7577 47.0343 49.7645C47.0147 49.7645 46.9884 49.7712 46.9688 49.7712C46.9098 49.778 46.8508 49.7915 46.7983 49.8117C46.7918 49.8117 46.7786 49.8184 46.7721 49.8184C46.7393 49.8319 46.7065 49.8454 46.6737 49.8724C46.6606 49.8791 46.6541 49.8859 46.641 49.8926C46.6213 49.9061 46.6082 49.9196 46.5885 49.9331C46.5754 49.9398 46.5688 49.9533 46.5557 49.9668C46.5492 49.9803 46.5361 49.987 46.5295 50.0005C46.523 50.014 46.5098 50.0275 46.5033 50.0342C46.0116 50.8771 44.4185 51.6863 44.0776 51.2682C43.7367 50.8434 43.6842 50.8164 43.5203 50.9513C43.1794 51.2345 43.5072 52.1044 44.1693 52.6371C45.0151 53.325 45.533 53.3182 46.2804 52.6236C46.6279 52.3 46.7131 52.2595 46.8114 52.3876C46.8639 52.4483 46.8639 52.5023 46.8114 52.6641C46.7131 53.0013 46.6213 53.6689 46.6147 54.0735C46.6082 54.2825 46.5885 54.5927 46.5688 54.7478C46.2869 56.6764 46.3722 57.2226 47.0671 57.9981C47.6899 58.6859 47.7752 58.5847 48.398 56.4606C48.4832 56.1841 48.6012 55.7863 48.6602 55.5772C48.7192 55.3682 48.7717 55.1591 48.7717 55.1052C48.7717 55.0512 48.8045 54.9096 48.8503 54.7815C48.8897 54.6534 48.9618 54.3904 49.0077 54.1881C49.0536 53.9858 49.1388 53.6351 49.1978 53.3991C49.3027 53.0148 49.3027 52.9743 49.2371 52.9001ZM50.1615 46.9121C49.8534 46.2782 48.87 45.5499 48.2406 45.496C48.0308 45.4758 47.7686 45.4286 47.6572 45.3881C47.6309 45.3746 47.5981 45.3679 47.5719 45.3611C47.4146 45.3072 47.3031 45.3004 47.2245 45.3409C47.1982 45.3544 47.1786 45.3679 47.1589 45.3881C47.1064 45.442 47.1196 45.6241 47.1851 45.8264V45.8331C47.2572 46.0624 47.3818 46.3254 47.5195 46.5075C47.526 46.5142 47.5326 46.5277 47.5391 46.5345C47.5457 46.5412 47.5457 46.5479 47.5523 46.5547C47.7948 46.8379 47.7686 46.8986 47.1196 47.4313C46.4902 47.9505 46.0509 48.2675 45.5854 48.5507C44.7463 49.0632 45.6313 48.9958 46.9491 48.4428C47.4867 48.2203 48.1751 47.9843 48.4045 47.9438C48.4963 47.9303 48.6799 47.8831 48.811 47.8359C49.0339 47.7617 49.0667 47.7617 49.2568 47.8359C49.9386 48.0989 50.4697 47.5527 50.1615 46.9121ZM54.2132 51.8414C54.1673 51.7942 54.1214 51.747 54.0558 51.6931C53.8723 51.5245 53.4461 51.275 53.0724 51.0929C52.7643 50.9446 52.4955 50.8367 52.4299 50.8704C52.4234 50.8704 52.3775 50.8839 52.3316 50.8974C52.2791 50.9109 52.1152 51.0187 51.9579 51.1334C51.8006 51.248 51.6498 51.3424 51.6235 51.3424C51.4859 51.3424 50.7188 51.8279 50.391 52.1246C50.2271 52.273 50.1025 52.2932 49.9518 52.2123C49.6895 52.064 49.5191 52.3135 49.6502 52.6506C49.7157 52.8125 49.7223 53.0755 49.7223 54.2825C49.7223 55.9683 49.7157 55.9414 50.2927 56.6427C50.7123 57.1551 50.7713 57.1821 51.1187 56.9933C52.03 56.5078 52.4889 56.346 52.4889 56.5078C52.4889 56.6022 52.9282 57.0405 53.0134 57.0405C53.2625 57.0405 53.5117 56.7371 53.7084 56.2043C53.7542 56.0695 53.8526 55.53 53.9444 54.8692C53.9706 54.6938 54.0099 54.4174 54.0362 54.242C54.0624 54.0667 54.0886 53.6891 54.1017 53.3924C54.1148 52.9001 54.1345 52.8327 54.2722 52.536C54.4295 52.2056 54.4361 52.0774 54.2132 51.8414ZM52.5807 54.6938C52.5742 54.7208 52.5742 54.7478 52.5676 54.7815C52.4824 55.2333 52.4103 55.321 52.1021 55.3682C51.6825 55.4356 51.2236 55.5435 51.0991 55.5974C50.9876 55.6514 50.9614 55.6446 50.8827 55.5368C50.6795 55.2805 50.9089 54.8692 51.3154 54.741C51.5973 54.6534 52.0628 54.4309 52.2005 54.323C52.207 54.3162 52.2201 54.3095 52.2267 54.3027C52.325 54.242 52.4627 54.2218 52.5414 54.2488C52.5742 54.2623 52.6004 54.2825 52.6069 54.3095C52.6266 54.3499 52.6135 54.5118 52.5807 54.6938ZM52.3316 53.2508C52.0825 53.1429 51.9251 53.1631 51.617 53.325C51.1974 53.5407 51.0728 53.5542 50.9483 53.3924C50.7188 53.0889 50.8499 52.9608 51.617 52.7181C51.8464 52.6439 52.1218 52.5292 52.2267 52.4483C52.2595 52.4281 52.2857 52.4079 52.3119 52.3944C52.325 52.3876 52.3381 52.3741 52.3513 52.3674C52.3709 52.3539 52.3906 52.3472 52.4103 52.3404C52.4168 52.3337 52.4299 52.3337 52.4365 52.3269C52.4627 52.3202 52.4824 52.3135 52.502 52.3202H52.5086C52.5152 52.3202 52.5217 52.3269 52.5283 52.3269C52.5348 52.3337 52.5414 52.3337 52.5479 52.3404C52.5479 52.3404 52.5545 52.3404 52.5545 52.3472C52.561 52.3539 52.5676 52.3607 52.5742 52.3674C52.5807 52.3741 52.5873 52.4011 52.6004 52.4348C52.6135 52.5023 52.6332 52.6102 52.6463 52.7315V52.7383C52.6463 52.7585 52.6528 52.7787 52.6528 52.799C52.6528 52.8192 52.6594 52.8462 52.6594 52.8731C52.6922 53.3789 52.6725 53.3991 52.3316 53.2508ZM55.7932 48.4428C55.249 48.2068 54.0624 48.1124 53.6821 48.2742C53.4854 48.3551 53.3084 48.3686 53.2691 48.2945C53.2363 48.2338 53.2691 48.1596 53.7149 47.3774C53.7739 47.2762 53.8264 47.1818 53.8723 47.1009C53.905 47.0402 53.9378 46.9795 53.9706 46.9256L53.9771 46.9188C53.9903 46.8918 54.0099 46.8649 54.023 46.8379C54.2132 46.4872 54.2984 46.2715 54.2984 46.1029C54.2984 45.9343 54.2132 45.8197 54.0493 45.6511C54.0427 45.6443 54.0427 45.6443 54.0362 45.6376C54.0296 45.6241 54.0165 45.6174 54.0034 45.6039C53.9903 45.5904 53.9837 45.5836 53.9706 45.5702C53.5641 45.1588 52.9282 44.8014 52.4103 44.6261C52.0366 44.498 51.7219 44.471 51.5842 44.5789C51.5776 44.5856 51.5711 44.5856 51.5645 44.5924C51.558 44.5991 51.5514 44.5991 51.5514 44.6059C51.4596 44.7205 51.5252 44.8082 51.7219 44.8419C51.9382 44.8756 52.3644 45.2802 52.4955 45.5769C52.6463 45.9276 52.6201 46.0624 52.1939 46.9188C51.4203 48.4765 51.1187 48.9351 50.6205 49.3127C50.4435 49.4476 50.4172 49.8454 50.5484 50.4456C50.7123 51.1806 50.8893 51.2143 51.5252 50.6479C52.2988 49.96 53.2298 49.4948 54.0755 49.3666C54.2525 49.3397 54.4557 49.2992 54.5213 49.2722C54.7573 49.1778 54.954 49.2115 55.1638 49.3801C55.4785 49.6296 55.4785 49.6296 55.485 51.8751C55.4916 53.8914 55.4785 54.033 55.2949 55.2805C55.2687 55.4693 55.2294 55.7391 55.2097 55.8807C55.0851 56.791 55.0654 56.8787 54.9409 57.0877C54.7114 57.4721 54.2591 57.5732 53.5641 57.3912C52.8954 57.2158 52.8102 57.4181 53.3478 57.9104C54.0099 58.524 54.305 58.841 54.4033 59.0635C54.6983 59.7041 55.0654 59.6434 55.7735 58.841C56.6651 57.8227 56.8093 57.0742 56.8225 53.3654L56.8356 50.8299L57.0323 50.5265C57.4846 49.8252 56.9732 48.962 55.7932 48.4428ZM57.5567 34.0324C57.3404 33.8773 57.1175 33.7222 57.065 33.6952C55.4129 32.7646 54.659 32.0836 53.4789 30.4787C52.784 29.5346 51.9579 28.84 51.1515 28.5366C50.686 28.3545 50.6664 28.2938 50.9548 27.9432C51.4531 27.343 51.499 27.0059 51.1581 26.5676C50.8368 26.1562 50.568 26.0011 50.1943 26.0011C50.0239 26.0011 49.8403 25.9944 49.7879 25.9809C49.7354 25.9674 49.6698 25.9741 49.6371 25.9876C49.6305 25.9876 49.6305 25.9876 49.6305 25.9944C49.624 25.9944 49.624 26.0011 49.6174 26.0011C49.6174 26.0011 49.6108 26.0011 49.6108 26.0079C49.5715 26.0416 49.5649 26.1225 49.6043 26.2574C49.6108 26.2776 49.6174 26.3046 49.6305 26.3315C49.683 26.4866 49.565 26.8238 49.3617 27.0733C49.3289 27.1138 49.165 27.4105 49.0011 27.7409C48.7323 28.2803 48.6799 28.3545 48.4439 28.5231C47.8473 28.9479 47.7883 29.0356 47.9325 29.3188C48.0374 29.5211 48.044 29.6762 47.9587 29.8043C47.9194 29.8583 47.7948 30.128 47.6834 30.4045C47.2245 31.5036 46.7459 32.5623 46.5951 32.8186C46.5098 32.9669 46.3787 33.203 46.3066 33.3513C45.9854 34.0054 44.7266 35.7924 44.4578 35.9677C44.366 36.0284 44.2284 36.1093 44.1628 36.1363C43.9792 36.2172 43.9006 36.3723 43.8219 36.7769C43.5793 38.0851 44.4775 37.8423 46.182 36.1295C46.7918 35.5159 47.8342 34.1268 47.8342 33.9312C47.8342 33.7694 48.0243 33.8705 48.3783 34.2212C48.7913 34.6258 49.2503 34.9023 49.5191 34.9023C49.7092 34.9023 49.8272 35.0776 49.7879 35.3069C49.742 35.5429 49.6371 35.6171 49.0929 35.7789C47.6965 36.197 47.1261 36.5881 47.1261 37.1545C47.1261 37.64 47.2179 37.7682 47.9456 38.2941C48.5488 38.7325 48.6274 38.8066 48.6274 38.9415C48.6274 39.0831 48.2734 39.3259 48.0177 39.3663C47.4998 39.4472 47.2638 39.7237 47.2638 40.2564C47.2638 41.214 48.2275 41.6051 49.2503 41.0522C50.0829 40.6071 51.0138 40.4655 51.6563 40.688C51.8858 40.7689 52.0497 40.7824 52.6528 40.7824H53.374L53.5117 40.6408C53.905 40.2362 53.2101 39.0427 52.5742 39.0427C52.5348 39.0427 52.384 38.9954 52.2464 38.9415C52.0431 38.8606 51.9317 38.8471 51.7284 38.8741C51.3154 38.9213 51.2171 38.7594 51.4531 38.4155C51.499 38.3481 51.5908 38.1593 51.6563 37.9907C51.7219 37.8221 51.8727 37.5726 51.9907 37.4377C52.2005 37.1882 52.3906 36.7297 52.3906 36.4667C52.3906 36.2037 51.9579 35.5631 51.7809 35.5631C51.676 35.5631 51.6235 35.3271 51.6367 34.8888C51.6498 34.1807 51.6825 34.1066 52.1415 33.6548L52.5348 33.2636V32.8725C52.5348 32.0296 52.0562 31.6115 51.0597 31.5846C50.4631 31.5643 50.4369 31.5778 49.9518 32.0633C49.3027 32.7107 48.6996 33.1558 48.4701 33.1558C48.2669 33.1558 48.2931 32.9939 48.634 32.2791C48.9946 31.5104 49.1847 31.0923 49.5059 30.3843C49.8272 29.6762 49.8534 29.656 50.3713 29.8111C51.2367 30.0673 52.0628 30.9035 52.9544 32.441C53.4199 33.2434 54.2525 34.3763 54.8294 34.9967C55.4588 35.671 55.8194 35.7856 57.3928 35.7789C59.635 35.7654 59.6547 35.5496 57.5567 34.0324ZM49.2699 38.0649C48.7323 38.2469 47.762 37.7277 48.0571 37.4243C48.103 37.3771 49.5453 37.4377 49.6108 37.4917C49.7551 37.6198 49.5453 37.9705 49.2699 38.0649ZM57.5567 34.0324C57.3404 33.8773 57.1175 33.7222 57.065 33.6952C55.4129 32.7646 54.659 32.0836 53.4789 30.4787C52.784 29.5346 51.9579 28.84 51.1515 28.5366C50.686 28.3545 50.6664 28.2938 50.9548 27.9432C51.4531 27.343 51.499 27.0059 51.1581 26.5676C50.8368 26.1562 50.568 26.0011 50.1943 26.0011C50.0239 26.0011 49.8403 25.9944 49.7879 25.9809C49.7354 25.9674 49.6698 25.9741 49.6371 25.9876C49.6305 25.9876 49.6305 25.9876 49.6305 25.9944C49.624 25.9944 49.624 26.0011 49.6174 26.0011C49.6174 26.0011 49.6108 26.0011 49.6108 26.0079C49.5715 26.0416 49.5649 26.1225 49.6043 26.2574C49.6108 26.2776 49.6174 26.3046 49.6305 26.3315C49.683 26.4866 49.565 26.8238 49.3617 27.0733C49.3289 27.1138 49.165 27.4105 49.0011 27.7409C48.7323 28.2803 48.6799 28.3545 48.4439 28.5231C47.8473 28.9479 47.7883 29.0356 47.9325 29.3188C48.0374 29.5211 48.044 29.6762 47.9587 29.8043C47.9194 29.8583 47.7948 30.128 47.6834 30.4045C47.2245 31.5036 46.7459 32.5623 46.5951 32.8186C46.5098 32.9669 46.3787 33.203 46.3066 33.3513C45.9854 34.0054 44.7266 35.7924 44.4578 35.9677C44.366 36.0284 44.2284 36.1093 44.1628 36.1363C43.9792 36.2172 43.9006 36.3723 43.8219 36.7769C43.5793 38.0851 44.4775 37.8423 46.182 36.1295C46.7918 35.5159 47.8342 34.1268 47.8342 33.9312C47.8342 33.7694 48.0243 33.8705 48.3783 34.2212C48.7913 34.6258 49.2503 34.9023 49.5191 34.9023C49.7092 34.9023 49.8272 35.0776 49.7879 35.3069C49.742 35.5429 49.6371 35.6171 49.0929 35.7789C47.6965 36.197 47.1261 36.5881 47.1261 37.1545C47.1261 37.64 47.2179 37.7682 47.9456 38.2941C48.5488 38.7325 48.6274 38.8066 48.6274 38.9415C48.6274 39.0831 48.2734 39.3259 48.0177 39.3663C47.4998 39.4472 47.2638 39.7237 47.2638 40.2564C47.2638 41.214 48.2275 41.6051 49.2503 41.0522C50.0829 40.6071 51.0138 40.4655 51.6563 40.688C51.8858 40.7689 52.0497 40.7824 52.6528 40.7824H53.374L53.5117 40.6408C53.905 40.2362 53.2101 39.0427 52.5742 39.0427C52.5348 39.0427 52.384 38.9954 52.2464 38.9415C52.0431 38.8606 51.9317 38.8471 51.7284 38.8741C51.3154 38.9213 51.2171 38.7594 51.4531 38.4155C51.499 38.3481 51.5908 38.1593 51.6563 37.9907C51.7219 37.8221 51.8727 37.5726 51.9907 37.4377C52.2005 37.1882 52.3906 36.7297 52.3906 36.4667C52.3906 36.2037 51.9579 35.5631 51.7809 35.5631C51.676 35.5631 51.6235 35.3271 51.6367 34.8888C51.6498 34.1807 51.6825 34.1066 52.1415 33.6548L52.5348 33.2636V32.8725C52.5348 32.0296 52.0562 31.6115 51.0597 31.5846C50.4631 31.5643 50.4369 31.5778 49.9518 32.0633C49.3027 32.7107 48.6996 33.1558 48.4701 33.1558C48.2669 33.1558 48.2931 32.9939 48.634 32.2791C48.9946 31.5104 49.1847 31.0923 49.5059 30.3843C49.8272 29.6762 49.8534 29.656 50.3713 29.8111C51.2367 30.0673 52.0628 30.9035 52.9544 32.441C53.4199 33.2434 54.2525 34.3763 54.8294 34.9967C55.4588 35.671 55.8194 35.7856 57.3928 35.7789C59.635 35.7654 59.6547 35.5496 57.5567 34.0324ZM49.2699 38.0649C48.7323 38.2469 47.762 37.7277 48.0571 37.4243C48.103 37.3771 49.5453 37.4377 49.6108 37.4917C49.7551 37.6198 49.5453 37.9705 49.2699 38.0649ZM32.5849 28.8872C32.4406 28.2466 32.0538 27.8825 31.1819 27.5723C30.9262 27.4779 30.6049 27.3363 30.4607 27.2554C30.441 27.2419 30.4214 27.2284 30.4017 27.2217C30.1264 27.0733 29.969 27.0733 29.9035 27.2217C29.8838 27.2689 29.8969 27.3633 29.9362 27.4779C29.9362 27.4779 29.9362 27.4779 29.9362 27.4846C30.028 27.7746 30.2575 28.2062 30.4869 28.5231C30.5001 28.5433 30.5132 28.5636 30.5328 28.5771C30.8803 29.0221 30.8803 29.0423 30.4804 29.5751C30.1722 29.9864 30.1722 29.9797 30.205 30.0673C30.2575 30.2089 31.2278 30.1752 31.5425 30.0269C31.7064 29.9527 31.8768 29.9055 32.0276 29.9055C32.4996 29.9055 32.7291 29.4941 32.5849 28.8872ZM39.3835 35.7452C38.6951 35.4957 37.3576 34.6797 37.2331 34.437C37.1151 34.2144 38.0591 31.4699 38.4918 30.7754C38.7541 30.3505 38.859 30.0336 38.7737 29.7099C38.7213 29.4941 38.5836 29.2716 38.3607 29.0221C38.3476 29.0086 38.3279 28.9884 38.3148 28.9749C38.2886 28.9412 38.2558 28.9075 38.2165 28.8738C38.1903 28.8468 38.164 28.8198 38.1444 28.7996C38.1313 28.7861 38.1181 28.7726 38.105 28.7591C38.0919 28.7456 38.0788 28.7321 38.0657 28.7187C38.046 28.6984 38.0329 28.6849 38.0132 28.6647C37.9805 28.631 37.9411 28.5973 37.9083 28.5636C37.6723 28.3478 37.5019 28.2129 37.338 28.1455C37.338 28.1455 37.3314 28.1455 37.3314 28.1387C37.2659 28.1118 37.2069 28.0983 37.1413 28.0915C37.1347 28.0915 37.1282 28.0915 37.1216 28.0915C37.043 28.0848 36.9643 28.0915 36.8725 28.1118C36.8397 28.1185 36.8135 28.1253 36.7938 28.132C36.6562 28.1725 36.6103 28.2264 36.4332 28.4894C35.9153 29.2649 35.4171 29.6964 34.4599 30.2157C33.8961 30.5191 33.8043 30.5866 33.4568 30.9642C33.247 31.1935 32.9192 31.5104 32.7225 31.6722C32.2243 32.0768 31.9817 32.36 31.6277 32.9062C31.4507 33.176 31.2409 33.439 31.1294 33.5266C30.9065 33.6952 30.8672 33.7964 30.9327 33.9784C30.9721 34.0863 30.959 34.1538 30.8672 34.3628C30.6443 34.8416 30.4673 35.2731 30.4673 35.3271C30.4673 35.3541 30.4148 35.4889 30.3558 35.6238C30.2903 35.7587 30.1854 36.0082 30.1198 36.1835C29.7133 37.2152 29.5166 37.3096 29.5822 36.4465C29.6478 35.6171 29.7658 34.936 29.9821 34.1268C30.2116 33.2839 30.0542 32.6635 29.4642 32.0633C28.7889 31.3823 28.5857 31.7531 28.4939 33.8368C28.4742 34.2886 28.4283 34.7607 28.3956 34.882C28.3431 35.0776 28.3431 35.1383 28.4152 35.3203C28.4677 35.462 28.4939 35.6777 28.4939 35.9879C28.4939 38.0918 29.7592 40.3778 30.5394 39.69C30.6902 39.5551 30.723 39.2854 30.841 37.5052C30.9327 36.1498 31.0639 35.934 31.4835 36.4937C32.0473 37.2489 32.2243 37.3501 32.9979 37.3568C34.1518 37.3636 35.004 37.0736 35.8366 36.3925C36.0268 36.2374 36.2038 36.1295 36.2693 36.1295C36.4791 36.1295 37.987 37.2422 38.8721 38.0514C39.9342 39.0224 40.9766 39.0966 40.9766 38.193C40.9897 37.1208 40.321 36.0891 39.3835 35.7452ZM34.7221 35.0843C34.6566 35.2529 33.5486 35.8935 33.3191 35.8935C33.2798 35.8935 33.1421 35.934 33.011 35.9879C32.716 36.1093 31.962 36.1228 31.726 36.0149C31.6474 35.9745 31.4966 35.9205 31.4048 35.8935C31.1884 35.8261 31.1425 35.6912 31.254 35.4282C31.2999 35.3271 31.3589 35.1315 31.3917 34.9967C31.3982 34.963 31.4113 34.936 31.4179 34.9023C31.5097 34.5651 31.608 34.3223 31.7195 34.1605C31.7195 34.1538 31.726 34.1538 31.726 34.147C31.844 33.9717 31.9817 33.9043 32.1391 33.9312C32.244 33.9515 32.4275 33.9852 32.539 34.0054C32.657 34.0256 32.8274 34.0728 32.9258 34.12C33.0241 34.1605 33.1356 34.201 33.1749 34.201C33.3323 34.201 34.5058 34.7674 34.6631 34.9225C34.7156 34.9697 34.7352 35.0439 34.7221 35.0843ZM36.5054 31.0856C36.4988 31.1395 36.4791 31.2069 36.4398 31.2946C36.3611 31.4834 35.9874 32.7916 35.7973 33.5266C35.7252 33.8031 35.6006 33.8301 35.1548 33.675C34.3943 33.3985 34.2173 33.3715 33.1815 33.3446L32.1981 33.3176L32.1849 33.1962C32.1653 33.0479 32.6176 32.441 32.9323 32.1712C33.2929 31.8678 34.0337 31.6587 34.4205 31.7397C35.1286 31.888 35.6006 31.7531 36.0727 31.2609C36.0989 31.2339 36.1186 31.2137 36.1382 31.1935C36.1579 31.18 36.171 31.1597 36.1841 31.1462C36.289 31.0451 36.3677 30.9912 36.4201 30.9777C36.4595 30.9709 36.4923 30.9844 36.5119 31.0181C36.5119 31.0249 36.5119 31.0518 36.5054 31.0856ZM39.2523 47.4987C38.6361 46.3861 37.7379 46.2445 36.3087 47.0267C35.6334 47.3976 35.6006 47.3302 36.0464 46.5277C36.1644 46.3119 36.2628 46.1299 36.3415 45.9815C36.3546 45.9545 36.3677 45.9276 36.3808 45.8938C36.3808 45.8938 36.3808 45.8938 36.3808 45.8871C36.4005 45.8534 36.4136 45.8197 36.4267 45.7859C36.5381 45.5432 36.5775 45.4083 36.5775 45.2735V45.2667C36.5709 44.8958 36.2366 44.4373 35.8039 44.0597L35.7973 44.0529C35.4433 43.7427 35.0237 43.4865 34.6566 43.3651C34.6566 43.3651 34.6566 43.3651 34.65 43.3651C34.3419 43.264 34.0731 43.2505 33.9157 43.3921C33.7584 43.5337 33.7191 43.9653 33.7781 44.2889C33.7781 44.2957 33.7781 44.2957 33.7781 44.2957C33.8174 44.4912 33.883 44.6463 33.9879 44.6598C34.1518 44.6868 34.2304 44.5856 34.2304 44.3429C34.2304 43.8978 34.3943 43.8304 34.7221 44.1406C35.3056 44.6935 35.2663 45.0846 34.4599 46.7974C33.7256 48.3484 33.2864 49.1306 32.9192 49.515L32.6045 49.8522L32.5718 50.3174C32.5259 50.9311 32.5783 51.1064 32.8733 51.3896C33.2667 51.7673 33.4109 51.7066 33.9616 50.9581C34.886 49.6903 34.7615 50.6748 33.8108 52.1449C33.1815 53.1159 32.6963 53.6149 32.0604 53.9251C31.5162 54.1881 31.6146 54.4174 32.3161 54.5387C32.5455 54.5792 33.1749 54.4309 33.4371 54.2758C34.2698 53.7835 34.7025 53.3047 35.5416 51.9493C35.9809 51.2413 35.994 51.2278 36.2497 51.2278C36.4136 51.2278 36.5316 51.1738 37.0954 50.8232C37.7969 50.3916 38.4918 49.8319 39.0032 49.2857C39.5998 48.6721 39.6588 48.2338 39.2523 47.4987ZM37.9215 47.6336C37.8887 47.8089 37.7838 48.1056 37.6592 48.3889C37.6396 48.4226 37.6264 48.4563 37.6068 48.4968C37.5674 48.5844 37.5215 48.6721 37.4757 48.753C37.456 48.7867 37.4363 48.8272 37.4166 48.8541C37.397 48.8811 37.3839 48.9081 37.3708 48.9283C37.3249 48.9958 37.2069 49.1778 37.1085 49.3329C36.5709 50.1623 35.9415 50.54 36.2693 49.8319C36.3742 49.6094 36.3284 49.4678 36.0727 49.1711C36.0596 49.1509 36.0464 49.1374 36.0333 49.1171C35.9743 49.0497 35.9284 48.9958 35.9088 48.9486C35.876 48.8879 35.8825 48.8339 35.935 48.7665L35.9415 48.7597C36.0005 48.6788 36.1251 48.5777 36.3218 48.4158C36.3284 48.4091 36.3284 48.4091 36.3349 48.4091C36.525 48.254 36.7545 48.0584 37.0233 47.8494C37.0626 47.8224 37.0954 47.7954 37.1347 47.7617L37.1413 47.755C37.279 47.6538 37.3839 47.5729 37.4822 47.5122C37.4953 47.5055 37.5084 47.492 37.5215 47.4853C37.5215 47.4853 37.5281 47.4853 37.5281 47.4785C37.7707 47.3302 37.869 47.3369 37.9083 47.4515C37.9083 47.4583 37.9149 47.465 37.9149 47.4718V47.4785C37.9215 47.4853 37.9215 47.4987 37.9215 47.5122C37.9215 47.519 37.9215 47.5257 37.928 47.5325C37.9346 47.5594 37.928 47.5932 37.9215 47.6336ZM55.7932 48.4428C55.249 48.2068 54.0624 48.1124 53.6821 48.2742C53.4854 48.3551 53.3084 48.3686 53.2691 48.2945C53.2363 48.2338 53.2691 48.1596 53.7149 47.3774C53.7739 47.2762 53.8264 47.1818 53.8723 47.1009C53.905 47.0402 53.9378 46.9795 53.9706 46.9256L53.9771 46.9188C53.9903 46.8918 54.0099 46.8649 54.023 46.8379C54.2132 46.4872 54.2984 46.2715 54.2984 46.1029C54.2984 45.9343 54.2132 45.8197 54.0493 45.6511C54.0427 45.6443 54.0427 45.6443 54.0362 45.6376C54.0296 45.6241 54.0165 45.6174 54.0034 45.6039C53.9903 45.5904 53.9837 45.5836 53.9706 45.5702C53.5641 45.1588 52.9282 44.8014 52.4103 44.6261C52.0366 44.498 51.7219 44.471 51.5842 44.5789C51.5776 44.5856 51.5711 44.5856 51.5645 44.5924C51.558 44.5991 51.5514 44.5991 51.5514 44.6059C51.4596 44.7205 51.5252 44.8082 51.7219 44.8419C51.9382 44.8756 52.3644 45.2802 52.4955 45.5769C52.6463 45.9276 52.6201 46.0624 52.1939 46.9188C51.4203 48.4765 51.1187 48.9351 50.6205 49.3127C50.4435 49.4476 50.4172 49.8454 50.5484 50.4456C50.7123 51.1806 50.8893 51.2143 51.5252 50.6479C52.2988 49.96 53.2298 49.4948 54.0755 49.3666C54.2525 49.3397 54.4557 49.2992 54.5213 49.2722C54.7573 49.1778 54.954 49.2115 55.1638 49.3801C55.4785 49.6296 55.4785 49.6296 55.485 51.8751C55.4916 53.8914 55.4785 54.033 55.2949 55.2805C55.2687 55.4693 55.2294 55.7391 55.2097 55.8807C55.0851 56.791 55.0654 56.8787 54.9409 57.0877C54.7114 57.4721 54.2591 57.5732 53.5641 57.3912C52.8954 57.2158 52.8102 57.4181 53.3478 57.9104C54.0099 58.524 54.305 58.841 54.4033 59.0635C54.6983 59.7041 55.0654 59.6434 55.7735 58.841C56.6651 57.8227 56.8093 57.0742 56.8225 53.3654L56.8356 50.8299L57.0323 50.5265C57.4846 49.8252 56.9732 48.962 55.7932 48.4428ZM50.1615 46.9121C49.8534 46.2782 48.87 45.5499 48.2406 45.496C48.0308 45.4758 47.7686 45.4286 47.6572 45.3881C47.6309 45.3746 47.5981 45.3679 47.5719 45.3611C47.4146 45.3072 47.3031 45.3004 47.2245 45.3409C47.1982 45.3544 47.1786 45.3679 47.1589 45.3881C47.1064 45.442 47.1196 45.6241 47.1851 45.8264V45.8331C47.2572 46.0624 47.3818 46.3254 47.5195 46.5075C47.526 46.5142 47.5326 46.5277 47.5391 46.5345C47.5457 46.5412 47.5457 46.5479 47.5523 46.5547C47.7948 46.8379 47.7686 46.8986 47.1196 47.4313C46.4902 47.9505 46.0509 48.2675 45.5854 48.5507C44.7463 49.0632 45.6313 48.9958 46.9491 48.4428C47.4867 48.2203 48.1751 47.9843 48.4045 47.9438C48.4963 47.9303 48.6799 47.8831 48.811 47.8359C49.0339 47.7617 49.0667 47.7617 49.2568 47.8359C49.9386 48.0989 50.4697 47.5527 50.1615 46.9121ZM32.421 48.2C32.3947 47.7617 32.1325 47.229 31.6605 46.9323C31.6474 46.9256 31.6342 46.9188 31.6211 46.9121C31.608 46.9053 31.5949 46.8986 31.5818 46.8918C31.2868 46.7368 30.7492 46.6086 30.2509 46.5345C29.7658 46.467 29.32 46.4535 29.1757 46.5479C29.1692 46.5479 29.1692 46.5547 29.1626 46.5547C29.0971 46.6086 29.0971 46.6221 29.1888 46.7502C29.2413 46.8244 29.3986 47.0604 29.5429 47.2695C29.6805 47.4785 29.8903 47.782 30.0083 47.9438C30.2968 48.3349 30.2968 48.5642 30.0149 49.0699C29.7264 49.5892 29.202 50.8232 29.2151 50.9378C29.2216 51.0053 29.2675 51.0457 29.3527 51.0525C29.4904 51.0659 29.5363 51.0187 30.0477 50.3444C30.6574 49.542 31.4376 48.9418 31.8637 48.9418C31.8834 48.9418 31.903 48.9418 31.9227 48.9351C32.2898 48.8946 32.4406 48.5844 32.421 48.2ZM32.2112 49.5487C32.1587 49.5622 32.0866 49.6094 32.0145 49.6903C31.9686 49.7443 31.8703 49.8656 31.7785 50.0072C31.7457 50.0545 31.7064 50.1084 31.6736 50.1623C30.7033 51.6122 29.5953 52.9473 29.3134 53.0148C28.6906 53.1564 28.625 53.244 28.625 53.9049C28.6316 54.7141 29.1823 55.3951 29.91 55.4828C30.3296 55.5368 30.3886 55.4289 30.9721 53.6149C31.1229 53.1496 31.3654 52.4955 31.5228 52.1651C31.8899 51.3694 32.0997 50.8434 32.1587 50.54C32.1849 50.4051 32.2571 50.1758 32.3095 50.0342C32.3161 50.014 32.3226 49.9938 32.3292 49.9735C32.3357 49.96 32.3357 49.9533 32.3423 49.9398C32.3488 49.9263 32.3488 49.9128 32.3554 49.8926C32.362 49.8791 32.362 49.8656 32.362 49.8522C32.4013 49.6431 32.3357 49.5217 32.2112 49.5487ZM49.2371 52.9001C49.1257 52.7855 48.9487 52.8529 48.8635 53.0417C48.6733 53.4396 48.2669 54.3769 48.2669 54.4174C48.2669 54.5387 48.0308 54.6938 47.9587 54.6197C47.8342 54.4915 48.1423 52.6169 48.4635 51.5852C48.7913 50.5197 48.5619 50.0207 47.6572 49.8252C47.4539 49.778 47.2769 49.7577 47.1261 49.7577C47.0933 49.7577 47.0671 49.7577 47.0343 49.7645C47.0147 49.7645 46.9884 49.7712 46.9688 49.7712C46.9098 49.778 46.8508 49.7915 46.7983 49.8117C46.7918 49.8117 46.7786 49.8184 46.7721 49.8184C46.7393 49.8319 46.7065 49.8454 46.6737 49.8724C46.6606 49.8791 46.6541 49.8859 46.641 49.8926C46.6213 49.9061 46.6082 49.9196 46.5885 49.9331C46.5754 49.9398 46.5688 49.9533 46.5557 49.9668C46.5492 49.9803 46.5361 49.987 46.5295 50.0005C46.523 50.014 46.5098 50.0275 46.5033 50.0342C46.0116 50.8771 44.4185 51.6863 44.0776 51.2682C43.7367 50.8434 43.6842 50.8164 43.5203 50.9513C43.1794 51.2345 43.5072 52.1044 44.1693 52.6371C45.0151 53.325 45.533 53.3182 46.2804 52.6236C46.6279 52.3 46.7131 52.2595 46.8114 52.3876C46.8639 52.4483 46.8639 52.5023 46.8114 52.6641C46.7131 53.0013 46.6213 53.6689 46.6147 54.0735C46.6082 54.2825 46.5885 54.5927 46.5688 54.7478C46.2869 56.6764 46.3722 57.2226 47.0671 57.9981C47.6899 58.6859 47.7752 58.5847 48.398 56.4606C48.4832 56.1841 48.6012 55.7863 48.6602 55.5772C48.7192 55.3682 48.7717 55.1591 48.7717 55.1052C48.7717 55.0512 48.8045 54.9096 48.8503 54.7815C48.8897 54.6534 48.9618 54.3904 49.0077 54.1881C49.0536 53.9858 49.1388 53.6351 49.1978 53.3991C49.3027 53.0148 49.3027 52.9743 49.2371 52.9001ZM54.2132 51.8414C54.1673 51.7942 54.1214 51.747 54.0558 51.6931C53.8723 51.5245 53.4461 51.275 53.0724 51.0929C52.7643 50.9446 52.4955 50.8367 52.4299 50.8704C52.4234 50.8704 52.3775 50.8839 52.3316 50.8974C52.2791 50.9109 52.1152 51.0187 51.9579 51.1334C51.8006 51.248 51.6498 51.3424 51.6235 51.3424C51.4859 51.3424 50.7188 51.8279 50.391 52.1246C50.2271 52.273 50.1025 52.2932 49.9518 52.2123C49.6895 52.064 49.5191 52.3135 49.6502 52.6506C49.7157 52.8125 49.7223 53.0755 49.7223 54.2825C49.7223 55.9683 49.7157 55.9414 50.2927 56.6427C50.7123 57.1551 50.7713 57.1821 51.1187 56.9933C52.03 56.5078 52.4889 56.346 52.4889 56.5078C52.4889 56.6022 52.9282 57.0405 53.0134 57.0405C53.2625 57.0405 53.5117 56.7371 53.7084 56.2043C53.7542 56.0695 53.8526 55.53 53.9444 54.8692C53.9706 54.6938 54.0099 54.4174 54.0362 54.242C54.0624 54.0667 54.0886 53.6891 54.1017 53.3924C54.1148 52.9001 54.1345 52.8327 54.2722 52.536C54.4295 52.2056 54.4361 52.0774 54.2132 51.8414ZM52.5807 54.6938C52.5742 54.7208 52.5742 54.7478 52.5676 54.7815C52.4824 55.2333 52.4103 55.321 52.1021 55.3682C51.6825 55.4356 51.2236 55.5435 51.0991 55.5974C50.9876 55.6514 50.9614 55.6446 50.8827 55.5368C50.6795 55.2805 50.9089 54.8692 51.3154 54.741C51.5973 54.6534 52.0628 54.4309 52.2005 54.323C52.207 54.3162 52.2201 54.3095 52.2267 54.3027C52.325 54.242 52.4627 54.2218 52.5414 54.2488C52.5742 54.2623 52.6004 54.2825 52.6069 54.3095C52.6266 54.3499 52.6135 54.5118 52.5807 54.6938ZM52.3316 53.2508C52.0825 53.1429 51.9251 53.1631 51.617 53.325C51.1974 53.5407 51.0728 53.5542 50.9483 53.3924C50.7188 53.0889 50.8499 52.9608 51.617 52.7181C51.8464 52.6439 52.1218 52.5292 52.2267 52.4483C52.2595 52.4281 52.2857 52.4079 52.3119 52.3944C52.325 52.3876 52.3381 52.3741 52.3513 52.3674C52.3709 52.3539 52.3906 52.3472 52.4103 52.3404C52.4168 52.3337 52.4299 52.3337 52.4365 52.3269C52.4627 52.3202 52.4824 52.3135 52.502 52.3202H52.5086C52.5152 52.3202 52.5217 52.3269 52.5283 52.3269C52.5348 52.3337 52.5414 52.3337 52.5479 52.3404C52.5479 52.3404 52.5545 52.3404 52.5545 52.3472C52.561 52.3539 52.5676 52.3607 52.5742 52.3674C52.5807 52.3741 52.5873 52.4011 52.6004 52.4348C52.6135 52.5023 52.6332 52.6102 52.6463 52.7315V52.7383C52.6463 52.7585 52.6528 52.7787 52.6528 52.799C52.6528 52.8192 52.6594 52.8462 52.6594 52.8731C52.6922 53.3789 52.6725 53.3991 52.3316 53.2508ZM40.0849 53.3587C39.8686 52.7248 38.7475 52.0168 37.9739 52.0168C37.8821 52.0168 37.751 51.9965 37.692 51.9763C37.6854 51.9763 37.6854 51.9763 37.6789 51.9695C37.5019 51.9089 36.984 51.8886 36.5513 51.8954C36.23 51.9021 35.9612 51.9291 35.9022 51.9695C35.7908 52.064 35.7711 52.1584 35.8825 52.3135C35.8891 52.3269 35.8957 52.3337 35.9088 52.3472C35.9284 52.3741 35.9547 52.4011 35.9809 52.4281C36.0464 52.4955 36.1317 52.5764 36.23 52.6574C36.2759 52.6978 36.3218 52.7315 36.3742 52.7787C36.4398 52.8327 36.5119 52.8866 36.584 52.9473C37.1479 53.3789 36.9905 53.5947 35.9874 53.7633C35.8039 53.7902 35.5416 53.8509 35.404 53.8846C35.2597 53.9251 35.0106 53.9656 34.8401 53.9791C34.4009 54.0195 34.1911 54.0869 34.1583 54.2016C34.1059 54.3702 34.1845 54.3836 34.9123 54.3432C35.6006 54.3027 35.7842 54.3162 35.7842 54.3836C35.7842 54.4713 35.2728 54.768 35.0303 54.822C33.8961 55.058 32.8602 55.3951 32.3751 55.6986C32.1391 55.8402 32.0538 55.8739 31.9883 55.8402C31.8506 55.766 31.6474 55.4289 31.6211 55.2266C31.6211 55.2131 31.6146 55.1996 31.6146 55.1861C31.608 55.1591 31.6015 55.1389 31.5949 55.1119C31.5359 54.9029 31.4113 54.8422 31.2802 54.8961C31.2737 54.8961 31.2671 54.9029 31.254 54.9029C31.0966 54.9838 30.9262 55.2401 30.8606 55.6109C30.8606 55.6177 30.8606 55.6177 30.8606 55.6244C30.8344 55.7525 30.841 55.8941 30.8737 56.1167C30.8803 56.1571 30.8869 56.1976 30.8934 56.2381C30.9 56.265 30.9 56.292 30.9065 56.319C30.9262 56.4404 30.9459 56.5348 30.9655 56.6292C30.9655 56.6359 30.9655 56.6427 30.9721 56.6494C31.0049 56.8045 31.0311 56.9461 31.0835 57.1417C31.0901 57.1686 31.0966 57.2024 31.1032 57.2293C31.1098 57.2698 31.1229 57.3102 31.1294 57.3507C31.136 57.3777 31.1425 57.4046 31.1491 57.4316C31.1688 57.5193 31.195 57.6069 31.2147 57.7014C31.2737 57.9374 31.3458 58.3285 31.372 58.5712C31.5228 59.9536 33.0307 61.0932 33.2929 60.021C33.424 59.4883 34.7549 59.1714 35.7252 59.4411C36.0792 59.5423 36.6299 59.5153 36.8594 59.3939C37.0954 59.2658 37.1347 59.1377 37.0626 58.6589C37.0167 58.3285 37.0167 58.2273 37.0692 58.1329C37.1479 57.9846 37.7641 57 37.9805 56.6899C38.4328 56.029 37.5871 54.8017 36.4595 54.4915C36.348 54.4646 36.2628 54.4174 36.2628 54.3904C36.2628 54.1881 38.4328 54.1139 38.918 54.296C39.9866 54.6938 40.4259 54.3499 40.0849 53.3587ZM35.7318 56.528C35.7186 56.555 35.7055 56.582 35.6924 56.6157C35.6793 56.6494 35.6596 56.6831 35.64 56.7236C35.5088 57 35.3908 57.2833 35.3712 57.3507C35.3318 57.5193 35.0434 57.7553 34.8139 57.816C34.709 57.843 34.5189 57.9171 34.3943 57.9778C34.2632 58.0453 34.0534 58.1194 33.9223 58.1531C33.7912 58.1801 33.5748 58.2408 33.4371 58.2745C32.9913 58.3892 32.8799 58.2543 32.6242 57.2698C32.5455 56.9731 32.539 56.8719 32.5783 56.7775L32.6308 56.6561H34.0206L34.6762 56.4201C35.0368 56.292 35.3974 56.1504 35.4695 56.1099C35.4826 56.1032 35.4957 56.0964 35.5023 56.0897C35.6596 56.0088 35.7776 56.0088 35.8301 56.0897C35.8366 56.0964 35.8432 56.1099 35.8432 56.1234C35.8694 56.1774 35.8301 56.3055 35.7318 56.528Z" fill="#ffffff" fill-opacity="1"/>
<path fill-rule="evenodd" clip-rule="evenodd" d="M64.0994 45.732C64.0601 45.5162 63.9814 45.1791 63.9159 44.997C63.6405 44.1541 63.5881 43.8371 63.516 42.7312C63.4897 42.3334 63.4373 41.7332 63.3914 41.4028C63.2209 40.0339 63.2144 37.8963 63.3783 37.1073C63.4307 36.8511 63.4963 36.4937 63.516 36.3116C63.5487 36.0689 63.634 35.8194 63.8175 35.4215C64.5125 33.911 64.5584 32.2926 63.9224 31.3486C63.8372 31.2272 63.8307 31.1058 63.811 30.0201C63.8044 29.366 63.7716 28.6917 63.7389 28.5299C63.7126 28.3613 63.6995 28.1927 63.7192 28.1455C63.7389 28.0983 63.7716 27.869 63.7913 27.633C63.8241 27.2958 63.8569 27.1677 63.9552 27.0261C63.9618 27.0126 63.9749 26.9991 63.9814 26.9857C64.1388 26.7227 64.2568 26.2304 64.3027 25.7516C64.3027 25.7449 64.3027 25.7381 64.3027 25.7381C64.3223 25.3605 64.2896 24.9627 64.2043 24.612C64.1126 24.2883 63.9814 24.0051 63.811 23.7556C63.8044 23.7489 63.8044 23.7421 63.7979 23.7354C63.4045 23.2229 62.7948 22.8655 62.0736 22.7104C61.6868 22.6362 61.2607 22.6227 60.7821 22.6497C60.5854 22.6632 60.3101 22.7037 60.1265 22.7374C60.1003 22.7441 60.0806 22.7509 60.0544 22.7576C59.838 22.8116 59.4578 22.8453 58.8809 22.8588L58.0286 22.879L57.5893 22.7239C57.1566 22.5688 56.8616 22.4204 56.5928 22.2114C56.2781 21.9686 55.0849 21.4696 54.8227 21.4696C54.7506 21.4696 54.567 21.5573 54.3834 21.6922C53.8065 22.0968 53.7606 22.1103 53.1968 22.0833C52.2658 22.0293 51.6365 21.881 51.1317 21.5843C50.7186 21.3415 49.8663 21.1864 48.7256 21.1527L47.893 21.1257L47.4537 21.3483C46.962 21.5978 46.7522 21.645 45.8278 21.7191C44.8707 21.8001 40.7207 21.827 40.3273 21.7529C40.0389 21.6989 39.9864 21.6989 39.6914 21.8068C39.1145 22.0024 38.0393 21.9956 36.9772 21.7798C36.7936 21.7461 36.4724 21.6922 36.2495 21.6585C36.0331 21.6315 35.6922 21.564 35.4956 21.5168C35.2989 21.4696 34.9645 21.4157 34.7416 21.3955C34.5253 21.3752 34.1712 21.3348 33.968 21.3011C33.7648 21.2606 33.4501 21.2134 33.2796 21.1797C32.9059 21.119 29.9885 21.119 29.6476 21.1864C29.0772 21.2943 28.5396 21.3752 28.1463 21.4224C26.6777 21.591 25.0977 22.5149 24.311 23.668C24.1078 23.9647 23.7078 24.7199 23.7078 24.8008C23.7078 24.8345 23.6423 25.0234 23.5702 25.2189C23.4915 25.4212 23.4325 25.6707 23.4325 25.7853C23.4325 25.8932 23.3866 26.1697 23.3341 26.399C23.2555 26.7429 23.1834 27.5656 23.1965 28.0174C23.1965 28.0713 23.2161 28.4287 23.2292 28.8131C23.2686 29.7099 23.2686 36.2172 23.2292 38.0784C23.2096 38.8606 23.1834 40.8364 23.1637 42.4683C23.144 44.1001 23.1112 45.4623 23.0916 45.496C22.9932 45.6511 22.8097 47.1683 22.731 48.4293C22.7048 48.8542 22.6589 49.2925 22.6392 49.4071C22.5802 49.6836 22.5802 53.1901 22.6392 53.3519C22.731 53.5947 22.7572 57.7081 22.672 57.9846C22.613 58.1869 22.5343 58.7466 22.5343 59.023C22.5343 59.1175 22.4097 60.0345 22.3507 60.3784C22.2393 61.0325 22.2917 62.8263 22.4425 63.305C22.731 64.2356 23.3473 64.8965 24.1405 65.1055C24.252 65.1325 24.4683 65.1999 24.6191 65.2538C24.7699 65.3078 25.1043 65.3685 25.3731 65.3955C25.6353 65.4224 25.9697 65.4831 26.1139 65.5371C26.2581 65.5843 26.5531 65.6719 26.7695 65.7326C26.9858 65.7933 27.294 65.881 27.4513 65.9282C27.6087 65.9754 27.9234 66.0428 28.1528 66.0698C28.3823 66.0968 28.7297 66.1575 28.9133 66.1979C29.2477 66.2721 31.0309 66.3665 32.5191 66.3935C32.624 66.3935 32.7289 66.4002 32.8273 66.4002C33.6074 66.4204 34.2827 66.4609 34.8858 66.5283C34.9711 66.5351 35.0563 66.5418 35.1415 66.5486C35.5808 66.589 36.0594 66.6834 36.5117 66.8116C36.9969 66.9397 37.4034 67.0948 37.7639 67.2903C37.7836 67.3038 37.8098 67.3173 37.8295 67.3308C37.8492 67.3443 37.8754 67.3578 37.8951 67.3645C38.0393 67.4454 38.3671 67.4994 38.9637 67.5398C39.5275 67.5803 39.9405 67.6207 40.0651 67.6612C40.1897 67.7017 40.6748 67.7489 41.8024 67.8365C41.9598 67.85 43.6906 67.8702 45.6508 67.8837C49.4795 67.9107 49.7483 67.8972 50.2597 67.6612C50.3777 67.6073 50.6006 67.5263 50.758 67.4859C50.9153 67.4454 51.1316 67.3443 51.2431 67.2701C51.3939 67.1622 51.4988 67.1285 51.6627 67.1285C51.7807 67.1285 51.9249 67.1015 51.9839 67.0678C52.0429 67.0341 52.2265 66.9936 52.3904 66.9734C52.7313 66.9329 53.0001 66.8857 53.6557 66.7374C53.8983 66.6834 54.3638 66.6025 54.685 66.5688C55.0063 66.5283 55.5242 66.4542 55.8323 66.4002C56.1404 66.3463 56.7436 66.2923 57.1697 66.2788C57.5959 66.2653 58.0482 66.2316 58.1794 66.2047C58.4088 66.1575 59.1038 66.09 60.0806 66.0158C60.3494 65.9956 60.6248 65.9552 60.6903 65.9282C60.7559 65.9012 60.9263 65.8607 61.064 65.8405C61.5492 65.7731 61.6475 65.6989 62.0868 65.0785C62.2375 64.8695 62.467 64.5525 62.5916 64.3772C63.0964 63.6894 63.6733 62.57 63.8307 61.9766C63.8831 61.7878 63.9552 61.5181 64.0011 61.3765C64.1585 60.8775 64.1191 57.1417 63.9487 55.9683C63.9093 55.6919 63.8438 55.1456 63.8044 54.7613C63.6536 53.2103 63.634 53.035 63.5881 52.8057C63.5619 52.6709 63.5291 52.2258 63.5094 51.8077L63.4832 51.0525L63.7323 50.6748C63.8962 50.4321 64.047 50.1152 64.165 49.778L64.3486 49.2588V48.0719C64.3486 47.0402 64.3355 46.8379 64.2568 46.5075C64.2175 46.2984 64.1388 45.9478 64.0994 45.732ZM61.0443 33.8301C60.651 34.3291 60.2904 35.0304 60.2314 35.4283C60.2117 35.5631 60.1462 35.9003 60.0937 36.1835C59.956 36.8713 59.9823 38.5639 60.1462 39.4675C60.1724 39.6158 60.2117 39.9732 60.2314 40.2632C60.2511 40.5532 60.3035 40.9375 60.3428 41.1061C60.3822 41.2814 60.4477 41.713 60.4936 42.0704C60.5395 42.4278 60.6051 42.8661 60.6444 43.0347C60.8018 43.7495 60.8477 43.9383 60.9198 44.1473C61.0902 44.6329 61.1033 46.6289 60.9329 47.0335C60.9329 47.0402 60.9263 47.047 60.9263 47.0537C60.8936 47.1414 60.8608 47.2762 60.828 47.4516C60.828 47.4583 60.828 47.4583 60.828 47.465C60.7952 47.6741 60.7624 47.9843 60.6969 48.517C60.6116 49.2453 60.5526 50.9985 60.5264 53.1159C60.5264 53.1699 60.5264 53.2238 60.5264 53.271C60.5133 55.4896 60.5199 58.3689 60.5395 59.9266C60.5395 59.9604 60.5395 59.9873 60.5395 60.021C60.5395 60.1492 60.5461 60.2773 60.5461 60.3987L60.5789 61.8552L60.4543 62.1182C60.3232 62.3947 59.9495 62.7858 59.5889 63.0286C59.4775 63.1027 59.3136 63.2174 59.2152 63.2781C58.835 63.5343 57.8057 63.9659 57.2091 64.121C57.0255 64.1682 56.8354 64.2289 56.7764 64.2626C56.7174 64.2963 56.4682 64.3502 56.2257 64.3907C55.9831 64.4312 55.7405 64.4784 55.6946 64.5053C55.6487 64.5323 55.4324 64.5795 55.2095 64.6065C54.8227 64.6604 54.2326 64.7818 53.6951 64.9234C53.5443 64.9639 53.3541 64.9909 53.2755 64.9976C53.1902 64.9976 52.9346 65.0448 52.6985 65.0988C52.4691 65.1527 52.056 65.2336 51.7807 65.2808C51.5119 65.328 51.0989 65.4157 50.8629 65.4696C50.0171 65.6854 49.827 65.7326 49.5713 65.7933C47.0669 66.4002 45.5459 66.2856 44.0118 65.3887C43.3693 65.0111 42.2745 64.7211 41.2648 64.6537C40.406 64.5998 40.1241 64.4514 39.2063 63.5748C38.6752 63.0758 38.3736 62.9476 37.1346 62.7116C36.8068 62.6509 34.9711 62.5835 32.8404 62.5633C31.5554 62.5498 31.1489 62.5296 30.9785 62.4756C30.7818 62.4149 30.6769 62.4149 30.0868 62.4689C26.1073 62.8735 24.6978 62.0306 24.6978 59.2388C24.6978 58.7668 24.7175 58.2745 24.7437 58.1464C24.9141 57.29 24.9469 57.1147 24.9731 56.8989C24.9928 56.7438 25.137 56.3864 25.3665 55.9076C26.1336 54.3095 26.3696 52.273 26.1073 49.6094C26.0746 49.2925 26.0418 48.8879 26.0352 48.7193C26.0287 48.544 25.9893 48.2001 25.9565 47.9438C25.9238 47.6943 25.891 47.3302 25.8844 47.1481C25.8517 45.9815 25.6878 44.9633 25.478 44.6463C25.0518 43.999 24.9141 43.0549 25.1567 42.475C25.2092 42.3469 25.2551 42.2053 25.2551 42.1581C25.2551 42.1176 25.4255 41.7265 25.6419 41.2949C26.0156 40.5329 26.0287 40.506 25.9631 40.3509C25.9303 40.2632 25.8713 40.0946 25.832 39.9732C25.7926 39.8519 25.7205 39.6496 25.6681 39.5147C25.419 38.9011 25.537 37.9907 25.9369 37.4917C26.4614 36.8309 26.599 36.197 26.3434 35.6778C26.068 35.1248 26.0483 34.4977 26.2712 33.3985C26.4482 32.5152 26.4941 31.5711 26.3892 30.8024C26.363 30.6001 26.3237 30.2696 26.2975 30.0673C26.2712 29.8583 26.2385 29.6695 26.2188 29.6425C26.1598 29.5414 26.2516 29.3593 26.5269 29.0086C26.8613 28.5906 27.1891 27.9297 27.4644 27.107C27.5693 26.7901 27.707 26.4327 27.766 26.3113C27.825 26.1899 27.8906 26.0416 27.9102 25.9742C28.0676 25.4482 29.0051 24.6053 29.5492 24.5041C29.6541 24.4839 29.8639 24.4299 30.0213 24.376C30.1786 24.3221 30.6834 24.1872 31.1489 24.0591C31.6144 23.9377 32.1913 23.7758 32.4404 23.7017C32.683 23.6275 33.0108 23.5331 33.1682 23.4926C33.4566 23.4185 33.7254 23.3308 34.1778 23.169C34.2171 23.1555 34.2565 23.142 34.2892 23.1285C34.3351 23.115 34.3745 23.1015 34.4073 23.0948H34.4138C34.4269 23.0948 34.44 23.088 34.4466 23.088C34.4597 23.088 34.4728 23.0813 34.4859 23.0813C34.5777 23.0678 34.6564 23.088 34.7678 23.1352C34.7875 23.142 34.8072 23.1555 34.8334 23.1622C34.9252 23.2027 35.0366 23.2566 35.1809 23.3375C35.194 23.3443 35.2071 23.351 35.2202 23.3578C35.2464 23.3712 35.2726 23.3847 35.3054 23.3982C35.5087 23.5061 36.3413 23.7961 36.8068 23.9242C37.9999 24.2479 39.2521 24.167 40.7273 23.6747C41.0944 23.5533 41.1403 23.5466 43.1005 23.4994C46.3326 23.4185 47.8864 23.3645 48.2863 23.3106C49.5451 23.142 50.3056 23.2566 50.7186 23.6747C50.9677 23.9309 50.9546 23.9242 51.8987 23.9916C53.0067 24.0726 53.2034 24.0793 54.3834 24.113C55.1177 24.1332 55.5242 24.1602 55.6487 24.2074C56.0814 24.3625 57.0255 24.6188 57.5565 24.7401C57.9761 24.8345 58.0351 24.8683 58.2318 25.1919C58.6448 25.8595 59.1628 26.2304 60.1134 26.5271C60.2838 26.5811 60.4478 26.8508 60.5199 27.2082C60.5592 27.3903 60.6116 27.606 60.6444 27.687C60.6772 27.7679 60.7165 27.9702 60.7362 28.1455C60.7559 28.3208 60.7952 28.6243 60.8214 28.8198C60.8477 29.0221 60.8936 29.2447 60.9198 29.3188C60.946 29.393 60.9853 29.6223 60.9985 29.8246C61.0378 30.3573 61.2017 30.7552 61.536 31.1193C62.1589 31.8273 62.0146 32.6028 61.0443 33.8301Z" fill="#ffffff" fill-opacity="1"/>
<path d="M69.6387 33.6413H70.6942C70.7073 33.7761 70.7401 33.911 70.7663 34.0391C71.1728 35.5968 72.2939 36.6218 74.0115 36.8915C75.1654 37.0871 75.9587 36.8781 76.5094 36.433C77.3748 35.7384 77.3158 34.5179 76.4373 33.938C76.0505 33.6682 75.4735 33.4659 73.4215 33.0344C73.0347 32.9467 72.6413 32.886 72.2545 32.8118C71.9792 32.7646 71.6317 32.6365 70.9827 32.2454C69.914 31.5913 69.4354 30.4315 69.7436 29.2177C70.1304 27.6128 72.0972 26.399 74.8245 27.0194C75.5719 27.1812 76.0963 27.4374 76.7585 27.9702L76.9617 28.132L77.0798 28.2197L77.4534 27.107H78.4172V31.0114H77.4076C77.3813 30.8361 77.3223 30.654 77.2633 30.4921C76.9486 29.5279 76.3848 28.8468 75.6768 28.4287C75.2703 28.1927 74.8704 28.0578 74.4049 27.9971C73.5985 27.9095 73.0019 27.9702 72.602 28.1185C72.2283 28.2669 71.9792 28.4152 71.7956 28.6108C71.1924 29.1772 71.2777 30.1685 71.9661 30.6607C72.3529 30.9305 73.0216 31.1665 75.9193 31.7599C76.0898 31.7869 76.2668 31.8341 76.4241 31.8948C78.2402 32.5151 78.9941 33.6345 78.8171 35.1922C78.6007 36.932 77.0535 38.1458 74.4573 37.984C74.0246 37.957 73.6051 37.8828 73.1986 37.7479C72.1431 37.4243 71.4547 37.0197 70.9171 36.4869L70.6024 37.7479H69.6387V33.6413Z" fill="#ffffff" fill-opacity="1"/>
<path d="M79.2764 28.1522H84.5408V29.1435H83.5247C83.4722 29.1435 83.4198 29.1435 83.3804 29.1435C82.8887 29.1839 82.8101 29.2918 82.8101 29.9055V36.0419C82.8101 36.696 82.8625 36.7634 83.3804 36.8039C83.4198 36.8174 83.4722 36.8174 83.5115 36.8174H84.5408V37.7951H79.2895V36.8174H80.2794C80.3188 36.8174 80.3712 36.8174 80.4237 36.8039C80.9416 36.7634 81.0203 36.6825 81.0203 36.0419V35.5564V29.9055C81.0203 29.2379 80.9809 29.1839 80.4106 29.1435C80.3712 29.1435 80.3319 29.1435 80.2794 29.1435H79.2764V28.1522Z" fill="#ffffff" fill-opacity="1"/>
<path d="M84.8025 36.8174H86.1071C86.4218 36.8174 86.5136 36.7095 86.5398 36.2712C86.5398 36.1902 86.5398 36.1228 86.5398 36.0419V29.9055C86.5398 29.2784 86.5005 29.1974 86.0612 29.1435C86.035 29.1435 86.0088 29.1435 85.9956 29.1435H84.8156V28.1522H88.3951L93.7448 35.4687V29.9122V29.7504L93.7317 29.4807C93.7186 29.3053 93.6662 29.2244 93.5744 29.1705C93.5219 29.157 93.4826 29.1435 93.4302 29.1435H92.3353V28.1522H96.2427V29.1435H95.2003C94.82 29.13 94.7938 29.1705 94.7676 29.7436C94.7545 29.7976 94.7545 29.8515 94.7545 29.9055V37.7951H93.2073L87.5953 30.1348V36.0419C87.5953 36.696 87.6609 36.8174 88.028 36.8174H89.1229V37.7951H84.7959V36.8174H84.8025Z" fill="#ffffff" fill-opacity="1"/>
<path d="M101.796 27.8825C104.858 27.8825 106.838 29.9729 106.825 32.9737C106.798 35.9475 104.832 37.9974 101.796 37.9974C98.7344 37.9974 96.7545 35.907 96.7676 32.9063C96.7808 29.9325 98.7607 27.8825 101.796 27.8825ZM99.4294 35.7789C100.603 37.5322 102.996 37.5322 104.169 35.7789C104.674 35.0169 104.95 34.1066 104.936 32.913C104.923 30.3168 103.488 28.7996 101.796 28.7996C100.105 28.7996 98.6689 30.3101 98.6558 32.913C98.6427 34.0998 98.918 35.0102 99.4294 35.7789Z" fill="#ffffff" fill-opacity="1"/>
<path d="M120.637 27.1137H121.719V31.1934H120.624C120.598 31.018 120.565 30.8495 120.506 30.6741C120.061 28.9344 118.887 28.0038 117.32 28.0173C115.399 28.0308 114.003 29.548 113.99 32.3802C113.99 34.9764 115.262 36.5678 117.005 36.8173C118.015 36.9656 118.939 36.6689 119.431 36.1362C119.746 35.7923 119.877 35.4686 119.877 35.1989V34.3425C119.877 33.54 119.805 33.4794 118.998 33.4794L118.054 33.4659V32.3802L123.352 32.3937V33.4928H122.355C121.922 33.4928 121.804 33.6412 121.804 34.356V37.8018H120.867L120.388 36.6757C120.303 36.7633 120.198 36.851 120.1 36.9252C119.005 37.8625 117.707 38.1997 116.061 37.9367C113.105 37.4646 111.302 34.7471 111.964 31.2406C112.18 30.0807 112.698 29.103 113.511 28.3342C114.219 27.6666 115.058 27.2216 115.996 27.026C117.74 26.6686 119.143 27.0867 120.211 28.1252C120.27 28.1859 120.329 28.2466 120.382 28.3207L120.637 27.1137Z" fill="#ffffff" fill-opacity="1"/>
<path d="M123.713 36.8174H124.742C124.795 36.8174 124.847 36.8174 124.886 36.8039C125.358 36.7634 125.444 36.6555 125.444 36.0419V35.4687V29.9123C125.444 29.2582 125.378 29.1907 124.873 29.1503C124.834 29.1503 124.795 29.1503 124.755 29.1503H123.726V28.159H129.017V29.1503H128.02C127.981 29.1503 127.928 29.1503 127.876 29.1503C127.306 29.1907 127.214 29.2986 127.214 29.9123V36.7837H128.984C131.292 36.7972 132.019 36.17 132.032 34.4505V33.8368H133.009V37.8019H123.713V36.8174Z" fill="#ffffff" fill-opacity="1"/>
<path d="M138.011 27.8825C141.073 27.8825 143.053 29.9729 143.039 32.9737C143.013 35.9475 141.046 37.9974 138.011 37.9974C134.949 37.9974 132.969 35.907 132.982 32.9063C132.996 29.9325 134.976 27.8825 138.011 27.8825ZM135.638 35.7789C136.811 37.5322 139.204 37.5322 140.378 35.7789C140.882 35.0169 141.158 34.1066 141.145 32.913C141.132 30.3168 139.696 28.7996 138.004 28.7996C136.313 28.7996 134.877 30.3101 134.864 32.913C134.858 34.0998 135.133 35.0102 135.638 35.7789Z" fill="#ffffff" fill-opacity="1"/>
<path d="M143.558 28.1522H149.301C152.087 28.1522 153.234 29.3728 152.828 31.0586C152.67 31.7397 152.231 32.2521 151.418 32.623L151.222 32.7174L151.077 32.7714C151.143 32.7849 151.208 32.8118 151.274 32.8253C152.9 33.2839 153.621 34.3493 153.319 35.7182C153.28 35.9205 153.201 36.1228 153.11 36.3049C152.618 37.2422 151.628 37.7951 149.661 37.7951H143.558V36.8174H144.534C144.587 36.8174 144.639 36.8174 144.679 36.8039C145.21 36.7634 145.302 36.669 145.302 36.0419V35.5833V29.9055C145.302 29.2649 145.249 29.1839 144.705 29.1435C144.652 29.1435 144.613 29.1435 144.561 29.1435H143.558V28.1522ZM149.327 32.3331C149.458 32.3331 149.576 32.3331 149.707 32.3061C150.566 32.1847 151.012 31.7329 151.13 30.9237C151.274 29.8515 150.599 29.157 149.255 29.157H147.091V32.3331H149.327ZM149.445 36.7971C150.632 36.7971 151.333 36.2374 151.477 35.4013C151.687 34.1942 150.933 33.3648 149.34 33.3648H147.085V36.7971H149.445Z" fill="#ffffff" fill-opacity="1"/>
<path d="M153.234 36.8174H153.523H153.562L153.706 36.8039C154.047 36.7499 154.126 36.669 154.395 36.0419L157.745 28.1522H159.476L162.747 36.0419C162.97 36.5476 163.101 36.6825 163.409 36.7769C163.514 36.8039 163.567 36.8174 163.593 36.8174H163.895V37.7951H159.817V36.8174H160.793C161.056 36.8174 161.108 36.7364 161.069 36.4802L160.872 36.0351L160.289 34.5718H156.25L155.64 36.0351C155.588 36.1565 155.536 36.2644 155.496 36.3858C155.378 36.6825 155.47 36.8174 155.745 36.8174H156.735V37.7951H153.247V36.8174H153.234ZM159.876 33.6076L158.276 29.6695L156.663 33.6076H159.876Z" fill="#ffffff" fill-opacity="1"/>
<path d="M163.757 36.8174H164.786C164.839 36.8174 164.891 36.8174 164.93 36.8039C165.402 36.7634 165.488 36.6555 165.488 36.0419V35.4687V29.9123C165.488 29.2582 165.422 29.1907 164.917 29.1503C164.878 29.1503 164.839 29.1503 164.799 29.1503H163.77V28.159H169.061V29.1503H168.071C168.031 29.1503 167.979 29.1503 167.926 29.1503C167.356 29.1907 167.264 29.2986 167.264 29.9123V36.7837H169.034C171.342 36.7972 172.07 36.17 172.083 34.4505V33.8368H173.06V37.8019H163.763V36.8174H163.757Z" fill="#ffffff" fill-opacity="1"/>
<path d="M173.533 22.6227H68.2627V24.2074H173.533V22.6227Z" fill="#ffffff" fill-opacity="1"/>
<path d="M173.533 64.3975H68.2627V65.9821H173.533V64.3975Z" fill="#ffffff" fill-opacity="1"/>
<path d="M173.533 42.8594H68.2627V44.444H173.533V42.8594Z" fill="#ffffff" fill-opacity="1"/>
<path d="M92.1657 47.4853H93.3983V52.6776H91.9953C91.9953 52.4888 91.9756 52.3 91.9428 52.1112C91.6281 50.0814 90.3956 48.7935 88.5337 48.4765C85.3999 47.9303 82.8627 50.6951 83.5249 55.4693C83.892 58.0116 85.1836 59.5221 86.9144 59.9199C89.386 60.4863 91.4118 59.104 91.8904 56.6629C91.9297 56.4539 91.9625 56.2246 91.9625 56.0021H93.3655C93.3851 56.2853 93.3655 56.5887 93.313 56.8719C92.9066 59.9064 90.3825 61.835 86.4948 61.3832C85.1311 61.2349 83.9707 60.7359 82.9939 59.8862C81.5384 58.6185 80.6927 56.7034 80.673 54.3162C80.6534 50.9041 82.3514 48.3889 85.0393 47.3976C87.5634 46.4873 90.1792 47.1144 91.7658 48.8205L92.1657 47.4853Z" fill="#ffffff" fill-opacity="1"/>
<path d="M93.2471 59.8458H93.6142H93.6667L93.8502 59.8256C94.2895 59.7581 94.3878 59.6502 94.7418 58.841L99.0557 48.6789H101.285L105.494 58.841C105.782 59.4951 105.946 59.6705 106.353 59.7919C106.484 59.8256 106.556 59.8458 106.589 59.8458H106.975V61.1068H101.724V59.8458H102.983C103.317 59.8458 103.383 59.7446 103.337 59.4142L103.088 58.8478L102.334 56.9664H97.1348L96.3481 58.8478C96.2825 59.0029 96.2169 59.1445 96.1645 59.2996C96.0137 59.6772 96.1317 59.8525 96.4857 59.8525H97.7576V61.1135H93.2602V59.8458H93.2471ZM101.803 55.7054L99.7375 50.6345L97.6593 55.7054H101.803Z" fill="#ffffff" fill-opacity="1"/>
<path d="M106.806 59.8457H108.012C108.078 59.8457 108.13 59.8457 108.182 59.8255C108.936 59.7715 109.074 59.6366 109.074 58.8409V58.2003V50.9445C109.074 50.1016 109.008 50.014 108.268 49.96C108.215 49.96 108.169 49.96 108.117 49.96H106.838V48.6855H114.725C114.942 48.6855 115.165 48.7058 115.394 48.7193C117.623 48.8946 118.731 49.7375 119.085 51.1671C119.675 53.5475 118.115 55.4491 114.673 55.4491H111.349V58.8477C111.349 59.5692 111.48 59.7648 111.985 59.812L112.437 59.8322L112.588 59.8524H113.866V61.1134H106.806V59.8457ZM113.847 54.2353C115.276 54.2353 115.925 53.979 116.345 53.4396C117.066 52.5427 117.066 51.5784 116.41 50.7288C115.938 50.1623 115.289 49.8993 113.945 49.8993H111.342V54.2353H113.847Z" fill="#ffffff" fill-opacity="1"/>
<path d="M119.406 48.6789H126.185V49.9534H124.874C124.808 49.9534 124.743 49.9534 124.69 49.9534C124.054 50.0073 123.95 50.1422 123.95 50.9379V58.841C123.95 59.6839 124.015 59.7716 124.69 59.8256C124.743 59.8458 124.808 59.8458 124.861 59.8458H126.185V61.1068H119.426V59.8458H120.698C120.75 59.8458 120.816 59.8458 120.881 59.8256C121.55 59.7716 121.655 59.6705 121.655 58.841V58.2206V50.9379C121.655 50.0748 121.603 50.0073 120.868 49.9534C120.816 49.9534 120.77 49.9534 120.698 49.9534H119.406V48.6789Z" fill="#ffffff" fill-opacity="1"/>
<path d="M126.52 48.6789H139.087V53.561H137.914V52.7316C137.914 52.5765 137.894 52.4349 137.861 52.3C137.56 50.5738 136.773 49.9736 134.872 49.9736L133.948 49.9938V58.8478V59.3805L133.967 59.4142C134.02 59.6907 134.203 59.7918 134.905 59.8458C134.957 59.8458 135.003 59.8458 135.075 59.8458H136.354V61.1068H129.142V59.8458H130.42C130.486 59.8458 130.538 59.8458 130.604 59.8256C131.528 59.7716 131.646 59.6502 131.659 58.841V58.1869V49.9736H130.643C128.794 49.9938 127.995 50.6479 127.759 52.3C127.739 52.4754 127.726 52.6642 127.726 52.8328V53.6082H126.52V48.6789Z" fill="#ffffff" fill-opacity="1"/>
<path d="M136.55 59.8458H136.917H136.969L137.153 59.8256C137.592 59.7581 137.691 59.6502 138.045 58.841L142.358 48.6789H144.587L148.796 58.841C149.085 59.4951 149.249 59.6705 149.655 59.7919C149.786 59.8256 149.858 59.8458 149.891 59.8458H150.278V61.1068H145.027V59.8458H146.285C146.62 59.8458 146.685 59.7446 146.639 59.4142L146.39 58.8478L145.636 56.9664H140.438L139.651 58.8478C139.585 59.0029 139.52 59.1445 139.467 59.2996C139.316 59.6772 139.434 59.8525 139.788 59.8525H141.067V61.1135H136.569V59.8458H136.55ZM145.105 55.7054L143.04 50.6345L140.962 55.7054H145.105Z" fill="#ffffff" fill-opacity="1"/>
<path d="M150.108 59.8457H151.432C151.498 59.8457 151.564 59.8457 151.616 59.8255C152.219 59.7715 152.337 59.6366 152.337 58.8409V58.0992V50.9445C152.337 50.1016 152.252 50.014 151.596 49.96C151.544 49.96 151.498 49.96 151.446 49.96H150.121V48.6855H156.933V49.96H155.655C155.602 49.96 155.537 49.96 155.471 49.96C154.73 50.014 154.612 50.1488 154.612 50.9445V59.7985H156.894C159.864 59.8187 160.801 59.0028 160.821 56.7977V56.002H162.079V61.1134H150.102V59.8457H150.108Z" fill="#ffffff" fill-opacity="1"/>
</g>
<defs>
<clipPath id="clip0">
<rect width="153.26" height="47.9111" fill="white" transform="translate(21.1572 19.9794)"/>
</clipPath>
</defs>
</svg>
