<svg width="194" height="88" viewBox="0 0 194 88" fill="none" xmlns="http://www.w3.org/2000/svg">
<path d="M83.4944 39.3372C83.1365 38.444 82.5674 37.6545 81.8375 37.0389C81.1797 36.5077 80.4042 36.1482 79.5782 35.9919C78.7665 35.8418 77.9432 35.7649 77.1182 35.7621C76.1864 35.7461 75.2594 35.9018 74.3821 36.2218C73.6996 36.4358 73.1018 36.8651 72.6751 37.4475H72.5996V35.7621H69.8887V57.2636H72.7252V49.3728H72.7755C73.1934 49.9423 73.7848 50.3554 74.4573 50.5476C75.3097 50.8634 76.2113 51.0192 77.1182 51.0073C77.9447 51.0109 78.7696 50.9252 79.5782 50.7519C80.4042 50.5956 81.1797 50.2362 81.8375 49.7048C82.5765 49.098 83.1475 48.306 83.4944 47.4066C83.9631 46.117 84.1764 44.7458 84.1219 43.3719C84.1787 41.9979 83.9653 40.6263 83.4944 39.3372ZM80.7329 45.8489C80.6056 46.3701 80.3558 46.852 80.005 47.2534C79.6707 47.5963 79.2417 47.8279 78.7751 47.9175C78.1901 48.049 77.5917 48.1089 76.9926 48.0962C76.3262 48.1047 75.6608 48.0362 75.0096 47.8919C74.4906 47.7924 74.0125 47.5376 73.6367 47.1599C73.2611 46.7823 73.005 46.2991 72.901 45.7723C72.7124 45.0045 72.6279 44.2141 72.6499 43.423C72.6252 42.5697 72.7267 41.7175 72.9511 40.8949C73.08 40.3371 73.3682 39.8306 73.7795 39.4393C74.1429 39.0949 74.5961 38.8643 75.0848 38.7754C75.6559 38.6669 76.236 38.6156 76.817 38.6222C77.3966 38.6228 77.9754 38.6655 78.5491 38.7498C79.0297 38.8173 79.482 39.0208 79.8545 39.3372C80.2539 39.7381 80.5399 40.2408 80.6828 40.7927C80.9011 41.651 80.994 42.5372 80.9589 43.423C80.9787 44.2379 80.9031 45.0523 80.7329 45.8489Z" fill="#FFFFFF" fill-opacity="1"/>
<path d="M88.3135 35.7635L86.5312 37.6022V50.9832H89.3678V38.6747H95.9196V35.7635H88.3135Z" fill="#FFFFFF" fill-opacity="1"/>
<path d="M109.727 39.3386C109.398 38.4363 108.834 37.6419 108.096 37.0403C107.437 36.5317 106.673 36.1824 105.861 36.0189C105.042 35.8581 104.21 35.7727 103.376 35.7635C102.55 35.7752 101.727 35.8607 100.916 36.0189C100.096 36.1771 99.3222 36.5268 98.6569 37.0403C97.9332 37.6561 97.3723 38.4462 97.0252 39.3386C96.5543 40.6277 96.3409 41.9994 96.3976 43.3733C96.3409 44.7473 96.5543 46.119 97.0252 47.4081C97.3656 48.3042 97.9276 49.0959 98.6569 49.7063C99.3147 50.2375 100.09 50.5971 100.916 50.7533C102.547 51.0939 104.23 51.0939 105.861 50.7533C106.678 50.5917 107.444 50.2325 108.096 49.7063C108.84 49.1101 109.405 48.314 109.727 47.4081C110.208 46.1211 110.43 44.7491 110.38 43.3733C110.43 41.9975 110.208 40.6255 109.727 39.3386ZM107.217 45.9525C107.087 46.504 106.809 47.0078 106.414 47.4081C106.044 47.729 105.59 47.9331 105.108 47.9955C104.535 48.0817 103.956 48.1244 103.376 48.123C102.797 48.1223 102.218 48.0797 101.644 47.9955C101.164 47.9279 100.711 47.7245 100.339 47.4081C99.9444 47.0033 99.6591 46.502 99.5104 45.9525C99.2941 45.0765 99.2013 44.1737 99.2341 43.2712C99.2156 42.4648 99.2913 41.659 99.4601 40.8708C99.5797 40.3487 99.8407 39.871 100.213 39.4918C100.564 39.143 101.01 38.9113 101.493 38.8279C102.738 38.5896 104.015 38.5896 105.259 38.8279C105.738 38.9226 106.182 39.1527 106.539 39.4918C106.904 39.8733 107.156 40.351 107.267 40.8708C107.446 41.6576 107.53 42.4637 107.518 43.2712C107.545 44.175 107.443 45.078 107.217 45.9525Z" fill="#FFFFFF" fill-opacity="1"/>
<path d="M116.629 48.0967V38.6737H121.649V35.7626H116.629V29.5317H113.792V35.7626H111.257V38.6737H113.792V49.1691L115.575 50.9823H122.804V48.0967H116.629Z" fill="#FFFFFF" fill-opacity="1"/>
<path d="M137.239 39.3386C136.892 38.4462 136.331 37.6561 135.608 37.0403C134.942 36.5268 134.169 36.1771 133.348 36.0189C132.538 35.8581 131.714 35.7727 130.888 35.7635C130.062 35.7739 129.239 35.8594 128.428 36.0189C127.608 36.1771 126.834 36.5268 126.169 37.0403C125.43 37.6471 124.859 38.4392 124.512 39.3386C124.053 40.6309 123.84 42.0001 123.885 43.3733C123.84 44.7465 124.053 46.1158 124.512 47.4081C124.852 48.3111 125.424 49.1049 126.169 49.7063C126.827 50.2375 127.602 50.5971 128.428 50.7533C129.237 50.9253 130.062 51.011 130.888 51.0086C131.715 51.0122 132.54 50.9266 133.348 50.7533C134.174 50.5971 134.95 50.2375 135.608 49.7063C136.337 49.0959 136.899 48.3042 137.239 47.4081C137.71 46.119 137.923 44.7473 137.867 43.3733C137.923 41.9994 137.71 40.6277 137.239 39.3386ZM134.729 45.9525C134.58 46.502 134.295 47.0033 133.901 47.4081C133.538 47.7239 133.093 47.9275 132.62 47.9955C132.047 48.0797 131.468 48.1223 130.888 48.123C130.309 48.1244 129.73 48.0817 129.156 47.9955C128.674 47.9331 128.22 47.729 127.851 47.4081C127.44 47.0167 127.151 46.5103 127.023 45.9525C126.796 45.078 126.695 44.175 126.721 43.2712C126.696 42.4631 126.781 41.6555 126.972 40.8708C127.084 40.351 127.336 39.8733 127.7 39.4918C128.06 39.1425 128.515 38.9112 129.006 38.8279C129.624 38.6954 130.256 38.6354 130.888 38.6491C131.512 38.6353 132.136 38.6952 132.746 38.8279C133.229 38.9113 133.676 39.143 134.026 39.4918C134.391 39.8733 134.643 40.351 134.754 40.8708C134.946 41.6555 135.03 42.4631 135.005 43.2712C135.025 44.1733 134.933 45.0743 134.729 45.9525Z" fill="#FFFFFF" fill-opacity="1"/>
<path d="M149.99 47.1008C149.772 47.4045 149.477 47.6427 149.137 47.7902C148.786 47.9492 148.414 48.0524 148.032 48.0966C147.605 48.1222 147.128 48.1478 146.626 48.1478C146.046 48.16 145.466 48.1171 144.894 48.0201C144.421 47.9523 143.977 47.7485 143.614 47.4327C143.21 47.0356 142.923 46.5315 142.786 45.9772C142.582 45.1077 142.489 44.2151 142.51 43.3214C142.485 42.5134 142.569 41.7057 142.761 40.921C142.872 40.3939 143.124 39.908 143.489 39.5165C143.839 39.1676 144.286 38.936 144.769 38.8526C145.381 38.7339 146.003 38.674 146.626 38.6738C147.527 38.6309 148.427 38.7877 149.262 39.1335C149.618 39.3281 149.924 39.6052 150.155 39.9424C150.386 40.2795 150.536 40.6672 150.593 41.0742H153.454C153.309 40.0948 152.967 39.1561 152.45 38.3163C152.031 37.67 151.473 37.1287 150.819 36.7331C150.189 36.3668 149.5 36.1161 148.785 35.9925C148.072 35.8706 147.35 35.8108 146.626 35.8138C145.81 35.8154 144.995 35.8923 144.192 36.0436C143.377 36.2113 142.612 36.5698 141.957 37.0906C141.224 37.7027 140.654 38.4932 140.301 39.3888C139.83 40.6779 139.616 42.0496 139.673 43.4236C139.616 44.7975 139.83 46.1692 140.301 47.4583C140.641 48.3615 141.213 49.1551 141.957 49.7565C142.608 50.2793 143.375 50.6305 144.192 50.7779C144.992 50.9501 145.808 51.0357 146.626 51.0334C147.35 51.0363 148.072 50.9764 148.785 50.8545C149.495 50.7557 150.178 50.5126 150.794 50.1395C151.453 49.7509 152.012 49.2083 152.425 48.5564C152.961 47.7429 153.313 46.8183 153.454 45.8495H150.542C150.445 46.3008 150.257 46.7268 149.99 47.1008Z" fill="#FFFFFF" fill-opacity="1"/>
<path d="M168.592 39.3386C168.289 38.4849 167.77 37.728 167.086 37.1448C166.403 36.5617 165.58 36.1732 164.701 36.0189C163.89 35.8568 163.067 35.7714 162.24 35.7635C161.415 35.7739 160.591 35.8594 159.78 36.0189C158.901 36.1732 158.078 36.5617 157.395 37.1448C156.711 37.728 156.192 38.4849 155.889 39.3386C155.418 40.6277 155.205 41.9994 155.262 43.3734C155.205 44.7473 155.418 46.119 155.889 47.4081C156.221 48.3091 156.784 49.1029 157.521 49.7063C158.179 50.2375 158.955 50.5971 159.78 50.7534C160.59 50.9253 161.414 51.0111 162.24 51.0086C163.067 51.0135 163.892 50.928 164.701 50.7534C165.526 50.5971 166.302 50.2375 166.96 49.7063C167.697 49.1029 168.26 48.3091 168.592 47.4081C169.062 46.119 169.276 44.7473 169.219 43.3734C169.276 41.9994 169.062 40.6277 168.592 39.3386ZM166.081 45.9525C165.93 46.4954 165.655 46.9942 165.278 47.4081C164.906 47.7245 164.453 47.9279 163.973 47.9955C162.824 48.1657 161.657 48.1657 160.508 47.9955C160.028 47.9279 159.575 47.7245 159.203 47.4081C158.792 47.0167 158.503 46.5103 158.375 45.9525C158.148 45.0781 158.047 44.175 158.073 43.2712C158.061 42.4637 158.146 41.6577 158.325 40.8708C158.436 40.351 158.688 39.8734 159.052 39.4918C159.412 39.1425 159.867 38.9112 160.358 38.8279C160.977 38.6954 161.608 38.6354 162.24 38.6491C162.864 38.6353 163.488 38.6952 164.098 38.8279C164.581 38.9113 165.028 39.143 165.378 39.4918C165.751 39.871 166.012 40.3487 166.131 40.8708C166.3 41.659 166.376 42.4648 166.357 43.2712C166.39 44.1737 166.297 45.0765 166.081 45.9525Z" fill="#FFFFFF" fill-opacity="1"/>
<path d="M171.631 29.5317V50.9823H174.468V29.5317H171.631Z" fill="#FFFFFF" fill-opacity="1"/>
<path d="M57.6629 48.7865L54.7512 50.3442L57.5376 51.8254L40.9445 60.6864L24.3516 51.8254L27.138 50.3186L24.2763 48.7609L20.0088 51.0336V52.5913L39.4886 63.0612H42.4005L61.9055 52.5913V51.0336L57.6629 48.7865Z" fill="#FFFFFF" fill-opacity="1"/>
<path d="M57.9644 41.1003L55.0524 42.658L57.5376 43.9859L48.0235 49.0931L40.9445 52.898L35.4721 49.9615L24.3516 43.9859L26.8619 42.658L23.975 41.1003L20.0088 43.2198V44.752L32.5853 51.5192L39.4886 55.2219H42.4005L50.9354 50.6509L61.9055 44.752V43.2198L57.9644 41.1003Z" fill="#FFFFFF" fill-opacity="1"/>
<path d="M42.4005 25.2673H39.4886L20.0088 35.7372V37.2694L39.4886 47.7393H42.4005L61.9055 37.2694V35.7372L42.4005 25.2673ZM57.0105 36.7842L53.471 38.6994L51.4626 39.7719L50.559 40.2571L48.0235 41.6105L46.4672 42.4532L46.1911 42.6064L43.2792 44.1641L41.6223 45.0579L40.9445 45.4154L40.2919 45.0579L38.61 44.1641L35.7232 42.6064L35.4721 42.4788L33.8907 41.6361L31.3302 40.2571L30.4265 39.7719L28.4182 38.6994L24.9038 36.8097L24.3516 36.5033L32.033 32.3919L40.9445 27.6167L49.8811 32.4175L57.5376 36.5033L57.0105 36.7842Z" fill="#FFFFFF" fill-opacity="1"/>
</svg>
