<svg width="195" height="88" viewBox="0 0 195 88" fill="none" xmlns="http://www.w3.org/2000/svg">
<path d="M51.5967 50.9536V45.7602L58.7275 22.8917H52.6242V18.1129H63.639V22.8917L56.4054 46.1748H63.639V50.9536H51.5967Z" fill="#FFFFFF" fill-opacity="1"/>
<path d="M70.0259 44.6037V44.2109V24.8556C70.0259 24.7538 70.0259 24.6229 70.0259 24.4628C70.0396 24.2883 70.0807 23.9537 70.1492 23.4591C70.2314 22.9645 70.341 22.4917 70.478 22.0407C70.615 21.5897 70.8342 21.0951 71.1356 20.5569C71.437 20.0041 71.7863 19.5313 72.1836 19.1385C72.5946 18.7457 73.1358 18.4184 73.8071 18.1565C74.4784 17.8801 75.2319 17.7419 76.0676 17.7419C76.9033 17.7419 77.6568 17.8729 78.3281 18.1347C78.9994 18.3966 79.5337 18.7384 79.931 19.1603C80.342 19.5676 80.6982 20.0259 80.9996 20.535C81.3147 21.0442 81.5407 21.5534 81.6777 22.0625C81.8147 22.5717 81.9175 23.0372 81.986 23.4591C82.0682 23.8664 82.1093 24.201 82.1093 24.4628L82.1298 24.8556V44.2109C82.1298 44.3128 82.123 44.451 82.1093 44.6255C82.1093 44.7855 82.0682 45.1129 81.986 45.6075C81.9175 46.1021 81.8147 46.5749 81.6777 47.0258C81.5407 47.4623 81.3215 47.9569 81.0201 48.5097C80.7187 49.0479 80.3625 49.5134 79.9515 49.9062C79.5405 50.299 78.9994 50.6336 78.3281 50.91C77.6568 51.1719 76.9033 51.3028 76.0676 51.3028C75.2319 51.3028 74.4784 51.1719 73.8071 50.91C73.1358 50.6481 72.5946 50.3136 72.1836 49.9062C71.7863 49.4844 71.437 49.0188 71.1356 48.5097C70.8342 48.0005 70.615 47.4986 70.478 47.004C70.341 46.4949 70.2314 46.0366 70.1492 45.6293C70.0807 45.2074 70.0396 44.8656 70.0259 44.6037ZM74.5674 44.2109C74.5674 44.2691 74.5674 44.3564 74.5674 44.4728C74.5674 44.5746 74.588 44.7637 74.6291 45.0401C74.6839 45.3165 74.7524 45.5638 74.8346 45.782C74.9305 45.9857 75.0812 46.1748 75.2867 46.3494C75.5059 46.524 75.7662 46.6112 76.0676 46.6112C76.369 46.6112 76.6224 46.5312 76.8279 46.3712C77.0471 46.1966 77.2047 45.993 77.3006 45.7602C77.3965 45.5275 77.465 45.2947 77.5061 45.0619C77.5609 44.8292 77.5883 44.6255 77.5883 44.451V44.2109V24.8556C77.5883 24.7829 77.5883 24.6956 77.5883 24.5938C77.5883 24.4919 77.5609 24.3028 77.5061 24.0264C77.465 23.7355 77.3965 23.4882 77.3006 23.2845C77.2047 23.0663 77.0471 22.8699 76.8279 22.6953C76.6224 22.5208 76.369 22.4335 76.0676 22.4335C75.5881 22.4335 75.225 22.6371 74.9784 23.0445C74.7318 23.4372 74.6017 23.8373 74.588 24.2446L74.5674 24.8556V44.2109Z" fill="#FFFFFF" fill-opacity="1"/>
<path d="M89.4004 50.9536V18.1129H93.9419V29.0453V30.4855H94.1063L94.3324 29.0453L98.1136 18.1129H102.532L98.3602 28.9143L103.087 50.9536H98.6479L95.5037 36.6608L95.3804 35.9844H95.2571L94.99 36.6608L93.9419 39.3448V50.9536H89.4004Z" fill="#FFFFFF" fill-opacity="1"/>
<path d="M108.61 18.1129H113.07L115.351 28.6088L115.474 29.809H115.556L115.68 28.6088L117.961 18.1129H122.42L117.796 36.9663V50.9536H113.255V36.9663L108.61 18.1129Z" fill="#FFFFFF" fill-opacity="1"/>
<path d="M128.19 44.6037V44.2109V24.8556C128.19 24.7538 128.19 24.6229 128.19 24.4628C128.204 24.2883 128.245 23.9537 128.314 23.4591C128.396 22.9645 128.506 22.4917 128.643 22.0407C128.78 21.5897 128.999 21.0951 129.3 20.5569C129.602 20.0041 129.951 19.5313 130.348 19.1385C130.759 18.7457 131.3 18.4184 131.972 18.1565C132.643 17.8801 133.396 17.7419 134.232 17.7419C135.068 17.7419 135.821 17.8729 136.493 18.1347C137.164 18.3966 137.698 18.7384 138.096 19.1603C138.507 19.5676 138.863 20.0259 139.164 20.535C139.479 21.0442 139.705 21.5534 139.842 22.0625C139.979 22.5717 140.082 23.0372 140.151 23.4591C140.233 23.8664 140.274 24.201 140.274 24.4628L140.294 24.8556V44.2109C140.294 44.3128 140.288 44.451 140.274 44.6255C140.274 44.7855 140.233 45.1129 140.151 45.6075C140.082 46.1021 139.979 46.5749 139.842 47.0258C139.705 47.4623 139.486 47.9569 139.185 48.5097C138.883 49.0479 138.527 49.5134 138.116 49.9062C137.705 50.299 137.164 50.6336 136.493 50.91C135.821 51.1719 135.068 51.3028 134.232 51.3028C133.396 51.3028 132.643 51.1719 131.972 50.91C131.3 50.6481 130.759 50.3136 130.348 49.9062C129.951 49.4844 129.602 49.0188 129.3 48.5097C128.999 48.0005 128.78 47.4986 128.643 47.004C128.506 46.4949 128.396 46.0366 128.314 45.6293C128.245 45.2074 128.204 44.8656 128.19 44.6037ZM132.732 44.2109C132.732 44.2691 132.732 44.3564 132.732 44.4728C132.732 44.5746 132.753 44.7637 132.794 45.0401C132.848 45.3165 132.917 45.5638 132.999 45.782C133.095 45.9857 133.246 46.1748 133.451 46.3494C133.67 46.524 133.931 46.6112 134.232 46.6112C134.534 46.6112 134.787 46.5312 134.993 46.3712C135.212 46.1966 135.369 45.993 135.465 45.7602C135.561 45.5275 135.63 45.2947 135.671 45.0619C135.725 44.8292 135.753 44.6255 135.753 44.451V44.2109V24.8556C135.753 24.7829 135.753 24.6956 135.753 24.5938C135.753 24.4919 135.725 24.3028 135.671 24.0264C135.63 23.7355 135.561 23.4882 135.465 23.2845C135.369 23.0663 135.212 22.8699 134.993 22.6953C134.787 22.5208 134.534 22.4335 134.232 22.4335C133.753 22.4335 133.39 22.6371 133.143 23.0445C132.896 23.4372 132.766 23.8373 132.753 24.2446L132.732 24.8556V44.2109Z" fill="#FFFFFF" fill-opacity="1"/>
<path d="M146.969 50.9539V46.0005H151.387V50.9539H146.969Z" fill="#FFFFFF" fill-opacity="1"/>
<path d="M49.1146 78.0686H51.3487L53.6654 64.5035H51.4935L50.3764 71.9597L50.2937 72.5318H50.1696L50.0868 71.9597L48.9698 64.5035H46.7979L49.1146 78.0686Z" fill="#FFFFFF" fill-opacity="1"/>
<path d="M59.0149 78.0686H64.1242V76.02H61.2489V72.2919H63.3175V70.1141H61.2489V66.5521H64.1242V64.5035H59.0149V78.0686Z" fill="#FFFFFF" fill-opacity="1"/>
<path d="M69.7018 78.0686H71.7497V70.3725H71.8738L72.06 71L74.232 78.0686H76.2178V64.5035H74.1699V72.1996H74.0458L73.8596 71.5721L71.6877 64.5035H69.7018V78.0686Z" fill="#FFFFFF" fill-opacity="1"/>
<path d="M83.5307 78.0686H85.7648V66.5521H87.8747V64.5035H81.4208V66.5521H83.5307V78.0686Z" fill="#FFFFFF" fill-opacity="1"/>
<path d="M96.0539 78.2162C96.9364 78.2162 97.6466 77.9548 98.1845 77.4318C98.7223 76.9028 99.005 76.1861 99.0326 75.2817V64.5035H96.7985V75.2817C96.7985 75.5893 96.733 75.8323 96.602 76.0107C96.471 76.1892 96.2883 76.2784 96.0539 76.2784C95.8194 76.2784 95.6367 76.1892 95.5057 76.0107C95.3747 75.8323 95.3092 75.5893 95.3092 75.2817V64.5035H93.0751V75.2817C93.1165 76.1922 93.4027 76.9089 93.9336 77.4318C94.4645 77.9548 95.1713 78.2162 96.0539 78.2162Z" fill="#FFFFFF" fill-opacity="1"/>
<path d="M105.015 78.0686H107.249V72.3473H107.849L109.007 78.0686H111.241L109.814 71.4983C110.641 70.9877 111.055 69.9603 111.055 68.4162C111.055 65.8078 109.786 64.5035 107.249 64.5035H105.015V78.0686ZM107.249 70.5017V66.4783C107.821 66.4783 108.239 66.6413 108.501 66.9674C108.769 67.2873 108.904 67.7948 108.904 68.49C108.904 69.1852 108.769 69.6958 108.501 70.0218C108.239 70.3417 107.821 70.5017 107.249 70.5017Z" fill="#FFFFFF" fill-opacity="1"/>
<path d="M116.833 78.0686H121.943V76.02H119.067V72.2919H121.136V70.1141H119.067V66.5521H121.943V64.5035H116.833V78.0686Z" fill="#FFFFFF" fill-opacity="1"/>
<path d="M130.313 78.2162C131.326 78.2162 132.095 77.9332 132.619 77.3673C133.15 76.8013 133.416 75.9769 133.416 74.8942C133.416 74.2974 133.257 73.673 132.94 73.0209C132.623 72.3688 132.085 71.566 131.326 70.6124C130.657 69.7696 130.196 69.1206 129.94 68.6653C129.692 68.2101 129.568 67.801 129.568 67.438C129.568 66.6075 129.823 66.1892 130.333 66.183C130.926 66.1707 131.223 66.8228 131.223 68.1393L133.416 67.9548C133.416 66.7859 133.143 65.8908 132.598 65.2695C132.061 64.642 131.292 64.3374 130.292 64.3559C129.43 64.3682 128.727 64.6696 128.182 65.2602C127.644 65.8447 127.375 66.6014 127.375 67.5303C127.375 68.5577 127.975 69.865 129.175 71.4522C129.644 72.0674 130.013 72.5657 130.282 72.9471C130.558 73.3285 130.761 73.6392 130.892 73.8791C131.03 74.1129 131.119 74.319 131.161 74.4974C131.202 74.6758 131.223 74.8696 131.223 75.0787C131.223 75.9523 130.92 76.3891 130.313 76.3891C129.947 76.3891 129.678 76.2076 129.506 75.8446C129.341 75.4755 129.258 74.888 129.258 74.0821L127.065 74.2667C126.962 76.8997 128.044 78.2162 130.313 78.2162Z" fill="#FFFFFF" fill-opacity="1"/>
</svg>
