<svg width="195" height="88" viewBox="0 0 195 88" fill="none" xmlns="http://www.w3.org/2000/svg">
<path d="M49.7375 34.7315H53.2108L60.0636 54.0367H56.4964L55.0883 50.0741H47.8601L46.452 54.0367H42.8848L49.7375 34.7315ZM51.4272 39.8118L48.9865 46.4162H53.7741L51.4272 39.8118Z" fill="#FFFFFF" fill-opacity="1"/>
<path d="M65.602 39.7103V41.2344C66.1652 40.6247 66.8223 40.1167 67.5733 39.8119C68.2304 39.507 68.9814 39.3038 69.8263 39.3038C71.516 39.3038 73.018 40.0151 74.2383 41.4376C75.4587 42.8601 76.0219 44.689 76.0219 46.8227C76.0219 48.9564 75.3648 50.6838 74.1445 52.1062C72.9241 53.5287 71.4221 54.24 69.7324 54.24C68.9814 54.24 68.2304 54.1384 67.5733 53.8336C66.9162 53.5287 66.2591 53.1223 65.602 52.4111V59.1171H62.3164V39.7103H65.602ZM69.0753 42.6568C68.0427 42.6568 67.1978 43.0633 66.4468 43.7745C65.7897 44.4858 65.4142 45.6034 65.4142 46.8227C65.4142 48.1436 65.7897 49.1597 66.4468 49.8709C67.1039 50.6838 68.0427 50.9886 69.0753 50.9886C70.1079 50.9886 70.9528 50.5821 71.6099 49.7693C72.267 48.9564 72.6425 47.9404 72.6425 46.7211C72.6425 45.5018 72.267 44.4858 71.6099 43.6729C70.9528 43.0633 70.1079 42.6568 69.0753 42.6568Z" fill="#FFFFFF" fill-opacity="1"/>
<path d="M81.936 39.7103V41.2344C82.4992 40.6247 83.1563 40.1167 83.9073 39.8119C84.5644 39.507 85.3154 39.3038 86.1603 39.3038C87.85 39.3038 89.352 40.0151 90.5723 41.4376C91.7927 42.8601 92.3559 44.689 92.3559 46.8227C92.3559 48.9564 91.6988 50.6838 90.4784 52.1062C89.2581 53.5287 87.7561 54.24 86.0664 54.24C85.3154 54.24 84.5644 54.1384 83.9073 53.8336C83.2502 53.5287 82.5931 53.1223 81.936 52.4111V59.1171H78.6504V39.7103H81.936ZM85.4093 42.6568C84.3767 42.6568 83.5318 43.0633 82.7808 43.7745C82.1237 44.4858 81.7482 45.6034 81.7482 46.8227C81.7482 48.1436 82.1237 49.1597 82.7808 49.8709C83.4379 50.6838 84.3767 50.9886 85.4093 50.9886C86.4419 50.9886 87.2867 50.5821 87.9439 49.7693C88.601 48.9564 88.9765 47.9404 88.9765 46.7211C88.9765 45.5018 88.601 44.4858 87.9439 43.6729C87.2867 43.0633 86.4419 42.6568 85.4093 42.6568Z" fill="#FFFFFF" fill-opacity="1"/>
<path d="M94.7031 34.2234H97.9887V54.0366H94.7031V34.2234Z" fill="#FFFFFF" fill-opacity="1"/>
<path d="M102.307 33.9188C102.87 33.9188 103.339 34.122 103.809 34.5284C104.278 35.0364 104.466 35.5445 104.466 36.1541C104.466 36.7637 104.278 37.3734 103.809 37.7798C103.433 38.2878 102.87 38.4911 102.307 38.4911C101.743 38.4911 101.18 38.2878 100.805 37.7798C100.335 37.2718 100.147 36.7637 100.147 36.0525C100.147 35.4429 100.335 34.9348 100.805 34.4268C101.18 34.122 101.649 33.9188 102.307 33.9188ZM100.617 39.7103H103.902V53.9352H100.617V39.7103Z" fill="#FFFFFF" fill-opacity="1"/>
<path d="M119.861 42.6568L117.139 44.2825C116.576 43.6729 116.106 43.2665 115.637 43.0633C115.168 42.8601 114.511 42.7585 113.853 42.7585C112.633 42.7585 111.601 43.1649 110.85 43.9777C110.099 44.7906 109.723 45.8066 109.723 47.0259C109.723 48.2452 110.099 49.2613 110.85 49.9725C111.601 50.6838 112.539 51.0902 113.76 51.0902C115.262 51.0902 116.388 50.5821 117.233 49.4645L119.861 51.395C118.453 53.4271 116.482 54.3416 113.853 54.3416C111.507 54.3416 109.723 53.6303 108.409 52.1062C107.095 50.5821 106.438 48.8548 106.438 46.9243C106.438 45.5018 106.719 44.2825 107.376 43.0633C108.033 41.9456 108.878 41.0311 110.005 40.3199C111.131 39.6087 112.445 39.3038 113.853 39.3038C115.168 39.3038 116.294 39.6087 117.421 40.1167C118.266 40.8279 119.11 41.6408 119.861 42.6568Z" fill="#FFFFFF" fill-opacity="1"/>
<path d="M131.595 39.7103H134.88V53.9351H131.595V52.4111C130.938 53.1223 130.28 53.5287 129.623 53.8335C128.966 54.1384 128.309 54.24 127.558 54.24C125.868 54.24 124.366 53.5287 123.146 52.1062C121.926 50.6837 121.269 48.9564 121.269 46.8227C121.269 44.5874 121.832 42.8601 123.052 41.4376C124.273 40.0151 125.681 39.3038 127.464 39.3038C128.309 39.3038 128.966 39.507 129.717 39.8119C130.374 40.1167 131.031 40.6247 131.595 41.2344V39.7103ZM128.121 42.6568C127.089 42.6568 126.244 43.0633 125.587 43.7745C124.93 44.5874 124.554 45.6034 124.554 46.8227C124.554 48.042 124.93 49.058 125.587 49.8709C126.244 50.6837 127.089 51.0902 128.121 51.0902C129.154 51.0902 129.999 50.6837 130.656 49.9725C131.313 49.1597 131.688 48.1436 131.688 46.9243C131.688 45.705 131.313 44.689 130.656 43.8761C130.093 43.0633 129.248 42.6568 128.121 42.6568Z" fill="#FFFFFF" fill-opacity="1"/>
<path d="M138.729 34.5284H142.014V39.812H143.986V42.8602H142.014V54.0369H138.729V42.8602H137.039V39.812H138.729V34.5284Z" fill="#FFFFFF" fill-opacity="1"/>
<path d="M145.676 39.7104H149.055V46.6197C149.055 47.9406 149.149 48.855 149.337 49.3631C149.525 49.8711 149.806 50.2775 150.182 50.5823C150.557 50.8872 151.027 50.9888 151.59 50.9888C152.153 50.9888 152.622 50.8872 152.998 50.5823C153.373 50.2775 153.655 49.8711 153.843 49.3631C154.03 48.9566 154.03 48.0422 154.03 46.7213V39.7104H157.316V45.7052C157.316 48.1438 157.128 49.8711 156.753 50.7855C156.283 51.9032 155.626 52.7161 154.781 53.3257C153.937 53.9353 152.81 54.2402 151.496 54.2402C150.088 54.2402 148.867 53.9353 148.023 53.2241C147.084 52.5129 146.521 51.4968 146.145 50.2775C145.864 49.3631 145.77 47.839 145.77 45.6036V39.7104H145.676Z" fill="#FFFFFF" fill-opacity="1"/>
<path d="M159.851 39.7103H162.667V41.5393C162.949 40.828 163.418 40.32 163.887 39.9135C164.357 39.5071 164.92 39.4055 165.577 39.4055C166.046 39.4055 166.422 39.5071 166.891 39.8119L165.859 42.8601C165.483 42.6569 165.201 42.5553 164.92 42.5553C164.451 42.5553 163.981 42.8601 163.606 43.5714C163.23 44.2826 163.042 45.6035 163.042 47.534V48.2453V54.0368H159.757L159.851 39.7103Z" fill="#FFFFFF" fill-opacity="1"/>
<path d="M181.723 47.9405H171.116C171.303 48.9565 171.679 49.7694 172.336 50.379C172.993 50.9886 173.838 51.2935 174.871 51.2935C176.091 51.2935 177.124 50.7854 178.062 49.871L180.878 51.2935C180.221 52.3095 179.376 53.1224 178.344 53.6304C177.405 54.1384 176.185 54.3417 174.871 54.3417C172.805 54.3417 171.116 53.6304 169.801 52.2079C168.487 50.7854 167.83 49.0581 167.83 46.9244C167.83 44.7907 168.487 42.9617 169.801 41.5393C171.116 40.1168 172.711 39.4055 174.683 39.4055C176.748 39.4055 178.438 40.1168 179.752 41.5393C181.066 42.9617 181.723 44.8923 181.723 47.2292V47.9405ZM178.438 45.0955C178.25 44.2826 177.781 43.673 177.124 43.165C176.466 42.6569 175.715 42.4537 174.871 42.4537C173.932 42.4537 173.181 42.7585 172.43 43.2666C171.961 43.5714 171.585 44.2826 171.21 45.0955H178.438Z" fill="#FFFFFF" fill-opacity="1"/>
<path d="M24.8607 34.7316C27.8646 34.7316 30.3053 37.3733 30.3053 40.6247C30.3053 43.8761 27.8646 46.5179 24.8607 46.5179C21.8567 46.5179 19.416 43.8761 19.416 40.6247C19.416 37.3733 21.8567 34.7316 24.8607 34.7316Z" fill="#FFFFFF" fill-opacity="1"/>
<path d="M37.909 40.3201C37.909 33.106 31.995 27.3145 25.4239 27.3145C18.7589 27.3145 12.751 32.6996 12.751 40.3201C12.751 48.855 19.0405 53.8337 25.2361 54.0369H25.1423H32.0889H36.4071H37.8152V40.2185C37.909 40.2185 37.909 40.3201 37.909 40.3201ZM17.914 40.6249C17.914 36.459 21.0118 33.106 24.8606 33.106C28.7094 33.106 31.8073 36.459 31.8073 40.6249C31.8073 44.7908 28.7094 48.1438 24.8606 48.1438C21.0118 48.1438 17.914 44.7908 17.914 40.6249Z" fill="#FFFFFF" fill-opacity="1"/>
</svg>
