<svg width="195" height="88" viewBox="0 0 195 88" fill="none" xmlns="http://www.w3.org/2000/svg">
<path d="M19.5573 37.6937C22.4594 37.6937 24.8119 35.3223 24.8119 32.397C24.8119 29.4716 22.4594 27.1002 19.5573 27.1002C16.6553 27.1002 14.3027 29.4716 14.3027 32.397C14.3027 35.3223 16.6553 37.6937 19.5573 37.6937Z" fill="#FFFFFF" fill-opacity="1"/>
<path d="M43.6233 37.6935H36.3457C35.4524 37.6935 34.7168 36.952 34.7168 36.0515V28.7155C34.7168 27.8151 35.4524 27.0735 36.3457 27.0735H43.6233C44.5166 27.0735 45.2523 27.8151 45.2523 28.7155V36.0515C45.2523 36.9784 44.5166 37.6935 43.6233 37.6935Z" fill="#FFFFFF" fill-opacity="1"/>
<path d="M24.8118 42.699H24.4966H16.5096C15.2747 42.699 14.2764 43.7054 14.2764 44.9501V53.3189V61.6613C14.2764 62.906 15.2747 63.9124 16.5096 63.9124H22.5786C23.8135 63.9124 24.8118 62.906 24.8118 61.6613V55.57C24.8118 54.3253 25.8102 53.3189 27.045 53.3189H32.7988C34.0337 53.3189 35.032 52.3126 35.032 51.0678V44.9501C35.032 43.7054 34.0337 42.699 32.7988 42.699H24.8118Z" fill="#FFFFFF" fill-opacity="1"/>
<path d="M65.1143 23.525H68.2145V42.0106H65.1143V23.525Z" fill="#FFFFFF" fill-opacity="1"/>
<path d="M71.5254 29.9074H74.6256V31.0992C75.335 30.1987 76.3596 29.6691 77.5419 29.6691C78.9081 29.6691 80.1429 30.3841 80.9837 31.5759C81.7719 30.4106 83.0067 29.6691 84.5568 29.6691C87.1053 29.6691 88.9969 31.7083 88.9969 34.3567V42.0104H85.8967V34.595C85.8967 33.4033 85.056 32.4499 83.9 32.4499C82.6389 32.4499 81.8244 33.4827 81.8244 34.7274V42.0104H78.7242V34.595C78.7242 33.4033 77.8835 32.4499 76.6749 32.4499C75.4401 32.4499 74.6519 33.4827 74.6519 34.7274V42.0104H71.5254V29.9074Z" fill="#FFFFFF" fill-opacity="1"/>
<path d="M91.8604 29.9074H94.9606V31.2051C95.9064 30.2517 97.1938 29.6691 98.7702 29.6691C102.002 29.6691 104.682 32.4498 104.682 35.9722C104.682 39.4945 102.002 42.2753 98.7702 42.2753C97.1938 42.2753 95.9064 41.6926 94.9606 40.7392V47.572H91.8604V29.9074ZM101.608 35.9722C101.608 34.0389 100.084 32.5028 98.1921 32.5028C96.3005 32.5028 94.7504 34.0389 94.7504 35.9722C94.7504 37.9055 96.3005 39.4415 98.1921 39.4415C100.084 39.415 101.608 37.879 101.608 35.9722Z" fill="#FFFFFF" fill-opacity="1"/>
<path d="M106.231 35.9722C106.231 32.4763 108.964 29.6691 112.59 29.6691C116.163 29.6691 118.921 32.4498 118.921 35.9722C118.921 39.4945 116.163 42.2753 112.59 42.2753C108.964 42.2488 106.231 39.468 106.231 35.9722ZM115.926 35.9722C115.926 34.0654 114.429 32.5823 112.59 32.5823C110.672 32.5823 109.174 34.0654 109.174 35.9722C109.174 37.879 110.672 39.3886 112.59 39.3886C114.429 39.3621 115.926 37.8525 115.926 35.9722Z" fill="#FFFFFF" fill-opacity="1"/>
<path d="M120.183 40.4479L121.917 38.3027C122.757 39.1767 123.861 39.7064 124.807 39.7064C125.752 39.7064 126.33 39.2032 126.33 38.5411C126.33 37.6936 125.358 37.4817 123.913 36.9785C122.048 36.3165 120.472 35.469 120.472 33.3503C120.472 30.8873 122.573 29.6426 124.885 29.6426C126.619 29.6426 128.091 30.3312 129.01 31.364L127.197 33.2179C126.514 32.5293 125.595 32.0526 124.78 32.0526C124.018 32.0526 123.519 32.4498 123.519 33.0855C123.519 33.9064 124.386 34.1448 125.779 34.595C127.565 35.2041 129.378 36.0251 129.378 38.4352C129.378 40.8981 127.486 42.2223 124.885 42.2223C122.836 42.2488 121.155 41.4013 120.183 40.4479Z" fill="#FFFFFF" fill-opacity="1"/>
<path d="M130.455 40.4479L132.189 38.3027C133.03 39.1767 134.133 39.7064 135.079 39.7064C136.025 39.7064 136.603 39.2032 136.603 38.5411C136.603 37.6936 135.631 37.4817 134.186 36.9785C132.32 36.3165 130.744 35.469 130.744 33.3503C130.744 30.8873 132.846 29.6426 135.158 29.6426C136.892 29.6426 138.363 30.3312 139.283 31.364L137.47 33.2179C136.787 32.5293 135.867 32.0526 135.053 32.0526C134.291 32.0526 133.792 32.4498 133.792 33.0855C133.792 33.9064 134.659 34.1448 136.051 34.595C137.838 35.2041 139.651 36.0251 139.651 38.4352C139.651 40.8981 137.759 42.2223 135.158 42.2223C133.109 42.2488 131.427 41.4013 130.455 40.4479Z" fill="#FFFFFF" fill-opacity="1"/>
<path d="M141.7 25.9614C141.7 24.955 142.541 24.1605 143.513 24.1605C144.511 24.1605 145.326 24.955 145.326 25.9614C145.326 26.9677 144.511 27.7622 143.513 27.7622C142.515 27.7622 141.7 26.9677 141.7 25.9614ZM141.989 29.9074H145.037V42.0104H141.989V29.9074Z" fill="#FFFFFF" fill-opacity="1"/>
<path d="M151.237 40.4478L151.159 42.0104H148.269V23.5248H151.369V31.2845C152.288 30.1722 153.733 29.616 155.205 29.616C158.568 29.616 161.221 32.4233 161.221 35.9456C161.221 39.468 158.568 42.2752 155.205 42.2752C153.549 42.2487 152.131 41.5866 151.237 40.4478ZM158.121 35.9456C158.121 33.9593 156.623 32.4233 154.679 32.4233C152.761 32.4233 151.237 33.9593 151.237 35.9456C151.237 37.9319 152.761 39.4944 154.679 39.4944C156.623 39.4944 158.121 37.9319 158.121 35.9456Z" fill="#FFFFFF" fill-opacity="1"/>
<path d="M163.638 23.5248H166.712V42.0104H163.638V23.5248Z" fill="#FFFFFF" fill-opacity="1"/>
<path d="M181.688 36.5018H172.229C172.466 38.4616 173.858 39.7329 175.619 39.7329C176.88 39.7329 178.062 39.0972 178.693 37.9849L181.162 39.0178C180.19 41.0041 178.167 42.2488 175.645 42.2488C171.835 42.2488 169.208 39.468 169.208 35.9457C169.208 32.4234 171.888 29.6426 175.54 29.6426C179.008 29.6426 181.661 32.1056 181.714 35.8133L181.688 36.5018ZM172.545 34.1448H178.43C177.931 32.9266 176.985 32.1585 175.566 32.1585C174.095 32.132 173.07 32.9001 172.545 34.1448Z" fill="#FFFFFF" fill-opacity="1"/>
<path d="M65.1143 47.0157H76.543V50.1408H68.2145V54.696H75.5972V57.8211H68.2145V65.5013H65.1143V47.0157Z" fill="#FFFFFF" fill-opacity="1"/>
<path d="M78.5137 49.452C78.5137 48.4456 79.3544 47.6511 80.3265 47.6511C81.3249 47.6511 82.1394 48.4456 82.1394 49.452C82.1394 50.4583 81.3249 51.2528 80.3265 51.2528C79.3281 51.2528 78.5137 50.4583 78.5137 49.452ZM78.8027 53.398H81.8504V65.5011H78.8027V53.398Z" fill="#FFFFFF" fill-opacity="1"/>
<path d="M85.0819 53.3983H88.1559V54.5106C89.0229 53.6367 90.1526 53.16 91.3612 53.16C93.7783 53.16 95.67 55.1462 95.67 57.6887V65.5279H92.5698V58.0859C92.5698 56.8147 91.6239 55.9143 90.3891 55.9143C89.1017 55.9143 88.1559 56.8412 88.1296 58.0859V65.5279H85.0557V53.3983H85.0819Z" fill="#FFFFFF" fill-opacity="1"/>
<path d="M97.8242 59.4369C97.8242 55.941 100.53 53.1073 103.762 53.1073C105.47 53.1073 106.783 53.7429 107.677 54.7758V53.3986H110.777V65.5017H107.887L107.808 63.9391C106.915 65.0779 105.549 65.74 103.762 65.74C100.504 65.74 97.8242 62.9592 97.8242 59.4369ZM107.755 59.4369C107.755 57.5036 106.258 55.9675 104.34 55.9675C102.422 55.9675 100.898 57.5036 100.898 59.4369C100.898 61.3702 102.396 62.9327 104.34 62.9327C106.258 62.9063 107.755 61.3437 107.755 59.4369Z" fill="#FFFFFF" fill-opacity="1"/>
<path d="M113.982 53.3983H117.056V54.5106C117.923 53.6367 119.053 53.16 120.262 53.16C122.679 53.16 124.57 55.1462 124.57 57.6887V65.5279H121.47V58.0859C121.47 56.8147 120.524 55.9143 119.289 55.9143C118.002 55.9143 117.056 56.8412 117.03 58.0859V65.5279H113.956V53.3983H113.982Z" fill="#FFFFFF" fill-opacity="1"/>
<path d="M126.725 59.4631C126.725 55.9672 129.457 53.16 133.083 53.16C133.976 53.16 134.869 53.3454 135.631 53.6896V57.159C135.027 56.4439 134.134 55.9937 133.083 55.9937C131.138 55.9937 129.693 57.5298 129.693 59.4631C129.693 61.3964 131.112 62.906 133.083 62.906C134.134 62.906 135.027 62.4557 135.631 61.7407V65.2365C134.869 65.5808 133.976 65.7662 133.083 65.7662C129.457 65.7397 126.725 62.9589 126.725 59.4631Z" fill="#FFFFFF" fill-opacity="1"/>
<path d="M149.923 59.993H140.465C140.701 61.9528 142.094 63.224 143.854 63.224C145.115 63.224 146.297 62.5884 146.928 61.4761L149.398 62.5089C148.426 64.4952 146.402 65.7399 143.88 65.7399C140.071 65.7399 137.443 62.9592 137.443 59.4368C137.443 55.9145 140.123 53.1337 143.775 53.1337C147.243 53.1337 149.897 55.5967 149.949 59.3044L149.923 59.993ZM140.754 57.6359H146.639C146.14 56.4177 145.194 55.6497 143.775 55.6497C142.33 55.6232 141.279 56.3912 140.754 57.6359Z" fill="#FFFFFF" fill-opacity="1"/>
</svg>
