<svg width="178" height="80" viewBox="0 0 178 80" fill="none" xmlns="http://www.w3.org/2000/svg">
<path d="M112.89 46.2383C111.076 46.2383 109.458 46.3941 108.037 46.7055C105.786 47.192 104.66 48.0095 104.66 49.1578H119.414V52.0773H101.382V49.1578C101.382 47.0753 102.802 45.5182 105.644 44.4867C107.742 43.7081 110.147 43.3189 112.857 43.3189C113.753 43.3189 114.518 43.0366 115.152 42.4722C115.808 41.8883 116.136 41.1974 116.136 40.3994C116.136 39.6014 115.808 38.9202 115.152 38.3557C114.518 37.7718 113.753 37.4799 112.857 37.4799H107.939C107.043 37.4799 106.267 37.7718 105.611 38.3557C104.977 38.9202 104.66 39.6014 104.66 40.3994H101.382C101.382 38.7645 102.016 37.3826 103.283 36.2537C104.551 35.1248 106.103 34.5604 107.939 34.5604H112.857C114.693 34.5604 116.245 35.1248 117.513 36.2537C118.78 37.3826 119.414 38.7645 119.414 40.3994C119.414 42.0343 118.78 43.4162 117.513 44.545C116.245 45.6739 114.704 46.2383 112.89 46.2383Z" fill="white"/>
<path d="M52.4358 46.6033H55.6899V47.3853C55.6899 47.8232 55.8417 48.1986 56.1454 48.5114C56.4708 48.8033 56.8613 48.9493 57.3169 48.9493H66.2656C66.6561 48.9493 67.0357 48.6469 67.4045 48.0422C67.7299 47.5 67.8926 47.0203 67.8926 46.6033C67.8926 46.1862 67.719 45.6962 67.3719 45.1331C67.0248 44.5492 66.6561 44.2573 66.2656 44.2573H57.3169C55.7332 44.2573 54.5075 43.7151 53.6398 42.6307C52.8371 41.6297 52.4358 40.3472 52.4358 38.7832C52.4358 37.3443 52.8697 36.0931 53.7374 35.0296C54.6486 33.8827 55.8417 33.3092 57.3169 33.3092H66.2656C67.6106 33.3092 68.7604 33.768 69.7149 34.6855C70.6694 35.6031 71.1467 36.7083 71.1467 38.0012V38.7832H67.8926V38.0012C67.8926 37.5633 67.7299 37.1984 67.4045 36.9064C67.1008 36.5936 66.7211 36.4372 66.2656 36.4372H57.3169C56.883 36.4372 56.5034 36.7187 56.178 37.2818C55.8526 37.824 55.6899 38.3245 55.6899 38.7832C55.6899 39.2212 55.8526 39.7008 56.178 40.2221C56.5251 40.8269 56.9047 41.1292 57.3169 41.1292H66.2656C67.8492 41.1292 69.0749 41.6714 69.9427 42.7558C70.7453 43.7568 71.1467 45.0393 71.1467 46.6033C71.1467 48.0422 70.7128 49.2934 69.845 50.3569C68.9339 51.5038 67.7407 52.0773 66.2656 52.0773H57.3169C55.9719 52.0773 54.8221 51.6185 53.8676 50.701C52.9131 49.7834 52.4358 48.6782 52.4358 47.3853V46.6033Z" fill="white"/>
<path d="M92.314 42.6933C92.314 45.3208 91.3703 47.5417 89.4829 49.3559C87.5956 51.1702 85.2852 52.0773 82.5518 52.0773C79.8184 52.0773 77.508 51.1702 75.6206 49.3559C73.7333 47.5417 72.7896 45.3208 72.7896 42.6933C72.7896 40.0657 73.7333 37.8448 75.6206 36.0306C77.508 34.2163 79.8184 33.3092 82.5518 33.3092C85.2852 33.3092 87.5956 34.2163 89.4829 36.0306C91.3703 37.8448 92.314 40.0657 92.314 42.6933ZM89.0599 42.6933C89.0599 40.9207 88.4308 39.4401 87.1726 38.2515C85.936 37.042 84.3958 36.4372 82.5518 36.4372C80.7078 36.4372 79.1567 37.042 77.8985 38.2515C76.6619 39.4401 76.0437 40.9207 76.0437 42.6933C76.0437 44.4658 76.6619 45.9568 77.8985 47.1663C79.1567 48.355 80.7078 48.9493 82.5518 48.9493C84.3958 48.9493 85.936 48.355 87.1726 47.1663C88.4308 45.9568 89.0599 44.4658 89.0599 42.6933Z" fill="white"/>
<path d="M93.9442 27.0532H97.1983V52.0773H93.9442V27.0532Z" fill="white"/>
<path d="M123.488 48.9493H126.742V52.0773H123.488V48.9493Z" fill="white"/>
<path d="M138.121 36.4372C136.277 36.4372 134.726 37.042 133.468 38.2515C132.231 39.4401 131.613 40.9207 131.613 42.6933V52.0773H128.359V42.6933C128.359 40.0657 129.303 37.8448 131.19 36.0306C133.078 34.2163 135.388 33.3092 138.121 33.3092C140.855 33.3092 143.165 34.2163 145.052 36.0306C146.94 37.8448 147.884 40.0657 147.884 42.6933V52.0773H144.629V42.6933C144.629 40.9207 144 39.4401 142.742 38.2515C141.506 37.042 139.965 36.4372 138.121 36.4372Z" fill="white"/>
<path d="M165.784 50.5133V52.0773H162.53V50.5133C162.53 48.7408 161.901 47.2602 160.643 46.0715C159.406 44.862 157.866 44.2573 156.022 44.2573H152.768V52.0773H149.514V27.0532H152.768V41.1292H156.022C157.866 41.1292 159.406 40.5349 160.643 39.3463C161.901 38.1368 162.53 36.6458 162.53 34.8732V33.3092H165.784V34.8732C165.784 38.2306 164.331 40.8373 161.424 42.6933C164.331 44.5492 165.784 47.1559 165.784 50.5133Z" fill="white"/>
<path d="M123.488 27.0532H126.742V47.3853L123.488 42.0677V27.0532Z" fill="white"/>
<path d="M26.8687 44.8927C27.0658 44.9884 27.2973 44.982 27.4888 44.8754C27.9632 44.6115 27.945 43.9231 27.4573 43.6846L16.9324 38.5379C15.5818 37.8775 15.6069 35.9439 16.9743 35.3188L15.3512 34.5663L13.0409 35.6155C12.5383 35.8438 12.2156 36.3448 12.2156 36.8968C12.2156 37.4357 12.5233 37.9272 13.0081 38.1626L26.8687 44.8927Z" fill="url(#paint0_linear_105_386)"/>
<path d="M26.435 30.6681C27.2678 30.2587 28.2432 30.2578 29.0767 30.6655L39.2227 35.6286C41.1022 36.548 43.2949 35.1796 43.2949 33.0873C43.2949 32.0209 42.6954 31.0452 41.7441 30.5634L29.0481 24.1331C28.2314 23.7194 27.2704 23.7013 26.4387 24.084L13.346 30.1079C12.657 30.4249 12.2156 31.114 12.2156 31.8724C12.2156 32.6287 12.6547 33.3163 13.3409 33.6345L15.3512 34.5663L16.9743 35.3188L36.905 44.5581L38.4691 43.7949L18.4702 34.5834L16.8369 33.8311L13.9383 32.496C13.7018 32.387 13.5503 32.1504 13.5503 31.89C13.5503 31.6287 13.7028 31.3915 13.9405 31.283L26.4532 25.5749C27.2768 25.1992 28.226 25.2154 29.0362 25.6192L40.9334 31.5471C41.4457 31.8023 41.7696 32.3255 41.7696 32.898C41.7696 34.0157 40.597 34.7456 39.594 34.2522L29.0835 29.0815C28.2462 28.6696 27.2649 28.6708 26.4286 29.0846L16.8369 33.8311L18.4702 34.5834L26.435 30.6681Z" fill="url(#paint1_linear_105_386)"/>
<path d="M41.3455 46.6166C41.6041 46.7365 41.7696 46.9956 41.7696 47.2807C41.7696 47.5658 41.604 47.825 41.3452 47.9449L29.0628 53.6325C28.2363 54.0152 27.2807 54.0017 26.4653 53.5958L14.3905 47.585C13.8757 47.3288 13.5503 46.8032 13.5503 46.2282C13.5503 45.1093 14.7211 44.3762 15.7276 44.8647L26.4325 50.0604C27.2669 50.4653 28.2417 50.4616 29.073 50.0502L38.5915 45.3399L40.1496 44.5689L42.5032 43.4043C42.9881 43.1643 43.2949 42.6701 43.2949 42.129C43.2949 41.5875 42.9875 41.0929 42.5019 40.8532L28.9953 34.1852C28.7563 34.0673 28.4745 34.0753 28.2427 34.2067C27.6762 34.5276 27.7058 35.3534 28.2938 35.633L38.5488 40.5088C39.8821 41.1427 39.9259 43.0243 38.6235 43.7196L38.4691 43.7949L36.905 44.5581L29.0494 48.3914C28.2313 48.7906 27.2762 48.7968 26.453 48.4082L16.2366 43.5849C14.3673 42.7024 12.2156 44.066 12.2156 46.1331C12.2156 47.2001 12.8181 48.1755 13.7722 48.653L26.4671 55.0074C27.2814 55.415 28.2367 55.4307 29.0639 55.0501L42.166 49.0218C42.8541 48.7053 43.2949 48.0172 43.2949 47.2598C43.2949 46.5027 42.8544 45.8148 42.1668 45.4981L40.1496 44.5689L38.5915 45.3399L41.3455 46.6166Z" fill="url(#paint2_linear_105_386)"/>
<path d="M18.4702 34.5834L26.435 30.6681C27.2678 30.2587 28.2432 30.2578 29.0767 30.6655L39.2227 35.6286C41.1022 36.548 43.2949 35.1796 43.2949 33.0873V33.0873C43.2949 32.0209 42.6954 31.0452 41.7441 30.5634L29.0481 24.1331C28.2314 23.7194 27.2704 23.7013 26.4387 24.084L13.346 30.1079C12.657 30.4249 12.2156 31.114 12.2156 31.8724V31.8724C12.2156 32.6287 12.6547 33.3163 13.3409 33.6345L15.3512 34.5663M18.4702 34.5834L16.8369 33.8311M18.4702 34.5834L38.4691 43.7949M15.3512 34.5663L13.0409 35.6155C12.5383 35.8438 12.2156 36.3448 12.2156 36.8968V36.8968C12.2156 37.4357 12.5233 37.9272 13.0081 38.1626L26.8687 44.8927C27.0658 44.9884 27.2973 44.982 27.4888 44.8754V44.8754C27.9632 44.6115 27.945 43.9231 27.4573 43.6846L16.9324 38.5379C15.5818 37.8775 15.6069 35.9439 16.9743 35.3188V35.3188M15.3512 34.5663L16.9743 35.3188M16.8369 33.8311L13.9383 32.496C13.7018 32.387 13.5503 32.1504 13.5503 31.89V31.89C13.5503 31.6287 13.7028 31.3915 13.9405 31.283L26.4532 25.5749C27.2768 25.1992 28.226 25.2154 29.0362 25.6192L40.9334 31.5471C41.4457 31.8023 41.7696 32.3255 41.7696 32.898V32.898C41.7696 34.0157 40.597 34.7456 39.594 34.2522L29.0835 29.0815C28.2462 28.6696 27.2649 28.6708 26.4286 29.0846L16.8369 33.8311ZM16.9743 35.3188L36.905 44.5581M36.905 44.5581L38.4691 43.7949M36.905 44.5581L29.0494 48.3914C28.2313 48.7906 27.2762 48.7968 26.453 48.4082L16.2366 43.5849C14.3673 42.7024 12.2156 44.066 12.2156 46.1331V46.1331C12.2156 47.2001 12.8181 48.1755 13.7722 48.653L26.4671 55.0074C27.2814 55.415 28.2367 55.4307 29.0639 55.0501L42.166 49.0218C42.8541 48.7053 43.2949 48.0172 43.2949 47.2598V47.2598C43.2949 46.5027 42.8544 45.8148 42.1668 45.4981L40.1496 44.5689M38.4691 43.7949L38.6235 43.7196V43.7196C39.9259 43.0243 39.8821 41.1427 38.5488 40.5088L28.2938 35.633C27.7058 35.3534 27.6762 34.5276 28.2427 34.2067V34.2067C28.4745 34.0753 28.7563 34.0673 28.9953 34.1852L42.5019 40.8532C42.9875 41.0929 43.2949 41.5875 43.2949 42.129V42.129C43.2949 42.6701 42.9881 43.1643 42.5032 43.4043L40.1496 44.5689M40.1496 44.5689L38.5915 45.3399M38.5915 45.3399L29.073 50.0502C28.2417 50.4616 27.2669 50.4653 26.4325 50.0604L15.7276 44.8647C14.7211 44.3762 13.5503 45.1093 13.5503 46.2282V46.2282C13.5503 46.8032 13.8757 47.3287 14.3905 47.585L26.4653 53.5958C27.2807 54.0017 28.2363 54.0152 29.0628 53.6325L41.3452 47.9449C41.604 47.825 41.7696 47.5658 41.7696 47.2807V47.2807C41.7696 46.9956 41.6041 46.7365 41.3455 46.6166L38.5915 45.3399Z" stroke="url(#paint3_linear_105_386)" stroke-width="0.4"/>
<defs>
<linearGradient id="paint0_linear_105_386" x1="12.2156" y1="32.4155" x2="43.0372" y2="47.2505" gradientUnits="userSpaceOnUse">
<stop stop-color="#ECF251"/>
<stop offset="1" stop-color="#A9F04F"/>
</linearGradient>
<linearGradient id="paint1_linear_105_386" x1="12.2156" y1="32.4155" x2="43.0372" y2="47.2505" gradientUnits="userSpaceOnUse">
<stop stop-color="#ECF251"/>
<stop offset="1" stop-color="#A9F04F"/>
</linearGradient>
<linearGradient id="paint2_linear_105_386" x1="12.2156" y1="32.4155" x2="43.0372" y2="47.2505" gradientUnits="userSpaceOnUse">
<stop stop-color="#ECF251"/>
<stop offset="1" stop-color="#A9F04F"/>
</linearGradient>
<linearGradient id="paint3_linear_105_386" x1="12.2156" y1="32.4155" x2="43.0372" y2="47.2505" gradientUnits="userSpaceOnUse">
<stop stop-color="#ECF251"/>
<stop offset="1" stop-color="#A9F04F"/>
</linearGradient>
</defs>
</svg>
