<svg width="827" height="194" viewBox="0 0 827 194" fill="none" xmlns="http://www.w3.org/2000/svg">
<path d="M356.518 64.1597L421.705 6L433.156 16.4167L374.136 81.5208M356.518 64.1597L374.136 81.5208M356.518 64.1597L338.019 91.0694M374.136 81.5208L346.829 100.129M338.019 91.0694C326.568 86.7292 305.778 99.75 317.759 131M338.019 91.0694C342.831 93.6775 345.606 96.8684 346.829 100.129M317.759 131C318.64 127.238 322.768 117.979 332.734 117.979C342.339 117.979 350.081 108.807 346.829 100.129M317.759 131H377.66M387.35 131H404.968" stroke="#98A3AD" stroke-width="3"/>
<path d="M12.8983 74.5814V59.4914H73.258V74.5814M12.8983 74.5814L2 91.348V131.588H84.1563V91.348L73.258 74.5814M12.8983 74.5814H73.258M42.2398 5L30.7762 38L38 46.9165H47L53.7035 38L42.2398 5Z" stroke="#E6007A" stroke-width="3"/>
<path d="M18.1396 81.1691L24.1853 88.7262" stroke="#E6007A" stroke-width="3"/>
<path d="M9.07129 125L15.1169 117.443" stroke="#E6007A" stroke-width="3"/>
<path d="M68.0166 81.1691L61.971 88.7262" stroke="#E6007A" stroke-width="3"/>
<path d="M77.084 125L71.0383 117.443" stroke="#E6007A" stroke-width="3"/>
<path d="M663 58.5862V131H772V5H717.5M663 58.5862L717.5 5M663 58.5862H717.5V5M678.26 71.6207H715.32M678.26 81.7586H732.76M678.26 91.1724H732.76M678.26 102.034H732.76" stroke="#B4BE68" stroke-width="3"/>
<path d="M751.735 97.1881C744.496 97.1881 738.604 103.083 738.604 110.319C738.604 117.555 744.499 123.449 751.735 123.449C758.971 123.449 764.866 117.555 764.866 110.319C764.866 103.083 758.971 97.1881 751.735 97.1881ZM751.716 98.3547C751.94 98.3605 752.153 98.4541 752.31 98.6155C752.467 98.7769 752.555 98.9933 752.554 99.2186C752.554 99.4477 752.463 99.6675 752.301 99.8295C752.139 99.9915 751.92 100.083 751.691 100.083C751.461 100.083 751.242 99.9915 751.08 99.8295C750.918 99.6675 750.827 99.4477 750.827 99.2186C750.827 99.103 750.85 98.9886 750.895 98.8821C750.94 98.7757 751.006 98.6793 751.089 98.5987C751.171 98.5182 751.27 98.4551 751.377 98.4132C751.485 98.3713 751.6 98.3514 751.716 98.3547ZM753.693 99.777C755.21 100.061 756.647 100.672 757.903 101.567C759.16 102.462 760.207 103.62 760.971 104.96L759.952 107.26C759.777 107.658 759.957 108.124 760.352 108.302L762.313 109.171C762.374 109.784 762.381 110.402 762.335 111.016H761.243C761.135 111.016 761.091 111.088 761.091 111.194V111.694C761.091 112.871 760.427 113.13 759.843 113.194C759.288 113.258 758.674 112.96 758.596 112.621C758.268 110.78 757.724 110.388 756.863 109.708C757.932 109.03 759.043 108.027 759.043 106.688C759.043 105.241 758.052 104.33 757.377 103.883C756.427 103.258 755.377 103.133 755.093 103.133H743.816C745.375 101.39 747.465 100.211 749.763 99.777L751.093 101.171C751.393 101.485 751.891 101.499 752.204 101.196L753.693 99.777ZM741.416 106.171C741.64 106.178 741.854 106.272 742.01 106.433C742.167 106.594 742.255 106.81 742.254 107.035C742.254 107.264 742.163 107.484 742.001 107.646C741.839 107.808 741.62 107.899 741.391 107.899C741.161 107.899 740.942 107.808 740.78 107.646C740.618 107.484 740.527 107.264 740.527 107.035C740.527 106.92 740.55 106.805 740.595 106.699C740.64 106.592 740.706 106.496 740.789 106.415C740.871 106.335 740.97 106.272 741.077 106.23C741.185 106.188 741.3 106.168 741.416 106.171ZM762.013 106.21C762.238 106.217 762.451 106.311 762.608 106.472C762.764 106.633 762.852 106.849 762.852 107.074C762.852 107.303 762.761 107.523 762.599 107.685C762.437 107.847 762.217 107.938 761.988 107.938C761.759 107.938 761.539 107.847 761.377 107.685C761.215 107.523 761.124 107.303 761.124 107.074C761.124 106.959 761.147 106.844 761.192 106.738C761.237 106.631 761.303 106.535 761.386 106.454C761.469 106.374 761.567 106.311 761.675 106.269C761.782 106.227 761.897 106.207 762.013 106.21ZM743.043 106.349H744.549V113.138H741.51C741.135 111.82 741.018 110.442 741.166 109.08L743.027 108.252C743.424 108.074 743.604 107.61 743.427 107.213L743.043 106.349ZM749.327 106.421H752.913C753.099 106.421 754.221 106.635 754.221 107.477C754.221 108.174 753.36 108.424 752.652 108.424H749.324L749.327 106.421ZM749.327 111.299H752.074C752.324 111.299 753.416 111.371 753.763 112.766C753.871 113.194 754.113 114.588 754.277 115.035C754.441 115.535 755.104 116.535 755.813 116.535H760.296C759.996 116.938 759.667 117.318 759.313 117.674L757.488 117.283C757.063 117.191 756.643 117.463 756.552 117.888L756.118 119.91C754.725 120.542 753.212 120.865 751.682 120.857C750.152 120.85 748.642 120.513 747.254 119.869L746.821 117.846C746.729 117.421 746.313 117.149 745.888 117.241L744.102 117.624C743.77 117.282 743.462 116.918 743.179 116.535H751.866C751.963 116.535 752.029 116.519 752.029 116.427V113.355C752.029 113.266 751.963 113.246 751.866 113.246H749.324L749.327 111.299ZM745.318 118.335C745.543 118.342 745.757 118.436 745.913 118.597C746.07 118.758 746.157 118.974 746.157 119.199C746.157 119.428 746.066 119.648 745.904 119.81C745.742 119.972 745.522 120.063 745.293 120.063C745.064 120.063 744.845 119.972 744.683 119.81C744.521 119.648 744.429 119.428 744.429 119.199C744.429 119.084 744.453 118.969 744.498 118.863C744.543 118.756 744.608 118.66 744.691 118.579C744.774 118.499 744.872 118.436 744.98 118.394C745.088 118.352 745.203 118.332 745.318 118.335ZM758.11 118.374C758.335 118.381 758.548 118.475 758.705 118.636C758.861 118.797 758.949 119.013 758.949 119.238C758.949 119.467 758.858 119.687 758.696 119.849C758.534 120.011 758.314 120.102 758.085 120.102C757.856 120.102 757.636 120.011 757.474 119.849C757.312 119.687 757.221 119.467 757.221 119.238C757.221 119.122 757.244 119.008 757.289 118.902C757.334 118.795 757.4 118.699 757.483 118.618C757.566 118.538 757.664 118.475 757.772 118.433C757.879 118.391 757.995 118.371 758.11 118.374Z" fill="#B4BE68"/>
<path fill-rule="evenodd" clip-rule="evenodd" d="M764.133 110.319C764.133 113.607 762.827 116.76 760.502 119.085C758.177 121.41 755.024 122.716 751.736 122.716C748.448 122.716 745.295 121.41 742.97 119.085C740.645 116.76 739.339 113.607 739.339 110.319C739.339 107.031 740.645 103.877 742.97 101.552C745.295 99.2275 748.448 97.9214 751.736 97.9214C755.024 97.9214 758.177 99.2275 760.502 101.552C762.827 103.877 764.133 107.031 764.133 110.319ZM763.9 109.121L765.833 110.319L763.9 111.516L765.561 113.069L763.433 113.866L764.761 115.713L762.514 116.08L763.458 118.152L761.183 118.071L761.705 120.288L759.489 119.766L759.569 122.041L757.497 121.096L757.13 123.344L755.283 122.016L754.486 124.144L752.933 122.483L751.736 124.416L750.539 122.483L748.986 124.144L748.189 122.016L746.341 123.344L745.975 121.096L743.903 122.041L743.983 119.766L741.766 120.288L742.289 118.071L740.014 118.152L740.958 116.08L738.711 115.713L740.039 113.866L737.911 113.069L739.572 111.516L737.639 110.319L739.572 109.121L737.911 107.569L740.039 106.771L738.711 104.924L740.958 104.558L740.014 102.485L742.289 102.566L741.766 100.349L743.983 100.871L743.903 98.5964L745.975 99.5408L746.341 97.2936L748.189 98.6214L748.986 96.4936L750.539 98.1547L751.736 96.2214L752.933 98.1547L754.486 96.4936L755.283 98.6214L757.13 97.2936L757.497 99.5408L759.569 98.5964L759.489 100.871L761.705 100.349L761.183 102.566L763.458 102.485L762.514 104.558L764.761 104.924L763.433 106.771L765.561 107.569L763.9 109.121Z" fill="#B4BE68" stroke="#B4BE68" stroke-width="0.5" stroke-linecap="round" stroke-linejoin="round"/>
<path d="M569 60.5862H526" stroke="#98A3AD" stroke-width="3"/>
<path d="M569 75.4138L526 75.4138" stroke="#98A3AD" stroke-width="3"/>
<path d="M198.747 47V90" stroke="#98A3AD" stroke-width="3"/>
<path d="M220 68.2529H177" stroke="#98A3AD" stroke-width="3"/>
<path d="M19.775 178.75H15.175V176.1H22.725V185.35H27.325V188H19.775V178.75ZM21 173.95C20.4333 173.95 19.9583 173.758 19.575 173.375C19.1917 172.992 19 172.517 19 171.95C19 171.383 19.1917 170.908 19.575 170.525C19.9583 170.142 20.4333 169.95 21 169.95C21.5667 169.95 22.0417 170.142 22.425 170.525C22.8083 170.908 23 171.383 23 171.95C23 172.517 22.8083 172.992 22.425 173.375C22.0417 173.758 21.5667 173.95 21 173.95ZM30.527 176.1H32.702L32.952 177.125C33.5686 176.675 34.1936 176.342 34.827 176.125C35.4603 175.908 36.127 175.8 36.827 175.8C38.227 175.8 39.302 176.2 40.052 177C40.802 177.783 41.177 178.908 41.177 180.375V188H38.227V180.825C38.227 179.975 38.0603 179.375 37.727 179.025C37.4103 178.675 36.852 178.5 36.052 178.5C35.1853 178.5 34.327 178.725 33.477 179.175V188H30.527V176.1ZM45.0289 170.25H47.9789V181.15L53.0039 176.1H56.8039L51.8289 180.875L56.9289 188H53.3039L49.7039 182.925L47.9789 184.6V188H45.0289V170.25ZM62.9309 173.55V171.75H66.5809V173.55L65.0559 182.2H64.4559L62.9309 173.55ZM64.7559 188.3C64.1892 188.3 63.7142 188.108 63.3309 187.725C62.9475 187.342 62.7559 186.867 62.7559 186.3C62.7559 185.733 62.9475 185.258 63.3309 184.875C63.7142 184.492 64.1892 184.3 64.7559 184.3C65.3225 184.3 65.7975 184.492 66.1809 184.875C66.5642 185.258 66.7559 185.733 66.7559 186.3C66.7559 186.867 66.5642 187.342 66.1809 187.725C65.7975 188.108 65.3225 188.3 64.7559 188.3Z" fill="#E6007A"/>
<path d="M315.25 188.3C313.167 188.3 311.592 187.592 310.525 186.175C309.475 184.742 308.95 182.642 308.95 179.875C308.95 177.108 309.475 175.017 310.525 173.6C311.592 172.167 313.167 171.45 315.25 171.45C317.333 171.45 318.9 172.167 319.95 173.6C321.017 175.017 321.55 177.108 321.55 179.875C321.55 182.642 321.017 184.742 319.95 186.175C318.9 187.592 317.333 188.3 315.25 188.3ZM315.25 185.5C317.417 185.5 318.5 183.625 318.5 179.875C318.5 176.125 317.417 174.25 315.25 174.25C313.083 174.25 312 176.125 312 179.875C312 183.625 313.083 185.5 315.25 185.5ZM324.402 176.1H326.577L326.827 177.1C328.06 176.233 329.319 175.8 330.602 175.8C331.635 175.8 332.535 176.058 333.302 176.575C334.085 177.075 334.685 177.8 335.102 178.75C335.519 179.683 335.727 180.783 335.727 182.05C335.727 183.317 335.519 184.425 335.102 185.375C334.685 186.308 334.085 187.033 333.302 187.55C332.535 188.05 331.635 188.3 330.602 188.3C329.469 188.3 328.385 187.975 327.352 187.325V193.25H324.402V176.1ZM329.852 185.6C331.785 185.6 332.752 184.417 332.752 182.05C332.752 179.683 331.785 178.5 329.852 178.5C329.019 178.5 328.185 178.725 327.352 179.175V184.925C328.185 185.375 329.019 185.6 329.852 185.6ZM344.929 188.3C342.862 188.3 341.237 187.742 340.054 186.625C338.871 185.508 338.279 183.983 338.279 182.05C338.279 180.817 338.529 179.725 339.029 178.775C339.546 177.825 340.271 177.092 341.204 176.575C342.137 176.058 343.204 175.8 344.404 175.8C345.571 175.8 346.596 176.05 347.479 176.55C348.362 177.033 349.046 177.725 349.529 178.625C350.012 179.508 350.254 180.533 350.254 181.7C350.254 182.2 350.212 182.658 350.129 183.075H341.279C341.596 184.892 342.821 185.8 344.954 185.8C345.604 185.8 346.221 185.708 346.804 185.525C347.404 185.342 348.012 185.05 348.629 184.65L349.729 186.825C348.946 187.342 348.171 187.717 347.404 187.95C346.654 188.183 345.829 188.3 344.929 188.3ZM347.354 180.85C347.221 180.017 346.896 179.383 346.379 178.95C345.879 178.517 345.212 178.3 344.379 178.3C343.562 178.3 342.887 178.517 342.354 178.95C341.837 179.383 341.487 180.017 341.304 180.85H347.354ZM353.531 176.1H355.706L355.956 177.125C356.573 176.675 357.198 176.342 357.831 176.125C358.464 175.908 359.131 175.8 359.831 175.8C361.231 175.8 362.306 176.2 363.056 177C363.806 177.783 364.181 178.908 364.181 180.375V188H361.231V180.825C361.231 179.975 361.064 179.375 360.731 179.025C360.414 178.675 359.856 178.5 359.056 178.5C358.189 178.5 357.331 178.725 356.481 179.175V188H353.531V176.1ZM367.908 171.75H373.733C375.466 171.75 376.758 172.1 377.608 172.8C378.458 173.483 378.883 174.525 378.883 175.925C378.883 176.842 378.699 177.592 378.333 178.175C377.966 178.758 377.391 179.183 376.608 179.45V179.5C377.524 179.767 378.208 180.225 378.658 180.875C379.108 181.525 379.333 182.383 379.333 183.45C379.333 186.483 377.574 188 374.058 188H367.908V171.75ZM373.183 178.275C374.149 178.275 374.833 178.125 375.233 177.825C375.649 177.525 375.858 177.025 375.858 176.325C375.858 175.675 375.674 175.208 375.308 174.925C374.958 174.642 374.358 174.5 373.508 174.5H370.933V178.275H373.183ZM373.808 185.25C374.674 185.25 375.299 185.092 375.683 184.775C376.083 184.442 376.283 183.917 376.283 183.2C376.283 182.433 376.058 181.883 375.608 181.55C375.174 181.2 374.466 181.025 373.483 181.025H370.933V185.25H373.808ZM383.235 176.1H385.535L385.835 177.75C386.451 177.083 387.118 176.592 387.835 176.275C388.551 175.958 389.36 175.8 390.26 175.8C391.476 175.8 392.526 176.117 393.41 176.75L392.31 179.3C391.576 178.783 390.801 178.525 389.985 178.525C389.268 178.525 388.601 178.692 387.985 179.025C387.368 179.358 386.768 179.875 386.185 180.575V188H383.235V176.1ZM401.187 188.3C399.787 188.3 398.712 187.908 397.962 187.125C397.212 186.325 396.837 185.192 396.837 183.725V176.1H399.787V183.275C399.787 184.125 399.945 184.725 400.262 185.075C400.595 185.425 401.162 185.6 401.962 185.6C402.828 185.6 403.687 185.375 404.537 184.925V176.1H407.487V188H405.312L405.062 186.975C404.445 187.425 403.82 187.758 403.187 187.975C402.553 188.192 401.887 188.3 401.187 188.3ZM416.664 188.3C414.43 188.3 412.522 187.808 410.939 186.825L412.014 184.525C413.314 185.375 414.889 185.8 416.739 185.8C418.455 185.8 419.314 185.392 419.314 184.575C419.314 184.242 419.222 184 419.039 183.85C418.855 183.7 418.522 183.6 418.039 183.55L415.289 183.225C414.022 183.075 413.08 182.725 412.464 182.175C411.864 181.608 411.564 180.8 411.564 179.75C411.564 178.483 412.014 177.508 412.914 176.825C413.83 176.142 415.139 175.8 416.839 175.8C418.705 175.8 420.414 176.2 421.964 177L421.014 179.35C420.43 179.017 419.772 178.758 419.039 178.575C418.305 178.392 417.555 178.3 416.789 178.3C416.005 178.3 415.43 178.4 415.064 178.6C414.697 178.783 414.514 179.083 414.514 179.5C414.514 179.817 414.605 180.05 414.789 180.2C414.989 180.35 415.322 180.45 415.789 180.5L418.539 180.825C419.805 180.975 420.739 181.333 421.339 181.9C421.955 182.467 422.264 183.275 422.264 184.325C422.264 185.608 421.78 186.592 420.814 187.275C419.864 187.958 418.48 188.3 416.664 188.3ZM426.041 170.25H428.991V176.775C430.024 176.125 431.141 175.8 432.341 175.8C433.741 175.8 434.816 176.2 435.566 177C436.316 177.783 436.691 178.908 436.691 180.375V188H433.741V180.825C433.741 179.975 433.574 179.375 433.241 179.025C432.924 178.675 432.366 178.5 431.566 178.5C430.699 178.5 429.841 178.725 428.991 179.175V188H426.041V170.25Z" fill="#98A3AD"/>
<path d="M615.835 188.3C613.452 188.3 611.452 187.625 609.835 186.275L611.36 183.85C612.61 184.95 614.127 185.5 615.91 185.5C616.877 185.5 617.61 185.325 618.11 184.975C618.61 184.608 618.86 184.083 618.86 183.4C618.86 182.867 618.719 182.467 618.435 182.2C618.169 181.917 617.702 181.692 617.035 181.525L614.41 180.875C613.06 180.542 612.06 180.017 611.41 179.3C610.777 178.567 610.46 177.592 610.46 176.375C610.46 174.842 610.969 173.642 611.985 172.775C613.002 171.892 614.427 171.45 616.26 171.45C618.244 171.45 620.002 171.992 621.535 173.075L620.11 175.55C619.044 174.683 617.76 174.25 616.26 174.25C615.344 174.25 614.652 174.417 614.185 174.75C613.719 175.083 613.485 175.575 613.485 176.225C613.485 176.708 613.619 177.083 613.885 177.35C614.169 177.617 614.644 177.833 615.31 178L617.935 178.65C619.302 178.983 620.302 179.517 620.935 180.25C621.569 180.983 621.885 181.983 621.885 183.25C621.885 184.833 621.352 186.075 620.285 186.975C619.219 187.858 617.735 188.3 615.835 188.3ZM624.337 176.1H626.087L626.312 177C627.162 176.2 628.079 175.8 629.062 175.8C630.096 175.8 630.854 176.2 631.337 177C632.137 176.2 633.021 175.8 633.987 175.8C634.837 175.8 635.504 176.075 635.987 176.625C636.487 177.158 636.737 177.892 636.737 178.825V188H634.187V179.175C634.187 178.858 634.104 178.633 633.937 178.5C633.787 178.35 633.546 178.275 633.212 178.275C632.696 178.275 632.229 178.458 631.812 178.825V188H629.262V179.175C629.262 178.858 629.179 178.633 629.012 178.5C628.862 178.35 628.621 178.275 628.287 178.275C627.787 178.275 627.321 178.45 626.887 178.8V188H624.337V176.1ZM643.714 188.3C642.264 188.3 641.131 187.967 640.314 187.3C639.514 186.617 639.114 185.667 639.114 184.45C639.114 183.283 639.498 182.392 640.264 181.775C641.048 181.158 642.173 180.85 643.639 180.85H647.364V180.625C647.364 179.792 647.164 179.2 646.764 178.85C646.364 178.483 645.698 178.3 644.764 178.3C643.298 178.3 641.931 178.667 640.664 179.4L639.789 177.025C641.339 176.208 643.106 175.8 645.089 175.8C646.889 175.8 648.206 176.175 649.039 176.925C649.889 177.675 650.314 178.85 650.314 180.45V188H648.139L647.889 186.975C647.239 187.425 646.573 187.758 645.889 187.975C645.223 188.192 644.498 188.3 643.714 188.3ZM644.339 185.8C645.473 185.8 646.481 185.55 647.364 185.05V183.075H643.914C643.281 183.075 642.823 183.183 642.539 183.4C642.256 183.6 642.114 183.917 642.114 184.35C642.114 184.85 642.289 185.217 642.639 185.45C643.006 185.683 643.573 185.8 644.339 185.8ZM654.966 176.1H657.266L657.566 177.75C658.183 177.083 658.85 176.592 659.566 176.275C660.283 175.958 661.091 175.8 661.991 175.8C663.208 175.8 664.258 176.117 665.141 176.75L664.041 179.3C663.308 178.783 662.533 178.525 661.716 178.525C661 178.525 660.333 178.692 659.716 179.025C659.1 179.358 658.5 179.875 657.916 180.575V188H654.966V176.1ZM675.993 188.3C674.476 188.3 673.326 187.917 672.543 187.15C671.776 186.383 671.393 185.242 671.393 183.725V178.75H667.918V176.1H671.393V172.725L674.343 171.45V176.1H678.843V178.75H674.343V183.275C674.343 184.125 674.501 184.725 674.818 185.075C675.151 185.425 675.718 185.6 676.518 185.6C677.501 185.6 678.451 185.317 679.368 184.75L680.118 187.25C678.918 187.95 677.543 188.3 675.993 188.3ZM703.947 188.3C701.747 188.3 700.064 187.583 698.897 186.15C697.747 184.7 697.172 182.608 697.172 179.875C697.172 177.142 697.747 175.058 698.897 173.625C700.064 172.175 701.747 171.45 703.947 171.45C704.897 171.45 705.755 171.592 706.522 171.875C707.289 172.158 708.014 172.608 708.697 173.225L707.172 175.55C706.205 174.683 705.139 174.25 703.972 174.25C701.472 174.25 700.222 176.125 700.222 179.875C700.222 183.625 701.472 185.5 703.972 185.5C704.639 185.5 705.255 185.367 705.822 185.1C706.389 184.833 706.955 184.417 707.522 183.85L709.222 186.025C708.455 186.808 707.647 187.383 706.797 187.75C705.964 188.117 705.014 188.3 703.947 188.3ZM717.499 188.3C716.316 188.3 715.257 188.042 714.324 187.525C713.407 186.992 712.691 186.258 712.174 185.325C711.657 184.375 711.399 183.283 711.399 182.05C711.399 180.817 711.657 179.733 712.174 178.8C712.691 177.85 713.407 177.117 714.324 176.6C715.257 176.067 716.316 175.8 717.499 175.8C718.682 175.8 719.732 176.067 720.649 176.6C721.582 177.117 722.307 177.85 722.824 178.8C723.341 179.733 723.599 180.817 723.599 182.05C723.599 183.283 723.341 184.375 722.824 185.325C722.307 186.258 721.582 186.992 720.649 187.525C719.732 188.042 718.682 188.3 717.499 188.3ZM717.499 185.6C718.466 185.6 719.224 185.292 719.774 184.675C720.324 184.042 720.599 183.167 720.599 182.05C720.599 180.933 720.324 180.067 719.774 179.45C719.224 178.817 718.466 178.5 717.499 178.5C716.532 178.5 715.774 178.817 715.224 179.45C714.674 180.067 714.399 180.933 714.399 182.05C714.399 183.167 714.674 184.042 715.224 184.675C715.774 185.292 716.532 185.6 717.499 185.6ZM726.776 176.1H728.951L729.201 177.125C729.818 176.675 730.443 176.342 731.076 176.125C731.709 175.908 732.376 175.8 733.076 175.8C734.476 175.8 735.551 176.2 736.301 177C737.051 177.783 737.426 178.908 737.426 180.375V188H734.476V180.825C734.476 179.975 734.309 179.375 733.976 179.025C733.659 178.675 733.101 178.5 732.301 178.5C731.434 178.5 730.576 178.725 729.726 179.175V188H726.776V176.1ZM748.503 188.3C746.986 188.3 745.836 187.917 745.053 187.15C744.286 186.383 743.903 185.242 743.903 183.725V178.75H740.428V176.1H743.903V172.725L746.853 171.45V176.1H751.353V178.75H746.853V183.275C746.853 184.125 747.011 184.725 747.328 185.075C747.661 185.425 748.228 185.6 749.028 185.6C750.011 185.6 750.961 185.317 751.878 184.75L752.628 187.25C751.428 187.95 750.053 188.3 748.503 188.3ZM756.48 176.1H758.78L759.08 177.75C759.697 177.083 760.363 176.592 761.08 176.275C761.797 175.958 762.605 175.8 763.505 175.8C764.722 175.8 765.772 176.117 766.655 176.75L765.555 179.3C764.822 178.783 764.047 178.525 763.23 178.525C762.513 178.525 761.847 178.692 761.23 179.025C760.613 179.358 760.013 179.875 759.43 180.575V188H756.48V176.1ZM774.232 188.3C772.782 188.3 771.649 187.967 770.832 187.3C770.032 186.617 769.632 185.667 769.632 184.45C769.632 183.283 770.015 182.392 770.782 181.775C771.565 181.158 772.69 180.85 774.157 180.85H777.882V180.625C777.882 179.792 777.682 179.2 777.282 178.85C776.882 178.483 776.215 178.3 775.282 178.3C773.815 178.3 772.449 178.667 771.182 179.4L770.307 177.025C771.857 176.208 773.624 175.8 775.607 175.8C777.407 175.8 778.724 176.175 779.557 176.925C780.407 177.675 780.832 178.85 780.832 180.45V188H778.657L778.407 186.975C777.757 187.425 777.09 187.758 776.407 187.975C775.74 188.192 775.015 188.3 774.232 188.3ZM774.857 185.8C775.99 185.8 776.999 185.55 777.882 185.05V183.075H774.432C773.799 183.075 773.34 183.183 773.057 183.4C772.774 183.6 772.632 183.917 772.632 184.35C772.632 184.85 772.807 185.217 773.157 185.45C773.524 185.683 774.09 185.8 774.857 185.8ZM791.009 188.3C789.709 188.3 788.575 188.05 787.609 187.55C786.642 187.033 785.9 186.308 785.384 185.375C784.867 184.425 784.609 183.317 784.609 182.05C784.609 180.783 784.867 179.683 785.384 178.75C785.9 177.8 786.642 177.075 787.609 176.575C788.575 176.058 789.709 175.8 791.009 175.8C792.559 175.8 793.975 176.208 795.259 177.025L794.234 179.45C793.617 179.1 793.067 178.858 792.584 178.725C792.117 178.575 791.617 178.5 791.084 178.5C789.95 178.5 789.084 178.8 788.484 179.4C787.9 180 787.609 180.883 787.609 182.05C787.609 183.217 787.9 184.1 788.484 184.7C789.084 185.3 789.95 185.6 791.084 185.6C791.667 185.6 792.217 185.517 792.734 185.35C793.25 185.183 793.85 184.892 794.534 184.475L795.634 186.825C794.25 187.808 792.709 188.3 791.009 188.3ZM806.511 188.3C804.994 188.3 803.844 187.917 803.061 187.15C802.294 186.383 801.911 185.242 801.911 183.725V178.75H798.436V176.1H801.911V172.725L804.861 171.45V176.1H809.361V178.75H804.861V183.275C804.861 184.125 805.019 184.725 805.336 185.075C805.669 185.425 806.236 185.6 807.036 185.6C808.019 185.6 808.969 185.317 809.886 184.75L810.636 187.25C809.436 187.95 808.061 188.3 806.511 188.3ZM818.913 188.3C816.679 188.3 814.771 187.808 813.188 186.825L814.263 184.525C815.563 185.375 817.138 185.8 818.988 185.8C820.704 185.8 821.563 185.392 821.563 184.575C821.563 184.242 821.471 184 821.288 183.85C821.104 183.7 820.771 183.6 820.288 183.55L817.538 183.225C816.271 183.075 815.329 182.725 814.713 182.175C814.113 181.608 813.813 180.8 813.813 179.75C813.813 178.483 814.263 177.508 815.163 176.825C816.079 176.142 817.388 175.8 819.088 175.8C820.954 175.8 822.663 176.2 824.213 177L823.263 179.35C822.679 179.017 822.021 178.758 821.288 178.575C820.554 178.392 819.804 178.3 819.038 178.3C818.254 178.3 817.679 178.4 817.313 178.6C816.946 178.783 816.763 179.083 816.763 179.5C816.763 179.817 816.854 180.05 817.038 180.2C817.238 180.35 817.571 180.45 818.038 180.5L820.788 180.825C822.054 180.975 822.988 181.333 823.588 181.9C824.204 182.467 824.513 183.275 824.513 184.325C824.513 185.608 824.029 186.592 823.063 187.275C822.113 187.958 820.729 188.3 818.913 188.3Z" fill="#B4BE68"/>
</svg>
