<svg width="113" height="130" viewBox="0 0 113 130" fill="none" xmlns="http://www.w3.org/2000/svg">
<path d="M2 55.5862V128H111V2H56.5M2 55.5862L56.5 2M2 55.5862H56.5V2M17.26 68.6207H54.32M17.26 78.7586H71.76M17.26 88.1724H71.76M17.26 99.0345H71.76" stroke="#B4BE68" stroke-width="3"/>
<path d="M90.735 94.1881C83.4962 94.1881 77.6045 100.083 77.6045 107.319C77.6045 114.555 83.4989 120.449 90.735 120.449C97.9712 120.449 103.866 114.555 103.866 107.319C103.866 100.083 97.9712 94.1881 90.735 94.1881ZM90.7156 95.3547C90.9401 95.3605 91.1535 95.4541 91.3102 95.6155C91.4669 95.7769 91.5546 95.9933 91.5545 96.2186C91.5545 96.4477 91.4635 96.6675 91.3015 96.8295C91.1395 96.9915 90.9197 97.0825 90.6906 97.0825C90.4615 97.0825 90.2418 96.9915 90.0797 96.8295C89.9177 96.6675 89.8267 96.4477 89.8267 96.2186C89.8267 96.103 89.8498 95.9886 89.8948 95.8821C89.9397 95.7757 90.0056 95.6793 90.0885 95.5987C90.1714 95.5182 90.2696 95.4551 90.3773 95.4132C90.485 95.3713 90.6001 95.3514 90.7156 95.3547ZM92.6934 96.777C94.2099 97.061 95.6465 97.6718 96.9033 98.5669C98.16 99.462 99.2069 100.62 99.9712 101.96L98.9517 104.26C98.7767 104.658 98.9573 105.124 99.3517 105.302L101.313 106.171C101.374 106.784 101.381 107.402 101.335 108.016H100.243C100.135 108.016 100.091 108.088 100.091 108.194V108.694C100.091 109.871 99.4267 110.13 98.8434 110.194C98.2878 110.258 97.6739 109.96 97.5962 109.621C97.2684 107.78 96.7239 107.388 95.8628 106.708C96.9323 106.03 98.0434 105.027 98.0434 103.688C98.0434 102.241 97.0517 101.33 96.3767 100.883C95.4267 100.258 94.3767 100.133 94.0934 100.133H82.8156C84.3751 98.3904 86.4653 97.211 88.7628 96.777L90.0934 98.1714C90.3934 98.4853 90.8906 98.4992 91.2045 98.1964L92.6934 96.777ZM80.4156 103.171C80.6404 103.178 80.8537 103.272 81.0104 103.433C81.167 103.594 81.2546 103.81 81.2545 104.035C81.2545 104.264 81.1635 104.484 81.0015 104.646C80.8395 104.808 80.6197 104.899 80.3906 104.899C80.1615 104.899 79.9418 104.808 79.7797 104.646C79.6177 104.484 79.5267 104.264 79.5267 104.035C79.5267 103.92 79.5498 103.805 79.5948 103.699C79.6398 103.592 79.7056 103.496 79.7885 103.415C79.8714 103.335 79.9696 103.272 80.0773 103.23C80.185 103.188 80.3001 103.168 80.4156 103.171ZM101.013 103.21C101.238 103.217 101.451 103.311 101.608 103.472C101.764 103.633 101.852 103.849 101.852 104.074C101.852 104.303 101.761 104.523 101.599 104.685C101.437 104.847 101.217 104.938 100.988 104.938C100.759 104.938 100.539 104.847 100.377 104.685C100.215 104.523 100.124 104.303 100.124 104.074C100.124 103.959 100.147 103.844 100.192 103.738C100.237 103.631 100.303 103.535 100.386 103.454C100.469 103.374 100.567 103.311 100.675 103.269C100.782 103.227 100.897 103.207 101.013 103.21ZM82.0434 103.349H83.5489V110.138H80.51C80.1347 108.82 80.0178 107.442 80.1656 106.08L82.0267 105.252C82.4239 105.074 82.6045 104.61 82.4267 104.213L82.0434 103.349ZM88.3267 103.421H91.9128C92.0989 103.421 93.2212 103.635 93.2212 104.477C93.2212 105.174 92.36 105.424 91.6517 105.424H88.3239L88.3267 103.421ZM88.3267 108.299H91.0739C91.3239 108.299 92.4156 108.371 92.7628 109.766C92.8712 110.194 93.1128 111.588 93.2767 112.035C93.4406 112.535 94.1045 113.535 94.8128 113.535H99.2962C98.9957 113.938 98.6671 114.318 98.3128 114.674L96.4878 114.283C96.0628 114.191 95.6434 114.463 95.5517 114.888L95.1184 116.91C93.7249 117.542 92.2116 117.865 90.6819 117.857C89.1521 117.85 87.642 117.513 86.2545 116.869L85.8212 114.846C85.7295 114.421 85.3128 114.149 84.8878 114.241L83.1017 114.624C82.7703 114.282 82.4622 113.918 82.1795 113.535H90.8656C90.9628 113.535 91.0295 113.519 91.0295 113.427V110.355C91.0295 110.266 90.9628 110.246 90.8656 110.246H88.3239L88.3267 108.299ZM84.3184 115.335C84.5431 115.342 84.7565 115.436 84.9131 115.597C85.0698 115.758 85.1574 115.974 85.1573 116.199C85.1573 116.428 85.0663 116.648 84.9042 116.81C84.7422 116.972 84.5225 117.063 84.2934 117.063C84.0643 117.063 83.8445 116.972 83.6825 116.81C83.5205 116.648 83.4295 116.428 83.4295 116.199C83.4294 116.084 83.4526 115.969 83.4976 115.863C83.5425 115.756 83.6084 115.66 83.6913 115.579C83.7742 115.499 83.8724 115.436 83.9801 115.394C84.0878 115.352 84.2028 115.332 84.3184 115.335ZM97.11 115.374C97.3348 115.381 97.5482 115.475 97.7048 115.636C97.8615 115.797 97.949 116.013 97.9489 116.238C97.9489 116.467 97.8579 116.687 97.6959 116.849C97.5339 117.011 97.3142 117.102 97.085 117.102C96.8559 117.102 96.6362 117.011 96.4742 116.849C96.3122 116.687 96.2212 116.467 96.2212 116.238C96.2211 116.122 96.2443 116.008 96.2892 115.902C96.3342 115.795 96.4001 115.699 96.483 115.618C96.5658 115.538 96.6641 115.475 96.7718 115.433C96.8795 115.391 96.9945 115.371 97.11 115.374Z" fill="#B4BE68"/>
<path fill-rule="evenodd" clip-rule="evenodd" d="M103.133 107.319C103.133 110.607 101.827 113.76 99.5021 116.085C97.1771 118.41 94.0238 119.716 90.7359 119.716C87.4479 119.716 84.2947 118.41 81.9697 116.085C79.6448 113.76 78.3387 110.607 78.3387 107.319C78.3387 104.031 79.6448 100.877 81.9697 98.5525C84.2947 96.2275 87.4479 94.9214 90.7359 94.9214C94.0238 94.9214 97.1771 96.2275 99.5021 98.5525C101.827 100.877 103.133 104.031 103.133 107.319ZM102.9 106.121L104.833 107.319L102.9 108.516L104.561 110.069L102.433 110.866L103.761 112.713L101.514 113.08L102.458 115.152L100.183 115.071L100.705 117.288L98.4887 116.766L98.5692 119.041L96.497 118.096L96.1303 120.344L94.2831 119.016L93.4859 121.144L91.9331 119.483L90.7359 121.416L89.5387 119.483L87.9859 121.144L87.1887 119.016L85.3414 120.344L84.9748 118.096L82.9026 119.041L82.9831 116.766L80.7664 117.288L81.2887 115.071L79.0137 115.152L79.9581 113.08L77.7109 112.713L79.0387 110.866L76.9109 110.069L78.572 108.516L76.6387 107.319L78.572 106.121L76.9109 104.569L79.0387 103.771L77.7109 101.924L79.9581 101.558L79.0137 99.4853L81.2887 99.5658L80.7664 97.3492L82.9831 97.8714L82.9026 95.5964L84.9748 96.5408L85.3414 94.2936L87.1887 95.6214L87.9859 93.4936L89.5387 95.1547L90.7359 93.2214L91.9331 95.1547L93.4859 93.4936L94.2831 95.6214L96.1303 94.2936L96.497 96.5408L98.5692 95.5964L98.4887 97.8714L100.705 97.3492L100.183 99.5658L102.458 99.4853L101.514 101.558L103.761 101.924L102.433 103.771L104.561 104.569L102.9 106.121Z" fill="#B4BE68" stroke="#B4BE68" stroke-width="0.5" stroke-linecap="round" stroke-linejoin="round"/>
</svg>
